<svg width="24" height="25" viewBox="0 0 24 25" fill="none" xmlns="http://www.w3.org/2000/svg">
<rect y="0.0979004" width="24" height="24" rx="8" fill="black"/>
<g clip-path="url(#clip0_3802_3242)">
<path fill-rule="evenodd" clip-rule="evenodd" d="M12.0001 4.43115C10.1009 4.43214 8.26401 5.10479 6.81783 6.32883C5.37166 7.55288 4.41052 9.24849 4.10628 11.1125C3.80204 12.9765 4.17454 14.8873 5.15717 16.5033C6.13979 18.1192 7.66848 19.335 9.46987 19.9331C9.86729 20.0069 10.017 19.7606 10.017 19.5511C10.017 19.3417 10.009 18.7345 10.0064 18.0706C7.78085 18.5514 7.31058 17.1315 7.31058 17.1315C6.9476 16.2094 6.42301 15.9671 6.42301 15.9671C5.69706 15.4745 6.47733 15.4837 6.47733 15.4837C7.28143 15.5403 7.70402 16.3043 7.70402 16.3043C8.41672 17.52 9.57585 17.1684 10.0316 16.9629C10.1031 16.4479 10.3111 16.0975 10.5402 15.8986C8.76247 15.6984 6.89461 15.0161 6.89461 11.9681C6.88359 11.1776 7.1786 10.4132 7.71859 9.83294C7.63646 9.63273 7.36224 8.82397 7.79675 7.72544C7.79675 7.72544 8.46839 7.51206 9.99712 8.54078C11.3084 8.18423 12.6918 8.18423 14.0031 8.54078C15.5305 7.51206 16.2008 7.72544 16.2008 7.72544C16.6366 8.82134 16.3624 9.63009 16.2803 9.83294C16.822 10.4133 17.1176 11.1791 17.1056 11.9707C17.1056 15.0253 15.2337 15.6984 13.4533 15.8946C13.7395 16.1423 13.9951 16.6257 13.9951 17.3686C13.9951 18.4329 13.9859 19.289 13.9859 19.5511C13.9859 19.7632 14.1302 20.0108 14.5356 19.9331C16.3372 19.3349 17.866 18.119 18.8487 16.5027C19.8313 14.8865 20.2036 12.9754 19.899 11.1112C19.5944 9.24702 18.6328 7.55139 17.1861 6.32756C15.7395 5.10372 13.9021 4.43151 12.0027 4.43115H12.0001Z" fill="white"/>
<path d="M9.35189 17.4148C9.35189 17.4793 9.27771 17.5346 9.18233 17.5359C9.08695 17.5373 9.00879 17.4846 9.00879 17.42C9.00879 17.3555 9.08297 17.3002 9.17835 17.2989C9.27373 17.2975 9.35189 17.3489 9.35189 17.4148Z" fill="white"/>
<path d="M9.96143 17.3133C9.97335 17.3779 9.90711 17.4451 9.81173 17.4609C9.71635 17.4767 9.63289 17.4385 9.62097 17.3753C9.60905 17.312 9.67794 17.2435 9.77067 17.2264C9.8634 17.2093 9.9495 17.2488 9.96143 17.3133Z" fill="white"/>
<path d="M8.69729 17.3699C8.67742 17.4318 8.58733 17.4595 8.49725 17.4331C8.40717 17.4068 8.34756 17.333 8.36478 17.2698C8.382 17.2066 8.47341 17.1776 8.56481 17.2066C8.65622 17.2356 8.71451 17.3054 8.69729 17.3699Z" fill="white"/>
<path d="M8.09725 17.1119C8.05353 17.1606 7.96478 17.1475 7.89192 17.0816C7.81906 17.0157 7.80183 16.9262 7.84555 16.8788C7.88926 16.8313 7.97802 16.8445 8.05353 16.909C8.12904 16.9736 8.14361 17.0645 8.09725 17.1119Z" fill="white"/>
<path d="M7.66958 16.6693C7.62056 16.7035 7.5371 16.6693 7.49074 16.6008C7.47791 16.5885 7.46772 16.5737 7.46075 16.5574C7.45379 16.5412 7.4502 16.5236 7.4502 16.5059C7.4502 16.4882 7.45379 16.4707 7.46075 16.4544C7.46772 16.4381 7.47791 16.4234 7.49074 16.4111C7.53975 16.3782 7.62321 16.4111 7.66958 16.4783C7.71594 16.5454 7.71727 16.635 7.66958 16.6693Z" fill="white"/>
<path d="M7.35399 16.2121C7.32656 16.2258 7.29517 16.2297 7.2652 16.2229C7.23524 16.2162 7.20856 16.1993 7.18973 16.1752C7.13806 16.1199 7.12746 16.0435 7.1672 16.0092C7.20694 15.975 7.27848 15.9908 7.33015 16.0461C7.38181 16.1014 7.39373 16.1778 7.35399 16.2121Z" fill="white"/>
<path d="M7.02954 15.8526C7.01232 15.8921 6.94873 15.9039 6.89707 15.8763C6.84541 15.8486 6.80699 15.7972 6.82554 15.7564C6.84408 15.7156 6.90635 15.705 6.95801 15.7327C7.00967 15.7604 7.04941 15.8131 7.02954 15.8526Z" fill="white"/>
</g>
<defs>
<clipPath id="clip0_3802_3242">
<rect width="16" height="16" fill="white" transform="translate(4 4.0979)"/>
</clipPath>
</defs>
</svg>
