<svg width="24" height="24" viewBox="0 0 24 24" fill="none" xmlns="http://www.w3.org/2000/svg">
<rect width="24" height="24" rx="8" fill="black"/>
<rect width="24" height="24" rx="8" fill="url(#paint0_linear_11301_10320)"/>
<path d="M9.33695 12C9.33695 10.5273 10.5312 9.33312 12.0048 9.33312C13.4784 9.33312 14.6733 10.5273 14.6733 12C14.6733 13.4727 13.4784 14.6669 12.0048 14.6669C10.5312 14.6669 9.33695 13.4727 9.33695 12ZM7.89443 12C7.89443 14.2688 9.73463 16.1079 12.0048 16.1079C14.275 16.1079 16.1152 14.2688 16.1152 12C16.1152 9.7312 14.275 7.8921 12.0048 7.8921C9.73463 7.8921 7.89443 9.7312 7.89443 12ZM15.3173 7.72922C15.3172 7.91909 15.3735 8.10471 15.479 8.26263C15.5845 8.42054 15.7344 8.54365 15.9099 8.61638C16.0854 8.68911 16.2786 8.7082 16.4649 8.67123C16.6512 8.63426 16.8224 8.5429 16.9568 8.40869C17.0912 8.27449 17.1828 8.10347 17.2199 7.91726C17.2571 7.73106 17.2381 7.53802 17.1655 7.36258C17.0928 7.18713 16.9698 7.03715 16.8119 6.9316C16.6539 6.82605 16.4682 6.76968 16.2783 6.7696H16.2779C16.0232 6.76972 15.779 6.87085 15.5989 7.05077C15.4188 7.2307 15.3175 7.47471 15.3173 7.72922ZM8.77086 18.5118C7.99042 18.4763 7.56623 18.3464 7.28433 18.2366C6.91061 18.0912 6.64395 17.918 6.36359 17.6382C6.08323 17.3584 5.90969 17.0922 5.76483 16.7187C5.65494 16.4371 5.52494 16.013 5.48947 15.233C5.45066 14.3898 5.44291 14.1364 5.44291 12.0001C5.44291 9.86368 5.4513 9.61107 5.48947 8.7671C5.52501 7.98714 5.65597 7.5639 5.76483 7.28147C5.91033 6.90797 6.08362 6.64147 6.36359 6.36128C6.64357 6.08109 6.90997 5.90765 7.28433 5.76288C7.5661 5.65306 7.99042 5.52314 8.77086 5.48768C9.61462 5.4489 9.86809 5.44115 12.0048 5.44115C14.1415 5.44115 14.3952 5.44954 15.2397 5.48768C16.0201 5.5232 16.4436 5.65408 16.7262 5.76288C17.0999 5.90765 17.3666 6.08147 17.647 6.36128C17.9273 6.64109 18.1002 6.90797 18.2457 7.28147C18.3556 7.56307 18.4856 7.98714 18.5211 8.7671C18.5599 9.61107 18.5676 9.86368 18.5676 12.0001C18.5676 14.1364 18.5599 14.3891 18.5211 15.233C18.4855 16.013 18.3549 16.4369 18.2457 16.7187C18.1002 17.0922 17.9269 17.3587 17.647 17.6382C17.367 17.9178 17.0999 18.0912 16.7262 18.2366C16.4444 18.3464 16.0201 18.4764 15.2397 18.5118C14.3959 18.5506 14.1425 18.5583 12.0048 18.5583C9.86713 18.5583 9.61437 18.5506 8.77086 18.5118ZM8.70458 4.04845C7.85242 4.08723 7.27012 4.22227 6.76159 4.42003C6.23494 4.62426 5.7891 4.89824 5.34359 5.34278C4.89807 5.78733 4.62463 6.2336 4.42028 6.75994C4.22241 7.26848 4.08728 7.85011 4.04848 8.70176C4.00903 9.55475 4 9.82746 4 12C4 14.1725 4.00903 14.4452 4.04848 15.2982C4.08728 16.15 4.22241 16.7315 4.42028 17.2401C4.62463 17.7661 4.89814 18.2129 5.34359 18.6572C5.78904 19.1016 6.23494 19.3752 6.76159 19.58C7.27108 19.7777 7.85242 19.9128 8.70458 19.9516C9.55853 19.9903 9.83095 20 12.0048 20C14.1786 20 14.4515 19.991 15.305 19.9516C16.1572 19.9128 16.7391 19.7777 17.248 19.58C17.7743 19.3752 18.2205 19.1018 18.666 18.6572C19.1115 18.2127 19.3844 17.7661 19.5893 17.2401C19.7872 16.7315 19.9229 16.1499 19.9611 15.2982C19.9999 14.4446 20.0089 14.1725 20.0089 12C20.0089 9.82746 19.9999 9.55475 19.9611 8.70176C19.9223 7.85005 19.7872 7.26816 19.5893 6.75994C19.3844 6.23392 19.1108 5.78803 18.666 5.34278C18.2212 4.89754 17.7743 4.62426 17.2486 4.42003C16.7391 4.22227 16.1572 4.08659 15.3056 4.04845C14.4521 4.00966 14.1793 4 12.0054 4C9.83159 4 9.55853 4.00902 8.70458 4.04845Z" fill="white"/>
<path d="M9.33695 12C9.33695 10.5273 10.5312 9.33312 12.0048 9.33312C13.4784 9.33312 14.6733 10.5273 14.6733 12C14.6733 13.4727 13.4784 14.6669 12.0048 14.6669C10.5312 14.6669 9.33695 13.4727 9.33695 12ZM7.89443 12C7.89443 14.2688 9.73463 16.1079 12.0048 16.1079C14.275 16.1079 16.1152 14.2688 16.1152 12C16.1152 9.7312 14.275 7.8921 12.0048 7.8921C9.73463 7.8921 7.89443 9.7312 7.89443 12ZM15.3173 7.72922C15.3172 7.91909 15.3735 8.10471 15.479 8.26263C15.5845 8.42054 15.7344 8.54365 15.9099 8.61638C16.0854 8.68911 16.2786 8.7082 16.4649 8.67123C16.6512 8.63426 16.8224 8.5429 16.9568 8.40869C17.0912 8.27449 17.1828 8.10347 17.2199 7.91726C17.2571 7.73106 17.2381 7.53802 17.1655 7.36258C17.0928 7.18713 16.9698 7.03715 16.8119 6.9316C16.6539 6.82605 16.4682 6.76968 16.2783 6.7696H16.2779C16.0232 6.76972 15.779 6.87085 15.5989 7.05077C15.4188 7.2307 15.3175 7.47471 15.3173 7.72922ZM8.77086 18.5118C7.99042 18.4763 7.56623 18.3464 7.28433 18.2366C6.91061 18.0912 6.64395 17.918 6.36359 17.6382C6.08323 17.3584 5.90969 17.0922 5.76483 16.7187C5.65494 16.4371 5.52494 16.013 5.48947 15.233C5.45066 14.3898 5.44291 14.1364 5.44291 12.0001C5.44291 9.86368 5.4513 9.61107 5.48947 8.7671C5.52501 7.98714 5.65597 7.5639 5.76483 7.28147C5.91033 6.90797 6.08362 6.64147 6.36359 6.36128C6.64357 6.08109 6.90997 5.90765 7.28433 5.76288C7.5661 5.65306 7.99042 5.52314 8.77086 5.48768C9.61462 5.4489 9.86809 5.44115 12.0048 5.44115C14.1415 5.44115 14.3952 5.44954 15.2397 5.48768C16.0201 5.5232 16.4436 5.65408 16.7262 5.76288C17.0999 5.90765 17.3666 6.08147 17.647 6.36128C17.9273 6.64109 18.1002 6.90797 18.2457 7.28147C18.3556 7.56307 18.4856 7.98714 18.5211 8.7671C18.5599 9.61107 18.5676 9.86368 18.5676 12.0001C18.5676 14.1364 18.5599 14.3891 18.5211 15.233C18.4855 16.013 18.3549 16.4369 18.2457 16.7187C18.1002 17.0922 17.9269 17.3587 17.647 17.6382C17.367 17.9178 17.0999 18.0912 16.7262 18.2366C16.4444 18.3464 16.0201 18.4764 15.2397 18.5118C14.3959 18.5506 14.1425 18.5583 12.0048 18.5583C9.86713 18.5583 9.61437 18.5506 8.77086 18.5118ZM8.70458 4.04845C7.85242 4.08723 7.27012 4.22227 6.76159 4.42003C6.23494 4.62426 5.7891 4.89824 5.34359 5.34278C4.89807 5.78733 4.62463 6.2336 4.42028 6.75994C4.22241 7.26848 4.08728 7.85011 4.04848 8.70176C4.00903 9.55475 4 9.82746 4 12C4 14.1725 4.00903 14.4452 4.04848 15.2982C4.08728 16.15 4.22241 16.7315 4.42028 17.2401C4.62463 17.7661 4.89814 18.2129 5.34359 18.6572C5.78904 19.1016 6.23494 19.3752 6.76159 19.58C7.27108 19.7777 7.85242 19.9128 8.70458 19.9516C9.55853 19.9903 9.83095 20 12.0048 20C14.1786 20 14.4515 19.991 15.305 19.9516C16.1572 19.9128 16.7391 19.7777 17.248 19.58C17.7743 19.3752 18.2205 19.1018 18.666 18.6572C19.1115 18.2127 19.3844 17.7661 19.5893 17.2401C19.7872 16.7315 19.9229 16.1499 19.9611 15.2982C19.9999 14.4446 20.0089 14.1725 20.0089 12C20.0089 9.82746 19.9999 9.55475 19.9611 8.70176C19.9223 7.85005 19.7872 7.26816 19.5893 6.75994C19.3844 6.23392 19.1108 5.78803 18.666 5.34278C18.2212 4.89754 17.7743 4.62426 17.2486 4.42003C16.7391 4.22227 16.1572 4.08659 15.3056 4.04845C14.4521 4.00966 14.1793 4 12.0054 4C9.83159 4 9.55853 4.00902 8.70458 4.04845Z" fill="white"/>
<defs>
<linearGradient id="paint0_linear_11301_10320" x1="23.5387" y1="24" x2="-0.461279" y2="-6.46012e-07" gradientUnits="userSpaceOnUse">
<stop stop-color="#FBE18A"/>
<stop offset="0.21" stop-color="#FCBB45"/>
<stop offset="0.38" stop-color="#F75274"/>
<stop offset="0.52" stop-color="#D53692"/>
<stop offset="0.74" stop-color="#8F39CE"/>
<stop offset="1" stop-color="#5B4FE9"/>
</linearGradient>
</defs>
</svg>
