<svg width="88" height="88" viewBox="0 0 88 88" fill="none" xmlns="http://www.w3.org/2000/svg">
<g clip-path="url(#clip0_12085_4834)">
<path d="M44 88C68.3005 88 88 68.3005 88 44C88 19.6995 68.3005 0 44 0C19.6995 0 0 19.6995 0 44C0 68.3005 19.6995 88 44 88Z" fill="#FCFF52"/>
<path fill-rule="evenodd" clip-rule="evenodd" d="M68.6154 19.2262H19.3846V68.7773H68.6189V51.48H60.449C57.633 57.7913 51.2934 62.1843 44.0387 62.1843C34.0384 62.1843 25.9389 53.9616 25.9389 43.9683C25.9389 33.9715 34.0384 25.8192 44.0387 25.8192C51.4342 25.8192 57.7738 30.3565 60.5898 36.8051H68.6189V19.2262H68.6154Z" fill="black"/>
</g>
<defs>
<clipPath id="clip0_12085_4834">
<rect width="88" height="88" fill="white"/>
</clipPath>
</defs>
</svg>
