<svg width="120" height="120" viewBox="0 0 120 120" fill="none" xmlns="http://www.w3.org/2000/svg">
<g clip-path="url(#clip0_9933_116)">
<path d="M60 120C93.1371 120 120 93.1371 120 60C120 26.8629 93.1371 0 60 0C26.8629 0 0 26.8629 0 60C0 93.1371 26.8629 120 60 120Z" fill="#FCFF52"/>
<path fill-rule="evenodd" clip-rule="evenodd" d="M93.5664 26.2176H26.4336V93.7872H93.5712V70.2H82.4304C78.5904 78.8064 69.9456 84.7968 60.0528 84.7968C46.416 84.7968 35.3712 73.584 35.3712 59.9568C35.3712 46.3248 46.416 35.208 60.0528 35.208C70.1376 35.208 78.7824 41.3952 82.6224 50.1888H93.5712V26.2176H93.5664Z" fill="black"/>
</g>
<defs>
<clipPath id="clip0_9933_116">
<rect width="120" height="120" fill="white"/>
</clipPath>
</defs>
</svg>
