<svg width="40" height="40" viewBox="0 0 40 40" fill="none" xmlns="http://www.w3.org/2000/svg">
<path d="M37.7851 27.106C38.022 27.5803 38.0609 28.1291 37.8932 28.632C37.7256 29.1349 37.3652 29.5507 36.8912 29.788L20.8915 37.788C20.6139 37.9267 20.3078 37.9989 19.9975 37.9989C19.6872 37.9989 19.3811 37.9267 19.1035 37.788L3.10384 29.788C2.6464 29.5413 2.30294 29.1262 2.14623 28.6307C1.98952 28.1352 2.03186 27.5981 2.26429 27.1332C2.49671 26.6684 2.90097 26.3122 3.39142 26.1403C3.88187 25.9683 4.42 25.994 4.89181 26.212L19.9975 33.76L35.1052 26.21C35.5794 25.9732 36.1283 25.9343 36.6312 26.1019C37.1341 26.2695 37.5499 26.63 37.7872 27.104M37.7872 19.104C38.024 19.5783 38.0629 20.1271 37.8952 20.63C37.7276 21.1329 37.3672 21.5487 36.8932 21.786L20.8935 29.786C20.6159 29.9247 20.3098 29.9969 19.9995 29.9969C19.6892 29.9969 19.3831 29.9247 19.1055 29.786L3.10584 21.786C2.6484 21.5393 2.30494 21.1242 2.14823 20.6287C1.99152 20.1332 2.03386 19.5961 2.26629 19.1312C2.49871 18.6664 2.90297 18.3102 3.39342 18.1383C3.88387 17.9663 4.422 17.992 4.89381 18.21L19.9975 25.76L35.1052 18.21C35.5794 17.9732 36.1283 17.9343 36.6312 18.1019C37.1341 18.2695 37.5499 18.63 37.7872 19.104ZM20.0135 2C20.0882 2 20.1622 2.00467 20.2355 2.014L20.4575 2.054L20.6295 2.102L20.6535 2.114L20.6775 2.118L20.7355 2.146L20.8355 2.184L20.8675 2.202L20.8915 2.212L36.8912 10.212C37.2229 10.3783 37.5019 10.6336 37.6968 10.9493C37.8918 11.2651 37.995 11.6289 37.995 12C37.995 12.3711 37.8918 12.7349 37.6968 13.0506C37.5019 13.3664 37.2229 13.6217 36.8912 13.788L20.8915 21.788C20.6139 21.9267 20.3078 21.9989 19.9975 21.9989C19.6872 21.9989 19.3811 21.9267 19.1035 21.788L3.10384 13.788C2.77209 13.6217 2.49313 13.3664 2.29819 13.0506C2.10325 12.7349 2 12.3711 2 12C2 11.6289 2.10325 11.2651 2.29819 10.9493C2.49313 10.6336 2.77209 10.3783 3.10384 10.212L19.1035 2.212L19.1255 2.202L19.1615 2.182L19.3175 2.118L19.3395 2.114L19.3655 2.102L19.5375 2.054L19.7575 2.014L19.8695 2.004L20.0135 2Z" fill="#767A81"/>
</svg>
