<svg width="81" height="80" viewBox="0 0 81 80" fill="none" xmlns="http://www.w3.org/2000/svg">
<circle cx="40.5" cy="40" r="40" fill="white" fill-opacity="0.07"/>
<g clip-path="url(#clip0_11563_11745)">
<path d="M58.7872 47.106C59.0241 47.5802 59.0629 48.1291 58.8953 48.632C58.7277 49.1349 58.3673 49.5507 57.8932 49.788L41.8936 57.788C41.616 57.9267 41.3099 57.9989 40.9996 57.9989C40.6893 57.9989 40.3832 57.9267 40.1056 57.788L24.1059 49.788C23.6485 49.5413 23.305 49.1262 23.1483 48.6307C22.9916 48.1351 23.0339 47.598 23.2664 47.1332C23.4988 46.6683 23.903 46.3122 24.3935 46.1402C24.8839 45.9683 25.4221 45.994 25.8939 46.212L40.9996 53.76L56.1073 46.21C56.5815 45.9731 57.1304 45.9343 57.6333 46.1019C58.1362 46.2695 58.5519 46.6299 58.7892 47.104M58.7892 39.104C59.0261 39.5782 59.0649 40.1271 58.8973 40.63C58.7297 41.1329 58.3693 41.5487 57.8952 41.786L41.8956 49.786C41.618 49.9247 41.3119 49.9969 41.0016 49.9969C40.6913 49.9969 40.3852 49.9247 40.1076 49.786L24.1079 41.786C23.6505 41.5393 23.307 41.1242 23.1503 40.6287C22.9936 40.1331 23.0359 39.596 23.2684 39.1312C23.5008 38.6663 23.905 38.3102 24.3955 38.1382C24.8859 37.9663 25.4241 37.992 25.8959 38.21L40.9996 45.76L56.1073 38.21C56.5815 37.9731 57.1304 37.9343 57.6333 38.1019C58.1362 38.2695 58.5519 38.6299 58.7892 39.104ZM41.0156 22C41.0902 22 41.1642 22.0046 41.2376 22.014L41.4596 22.054L41.6316 22.102L41.6556 22.114L41.6796 22.118L41.7376 22.146L41.8376 22.184L41.8696 22.202L41.8936 22.212L57.8932 30.212C58.225 30.3782 58.504 30.6335 58.6989 30.9493C58.8938 31.2651 58.9971 31.6289 58.9971 32C58.9971 32.3711 58.8938 32.7348 58.6989 33.0506C58.504 33.3664 58.225 33.6217 57.8932 33.788L41.8936 41.788C41.616 41.9267 41.3099 41.9989 40.9996 41.9989C40.6893 41.9989 40.3832 41.9267 40.1056 41.788L24.1059 33.788C23.7742 33.6217 23.4952 33.3664 23.3003 33.0506C23.1053 32.7348 23.0021 32.3711 23.0021 32C23.0021 31.6289 23.1053 31.2651 23.3003 30.9493C23.4952 30.6335 23.7742 30.3782 24.1059 30.212L40.1056 22.212L40.1276 22.202L40.1636 22.182L40.3196 22.118L40.3416 22.114L40.3676 22.102L40.5396 22.054L40.7596 22.014L40.8716 22.004L41.0156 22Z" fill="#767A81"/>
</g>
<defs>
<clipPath id="clip0_11563_11745">
<rect width="36" height="36" fill="white" transform="translate(23 22)"/>
</clipPath>
</defs>
</svg>
