<svg width="24" height="25" viewBox="0 0 24 25" fill="none" xmlns="http://www.w3.org/2000/svg">
<rect y="0.62085" width="24" height="24" rx="8" fill="white" fill-opacity="0.05"/>
<rect y="0.62085" width="24" height="24" rx="8" fill="#04D8BE"/>
<path d="M11.6634 6.43022C11.8011 6.15119 12.199 6.15119 12.3367 6.43022L14.1194 10.0423C14.1741 10.1531 14.2798 10.2299 14.402 10.2477L18.3882 10.8269C18.6961 10.8716 18.8191 11.2501 18.5963 11.4673L15.7119 14.2789C15.6234 14.3651 15.583 14.4894 15.6039 14.6112L16.2848 18.5812C16.3374 18.8879 16.0155 19.1218 15.7401 18.977L12.1747 17.1026C12.0654 17.0451 11.9347 17.0451 11.8253 17.1026L8.26001 18.977C7.98459 19.1218 7.66269 18.8879 7.71529 18.5812L8.39621 14.6112C8.4171 14.4894 8.37672 14.3651 8.28824 14.2789L5.40382 11.4673C5.181 11.2501 5.30396 10.8716 5.61189 10.8269L9.59806 10.2477C9.72033 10.2299 9.82604 10.1531 9.88073 10.0423L11.6634 6.43022Z" stroke="white" stroke-width="1.2" stroke-linejoin="round"/>
</svg>
