<svg xmlns="http://www.w3.org/2000/svg" width="88" height="88" fill="none" viewBox="0 0 88 88"><rect width="88" height="88" fill="#ef5a28" rx="44"/><path fill="#fff" d="M59.274 21.247 48.697 36.96c-.73 1.07.676 2.365 1.688 1.464l10.408-9.067c.281-.225.675-.056.675.338v28.329c0 .394-.506.563-.731.281L29.232 20.571c-1.012-1.24-2.475-1.915-4.106-1.915H24c-2.925 0-5.344 2.422-5.344 5.407v39.874a5.405 5.405 0 0 0 5.4 5.407c1.857 0 3.601-.957 4.614-2.59L39.246 51.04c.732-1.07-.675-2.365-1.687-1.464l-10.408 9.01c-.281.226-.675.057-.675-.337V29.976c0-.394.506-.563.731-.281l31.504 37.734c1.013 1.24 2.532 1.915 4.107 1.915h1.125c2.982 0 5.401-2.422 5.401-5.407V24.063a5.405 5.405 0 0 0-5.4-5.407 5.45 5.45 0 0 0-4.67 2.59"/></svg>