<svg width="88" height="88" viewBox="0 0 88 88" fill="none" xmlns="http://www.w3.org/2000/svg">
<circle cx="44" cy="44" r="44" transform="matrix(-1 0 0 1 88 0)" fill="#EDF0F4"/>
<path d="M30.7981 35.163C31.7363 34.6233 32.9426 34.6233 34.0148 35.163L41.5205 39.6152L46.6136 42.4485L53.9852 46.9007C54.9234 47.4404 56.1297 47.4404 57.2019 46.9007L62.9652 43.3929C63.9034 42.8532 64.5735 41.7739 64.5735 40.5596V33.8138C64.5735 32.7345 64.0374 31.6552 62.9652 30.9806L57.2019 27.6077C56.2637 27.068 55.0574 27.068 53.9852 27.6077L48.2219 31.1155C47.2837 31.6552 46.6136 32.7345 46.6136 33.9488V38.401L41.5205 35.4328V30.8457C41.5205 29.7664 42.0566 28.687 43.1288 28.0125L53.8512 21.6714C54.7894 21.1317 55.9957 21.1317 57.0679 21.6714L68.0583 28.1474C69.1306 28.687 69.6667 29.7664 69.6667 30.8457V43.5278C69.6667 44.6071 69.1306 45.6864 68.0583 46.361L57.2019 52.7021C56.2637 53.2417 55.0574 53.2417 53.9852 52.7021L46.6136 48.3848L41.5205 45.4166L34.1488 41.0993C33.2106 40.5596 32.0044 40.5596 30.9321 41.0993L25.1688 44.4722C24.2306 45.0119 23.5605 46.0912 23.5605 47.3054V54.0512C23.5605 55.1306 24.0966 56.2099 25.1688 56.8845L30.7981 60.2574C31.7363 60.797 32.9426 60.797 34.0148 60.2574L39.7781 56.8845C40.7163 56.3448 41.3864 55.2655 41.3864 54.0512V49.7339L46.4796 52.7021V57.1543C46.4796 58.2336 45.9434 59.313 44.8712 59.9875L34.0148 66.3286C33.0766 66.8682 31.8703 66.8682 30.7981 66.3286L19.9417 59.9875C19.0035 59.4479 18.3333 58.3685 18.3333 57.1543V44.3373C18.3333 43.258 18.8695 42.1786 19.9417 41.5041L30.7981 35.163Z" fill="#8247E5"/>
</svg>
