<svg width="120" height="120" viewBox="0 0 120 120" fill="none" xmlns="http://www.w3.org/2000/svg">
<circle cx="60" cy="60" r="60" transform="matrix(-1 0 0 1 120 0)" fill="#EDF0F4"/>
<path d="M41.9974 47.9496C43.2768 47.2136 44.9217 47.2136 46.3838 47.9496L56.6188 54.0208L63.564 57.8843L73.6162 63.9555C74.8956 64.6914 76.5405 64.6914 78.0026 63.9555L85.8616 59.1721C87.141 58.4362 88.0548 56.9644 88.0548 55.3086V46.1098C88.0548 44.638 87.3238 43.1662 85.8616 42.2463L78.0026 37.6469C76.7232 36.911 75.0783 36.911 73.6162 37.6469L65.7572 42.4303C64.4778 43.1662 63.564 44.638 63.564 46.2938V52.365L56.6188 48.3175V42.0623C56.6188 40.5905 57.3499 39.1187 58.812 38.1988L73.4334 29.5519C74.7128 28.816 76.3577 28.816 77.8198 29.5519L92.8068 38.3828C94.2689 39.1187 95 40.5905 95 42.0623V59.3561C95 60.8279 94.2689 62.2997 92.8068 63.2196L78.0026 71.8665C76.7232 72.6024 75.0783 72.6024 73.6162 71.8665L63.564 65.9792L56.6188 61.9318L46.5666 56.0445C45.2872 55.3086 43.6423 55.3086 42.1802 56.0445L34.3211 60.6439C33.0418 61.3798 32.1279 62.8516 32.1279 64.5074V73.7062C32.1279 75.178 32.859 76.6499 34.3211 77.5697L41.9974 82.1691C43.2768 82.905 44.9217 82.905 46.3838 82.1691L54.2428 77.5697C55.5222 76.8338 56.436 75.362 56.436 73.7062V67.819L63.3812 71.8665V77.9377C63.3812 79.4095 62.6501 80.8813 61.188 81.8012L46.3838 90.4481C45.1044 91.184 43.4595 91.184 41.9974 90.4481L27.1932 81.8012C25.9138 81.0653 25 79.5935 25 77.9377V60.4599C25 58.9881 25.7311 57.5163 27.1932 56.5964L41.9974 47.9496Z" fill="#8247E5"/>
</svg>
