<svg width="120" height="120" viewBox="0 0 120 120" fill="none" xmlns="http://www.w3.org/2000/svg">
<g clip-path="url(#clip0_9925_12916)">
<circle cx="60" cy="60" r="60" fill="#988430"/>
<circle cx="60" cy="60" r="58.0781" fill="#7A6A2A"/>
<circle cx="60" cy="60" r="56.8544" fill="#BA9F33"/>
<path fill-rule="evenodd" clip-rule="evenodd" d="M26.233 53.5923C25.8931 53.2819 25.5341 52.9709 25.2038 52.6605C24.8736 52.3501 24.5344 52.039 24.1946 51.7286L23.1846 50.7686C23.0195 50.6035 22.8448 50.4582 22.6797 50.2925C22.5146 50.1472 22.3206 49.9821 22.1555 49.8362C20.8154 48.5645 19.4675 47.2928 18.1459 46.0205C19.5149 47.273 20.855 48.5165 22.224 49.7875L22.6995 50.2637C22.8646 50.4282 23.0394 50.5741 23.2045 50.7392L24.2138 51.671C24.5536 51.9814 24.8838 52.2925 25.2237 52.631C25.5635 52.9696 25.8938 53.2813 26.2336 53.591L26.233 53.5923ZM8.44672 53.4003C8.44672 53.4003 13.3203 53.9046 15.6992 54.2445C17.9027 54.5555 24.7962 55.6134 24.7962 55.6134L8.44672 53.4003ZM8.44672 53.4003C9.81568 53.5168 11.1846 53.6621 12.5536 53.808C13.2525 53.8758 13.9226 53.9533 14.5926 54.0211L15.6211 54.1382C15.961 54.1862 16.2912 54.2349 16.631 54.2835L20.7091 54.9338L22.7475 55.2736C23.4176 55.3901 24.0877 55.5168 24.7866 55.6333C24.1165 55.5654 23.4176 55.4682 22.7475 55.3709L20.7091 55.0797L16.631 54.4781C16.2912 54.4294 15.961 54.361 15.6211 54.313L14.592 54.1946C13.9219 54.1267 13.223 54.0294 12.553 53.9514C11.184 53.7869 9.81504 53.6115 8.44608 53.3984L8.44672 53.4003ZM24.311 56.8832C24.311 56.8832 19.1072 58.2042 17.3498 58.7091C15.6218 59.1846 10.3885 60.777 10.3885 60.777L24.3104 56.8838L24.311 56.8832Z" fill="#CFB66C"/>
<path fill-rule="evenodd" clip-rule="evenodd" d="M24.3104 56.8832C23.1552 57.223 22.0064 57.5533 20.8346 57.8643L17.3587 58.7962C16.2035 59.136 15.0547 59.4662 13.9027 59.8061L12.1747 60.2816C11.6019 60.4467 11.0195 60.592 10.4275 60.7578C10.9997 60.5658 11.5827 60.3693 12.1555 60.2042L13.8835 59.6512C15.0387 59.2915 16.1875 58.9517 17.3395 58.5926C18.5139 58.3014 19.6698 57.9904 20.8442 57.7088C21.9603 57.4272 23.1354 57.1462 24.3104 56.8838V56.8832ZM11.1168 63.9808C11.689 63.767 18.2912 60.6899 19.8253 59.9712C20.5933 59.6115 22.8256 58.8192 22.8256 58.8192L11.1168 63.9808Z" fill="#CFB66C"/>
<path fill-rule="evenodd" clip-rule="evenodd" d="M11.1168 63.9808C11.6211 63.7888 12.0973 63.5539 12.5824 63.3306L14.0192 62.6605L16.903 61.2723C17.863 60.816 18.7962 60.3123 19.7862 59.8835C20.2912 59.6704 20.7962 59.4957 21.3005 59.3306L22.0685 59.088C22.3302 59.0202 22.5734 58.9421 22.8365 58.8742C21.8765 59.3306 20.8659 59.719 19.9046 60.1651C18.9446 60.6413 17.9629 61.0298 16.9722 61.4566L14.0403 62.7475C13.056 63.1462 12.096 63.5731 11.1162 63.9808H11.1168ZM11.7568 66.6688C11.7568 66.6688 17.737 63.1642 19.7952 62.0378C20.873 61.4362 24.3584 59.7075 24.3584 59.7075L11.7568 66.6688Z" fill="#CFB66C"/>
<path fill-rule="evenodd" clip-rule="evenodd" d="M11.7574 66.6701C12.7667 66.0486 13.7958 65.4176 14.825 64.777L16.361 63.8445C16.8851 63.5341 17.3901 63.2429 17.9245 62.9325C18.4486 62.6214 18.9536 62.311 19.4874 62.0198C19.7415 61.8629 20.0077 61.7266 20.2835 61.6122L21.0989 61.2045C22.1766 60.6803 23.2544 60.1459 24.3904 59.6896C23.3613 60.3405 22.3027 60.8941 21.2448 61.4662C20.7206 61.7574 20.1862 62.0198 19.6621 62.311C19.1379 62.6022 18.633 62.9133 18.0986 63.1949C17.5744 63.5053 17.0694 63.7965 16.5357 64.0781L14.953 64.9421L11.7587 66.6701H11.7574ZM24.3104 60.4755C24.3104 60.4755 20.592 63.3299 19.3882 64.2426C18.1843 65.1552 14.6406 67.7184 14.6406 67.7184L24.3104 60.4755Z" fill="#CFB66C"/>
<path fill-rule="evenodd" clip-rule="evenodd" d="M45.6506 83.495L43.7478 79.8931L44.8544 75.3882L52.7475 72.3398L49.3882 65.447L51.0483 58.4858L54.1651 52.2522L63.7965 50.7379L70.8736 43.9904L86.1555 45.1456L89.1552 61.4854L83.3786 82.0582L80.0877 92.7091L66.7475 93.2141L60.5536 88.9229L53.3011 85.8931L45.6506 83.495Z" fill="#E2CC85"/>
<path fill-rule="evenodd" clip-rule="evenodd" d="M69.049 83.3786C69.049 83.3786 67.2038 84.2234 64.057 84.0288C63.1462 82.8058 56.768 82.233 56.768 82.233C56.768 82.233 55.9718 81.9904 54.5638 82.5728C53.1469 83.1488 51.8067 83.0778 50.5542 83.3882C49.3018 83.6986 48.0582 82.0678 47.0982 81.728C46.1382 81.369 44.8653 80.505 44.8653 80.505L42.1773 80.2426L36.7795 77.961L28.2042 69.4176L25.8739 73.0656L25.1552 77.5802L27.7478 82.9299L34.7283 89.289L48.3398 92.745L56.4077 90.368L66.5146 86.096L69.049 83.3779V83.3786Z" fill="#F1D789"/>
<path fill-rule="evenodd" clip-rule="evenodd" d="M20.6893 53.1846L22.4173 47.952L24.4762 44.5728L31.1066 44.0192L29.1162 49.8253L23.5731 59.6896L25.8739 68.4954L21.7965 70.5338L20.5434 68.6118L19.5341 64.2042L19.4662 59.2525L20.6893 53.1846Z" fill="#F4ECB4"/>
<path fill-rule="evenodd" clip-rule="evenodd" d="M28.1261 83.0195L26.8544 81.2429C26.8544 81.2429 26.5146 80.3981 26.7091 79.6602C26.9011 78.9126 26.8736 78.864 26.777 78.5824C26.6803 78.3008 25.8643 77.3299 25.913 76.4947C25.961 75.6499 25.8451 75.3683 26.4659 74.6989C27.1162 74.0486 26.9222 72.9222 26.9222 72.9222L27.767 73.4464L27.959 73.1552C27.959 73.1552 28.2694 73.3978 28.2694 73.7766C28.3373 73.2525 28.0557 70.825 28.6963 70.272C29.337 69.719 30.473 72.864 30.473 72.864L29.7741 68.3008L27.9776 63.6218L24.7834 59.3498L24.5914 54.6406V54.233C24.5914 54.233 23.1251 56.4858 22.7174 58.265C22.4262 59.488 23.1251 60.9734 22.9798 62.7309C22.8627 64.4787 22.7174 64.3424 23.1443 65.0349C23.5712 65.7274 24.6106 67.1514 24.2029 68.1805C23.8438 69.0643 22.6202 68.4429 22.6202 68.4429C22.6202 68.4429 22.3776 69.161 22.0474 69.4234C21.9309 68.9965 21.8048 68.7245 21.5718 68.4634C21.552 68.6285 21.504 68.8518 21.504 68.8518C21.504 68.8518 21.2902 68.1818 21.0765 67.337C20.7859 66.2112 20.4749 64.7258 20.1933 63.9296C20.0768 64.3859 19.7856 65.7741 19.7856 65.7741L19.9507 67.9104L20.7469 70.8422L21.5149 72.7622L22.2624 75.1117L22.912 76.6899L23.4362 77.8938L23.8925 80.6029L26.096 82.9325L27.271 83.4573L28.1248 83.0202L28.1261 83.0195Z" fill="#F3E19D"/>
<path fill-rule="evenodd" clip-rule="evenodd" d="M21.8445 48.9126C21.8445 48.9126 20.2618 51.6006 19.8061 54.3104C19.3504 57.0202 18.9421 59.8835 19.2301 63.5725C19.5213 67.2915 20.0749 69.5725 20.5216 71.2038C21.2896 73.913 23.2787 77.68 23.2787 77.68L23.3466 77.5341C23.0122 76.9003 22.7454 76.2332 22.5504 75.5437C22.288 74.5146 22.1907 73.2915 21.9482 72.7379C21.7344 72.185 21.3754 71.7088 21.2006 71.0291C21.0355 70.3789 21.0086 69.3498 20.5018 68.583C20.288 68.272 20.0256 67.4566 19.9482 66.6413C19.8509 65.4176 19.9968 64.0486 19.8803 62.9229C19.6666 61.049 19.5213 59.7773 19.7152 58.7962C19.9091 57.815 20.9197 55.0298 21.5411 52.816C21.9488 51.3984 21.7056 50.2042 22.4531 48.9709C23.2006 47.7478 23.6576 46.6701 23.8221 45.9226C24.0141 45.2429 21.8419 48.9126 21.8419 48.9126H21.8445Z" fill="#F2E8B0"/>
<path fill-rule="evenodd" clip-rule="evenodd" d="M29.3498 47.8349C29.3498 47.8349 28.5344 48.0781 28.1459 48.505C27.7574 48.9126 27.5923 49.2525 27.0682 49.9418C26.544 50.631 26.5146 51.1942 26.087 52.0582C25.6602 52.903 24.7181 54.1747 24.6016 54.631C24.4851 55.0874 24.2912 57.223 24.0486 58.233C23.8349 59.2429 24.2912 60.4858 24.2912 60.4858L24.8442 60.3686C24.8442 60.3686 24.8442 61.0874 25.3978 61.5731C25.9507 62.0486 26.048 59.961 26.048 59.961L28.1158 52.9805L31.232 50.864L31.5718 49.1552L29.3485 47.8349H29.3498Z" fill="#F5EEC0"/>
<path fill-rule="evenodd" clip-rule="evenodd" d="M30.864 51.0003C30.864 51.0003 29.3978 51.097 28.6797 51.6218C28.3885 51.8349 28.272 52.0096 27.9616 52.272C27.3888 52.7475 26.8058 53.1846 26.5248 53.808C26.2138 54.4288 25.8739 55.3709 25.641 57.1475C25.5437 57.895 25.5437 58.5843 25.4758 59.1866C25.3786 60.0019 25.2333 60.6522 25.3107 61.1066C25.408 62.0384 26.3693 62.5242 26.4627 63.5821L28.4531 62.5728L30.327 55.184L34.3078 52.688L32.055 50.1638L30.8614 50.9958L30.864 51.0003Z" fill="#E6DB9D"/>
<path fill-rule="evenodd" clip-rule="evenodd" d="M20.3635 100.755C20.3718 100.682 20.3802 100.609 20.3885 100.534C20.679 98.0378 20.7283 96.1459 20.9414 94.9613C21.2518 93.2819 21.4656 92.6573 21.417 92.0288C21.3491 91.0195 21.2717 90.2816 21.369 89.5046C21.5142 88.4755 22.5242 87.2525 22.4954 86.4077C22.4755 85.7376 22.1357 85.3011 21.8445 84.8934C21.5533 84.4858 21.3203 84.1459 21.3203 84.1459C21.3203 84.1459 23.3107 82.777 23.2915 77.2621C23.3322 77.2735 23.3713 77.2899 23.408 77.3107L24.3885 80.0966L25.0586 80.912L27.6314 85.7082L30.9421 88.9222L35.8349 92.2131L38.903 95.552L39.2134 104.455L35.2038 109.659L34.5472 110.848C29.3304 108.229 24.5465 104.825 20.3629 100.754L20.3635 100.755Z" fill="#E5CB7A"/>
<path fill-rule="evenodd" clip-rule="evenodd" d="M32.6118 109.272C32.6118 109.272 32.6797 108.165 33.5923 107.446C33.7382 107.689 33.8349 107.923 33.8061 108.097C33.9712 107.806 35.1264 105.942 37.7382 105.456C40.3501 104.98 40.9811 103.078 40.9811 103.078L46.5242 98.039L52.864 92.2042L60.5728 89.495L64.1754 88.6112C64.1754 88.6112 64.2432 88.8736 64.1075 89.456C64.777 89.408 66.2624 89.0682 67.8061 88.5242C68.4275 88.2816 69.0106 88.1843 69.321 88.505C69.7773 88.9318 69.8451 89.9418 69.8739 90.5434C70.6214 90.3782 71.4854 89.6602 72.1779 89.728C73.2851 89.8445 74.2656 91.1456 75.392 91.1456C76.8774 91.1456 77.5469 90.233 78.5862 89.5142C79.2077 89.0874 80.1005 88.5542 80.6054 88.1939C81.8093 87.3101 94.5472 83.417 94.5472 83.417L99.0131 83.7082L99.7318 88.5043L99.3478 101.042C99.3005 101.087 99.2531 101.135 99.2051 101.18L78.8992 111.786L50.752 116.1C44.4469 115.07 38.3624 112.977 32.7578 109.911L32.6138 109.271L32.6118 109.272Z" fill="#D8C173"/>
<path fill-rule="evenodd" clip-rule="evenodd" d="M22.0704 102.349C22.4704 101.513 22.8301 100.813 22.8934 100.563C22.9434 101.068 23.0349 102.174 23.2192 103.35C22.8322 103.021 22.4493 102.688 22.0704 102.349V102.349Z" fill="#F1D789"/>
<path fill-rule="evenodd" clip-rule="evenodd" d="M42.6317 114.148L46.272 113.136L46.5824 113.233C46.5824 113.233 46.7475 113.331 46.7475 113.66C47.2038 113.398 47.5923 113.446 47.8739 113.272C48.0192 113.583 48.1645 114.612 48.8058 114.738C49.4752 114.884 50.1939 114.447 50.9222 113.894C51.6403 113.321 52.4582 112.602 53.0771 112.311C53.3042 112.729 53.5053 113.16 53.6794 113.602C54.4947 112.952 55.9123 110.311 57.9315 110.359C58.5151 108.98 59.4901 107.802 60.736 106.971C62.6099 105.699 63.7843 105.602 65.2506 105.718C65.8329 104.962 66.5506 104.32 67.367 103.825C67.6096 103.923 68.2797 104.33 69.1149 103.942C69.9597 103.554 70.9107 102.049 72.1632 101.855C72.8381 101.762 73.5244 101.906 74.105 102.262C74.105 102.262 77.753 98.6406 80.2701 97.4368C80.1728 97.1456 79.9789 96.0486 82.9299 93.6211C83.095 93.767 82.9786 94.1747 83.095 94.1971C83.143 94.1971 83.863 93.8867 84.7744 93.1872C85.9008 92.343 87.2499 91.4592 88.0653 91.2166C89.6013 90.7603 91.2307 91.6922 91.2307 91.6922C91.3693 91.595 91.5237 91.5227 91.687 91.4784C92.0749 91.4106 92.3565 91.3619 92.5702 91.2864C92.551 91.7914 92.8326 92.6554 92.5702 93.4029C92.8742 93.5738 93.1962 93.7105 93.5302 93.8106C93.3658 94.1696 93.0061 95.0822 92.4045 95.5194C92.9088 95.7619 92.9766 96.0435 93.6954 96.2874C93.4042 96.695 92.9274 97.3946 92.7149 97.8234C92.5011 98.2797 91.7338 100.173 91.3939 100.891C91.0349 101.61 90.5498 102.93 90.3162 103.195C90.0826 103.46 89.2384 104.583 88.5882 105.136C89.1642 104.922 91.5206 104.204 92.5203 103.932C92.2227 104.369 90.7142 106.607 89.264 108.759C75.2171 117.178 58.2262 119.145 42.6272 114.158L42.6317 114.148Z" fill="#E0CD81"/>
<path fill-rule="evenodd" clip-rule="evenodd" d="M31.104 50.7379C31.104 50.7379 30.2598 50.7379 30.0947 50.8544C29.9296 50.9709 30.9395 51.2141 31.2499 51.3306C31.5603 51.447 32.2304 51.9808 32.4051 52.4083C32.5702 52.816 38.473 55.1942 38.473 55.1942L42.6477 54.9805L44.087 52.992L41.3491 50.5939L43.2691 44.9338L40.7258 45.3414L34.6093 48.9894L31.5411 50.1645L31.104 50.7379Z" fill="#DFC57C"/>
<path fill-rule="evenodd" clip-rule="evenodd" d="M40.272 52.6118C40.3948 52.8107 40.6144 52.929 40.848 52.9222C41.712 52.9222 42.5075 53.136 42.8378 53.5725C43.3914 54.272 44.9254 56.505 44.9254 56.505L48.5952 57.8253L48.832 53.504L44.8224 50.7181L40.2592 52.3974V52.6112H40.2694L40.272 52.6118Z" fill="#E5CC7C"/>
<path fill-rule="evenodd" clip-rule="evenodd" d="M39.552 54.2138C39.552 54.2138 40.2214 54.2624 41.0662 53.9514C41.911 53.6403 43.2992 52.9709 43.9014 53.2333C44.7456 53.5923 44.5709 54.7187 45.4842 55.7293C46.0371 56.3507 47.047 56.3315 47.6198 57.0016C48.1926 57.6717 50.1632 57.3606 50.1632 57.3606L50.9107 61.3926L47.911 65.2378L46.9299 70.0141H42.8736L39.168 68.544L37.3427 64.128L38.2554 59.6621L39.552 54.2138Z" fill="#D2C281"/>
<path fill-rule="evenodd" clip-rule="evenodd" d="M47.3984 54.4077C47.499 54.4387 47.6035 54.4551 47.7088 54.4563C47.5923 54.5536 47.3491 54.7667 47.4464 55.3203C47.5437 55.8739 47.8541 56.5728 47.5923 56.9997C47.8013 57.2282 47.9571 57.5 48.0486 57.7958C48.2138 58.272 48.2624 58.7085 49.3395 58.777C49.1841 58.8727 49.0407 58.9868 48.9126 59.1168C48.9126 59.1168 49.6602 59.767 50.039 60.3686C50.4269 60.352 51.456 60.032 51.456 60.032L51.6698 60.1779L52.1261 59.9859C52.1261 59.9859 51.6992 59.8208 52.0096 58.7821C52.3008 57.8694 52.5632 57.9181 52.5856 57.8502C52.608 57.7824 52.7994 56.8211 52.7994 56.4326C52.9446 55.9283 53.0611 54.3942 53.0611 54.3942L52.7507 51.0061L51.0035 49.9475L49.5827 48.576L48.2426 51.1002L47.36 51.9802L47.2922 54.1645L47.3984 54.4077Z" fill="#E2C270"/>
<path fill-rule="evenodd" clip-rule="evenodd" d="M51.6019 51.5731C51.6019 51.5731 51.9123 52.4563 52.0294 53.136C52.0707 53.0039 52.0935 52.8667 52.0973 52.7283C52.0973 52.7283 52.3398 54.0685 52.3878 54.6221C52.4851 54.6022 52.5798 54.5734 52.6016 54.6701C52.6234 54.7667 52.8448 55.8451 52.7936 56.4467C53.1979 55.7797 53.7573 55.2203 54.4243 54.816C54.8128 54.5728 55.2691 54.311 55.7453 54.2912C56.4928 54.272 57.0362 54.7674 57.9296 54.7674C60.0845 54.7674 62.0365 53.1846 63.4733 52.6995C64.5312 52.3398 65.4438 52.0781 66.0845 51.495C66.3955 51.2333 66.9491 50.6509 67.4534 49.7862C68.1235 48.6342 68.8224 47.6314 69.5219 47.5053C69.2054 47.5634 68.8834 47.5862 68.5619 47.5731C68.5619 47.5731 68.7757 47.3594 69.1379 47.0682C69.5002 46.777 69.9341 46.4179 70.5549 46.4179C71.6621 46.4179 72.215 46.5824 72.8365 46.5824C73.4579 46.5632 73.817 46.4179 73.817 46.4179C73.817 46.4179 74.4678 46.8742 75.9334 46.8742C77.3997 46.8934 78.3802 47.0195 79.1475 47.088C79.9149 47.1565 82.487 46.8742 83.225 46.896C83.7061 46.9145 84.1785 47.0301 84.6138 47.2358L82.2349 40.3238L73.6896 32.855L68.6022 36.457L60.7763 44.2822L53.2038 47.088L51.6211 48.8646V51.5731H51.6019Z" fill="#CCB360"/>
<path fill-rule="evenodd" clip-rule="evenodd" d="M68.5926 47.6115C68.5926 47.6115 68.8064 47.3984 69.1648 47.1072C69.5232 46.816 69.9616 46.4563 70.5824 46.4563C71.689 46.4563 72.2426 46.6214 72.864 46.6214C73.4854 46.6022 73.8445 46.4563 73.8445 46.4563C73.8445 46.4563 74.496 46.912 75.961 46.912C77.4272 46.9312 78.4077 47.0573 79.175 47.1251C79.9424 47.193 82.5146 46.912 83.2525 46.9331C83.7334 46.9512 84.2057 47.0669 84.6406 47.273L83.5629 44.1562L82.311 41.7779L78.7379 37.865C78.7379 37.865 74.4499 35.3408 74.4173 35.3216C74.3981 35.3024 72.9318 34.9139 72.9318 34.9139L69.0483 37.2634L65.5245 46.3802L65.4566 48.3002L67.7376 49.3779C68.3104 48.4179 68.9421 47.6499 69.5341 47.5526C68.9997 47.6109 68.592 47.6109 68.592 47.6109L68.5926 47.6115Z" fill="#D5B457"/>
<path fill-rule="evenodd" clip-rule="evenodd" d="M68.544 48.2624C68.2042 48.2816 67.9232 48.2138 67.8451 47.9712C67.5539 47.1558 67.321 47.0394 67.0771 47.0394C66.8333 47.0394 66.5043 47.5635 66.3091 47.6115C66.1139 47.6595 65.8822 47.0099 65.8822 47.0099L65.6685 46.9126C65.6685 46.9126 64.416 47.728 63.5328 48.6893C62.6496 49.6506 61.2026 51.2819 60.5523 51.5725C59.9021 51.863 57.6685 51.961 56.9043 52.1261C56.1402 52.2912 55.2928 52.8448 55.1763 52.9709C55.0598 53.097 55.5168 53.2326 55.5846 53.3587C55.6525 53.4752 54.8365 53.4266 54.7686 53.5507C54.7206 53.648 54.9606 54.201 55.0797 54.4826C55.288 54.379 55.5165 54.3226 55.7491 54.3174C56.4966 54.2982 57.0406 54.7936 57.9334 54.7936C60.089 54.7936 62.0403 53.2109 63.4771 52.7251C64.5357 52.3661 65.4483 52.1037 66.089 51.5213C66.3994 51.2595 66.953 50.6765 67.4579 49.8125C67.8266 49.2205 68.1862 48.6669 68.5459 48.2592L68.544 48.2624Z" fill="#D2B257"/>
<path fill-rule="evenodd" clip-rule="evenodd" d="M37.632 96.311C37.632 96.311 37.44 95.5923 35.6608 93.7382C35.1558 93.2141 34.8454 92.7782 34.5056 92.4666C33.6608 91.6698 33.1654 91.4566 32.5638 91.0003C31.2435 90.0198 29.8067 90.0198 28.7002 88.816C27.5936 87.6122 26.304 85.312 25.408 82.9613C24.5248 80.6118 24.2816 79.8643 24.2816 79.7965C24.2816 79.7286 24.5248 79.2723 24.8352 79.3402C25.1456 79.408 25.1456 80.0096 25.2237 80.1555C25.3783 80.3937 25.5537 80.6177 25.7478 80.825C26.2042 81.3498 26.8544 81.977 27.1846 82.9126C27.1168 82.1165 26.8448 81.2333 26.8448 81.2333C26.8448 81.2333 28.5536 82.311 30.0096 83.4368C31.4758 84.5632 32.0774 84.9517 32.5056 85.6698C32.9338 86.3878 33.9424 88.2816 34.4256 88.8352C34.9088 89.3888 41.5296 91.4758 41.5296 91.4758L44.679 93.824L46.2426 97.2512L45.0189 99.1712L42.6694 99.6762L38.8538 97.9674L37.632 96.3104V96.311Z" fill="#D2B159"/>
<path fill-rule="evenodd" clip-rule="evenodd" d="M29.1552 84.505C29.1552 84.505 29.9514 85.7766 31.8931 86.9805C33.641 88.039 36.4077 89.0003 38.8742 89.5731C40.2912 89.913 41.7088 90.1747 42.9805 90.1946C46.4077 90.2426 48.7667 89.2627 51.6896 88.9421C53.2723 88.777 55.2141 88.6509 57.2333 88.1741C59.8253 87.5526 61.3594 86.8531 63.447 85.8701C64.9613 85.1712 66.3501 84.647 67.4758 83.977C69.0586 83.0451 70.2138 82.0064 71.5539 81.696C71.3888 82.1523 71.2141 82.9677 69.8938 83.8125C70.5926 83.7926 71.5539 83.7446 71.5539 83.7446C71.5539 83.7446 70.6221 84.2976 68.9811 85.5405C67.9712 86.3085 66.6317 87.6083 65.2627 88.4723C64.3789 89.0259 63.4176 89.4323 62.7866 89.7638C61.2506 90.6086 60.631 91.0355 59.6218 92.0678C59.9808 92.0486 60.0102 92.0678 60.0102 92.0678C60.0102 92.0678 58.7379 92.233 57.8259 92.7181C57.6339 92.7181 57.3011 92.6502 56.7187 92.8154C56.2624 92.9606 55.6602 93.2915 55.0394 93.4656C54.1555 93.728 53.865 93.6115 53.865 93.6115L54.0102 93.9027C54.0102 93.9027 52.8582 93.8829 52.4742 93.9219C52.5421 93.9411 52.5229 93.9706 52.5229 93.9706C52.4554 93.9819 52.3905 94.0048 52.3309 94.0384C52.1461 94.1581 51.9428 94.2466 51.7293 94.3002C51.6128 94.3194 51.5155 94.3194 51.3696 94.3488C51.4182 94.4653 51.7971 95.1168 51.9718 95.5008C51.8266 95.5981 49.6416 97.2486 49.6416 97.2486C49.7094 97.3553 49.7648 97.4693 49.8067 97.5885C49.8746 97.8016 49.904 98.1126 49.9718 98.2579C50.1363 98.5491 50.2336 98.5978 50.2336 98.5978C50.2336 98.5978 49.9718 98.6464 49.5149 98.7629C49.127 98.8602 48.6509 99.0246 47.9789 99.1219C47.7727 99.1487 47.5653 99.165 47.3574 99.1706C47.4547 99.3843 47.8816 100.2 47.095 101.141C46.3085 102.083 46.0659 102.22 45.8234 102.821C45.7013 102.729 45.5713 102.647 45.4349 102.578C45.1731 102.461 44.8134 102.287 44.6874 102.054C44.6139 102.365 44.5165 102.67 44.3962 102.966C44.1536 103.617 43.7946 104.258 43.7267 104.743C43.4643 104.452 42.9792 103.879 42.3091 103.996C41.639 104.112 41.1053 105.025 40.9888 105.287C40.9888 105.122 40.8723 104.996 40.8435 105.19C40.8237 105.404 40.455 107.636 38.3968 109.442C38.3776 108.986 38.3776 107.976 38.329 107.646C38.137 107.838 37.9021 108.122 36.5037 108.724C35.1347 109.325 35.3517 109.928 35.3517 109.928C35.3517 109.928 35.2352 108.968 35.9731 107.956C36.7206 106.947 37.177 106.471 37.177 106.394C37.1649 106.315 37.1312 106.241 37.0797 106.18C36.9824 106.083 36.7885 105.966 36.7885 105.889C36.905 105.841 38.0602 105.287 37.9923 104.141C37.9245 103.112 37.488 102.578 37.177 102.2C37.129 102.151 37.6339 101.792 37.5654 101.676C37.5168 101.608 36.896 101.151 36.8179 100.908C36.8363 100.762 36.8689 100.619 36.9152 100.481C36.983 100.267 37.0317 100.121 37.0125 99.9757C36.9638 99.7331 36.7014 99.063 36.624 98.9952C36.6918 99.0144 37.177 98.9952 37.177 98.9952C37.177 98.9952 36.7891 98.3738 36.7206 98.0826C36.6522 97.7914 36.5069 97.024 36.4294 96.8787C36.5946 96.8979 37.0022 96.9267 37.0022 96.8787C37.0221 96.7328 36.6432 96.4902 36.8102 96.3027C36.9267 96.3219 37.1501 96.4192 37.3632 96.6912C37.2467 96.3802 37.0528 95.7786 36.6445 95.536C36.8365 95.4682 37.4893 95.2928 38.0621 95.6326C38.6349 95.9725 38.8301 96.448 38.8301 96.448C38.8301 96.448 39.1699 96.7104 39.6947 97.0989C40.2963 97.5744 41.063 98.2509 42.2867 98.7296C42.5491 98.8755 43.2186 98.8755 43.7043 98.7782C43.9158 98.7278 44.1186 98.6461 44.3059 98.5357C44.3735 98.4958 44.4452 98.4632 44.5197 98.4384C44.4153 98.2289 44.2953 98.0276 44.1606 97.8362C44.3258 97.8362 44.5197 97.856 44.5197 97.856C44.5197 97.856 44.6362 97.5936 44.112 97.088C44.2285 96.9715 44.3744 96.896 44.3744 96.6995C44.2093 96.6803 43.9181 96.4378 43.8502 96.3405C43.9469 96.2726 44.0928 96.0493 44.2579 95.9814C44.112 95.865 43.753 95.3792 43.5878 95.3312C43.7456 95.2726 43.8982 95.2011 44.0442 95.1174C44.0442 95.1174 43.2288 94.9037 42.9664 94.729C42.704 94.537 42.3162 94.2048 42.0832 94.1075C41.84 94.0102 41.4131 93.9622 41.2384 93.7677C41.4029 93.8163 41.6653 93.7677 41.8598 93.7677C42.0051 93.7677 42.0736 93.7869 42.1216 93.7869C42.1024 93.719 42.1024 93.5731 42.4813 93.5251C42.6635 93.4976 42.8404 93.4419 43.0054 93.36C43.0054 93.36 42.6458 93.3408 42.2374 92.9523C41.8291 92.5638 41.4899 92.2534 41.257 92.2048C41.0144 92.1562 40.5581 92.3699 40.2765 92.3501C39.888 92.3021 39.7229 92.1075 39.7229 92.1075C39.7229 92.1075 38.432 92.224 35.568 90.4768C33.0918 88.9619 32.0141 87.6224 32.0141 87.6224C31.7823 87.5383 31.5584 87.4342 31.3446 87.3114C30.4128 86.8262 29.1213 85.8163 29.1603 84.4954L29.1552 84.505Z" fill="#C2A44D"/>
<path fill-rule="evenodd" clip-rule="evenodd" d="M64.8736 26.233C65.0982 26.3059 65.2978 26.4405 65.4496 26.6214C65.9059 27.1456 66.1971 28.1357 65.1584 29.1942C65.5661 29.3395 65.7344 29.3862 66.0902 29.3395C65.7312 29.767 64.9158 30.6797 64.8672 31.4758C64.8186 32.1261 65.2262 32.3206 65.2262 32.3206C65.2262 32.3206 64.6048 33.0387 64.576 34.2406C64.8695 33.9097 65.1906 33.6044 65.536 33.328C66.2547 32.7552 67.2448 32.105 67.9149 31.6973C67.9058 31.8681 67.9288 32.0392 67.9827 32.2016C67.9827 32.2016 69.2346 31.1725 70.2867 31.6294C70.7622 31.8432 70.5485 32.5126 70.5485 32.5126C70.5485 32.5126 71.1994 32.2701 71.6557 32.7264C72.112 33.1827 72.7571 34.3597 73.088 34.816C73.2333 35.0298 73.6122 35.4374 74 36.0685C74.5299 36.952 74.9723 37.885 75.321 38.8544C75.3402 38.3494 75.4662 37.5635 76.9037 38.0582C78.3405 38.5632 79.9712 39.6218 81.3402 41.7062C82.7091 43.7907 83.0483 46.144 83.7376 47.04C84.4365 47.904 85.1552 49.3408 85.2038 49.943C85.2525 50.5453 84.9901 52.4864 86.4269 57.7389C86.8346 56.1082 87.456 52.4864 87.456 52.4864L87.7958 49.2922L88.1843 39.4086L77.8637 30.8346L69.7958 24.9798L64.5434 25.4848L64.873 26.2323L64.8736 26.233Z" fill="#CAA13E"/>
<path fill-rule="evenodd" clip-rule="evenodd" d="M84.0486 40.9414C84.0486 40.9414 83.9027 39.9814 81.4758 38.3494C79.0483 36.7379 77.1552 36.7379 75.408 35.369C74.0678 34.2912 72.6701 31.815 71.76 30.9997C70.8762 30.1939 70.7309 27.8637 70.7309 27.8637L73.7114 25.3677L78.144 18.9606L81.8912 14.8346L83.687 17.3306L86.183 20.2624L87.5712 26.1459L88.0762 34.7578L84.0442 40.9421L84.0486 40.9414Z" fill="#B59544"/>
<path fill-rule="evenodd" clip-rule="evenodd" d="M87.049 51.264C87.1224 49.958 86.9611 48.6494 86.5728 47.4003C85.9328 45.4099 84.5344 41.8758 83.8848 40.5523C83.6224 39.0861 83.817 38.9696 84.0986 38.8045C84.3802 38.6394 85.4387 38.0365 86.0186 35.9213C86.5984 33.8061 88.3974 33.737 88.3974 33.737L89.504 32.9216L91.184 37.1251L92.6496 40.9216L93.1059 43.8246L93.4458 46.3002L92.6496 51.5334L88.7181 55.0867L87.0483 51.264H87.049Z" fill="#C89D3A"/>
<path fill-rule="evenodd" clip-rule="evenodd" d="M32.185 109.593V109.485C32.2667 109.434 32.3388 109.369 32.3981 109.293C32.4659 109.196 32.5152 109.08 32.5632 109.051C32.6605 109.002 33.1168 108.859 33.3594 108.905C33.6019 108.951 34.2432 109.215 34.583 109.196C35.2819 109.177 36.0973 108.643 37.3888 108.886C39.3306 109.245 39.7869 110.565 40.9133 111.313C41.6813 111.837 42.4762 111.604 42.5926 111.604H42.8544C42.903 111.604 43.2621 111.196 43.4566 111.216C43.8451 111.235 43.8835 111.556 44.1261 111.575C44.6989 111.643 45.8061 111.284 46.3597 111.43C46.6929 111.534 46.9539 111.795 47.0586 112.128C47.175 112.487 47.0778 112.943 46.7962 113.206C46.1946 113.759 45.6218 114.284 45.5053 114.742C45.6534 114.855 45.7957 114.975 45.9315 115.103C41.1278 113.879 36.506 112.028 32.185 109.599V109.593Z" fill="#CEB052"/>
<path fill-rule="evenodd" clip-rule="evenodd" d="M83.8835 90.1946C83.8835 90.1946 85.3978 88.1754 85.9226 87.175C86.4467 86.144 84.2624 73.088 84.2624 73.088L88.6509 58.7098L88.5338 54.0301C88.5338 54.0301 88.7475 49.7094 89.2525 47.8355C89.8547 48.9133 91.7286 50.2144 92.1363 50.9037C92.3283 49.5827 92.9805 46.7968 92.8838 43.8259C93.2429 44.3789 94.1069 49.9424 94.1069 49.9424L94.9709 53.6896L96.0973 57.6704L97.3498 61.8746L98.0973 64.7776L98.5242 65.4765L98.8838 66.6995L99.2237 68.0205L100.204 71.1174L100.78 73.6608L101.236 78.2726C101.336 78.6258 101.407 78.9861 101.45 79.3504C101.469 79.8554 101.382 80.1466 101.382 80.2342C101.382 80.3219 101.548 81.3408 101.48 82.1082C101.382 82.8762 101.382 83.4771 100.78 84.0282C100.178 84.5792 99.7997 87.8726 99.7997 87.8726L98.7219 87.1546C98.7219 87.1546 98.9357 86.1734 98.4307 85.2806C97.9258 84.3878 96.9453 84.2029 96.3917 84.3488C95.8387 84.4653 94.7322 84.6394 94.3725 84.9504C94.0326 85.2608 93.1981 86.2221 92.4307 86.6592C91.4707 87.2352 89.9066 87.2806 89.072 87.4746C88.2272 87.6666 87.2954 88.2426 86.3142 88.9114C85.545 89.4094 84.7328 89.8378 83.8874 90.1914L83.8835 90.1946Z" fill="#CCA847"/>
<path fill-rule="evenodd" clip-rule="evenodd" d="M83.8835 111.408C83.8835 111.408 83.9475 111.45 84.071 111.517C90.9687 108.286 97.149 103.705 102.247 98.0454C102.191 96.0806 102.119 94.0666 102.04 93.3203C101.875 91.7376 101.992 90.1261 101.943 89.1942C101.894 88.2624 101.37 84.4659 101.128 83.4854C100.865 82.505 100.36 82.0192 100.283 82.0192C100.215 82.039 99.8067 83.8643 99.8067 84.3232C99.8067 84.7821 99.7094 85.8867 99.7094 86.1683C99.6416 86.1485 99.6128 85.9763 99.6128 85.9059C99.5155 86.1485 99.399 86.576 99.3504 86.6246C99.3018 86.6733 99.4182 86.217 99.3504 86.1197C99.2826 86.0224 99.1584 86.071 99.1853 85.8285C99.1968 85.6846 99.2194 85.5419 99.2531 85.4016C99.2531 85.4016 98.9619 85.8285 98.7488 86.9158C98.535 87.9936 98.535 88.023 98.4576 88.1197C98.3898 88.2368 98.0013 88.6246 97.9814 88.7706C97.9622 89.0323 98.3411 89.2947 98.3699 89.44C98.3891 89.6832 98.0301 90.809 97.9136 91.36C97.7971 91.911 97.8458 92.9907 97.7216 93.5443C97.6243 94.0493 97.5296 94.3405 97.1974 94.5536C97.44 94.6022 97.673 94.6701 97.673 94.6701C97.673 94.6701 98.0128 96.1069 97.1488 97.3306C96.8384 97.7574 96.761 97.952 96.4307 98.3405C95.7798 99.0586 95.2749 99.8765 95.2262 100.408C95.1926 100.251 95.17 100.092 95.1584 99.9322C95.1584 99.9322 94.1491 101.107 93.7216 101.777C93.1686 102.641 92.4013 102.593 92.1856 102.806C91.9699 103.02 91.9232 103.408 91.9936 103.719C91.8016 103.767 91.4406 103.836 91.1974 104.583C91.081 104.971 90.7898 105.351 90.3334 105.612C89.8771 105.873 89.3235 105.952 89.0419 106.02C89.2845 106.088 89.3818 106.088 89.4982 106.165C89.353 106.408 88.6829 106.787 87.9354 107.272C87.1878 107.729 86.8282 108.398 86.6438 108.835C86.4518 109.243 86.1683 109.505 85.712 109.554C85.904 109.67 86.1882 109.942 86.3334 110.029C86.1197 110.078 85.7574 110.078 85.1104 110.632C84.4307 111.195 84.1978 111.36 83.8867 111.409L83.8835 111.408Z" fill="#C39D3C"/>
<path fill-rule="evenodd" clip-rule="evenodd" d="M70.3744 115.907C70.7462 115.647 71.1488 115.433 71.5731 115.272C73.0874 114.67 74.6893 114.554 75.3203 114.36C75.9226 114.168 76.3981 113.903 77.1456 113.757C77.1258 113.928 77.1091 114.088 77.0912 114.239C74.8874 114.932 72.6432 115.489 70.3712 115.907H70.3744Z" fill="#D2BA6B"/>
<path fill-rule="evenodd" clip-rule="evenodd" d="M98.304 76.0781C98.304 76.0781 97.9936 77.7574 97.44 78.816C96.8864 79.8746 96.288 81.3402 96.288 81.3402C96.2916 81.0099 96.3307 80.681 96.4045 80.359C95.7056 80.7667 94.0064 81.7478 93.5245 82.1843C93.0682 82.592 92.3008 83.3107 92.1069 83.6506C92.5632 82.311 93.0387 81.1072 93.1168 80.5536C92.4179 81.0586 89.1552 83.7478 87.4566 85.5245L82.1651 89.8061C81.5545 90.1355 80.9256 90.4299 80.2816 90.688C79.3696 91.0758 78.2918 91.4061 77.4957 91.7171C77.7094 91.1443 78.0486 90.6387 78.5248 90.1536C79.0298 89.6781 80.544 88.0371 80.777 87.2736C80.9907 86.4774 81.0394 86.0019 80.7578 85.3318C80.4954 85.3997 79.8938 85.4291 79.4861 85.5456C79.0784 85.6621 78.6413 86.0986 78.6413 86.0986C78.6413 86.0986 78.9517 84.3219 79.6218 82.6426C79.1168 82.6618 78.2528 82.807 78.2528 82.807C78.2528 82.807 79.4566 80.7878 81.5168 79.3805C80.8859 79.5148 80.2685 79.7063 79.6723 79.9526C78.4685 80.4576 77.1482 81.2051 76.1677 81.6128C76.7206 80.8448 80.6042 75.3024 82.9152 70.137C85.2192 64.9818 86.08 63.6614 86.585 60.8947C86.8467 59.5258 86.777 57.5027 86.8467 55.6909C86.9146 53.8944 87.1379 52.2829 86.9926 51.2051C87.5942 51.9526 89.847 54.0595 89.9245 58.7686C89.9923 63.4771 87.7696 69.8368 85.4099 73.2634C85.9859 73.4285 87.4784 73.623 89.0118 70.9594C90.5453 68.2957 90.5267 67.552 91.0803 66.4448C91.1482 66.9984 91.1283 67.1923 91.1283 67.1923C91.1283 67.1923 93.3619 64.4838 94.4198 61.0758C94.6336 62.5421 95.2646 63.8336 94.2739 66.5229C93.3907 68.9498 92.2355 69.5424 92.2355 69.5424C92.2355 69.5424 92.8083 69.4451 93.6525 68.9402C93.7984 69.2992 93.7696 69.7082 94.0122 69.8528C94.2547 69.9974 94.585 70.2413 94.6336 70.4742C94.8954 70.0858 95.303 69.5904 95.4298 69.2218C95.3325 69.9898 95.2646 73.3478 95.6218 75.0566C96.3699 74.9888 97.1366 74.9402 97.6608 73.5904C97.3018 74.9114 97.3018 75.7069 97.5443 76.8333C97.9424 76.5619 98.3014 76.0762 98.3014 76.0762L98.304 76.0781Z" fill="#C0993A"/>
<path fill-rule="evenodd" clip-rule="evenodd" d="M73.0778 22.5632C73.0778 22.5632 72.3302 22.8736 71.0586 22.8736C69.952 22.8736 70.2624 22.4467 68.5344 22.4467C65.8746 22.4467 56.583 23.9827 54.9517 23.961C53.8931 23.9418 58.5242 24.4173 58.5242 24.4173L70.3597 24.5824L72.7379 24.3904L73.6218 22.592L73.0778 22.5632Z" fill="#A88F33"/>
<path fill-rule="evenodd" clip-rule="evenodd" d="M42.3885 45.6992C42.3885 45.6992 40.8736 46.8544 40.233 47.7382C39.5923 48.6221 39.2525 49.2038 38.5242 49.9226C38.6951 49.9291 38.8659 49.9061 39.0291 49.8547C39.0291 49.8547 39.0291 50.0467 38.9126 50.0973C39.1165 50.0745 39.3197 50.145 39.4656 50.2893C39.2518 50.4058 38.6694 50.9888 39.1258 51.6781C39.4656 52.2022 40.1843 52.2502 40.1843 52.2502C40.1843 52.2502 40.0192 52.7264 40.7085 52.6778C42.1939 52.6099 43.8541 51.959 44.6208 52.1242C45.3888 52.3162 45.8253 52.3866 46.3686 53.3286C46.9446 54.2605 47.4464 54.4064 47.4464 54.4064C47.4464 54.4064 47.7862 53.5418 47.7088 52.2509C47.9874 51.5551 48.1419 50.8157 48.1651 50.0666L47.6602 46.3482L45.4566 43.5616L42.6022 45.1443L42.3885 45.6973V45.6992Z" fill="#E3C571"/>
<path fill-rule="evenodd" clip-rule="evenodd" d="M45.097 45.1456C45.097 45.1456 45.3107 45.6506 46.2042 45.6986C46.1069 45.9123 46.1069 45.9418 46.1363 46.1062C46.1555 46.2714 46.1843 46.5139 46.1843 46.5139C46.2827 46.4663 46.3716 46.4013 46.4467 46.3219C46.4954 46.5357 46.3981 46.8749 46.4467 47.1181C46.4767 47.266 46.5255 47.4094 46.592 47.545C46.6062 47.5118 46.6224 47.4795 46.6406 47.4483C46.6598 47.3997 46.8326 47.9725 47.3107 48.4083C47.3103 48.3413 47.3268 48.2753 47.3587 48.2163C47.366 48.3381 47.4063 48.4555 47.4752 48.5562C47.4394 48.5391 47.4067 48.5162 47.3786 48.4883C47.3786 48.4883 47.4266 50.0243 47.689 50.8186C47.7328 50.7672 47.7718 50.712 47.8054 50.6534C47.8054 50.6054 47.7862 51.081 47.7376 51.4214C47.6698 51.7613 47.7184 52.2368 47.7184 52.2368C47.8934 52.099 48.0858 51.9847 48.2906 51.897C48.5818 51.7798 49.0586 51.4208 49.3491 50.6246C49.5177 50.1738 49.6476 49.7094 49.7376 49.2365C49.8315 49.4172 49.8963 49.6116 49.9296 49.8125C49.9494 50.055 50.4058 49.929 50.4058 49.929L50.503 48.8704L51.079 46.4723L51.6032 44.9869L54.1274 41.0554L58.688 37.543L62.6688 38.4557L66.0275 33.8925L60.2413 30.4166L54.7654 30.9894L49.7958 37.8726L45.8157 44.1158L45.097 45.145L45.097 45.1456Z" fill="#D8B65B"/>
<path fill-rule="evenodd" clip-rule="evenodd" d="M73.7766 35.1846C73.7766 35.1846 73.4368 35.2525 72.4563 35.7606C71.4758 36.2688 70.7962 36.4301 70.4173 37.1776C70.0384 37.9251 70.0096 38.5178 70.0096 38.5178C70.0096 38.5178 70.6797 38.2266 71.0682 38.1293C71.4758 38.0326 71.9322 38.0614 71.8835 38.2266C71.8368 38.3398 71.772 38.4446 71.6915 38.537C71.6915 38.537 72.4595 38.5178 72.439 38.8966C72.4186 39.2755 72.2938 39.6928 72.1485 39.8771C72.0026 40.0691 71.401 40.3533 71.3331 40.5766C71.168 41.033 71.401 41.0522 71.3133 41.4208C71.2454 41.7805 70.9254 42.4794 69.8765 43.7024C68.7987 44.9261 68.3405 45.7901 68.3405 45.7901C68.3405 45.7901 67.8163 44.8096 67.5443 43.9648C67.3523 44.0614 66.3213 44.6342 66.3213 44.6342L63.9328 36.3142L63.9808 35.7606C63.9808 35.7606 64.1946 35.4989 64.2432 35.0131C63.8842 34.8966 63.8355 34.7994 63.3594 34.3437C62.8832 33.888 62.4954 33.3338 61.6998 32.9549C61.5834 32.7411 61.4374 32.4506 60.855 32.3334C60.2726 32.2163 59.9232 32.1203 59.9232 32.1203C59.9232 32.1203 60.2336 32.0032 60.3795 31.7606C60.0198 31.8093 59.7293 31.9258 58.9427 31.9066C58.1466 31.8867 58.0589 31.8579 57.6224 31.9258C57.1859 31.9936 56.6624 32.1882 56.4672 31.5181C56.2534 31.353 55.7971 31.4989 55.4086 32.071C55.0202 32.6432 54.8845 33.1002 54.137 33.3235C54.0844 33.653 53.969 33.9694 53.7971 34.2554C53.5834 34.615 53.2435 34.9741 52.7872 35.5078C52.0685 36.3526 52.185 37.7408 51.0394 38.7994C49.8842 39.8573 51.2314 35.8669 51.2314 35.8669L53.0758 31.4509L58.3283 26.3149L66.4838 25.7619L67.28 29.9859L71.2608 31.3549L73.7754 35.1898L73.7766 35.1846Z" fill="#D3AE4D"/>
<path fill-rule="evenodd" clip-rule="evenodd" d="M75.0682 36.1165L71.641 31.175L69.2429 29.3299C69.2429 29.3299 67.5341 26.185 67.4176 26.0877C67.3203 26.0198 65.7088 25.8451 64.6797 25.7773L64.8717 26.2528C65.0963 26.3258 65.2959 26.4604 65.4477 26.6413C65.904 27.1654 66.1952 28.1555 65.1565 29.2141C65.5642 29.3594 65.7325 29.4061 66.0883 29.3594C65.7293 29.7869 64.9139 30.6995 64.8653 31.4957C64.8166 32.1459 65.2243 32.3398 65.2243 32.3398C65.2243 32.3398 64.6029 33.0586 64.5741 34.2598C64.8676 33.9289 65.1887 33.6236 65.5341 33.3472C66.2528 32.7712 67.2429 32.1235 67.913 31.7158C67.9038 31.8869 67.9268 32.0582 67.9808 32.2208C67.9808 32.2208 69.2326 31.1917 70.2848 31.648C70.7603 31.8618 70.5466 32.5318 70.5466 32.5318C70.5466 32.5318 71.1974 32.2893 71.6538 32.7456C72.1101 33.2019 72.7603 34.3763 73.0906 34.8333C73.2358 35.047 73.6147 35.4547 74.0026 36.0851C74.5325 36.9688 74.975 37.902 75.3235 38.8717C75.3427 38.4832 75.4208 37.9398 76.0915 37.9398L75.072 36.1146L75.0682 36.1165Z" fill="#CAA13E"/>
<path fill-rule="evenodd" clip-rule="evenodd" d="M23.6896 50.1555C23.6896 50.1555 23.447 49.5533 23.6896 48.3789C23.9322 47.2045 24.311 46.6509 24.4371 44.9229C24.5632 43.1949 25.6896 41.0394 25.6896 41.0394L28.8058 39.6224L31.0099 40.224L31.6602 43.1757L28.8736 44.7117C28.8736 44.7117 28.7283 45.3619 27.9418 45.8861C27.1552 46.4102 26.0678 46.8179 25.8061 47.3523C25.6496 47.6796 25.5354 48.0254 25.4662 48.3814C25.4662 48.3814 24.6701 48.2163 24.1946 48.7405C23.6896 49.2749 23.7088 49.7504 23.6896 50.1581V50.1555Z" fill="#F4EFC8"/>
<path fill-rule="evenodd" clip-rule="evenodd" d="M29.9808 49.369C29.9808 49.369 29.7184 49.5341 29.5245 49.945C29.3325 49.6346 28.8736 47.7894 28.8544 46.1293C28.8352 44.4691 28.736 44.0576 29.12 43.4854C29.504 42.9133 31.0099 42.3104 30.7962 41.28C30.5824 40.2995 29.689 39.8918 28.592 40.1734C27.824 40.3654 27.2525 41.9987 26.4563 42.8141C25.8541 43.4355 25.136 43.3382 24.9421 43.6781C24.6797 44.1344 24.9222 44.5907 24.8448 44.8819C24.825 44.9792 24.5824 45.5034 24.1453 46.1344C23.2621 47.4061 21.767 49.2026 21.5725 50.8141C21.6403 49.9014 21.5923 49.8822 21.8349 48.8723L21.689 48.6298L22.649 45.4842L23.2704 42.8922L24.6592 38.5517L27.1053 34.1152L29.4842 31.4547L31.9597 31.6198L32.2509 35.3382L33.6685 42.3194L36.649 45.9891L31.872 49.2038L29.9789 49.369H29.9808Z" fill="#EBCC73"/>
<path fill-rule="evenodd" clip-rule="evenodd" d="M31.4662 50.688C31.4662 50.688 31.0586 50.7853 30.9126 50.7078C30.7667 50.6304 30.6221 50.5427 30.6701 50.4454C30.7181 50.3482 30.9805 50.1837 30.9805 50.1056C30.9917 49.9589 30.8842 49.8299 30.7379 49.8144C30.5146 49.7856 30.4467 49.9309 30.4467 49.9309C30.4467 49.9309 30.233 49.7664 30.0589 49.7389C30.1619 49.7263 30.2655 49.7196 30.3693 49.719C30.101 49.5975 29.8164 49.5158 29.5245 49.4765C29.767 49.3312 30.2432 48.9037 30.5536 48.9037C30.864 48.9037 31.0586 48.8557 31.0099 48.6906C30.9613 48.5254 30.7187 48.2829 30.457 48.1856C30.5536 48.0691 30.6221 47.8944 30.3891 47.4176C30.1459 46.9421 30.2432 46.6214 30.3213 46.5056C30.3891 46.3597 30.6317 46.0979 30.7482 45.9328C30.8646 45.7677 30.9619 45.5443 31.1558 45.4278C31.2531 45.36 31.5635 45.2358 31.8746 45.1174C32.2144 45.001 32.496 44.855 32.6899 45.001C32.9037 45.1462 32.8064 45.3408 32.8064 45.3408C32.8064 45.3408 33.4765 45.0976 34.0781 45.4086C34.6803 45.6992 36.1466 45.8842 36.1466 45.8842L36.672 46.9427L33.1962 49.9232L31.7594 50.6419L31.4682 50.6899L31.4662 50.688Z" fill="#E5C66B"/>
<path fill-rule="evenodd" clip-rule="evenodd" d="M36.2912 45.8157C36.2912 45.8157 35.2134 46.5344 34.9709 46.7962C35.1162 46.816 35.3587 46.9133 35.2614 47.0586C35.145 47.2038 34.4461 47.7088 34.0576 48.185C33.6499 48.6605 33.2614 49.2627 33.1258 49.5539C32.9805 49.8157 31.8733 50.583 31.495 50.6797C32.2912 50.6797 33.8931 49.6992 34.4947 49.6992C34.4755 49.9904 34.6598 50.3206 34.9997 50.3494C35.3395 50.3782 36.32 50.5632 37.6403 49.7478C38.9606 48.9517 38.5242 48.359 39.0771 47.9712C40.1357 47.2717 40.5626 46.6502 41.145 46.2624C41.7274 45.8746 42.0288 45.7862 42.0288 45.7862C42.0288 45.7862 42.048 45.495 42.2208 45.5245C42.3172 45.5355 42.3995 45.5991 42.4346 45.6896C42.4346 45.6896 43.4445 44.9709 44.7386 44.777C44.7084 44.7635 44.6842 44.7393 44.6707 44.7091C44.6707 44.7091 44.7674 44.6605 44.7872 44.6118C44.7872 44.6118 44.855 44.5146 44.9037 44.5632C44.9523 44.6118 45.0202 44.9709 45.1174 45.1168C45.3312 45.0195 45.7389 44.1069 45.7389 44.1069L46.72 41.3011V38.7379L45.952 38.8838L40.192 41.3299L36.6963 44.9517L36.2886 45.8157H36.2912Z" fill="#E6BD62"/>
<path fill-rule="evenodd" clip-rule="evenodd" d="M52.8736 33.2429C53.1852 33.1673 53.4839 33.0461 53.76 32.8832C53.6435 33.1942 53.6435 33.5341 53.1386 34.272C52.6336 35.0099 52.6144 35.1168 52.2067 35.8835C51.799 36.6797 51.7504 37.8253 51.3619 38.3296C51.536 38.245 51.7228 38.1894 51.9149 38.1651C51.9149 38.1651 51.527 38.505 51.3619 38.864C51.1968 39.223 50.9056 39.9706 50.1875 40.4275C49.4694 40.8845 48.5562 41.175 47.5757 42.2528C46.5946 43.3107 45.5853 44.6509 45.0797 45.1328C45.3421 44.6765 45.7011 43.7638 45.7984 43.1622C45.8957 42.5606 45.7786 41.8413 45.9437 41.0458C46.1088 40.2502 46.1088 39.6768 46.9037 38.288C47.6986 36.8992 49.0592 32.0742 49.0592 32.0742L51.991 31.1424L52.8749 33.2397L52.8736 33.2429Z" fill="#B6933F"/>
<path fill-rule="evenodd" clip-rule="evenodd" d="M50.7571 31.4662C50.7571 31.4662 49.8739 32.7379 49.6314 33.8643C49.3888 34.9907 49.6115 34.8934 49.4662 35.447C49.3793 35.7846 49.3793 36.1386 49.4662 36.4762C49.7721 35.9834 50.1909 35.5705 50.688 35.2717C51.5232 34.7674 52.2029 34.4077 52.608 33.9808C53.0157 33.5245 53.3555 32.777 54.2387 32.2042C53.8797 32.1555 53.3747 31.9904 53.2787 32.0122C53.6384 31.6045 54.7155 30.983 55.8029 30.2355C56.8806 29.4675 56.8128 29.1578 58.5606 28.391C57.9878 28.4883 57.7158 28.3424 57.2397 28.391C57.4317 27.9834 58.1037 27.7888 58.7757 27.1194C59.4477 26.4499 58.3488 25.4592 58.3488 25.4592L53.2288 28.5562L50.7533 31.4688L50.7571 31.4662Z" fill="#C49937"/>
<path fill-rule="evenodd" clip-rule="evenodd" d="M36.864 29.1552L36.9805 28.2234L38.4467 25.8739L39.9808 21.7478V16.1069L39.8643 12.8448L40.1069 10.7085L40.2912 10.0294L40.4858 9.76704L41.7376 10.4173L43.4662 12.7667L43.6314 17.3011L41.9514 24.4563L37.1552 29.6896L36.864 29.1552Z" fill="#DFC068"/>
<path fill-rule="evenodd" clip-rule="evenodd" d="M40.6797 9.50464C40.6797 9.50464 39.9117 9.52448 39.7478 12.7187C39.584 15.913 39.5046 17.5923 39.3882 19.175C39.2717 20.7578 39.0003 21.7184 38.864 22.6509C38.7277 23.5834 38.6502 24.8544 38.2138 25.6314C38.0218 25.9904 37.6115 27.1168 36.6502 27.9616C35.5725 28.8934 33.9622 29.5443 33.7184 29.593C33.2909 29.6896 31.1258 29.9034 30.2426 30.3891C29.9322 30.5542 29.3978 30.7482 28.8058 31.3018C27.6307 32.3597 26.0678 34.2528 24.9414 36.5344C23.2134 39.9424 21.4854 49.5635 21.4854 49.5635L21.8739 48.9133C21.8739 48.9133 21.9226 48.0493 22.7866 46.5344C23.6314 45.0202 23.3888 43.321 24.5632 40.4179C25.0195 39.3114 25.5923 37.8746 26.2912 36.6509C27.3984 34.6605 28.7379 32.9517 30.0877 32.0198C32.2912 30.5056 34.7187 30.1754 34.7187 30.1754L37.3306 28.4474C37.3306 28.4474 37.7869 27.5642 38.3891 26.5542C39.2333 25.1373 40.3091 23.5546 40.544 21.2538C40.9037 17.8458 40.039 15.6128 40.0877 13.5936C40.1363 11.5744 40.1555 10.089 40.5638 9.72928C40.9722 9.3696 40.6803 9.50592 40.6803 9.50592L40.6797 9.50464Z" fill="#A88F33"/>
<path fill-rule="evenodd" clip-rule="evenodd" d="M40.6797 24.7475C40.6797 24.7475 41.8317 21.9123 42.359 19.3978C42.4563 18.8928 42.6502 18.3885 42.6989 17.9808C42.9414 15.6019 43.0093 14.6214 42.6989 13.3203C42.4563 12.3603 41.5245 11.495 41.0387 10.8243C40.5632 10.1248 40.3398 9.86432 40.4371 9.71712C40.5344 9.56992 40.9126 9.32928 41.2813 9.35808C42.0732 9.38113 42.8209 9.72817 43.3498 10.3181C44.0973 11.1821 44.6893 14.1146 44.6893 14.1146L45.312 17.984L46.8947 22.8576L40.681 24.7514L40.6797 24.7475Z" fill="#C99E3D"/>
<path fill-rule="evenodd" clip-rule="evenodd" d="M51.5046 21.7965C51.5046 21.7965 51.2909 21.8931 50.903 21.7965C50.9368 22.1196 50.7868 22.4345 50.5146 22.6118C50.1069 22.4467 46.2906 22.777 46.2906 22.777C46.2906 22.777 44.5139 22.4659 43.9603 20.1165C43.5725 18.553 44.2515 16.3981 44.0282 14.9805C43.6883 12.8928 43.2128 12.4845 43.1642 11.8349C43.1155 11.1853 43.0669 11.0195 43.0669 10.6118C42.8531 10.5632 42.727 10.4954 42.5139 10.4954C42.4653 10.3034 42.5619 10.1357 42.3488 9.79584C42.4653 9.84448 43.2614 9.94176 44.1933 10.825C44.9613 11.5437 44.9613 11.8054 45.0771 11.9514C45.2224 12.0966 46.3974 13.1034 46.9024 14.1069C47.4074 15.1104 48.3878 18.3104 48.6112 18.8346C48.679 19.0483 48.825 19.2621 49.1872 19.7472C49.7504 20.4467 50.5754 21.6032 51.5072 21.7952L51.5046 21.7965Z" fill="#B58634"/>
<path fill-rule="evenodd" clip-rule="evenodd" d="M45.2141 12C45.8022 12.9501 46.3306 13.9359 46.7962 14.9517C47.369 16.2426 47.7088 17.3011 48.4275 18.1651C48.039 17.0394 47.3498 14.8256 46.9421 14.039C46.4858 13.207 45.5539 12.311 45.2141 12.0006V12Z" fill="#A88F33"/>
<path fill-rule="evenodd" clip-rule="evenodd" d="M38.6118 27.9616C38.6118 27.9616 37.6314 28.2042 35.8061 29.1654C35.2038 29.4758 34.6317 29.7376 34.0781 29.9808C32.64 30.631 31.0976 31.232 29.8739 31.5635C29.9712 31.68 30.0192 31.728 30.0192 31.728C30.0192 31.728 30.0192 32.2042 30.2816 32.4755C30.1363 32.6214 28.1939 33.9418 28.7674 38.359C29.1552 38.2138 29.6115 38.0192 29.6794 38.0192C29.7965 38.039 29.8253 38.359 29.9706 38.359C30.1158 38.359 30.592 38.167 31.097 37.5142C31.0778 37.7766 30.7866 40.4173 32.3494 42.1939C32.6406 41.8541 33.3786 40.7277 33.3786 40.7277L33.3978 40.3686C33.3978 40.3686 33.4656 39.1162 33.8739 37.9706C34.2822 36.825 35.0778 35.9802 35.0778 35.9802L39.232 30.048L38.6106 27.961L38.6118 27.9616Z" fill="#E6C367"/>
<path fill-rule="evenodd" clip-rule="evenodd" d="M34.7283 36.672C34.5381 36.8064 34.3286 36.9111 34.1069 36.9824C34.039 36.7398 33.9418 35.9046 34.5146 35.0893C35.1846 34.1082 36.6502 32.8365 37.0579 31.8253C37.3203 31.1744 37.2038 29.5437 39.5341 27.456C41.8643 25.3683 42.7763 24.6502 42.7763 24.6502L46.5434 22.7571L51.1744 24.5824L48.8736 33.6L47.0874 37.824L39.9834 36.4845L34.7277 36.672H34.7283Z" fill="#DCBA5A"/>
<path fill-rule="evenodd" clip-rule="evenodd" d="M37.44 34.2234L38.3238 33.1168V32.3302C38.3238 32.3302 39.3043 32.0678 40.3622 30.9901C41.4202 29.9123 42.8864 27.8445 44.1779 27.9706C45.4694 28.1165 45.5955 30.7763 45.6442 31.5245C45.6928 32.2726 45.8579 33.9706 46.1197 34.8838C46.4109 35.7965 42.9741 39.2525 42.9741 39.2525L40.64 41.0291L37.44 34.2234Z" fill="#E9CE77"/>
<path fill-rule="evenodd" clip-rule="evenodd" d="M40.1747 43.4368C40.1747 43.4368 40.8934 42.3104 40.3667 42.0678C40.6771 41.369 41.2499 40.631 41.2499 40.631C41.2499 40.631 41.6576 39.6218 42.9779 38.3789C44.2982 37.136 45.1142 36.3104 45.328 35.4758C45.4598 34.9319 45.5315 34.3752 45.5418 33.8157C45.6845 33.9323 45.8372 34.0362 45.9981 34.1261C46.2118 34.2234 47.2211 35.0579 47.0758 36.7379C46.9306 38.4179 46.3078 39.1168 46.3078 39.1168C46.3078 39.1168 45.7062 39.7184 45.2794 40.0294C44.8224 40.3398 44.6579 40.6989 43.8906 40.7283C43.9694 40.6656 44.0581 40.6163 44.153 40.5824C44.153 40.5824 43.3568 40.4858 42.9293 40.8736C42.5018 41.2614 41.593 42.4563 41.1366 42.816C40.6803 43.1072 40.1766 43.4374 40.1766 43.4374L40.1747 43.4368Z" fill="#CDAE50"/>
<path fill-rule="evenodd" clip-rule="evenodd" d="M72.4563 24.553C71.3093 24.1349 70.1038 23.8991 68.8838 23.8541C66.8448 23.7862 63.8643 23.9027 60.9421 23.9219C57.7965 23.9411 54.9421 22.8442 50.9811 22.6502C50.3309 22.2618 48.6771 20.5626 43.5149 24.1645C43.8253 24.1453 47.2627 23.3683 48.4563 24.864C49.6602 26.3494 49.3203 28.8736 49.1558 29.4752C48.8448 30.8154 47.8349 32.7667 47.4278 34.1357C47.0208 35.5046 47.1168 36.224 46.8256 37.184C46.5344 38.144 45.8938 38.6208 46.272 39.7274C46.777 39.417 47.04 39.417 47.8835 37.5238C48.727 35.6307 48.5536 34.281 49.952 32.679C51.321 31.0675 53.6 28.8634 54.4666 28.3098C55.3331 27.7562 62.2138 24.1837 69.4182 27.5917C71.1558 27.4074 72.457 24.5523 72.457 24.5523L72.4563 24.553Z" fill="#D2A83E"/>
<path fill-rule="evenodd" clip-rule="evenodd" d="M46.4173 23.232C46.4102 23.159 46.394 23.0872 46.3693 23.0182C46.3019 22.8763 46.2134 22.7453 46.1069 22.6298C46.1069 22.6298 44.3981 22.3194 43.5341 22.416C42.0192 22.5811 40.6502 24.455 40.0096 25.4163C39.369 26.3776 38.5728 27.8624 37.7088 28.6298C37.7183 28.555 37.701 28.4793 37.6602 28.416C37.6602 28.416 37.7088 28.4838 37.6122 28.5811C37.5155 28.6784 37.5149 28.7264 37.5635 28.7731L37.7094 28.9184C37.7574 28.9184 39.0976 28.3162 40.9229 26.6144C42.8646 24.8378 44.3501 23.9264 45.127 23.6141C45.5414 23.438 45.9745 23.3098 46.4179 23.232H46.4173Z" fill="#C29637"/>
<path fill-rule="evenodd" clip-rule="evenodd" d="M79.5635 15.9322C79.5635 15.9322 79.2525 16.32 78.864 16.7475C78 17.6602 76.8736 18.6886 75.9123 19.7472C75.0003 20.7571 73.9712 21.5437 72.8154 22.864C71.6595 24.1843 70.3194 25.6499 69.9802 26.0774C69.6698 26.505 69.4272 27.2038 69.4272 27.5629C69.2621 27.4464 69.0682 27.3203 69.0682 27.3203C69.1498 27.4727 69.2474 27.6161 69.3594 27.7478C69.6019 28.0877 69.9802 28.5158 70.1747 28.777C70.4134 29.1094 70.5847 29.4853 70.679 29.8835C70.7955 29.9027 71.543 30.0486 72.4755 28.5146C73.408 26.9805 74.6304 25.3011 74.6304 25.3011L76.5722 22.4173L77.7958 19.9712L79.3318 17.2333L79.5654 15.9322H79.5635Z" fill="#AC8132"/>
<path fill-rule="evenodd" clip-rule="evenodd" d="M81.5539 13.9712C81.5539 13.9712 80.3789 14.9312 79.9226 15.5072C79.4662 16.0832 78.3866 17.5949 78.3866 17.5949L78.775 17.5462L80.7462 15.799L81.5142 14.4301L81.5533 13.9738L81.5539 13.9712Z" fill="#A88F33"/>
<path fill-rule="evenodd" clip-rule="evenodd" d="M81.1942 91.1264C81.1942 91.1264 81.175 90.3302 81.6218 89.8547C82.0781 89.3786 83.2333 88.6797 84.3597 86.0582C85.4861 83.4368 85.6115 82.8448 85.6115 82.8448C85.6115 82.8448 83.5923 84.5728 82.3475 84.9805C82.6387 84.3782 82.8038 83.9514 82.9498 83.6403C82.7846 83.495 82.0858 83.3299 82.0179 83.2525C82.4058 82.864 82.6195 81.9123 83.4061 81.2813C84.416 80.5133 86.2605 79.1936 87.6941 78.0173C89.1277 76.841 91.9462 74.105 92.3059 73.3088C92.5197 73.6192 92.5677 73.8131 92.5677 73.8131C92.5677 73.8131 91.1507 75.6582 90.4128 76.8326C89.7619 77.8426 89.8106 78.4154 89.8106 78.4154L91.1507 77.8394C91.1507 77.8394 91.5386 79.2762 89.7818 81.4611C90.5498 81.1699 90.8595 81.3446 91.296 81.1014C90.5773 81.5584 89.5872 82.1798 88.6554 83.888C87.7427 85.5968 86.4998 87.5872 84.4032 88.8294C82.3642 90.1402 81.1891 91.1206 81.1891 91.1206L81.1942 91.1264Z" fill="#A67A2E"/>
<path fill-rule="evenodd" clip-rule="evenodd" d="M75.9322 25.5635C75.9322 25.5635 75.136 27.223 75.0195 28.5146C75.0003 28.8256 74.9222 29.0682 74.9222 29.4272C74.903 30.5824 74.9901 31.8739 74.7302 32.4755C74.633 32.233 74.5843 32.0678 74.487 31.9712C74.3418 32.3789 74.0794 33.6506 73.8656 34.1261C73.769 33.8157 73.5552 32.7379 73.575 31.4662C73.5949 30.1946 73.623 29.9514 73.623 29.6896C73.575 30.0774 73.3126 30.6022 73.2154 30.9126C73.0701 30.6509 72.905 30.311 72.7104 30.0294C72.5939 30.2214 72.4486 30.505 72.3226 30.6509C72.3027 30.5344 72.2547 30.2234 72.2253 29.7869C72.2061 29.2819 72.1766 28.6317 72.2061 28.4954C72.2541 28.2336 72.6624 27.2045 73.5264 26.2624C74.5555 25.136 75.6141 22.9715 75.9245 22.3014C76.2349 21.6314 77.5552 18.8454 77.5552 18.8454H78.5651L77.0989 22.185C77.0989 22.185 76.2157 24.0102 75.7594 24.681C75.303 25.3517 74.3418 27.2736 73.9142 28.0211C74.2246 27.6134 74.487 27.3997 74.7981 27.0112C75.0989 26.7392 75.9334 25.5648 75.9334 25.5648L75.9322 25.5635Z" fill="#8C6228"/>
<path fill-rule="evenodd" clip-rule="evenodd" d="M81.5731 13.8445C81.4082 14.3522 81.1475 14.8236 80.8051 15.2333C80.2029 15.952 78.9114 16.9126 78.281 17.6794C77.705 18.4269 76.553 20.4659 77.0765 22.8832C77.2685 22.359 77.6301 21.3203 78.5914 20.1453C79.5526 18.9702 80.5818 17.6211 81.0874 16.5728C81.5917 15.5142 81.6595 14.6797 81.6595 14.6797L81.8515 14.4371L81.735 13.8835L81.5699 13.8445L81.5731 13.8445Z" fill="#CBA94C"/>
<path fill-rule="evenodd" clip-rule="evenodd" d="M101.233 78.2426C101.233 78.2426 100.845 77.1846 100.728 76.2234C100.612 75.2621 100.92 75.0714 100.563 73.9712C100.349 73.3011 99.9616 73.3952 99.8643 73.3011C99.767 73.207 99.6992 72.1946 99.7184 71.641C99.7376 71.0874 99.6992 70.3693 99.6019 70.0582C99.4566 69.9418 99.3594 69.8445 99.1456 69.1264C98.903 68.4077 98.7866 68.0486 98.6701 67.8355C98.5536 67.6224 98.2131 67.4278 98.2131 67.2141C98.2131 66.7866 98.6016 66.5638 98.6016 66.4461C98.5824 66.2035 98.2912 66.3981 98.2131 66.3296C98.1165 66.2131 98.4563 65.5142 98.3302 65.417C98.2816 65.369 97.9418 65.7766 97.8541 65.6602C97.7568 65.543 97.6403 64.3878 97.4656 63.6211C97.3011 62.8736 97.1258 62.3302 97.1066 62.1069C97.0874 61.8931 95.7664 58.1261 95.4464 57.2134C95.1885 56.4423 94.9715 55.658 94.7962 54.864C94.6989 54.4077 94.631 53.4752 94.5824 53.5725C94.5338 53.6698 94.5632 54.1453 94.4851 54.1261C94.4173 54.1062 94.1747 52.4467 94.0973 52.1843C94.0294 51.9219 93.6211 51.0323 93.5213 50.3885C93.424 49.7376 93.2109 48.0384 93.065 46.8832C92.919 45.728 92.8512 45.2525 92.8512 44.9632C92.8751 44.2557 92.8361 43.5474 92.7347 42.8467C92.5427 41.623 92.1587 40.1376 91.8221 39.2742C91.1718 37.6429 89.4432 33.4682 89.1341 32.4294C89.1341 32.167 89.4739 32.313 89.4739 32.313C89.4739 32.313 90.3181 34.4294 90.9395 36.0602C91.5418 37.6915 92.1146 39.1283 92.2605 39.2742C92.377 39.4195 93.2896 41.0214 93.6973 43.6429C94.105 46.2643 94.2502 48.6816 94.4934 50.2931C94.6099 51.0611 94.7072 51.8758 94.9498 52.6912C95.2115 53.575 95.6192 54.4877 96.1536 55.8854C96.6099 57.0605 96.9498 58.041 97.1341 58.8858C97.3478 59.9635 97.3478 60.7789 97.4739 61.3133C97.591 61.7696 97.7651 62.6816 98.1734 64.0013C98.5818 65.321 99.1827 67.0208 99.5904 68.0787C100.387 70.1952 100.742 71.9622 100.863 72.9043C100.969 73.8752 101.329 77.2346 101.231 78.2438L101.233 78.2426Z" fill="#A88F33"/>
<path fill-rule="evenodd" clip-rule="evenodd" d="M81.6218 13.728L81.5731 13.8445C81.5731 13.8445 81.7184 13.8931 81.6896 14.0877C81.6917 14.3539 81.6754 14.6199 81.641 14.8838C81.593 15.2237 81.4957 15.4854 81.4765 15.6992C81.4765 16.1555 81.5443 16.6797 80.9005 17.9808C80.7085 18.3398 80.5901 18.6502 80.4928 18.864C80.2502 19.3882 80.2016 19.4662 79.9878 19.7088C80.3277 19.5168 81.5514 18.7488 82.1722 18.864C81.7453 19.1066 81.0944 19.5827 80.6867 20.2042C80.784 20.2234 81.1917 20.3014 81.8387 20.2042C82.9165 20.039 84.1203 19.6506 85.1782 19.728C86.3341 19.7958 85.8778 18.3398 85.8778 18.3398L84.544 15.408L82.0198 13.632L81.6218 13.7286V13.728Z" fill="#BE9C44"/>
<path fill-rule="evenodd" clip-rule="evenodd" d="M88.2042 35.6896C88.2042 35.6896 87.0778 34.5632 86.6214 30.6976C86.1651 26.8141 86.2624 21.0976 86.2624 21.0976L85.3498 18.8646C85.3498 18.8646 85.1578 17.3792 84.6797 16.8262C84.2016 16.2733 83.2627 15.3408 82.8352 14.8845C82.4077 14.4282 81.9226 13.8067 81.6314 13.7094C81.7766 13.4669 82.4275 12.0979 84.9222 12.0787C87.417 12.0595 88.1862 13.4477 88.4467 13.9526C88.7072 14.4576 89.8835 16.6406 90.32 20.8006C90.7277 24.9555 90.7475 25.2666 90.6797 26.7034C90.631 27.4995 90.3686 29.344 89.9117 31.3146C89.4944 32.985 89.0381 34.8493 88.2029 35.6934L88.2042 35.6896Z" fill="#A17C34"/>
<path fill-rule="evenodd" clip-rule="evenodd" d="M84.672 39.0003C85.0474 39.0274 85.4224 38.9428 85.7498 38.7571C86.1088 38.7379 87.4099 38.903 88.4096 37.6314C88.4774 37.9219 88.6528 38.7091 88.1958 39.408C88.439 39.1648 88.7981 39.0682 88.8467 39.0003C88.8659 39.3594 89.2058 40.4659 87.769 43.1552C88.1568 42.7283 88.6131 42.7475 89.0208 42.6989C89.0406 43.2038 89.312 44.9024 88.5939 45.8157C88.1184 46.4371 87.3414 46.2426 87.3414 46.2426C87.3528 46.1069 87.3528 45.9705 87.3414 45.8349C87.3222 45.5725 87.225 45.3107 87.2934 45.136C86.918 44.9645 86.5761 44.7277 86.2835 44.4365C85.4387 43.6403 84.3418 42.2816 84.2643 41.2717C84.167 40.1453 85.177 39.9027 85.177 39.9027C85.0924 39.827 85.0202 39.7385 84.9632 39.6403C84.9146 39.4758 84.8659 39.2134 84.672 39.0003Z" fill="#8C6228"/>
<path fill-rule="evenodd" clip-rule="evenodd" d="M77.184 26.7866C77.184 26.7866 77.1354 26.7187 76.8736 27.0291C76.9222 26.7187 76.9709 26.4269 76.9901 26.1453C77.114 25.8846 77.2743 25.6428 77.4662 25.4272C77.3203 25.7178 77.223 25.9802 77.223 25.9802C77.223 25.9802 77.5827 25.3101 78.1069 24.9024C78.4659 24.6112 78.9222 24.4755 79.1162 24.2035C79.3299 23.9123 79.2813 23.8637 79.3299 23.815C79.3299 23.815 79.8061 23.5046 80.5344 22.5914C80.631 22.4749 80.777 22.3488 80.8742 22.2323C81.0387 22.1645 81.4272 21.9898 81.8835 21.7562C82.3597 21.4944 82.8934 21.1354 83.2237 20.9882C83.8739 20.697 84.5638 20.7264 84.8838 20.2694C85.1264 20.2016 85.3882 19.4733 85.3402 18.8525C85.6992 18.9978 87.5437 20.1434 88.1754 22.6483C88.6317 24.425 87.8157 27.1629 87.4758 28.4838C87.136 29.8048 87.088 30.7846 86.6118 31.3862C86.0096 32.183 84.0685 33.3062 83.5923 33.8624C83.1846 34.3187 81.9616 35.4739 82.0096 36.3085C82.0582 36.9299 82.825 37.2685 82.9907 37.3862C83.1565 37.504 83.1552 37.6486 83.4662 37.5782C83.7773 37.5078 83.8931 37.3645 84.0198 37.3645C84.1651 37.3837 84.1651 37.4131 84.233 37.4131C84.2822 37.4117 84.3311 37.405 84.3789 37.3933C84.3789 37.3933 84.3302 38.2771 82.2624 38.5453C82.1165 38.5651 81.9712 38.6131 81.7862 38.6426C82.0294 38.5261 82.1747 38.5261 82.4371 38.167C82.1459 38.1184 81.3107 38.0698 81.097 38.0019C81.1648 37.8854 81.3882 37.5744 81.5725 37.4291C81.7376 37.2838 81.5533 37.2371 81.408 37.3126C81.1579 37.4828 80.9179 37.6674 80.6893 37.8656C80.4467 38.0794 80.233 38.3706 79.8445 38.6336C79.728 38.2451 79.7472 37.5072 80.2042 36.9734C80.087 36.9926 79.8637 37.3325 79.6506 37.2646C79.612 36.9105 79.635 36.5524 79.7184 36.2061C79.8349 35.769 80.4659 35.0022 80.4659 35.0022L83.5142 29.5552L84.1645 25.4291L77.184 26.7853V26.7866Z" fill="#92723A"/>
<path fill-rule="evenodd" clip-rule="evenodd" d="M77.0195 27.0195C77.0195 27.0195 76.8544 27.136 77.1846 27.3594C77.136 27.4272 77.0195 27.6698 76.8736 27.8349C76.7091 28.0269 76.5338 28.1459 76.4659 28.311C76.3206 28.6509 76.2042 28.8838 76.2042 29.0298C76.2042 29.1757 76.1555 30.1075 75.7478 30.7091C75.6019 30.9229 75.4368 31.2819 75.3203 31.5245C75.0778 31.9514 74.864 32.2925 74.8154 32.4845C74.7187 32.8243 74.6509 33.7562 74.6509 33.7562C74.6509 33.7562 74.8646 33.4938 74.9421 33.3971C74.825 33.6397 74.6989 33.9014 74.5146 34.096C74.631 33.9987 74.9709 33.7562 75.5437 33.2512C76.3398 32.5818 77.5827 31.4554 79.0976 30.5632C78.6406 30.7283 78.2528 30.7283 77.9424 30.777C78.185 30.5344 80.3693 27.9712 81.5149 27.7286C81.5844 27.6404 81.6191 27.5297 81.6122 27.4176L80.631 27.321L78.6406 27.7478L78.3501 26.2118L77.0195 27.0176V27.0195Z" fill="#B18E3E"/>
<path fill-rule="evenodd" clip-rule="evenodd" d="M80.185 35.7574C80.185 35.7574 79.9226 36.0192 79.68 36.6701C79.4933 36.4751 79.3332 36.2562 79.2038 36.0192C78.8448 35.4176 78.2918 34.6502 77.0003 35.0874C76.9811 34.6797 76.9517 34.4659 77.0003 34.1747C77.2141 34.1267 77.8643 33.6026 78.5146 32.8352C78.9715 32.311 79.3984 31.7088 79.6896 30.9421C79.8816 30.7962 80.2138 30.5536 80.6496 30.272C81.271 29.8451 82.0186 29.2621 82.135 28.6118C81.8438 28.7283 81.2224 29.0195 80.2899 28.9715C80.6496 28.8064 81.2026 28.6317 81.1347 27.913C81.2806 27.8157 81.3971 27.7478 81.3971 27.7478C81.2877 27.7113 81.1726 27.6949 81.0573 27.6992C81.0374 27.6314 81.0086 27.5347 80.8435 27.5827C80.6784 27.6307 80.6515 27.6314 80.6298 27.6992C80.5619 27.719 80.3386 27.6992 80.1734 27.8163C80.0083 27.9334 79.552 28.3206 79.3773 28.3885C79.4451 28.272 79.5418 28.0979 79.5418 28.0979C79.5418 28.0979 79.0662 28.1459 78.7264 28.2899C78.105 28.5037 77.3869 28.8922 76.6586 29.2704C76.7264 29.1539 76.7558 29.0784 76.8038 29.0566C76.8518 29.0349 76.969 29.0086 76.969 28.9888C76.969 28.969 76.921 28.7968 76.9498 28.727C77.1675 28.2658 77.4244 27.824 77.7178 27.4067C78.0576 26.9498 78.1254 26.2995 78.1254 26.2995L79.6109 25.552L83.7856 24.592L86.4947 24.7571L86.1549 26.631L84.5549 29.9027L83.1859 32.8832L81.6224 34.7091L80.1856 35.7574H80.185Z" fill="#543E26"/>
<path fill-rule="evenodd" clip-rule="evenodd" d="M86.9517 27.648C86.9517 27.648 85.3203 29.6672 84.864 29.9782C85.1552 29.3568 86.9517 25.6576 87.6019 24.6285C87.4566 24.512 87.2621 24.512 87.7184 22.7085C87.3306 23.6205 87.1942 24.0966 86.8742 24.3392C86.5542 24.5818 86.5146 24.5043 86.2982 24.5043C86.3391 24.4304 86.3559 24.3456 86.3462 24.2618C86.3462 24.2618 84.9773 24.0966 84.0422 24.0966C83.1072 24.0966 81.2563 24.6016 80.2266 25.0093C79.4112 25.3491 78.9549 25.3491 78.6637 25.5622C78.3725 25.8048 78.2074 26.0672 78.0614 26.135C77.945 26.2029 77.392 26.3776 77.2653 26.5619C77.1488 26.7539 76.9549 26.9696 76.9549 27.0182C76.9549 27.0669 76.9062 27.1354 77.0522 27.0861C77.1002 27.0669 77.4598 26.8723 77.8675 26.6298C78.4205 26.3194 79.0906 25.9603 79.5763 25.7466C80.9645 25.193 81.4016 25.2902 82.0224 25.1738C82.6726 25.0573 83.6051 24.7853 84.2259 24.7853C84.8474 24.7661 86.0224 24.7853 86.2944 24.8339C86.1779 24.9312 86.0806 25.0477 86.1293 25.4554C86.1293 25.5718 86.032 25.6979 85.9373 25.9795C85.6467 26.7757 85.0931 28.096 84.7853 28.7661C84.3584 29.6781 83.8733 30.4454 83.6333 30.921C83.3933 31.3965 82.8653 32.649 82.3424 33.319C81.8195 33.9891 81.5462 34.3968 81.3824 34.5427C81.2186 34.6886 80.0422 35.552 80.1299 35.863C80.3437 35.7952 81.6934 35.287 82.6733 34.1837C83.6531 33.0803 83.8483 32.407 84.615 31.8048C85.3818 31.2026 85.984 30.1933 86.343 29.3587C86.6438 28.5818 86.576 28.3392 86.9542 27.6499L86.9517 27.648Z" fill="#806031"/>
<path fill-rule="evenodd" clip-rule="evenodd" d="M51.7965 42.7187C51.7965 42.7187 51.5827 43.6019 51.097 44.039C50.6214 44.4666 49.7766 44.8352 49.68 45.5539C49.5635 46.272 50.5248 46.6317 50.5248 46.6317C50.5248 46.6317 50 47.4957 50 48.1459C50 48.816 49.9808 48.9421 50.0486 49.5827C49.9716 49.6323 49.9062 49.6977 49.8566 49.7747C49.8566 49.7747 49.9046 50.3962 50.3808 50.784C50.857 51.1718 51.264 51.4054 51.5066 51.3082C51.5436 51.3873 51.5761 51.4685 51.6038 51.5514C51.6038 51.5514 51.9635 50.6387 52.2061 49.8426C52.4486 49.0272 52.6624 49.143 52.759 48.0461C52.8557 46.9491 53.911 45.0656 53.911 45.0656L54.631 43.456L53.4566 42.5434L51.7965 42.7181V42.7187Z" fill="#B6903C"/>
<path fill-rule="evenodd" clip-rule="evenodd" d="M53.9808 44.3008C53.7386 44.5494 53.5151 44.8155 53.312 45.097C53.0016 45.5245 52.759 45.9123 52.3027 46.0781C51.8464 46.2438 51.5552 46.2426 51.584 46.6995C51.6128 47.1565 52.0403 47.3498 52.2829 47.5827C52.5453 47.8253 52.759 48.233 52.6426 48.6899C52.7878 48.6221 53.0502 48.544 53.2928 48.0198C53.5354 47.4957 55.232 44.3014 55.232 44.3014H53.9808V44.3008Z" fill="#685026"/>
<path fill-rule="evenodd" clip-rule="evenodd" d="M60.672 36.9318C60.672 36.9318 60.8173 36.544 60.672 36.2624C60.5261 35.9712 59.6429 35.8739 59.2058 35.5437C58.7494 35.2038 58.1958 34.9677 57.7395 35.1168C57.8074 34.9517 58.0794 34.592 57.856 34.5146C57.6422 34.4467 56.8467 34.8058 56.633 34.9709C56.4192 35.136 55.9334 35.3299 55.8368 35.447C55.7402 35.5642 55.5744 35.7869 55.4771 35.6896C55.3798 35.6218 55.3318 35.447 55.1667 35.5437C55.0016 35.6403 54.2067 36.2912 54.0602 36.6701C53.9136 37.049 53.584 37.8938 52.5939 38.8544C51.6038 39.815 51.1763 40.4371 51.4675 40.7962C51.7587 41.1552 51.895 40.8934 51.9437 41.2038C51.9811 41.5086 51.9646 41.8175 51.895 42.1165C51.7786 42.6214 51.5846 43.097 51.8464 43.1942C52.5165 43.408 53.1674 43.0022 53.3126 43.1264C53.6038 43.3882 53.1475 44.3302 53.8368 44.5146C54.5363 44.7066 55.2256 44.3494 55.2256 44.3494L57.769 42.9805L60.2157 41.6896L61.4675 39.2134L60.7962 37.1456L60.6682 36.9318H60.672Z" fill="#D4B968"/>
<path fill-rule="evenodd" clip-rule="evenodd" d="M58.272 42.8448C58.272 42.8448 57.8445 42.1946 58.3693 41.6211C58.8941 41.0477 59.641 40.8058 59.9322 40.4467C59.8767 40.3783 59.8024 40.3278 59.7184 40.3014C59.9117 39.9555 60.2066 39.6774 60.5632 39.5046C60.4179 39.3594 60.2234 39.2429 60.0102 39.2429C59.5341 39.2429 59.2422 39.5341 58.8058 39.5341C58.3789 39.5341 58.3302 39.3203 58.3302 39.3203C58.3302 39.3203 59.049 39.2525 58.9805 38.9318C58.9126 38.592 58.7885 38.592 58.7885 38.592C58.7885 38.592 60.1766 38.016 60.4192 37.7088C60.6618 37.4016 60.633 37.0387 60.6816 36.8934C60.8461 36.8934 61.8074 36.3885 62.1958 36.6022C62.5843 36.816 62.3123 37.3984 62.3123 37.3984C62.3123 37.3984 63.488 36.5146 64.087 35.648C64.6112 35.6966 64.855 35.289 65.239 35.289C65.7152 35.289 66.4627 35.9392 66.608 37.3274C66.7053 38.1235 66.8506 38.5798 66.7053 39.9878C66.6374 40.784 66.6566 42.4838 66.8973 43.3274C67.0618 43.9974 67.4502 43.9296 67.4502 43.9296C67.3906 44.1338 67.2725 44.316 67.1104 44.4538C66.848 44.6963 66.8192 45.3376 66.848 45.5802C66.8867 45.7575 66.9354 45.9325 66.9939 46.1043C66.9939 46.1043 66.6835 46.4634 66.6054 46.7066C66.5376 46.9491 66.2176 47.1142 65.984 47.1142C65.7504 47.1142 65.8675 47.0944 65.5571 47.1142C65.2467 47.1341 65.1494 47.1821 64.9549 47.1142C64.7603 47.0464 64.615 46.9683 64.6931 46.3462C64.761 45.7248 62.295 44.2784 62.295 44.2784L58.263 42.8416L58.272 42.8448Z" fill="#CCA849"/>
<path fill-rule="evenodd" clip-rule="evenodd" d="M53.641 48.9805C53.641 48.9805 54.5242 50.1555 58.1555 50.1555C59.8835 50.1555 60.4858 49.9904 60.8435 49.8931C61.232 49.7958 62.688 49.2237 64.1542 47.495C65.4746 45.9322 65.1834 45.2915 65.1834 45.2915L64.4154 45.175L61.9194 45.5149L54.5338 48.6605L53.6378 48.9805H53.641Z" fill="#585136"/>
<path fill-rule="evenodd" clip-rule="evenodd" d="M56.3494 49.2717C56.3494 49.2717 53.2038 49.9712 53.2038 47.9808C53.2038 46.039 55.1456 44 55.6314 43.641C56.1363 43.2813 57.3402 42.873 57.3402 42.873H60.2432L60.7962 44.3392L60.5536 47.504L56.3494 49.271V49.2717Z" fill="#252211"/>
<path fill-rule="evenodd" clip-rule="evenodd" d="M59.2525 43.4662C59.2525 43.4662 58.6509 42.9126 57.2819 43.6582C55.913 44.4038 54.8058 45.9622 54.7379 47.3773C54.6701 48.6291 55.767 49.5616 57.4758 49.6102C58.7475 49.6582 59.5149 49.513 59.9034 49.4182C59.8061 49.3018 59.3011 48.6707 59.3011 48.6707L59.2531 43.4669L59.2525 43.4662Z" fill="#C3B378"/>
<path fill-rule="evenodd" clip-rule="evenodd" d="M58.6605 43.776C58.6605 43.776 58.5152 43.6595 58.0845 43.8925C57.7254 44.0845 57.2013 44.592 56.7936 44.951C56.5312 45.1648 56.3661 45.2614 56.2176 45.4266C55.6154 46.1453 55.1104 47.3203 55.4022 47.9027C55.6941 48.4851 56.6547 49.1552 59.1014 48.6989L58.6534 43.7766L58.6605 43.776Z" fill="#E6D89C"/>
<path fill-rule="evenodd" clip-rule="evenodd" d="M57.8643 44.9805C57.8643 44.9805 57.4758 45.5827 57.4758 46.544C57.4758 47.5245 58.0294 49.0874 60.0685 49.2038C61.6314 49.3011 62.6797 46.9517 63.8157 46.039C64.6797 45.3402 65.2038 45.3203 65.2038 45.3203C65.2038 45.3203 64.3206 44.3603 61.9616 43.1168C59.6314 41.8643 57.0195 41.6992 55.6019 43.6218C56.272 43.5731 58.4371 43.0195 58.4371 43.0195L59.4957 43.3594L57.8643 44.9811V44.9805Z" fill="#252211"/>
<path fill-rule="evenodd" clip-rule="evenodd" d="M60.9126 46.2522C60.8448 46.1069 60.7962 45.9123 61.0778 45.8643C61.3594 45.8163 61.4854 45.8445 61.5827 46.0563C61.68 46.2682 61.7747 46.4448 61.6307 46.5325C61.4854 46.6099 61.1066 46.5325 60.912 46.2509L60.9126 46.2522ZM60.4563 44.8832C60.4563 44.8832 60.359 44.951 60.4077 44.8154C60.4269 44.6509 60.5536 44.359 60.864 44.4275C61.1744 44.496 61.1072 44.8352 61.056 44.9325C61.0048 45.0298 60.7456 45.1942 60.551 45.1245C60.501 45.1117 60.4601 45.0758 60.4409 45.0279C60.4216 44.98 60.4264 44.9257 60.4538 44.8819L60.4563 44.8832Z" fill="#6F674D"/>
<path fill-rule="evenodd" clip-rule="evenodd" d="M34.176 45.504C34.176 45.504 34.944 46.08 35.8362 46.0576C36.7194 46.0378 37.8554 45.1258 38.3795 44.5427C38.6899 44.2029 38.9555 43.8438 39.2435 43.5622C39.4867 43.3197 39.6512 43.2032 39.7677 43.0381C39.9328 42.8461 40.1075 42.4851 40.1952 42.368C39.9814 42.5331 39.671 42.825 39.3504 43.0189C39.04 43.2109 38.3699 43.5718 38.0979 43.6691C37.8362 43.7664 35.1174 45.2051 35.1174 45.2051L34.176 45.504Z" fill="#AC924C"/>
<path fill-rule="evenodd" clip-rule="evenodd" d="M35.3498 38.3302C35.3498 38.3302 35.7766 38.039 36.6022 37.8541C37.3984 37.6621 39.0003 37.5142 39.0003 37.5142L40.3206 38.0902L40.8448 40.0806L39.8848 42.1491L38.6618 42.9171L37.273 40.6842L35.353 38.3341L35.3498 38.3302Z" fill="#9F8E57"/>
<path fill-rule="evenodd" clip-rule="evenodd" d="M33.6218 40.1069L33.1648 40.448C33.1648 40.448 33.2819 40.2342 33.3786 39.584C33.4752 38.9338 33.9808 37.351 34.7187 36.4384C35.4566 35.5258 35.4374 35.5744 35.4374 35.5744C35.3001 35.5493 35.1585 35.5845 35.049 35.671C35.1462 35.456 35.7677 34.688 36.3891 34.304C37.0106 33.92 37.2531 33.799 37.9034 34.112C38.5536 34.425 38.7187 34.5875 39.1949 34.5683C39.671 34.5491 40.0781 34.0442 40.0781 34.0442C40.0781 34.0442 40.1754 34.3546 39.8163 35.0733C39.4573 35.792 38.0397 37.2576 38.0397 37.2576L35.088 39.2768L33.6218 40.1088V40.1069Z" fill="#EAC970"/>
<path fill-rule="evenodd" clip-rule="evenodd" d="M35.8054 38.0877C35.8054 38.0877 37.9418 38.3789 38.592 37.7773C38.6112 37.8451 38.6893 37.8451 38.6893 37.8938C38.6841 37.9304 38.667 37.9644 38.6406 37.9904C38.7114 37.9791 38.7828 37.9727 38.8544 37.9712C38.9399 37.9967 39.0279 38.013 39.1168 38.0198C39.1884 38.0183 39.2599 38.0117 39.3306 38C39.3169 38.0975 39.2643 38.1853 39.1846 38.2432C39.2819 38.2432 39.3766 38.2624 39.3766 38.3398C39.3766 38.4173 39.3958 38.6509 39.2794 38.6995C39.1829 38.7262 39.0801 38.7192 38.9882 38.6797C38.9959 38.8635 39.0458 39.0431 39.1341 39.2045C39.3261 39.5635 39.7357 39.9725 40.2861 39.8547C40.2861 39.8547 40.5766 40.5536 39.3536 42.1069C39.1891 42.3206 39.0138 42.6118 38.8006 42.8544C38.7164 43.038 38.6521 43.23 38.6086 43.4272C38.6086 43.4272 40.6771 42.631 41.2691 40.8154C41.8714 38.9901 41.9878 37.1942 41.8714 35.5149C41.8515 35.0387 41.7741 34.6995 41.6576 34.4563C41.3664 33.8541 40.5504 33.9514 40.2208 34.2912C39.7446 34.7674 38.9485 35.9514 37.8419 36.7667C36.7155 37.5821 36.6675 37.7267 35.8029 38.0877H35.8054Z" fill="#D7BC6B"/>
<path fill-rule="evenodd" clip-rule="evenodd" d="M33.2429 40.7091C33.2429 40.7091 32.8352 40.9517 32.6214 41.8611C32.4077 42.793 32.8134 43.929 33.0483 44.288C33.2832 44.647 33.8163 45.6282 34.9222 45.6768C35.196 45.6754 35.4667 45.6192 35.7184 45.5117C36.1045 45.3347 36.4666 45.1095 36.7962 44.8416C37.2723 44.4826 37.6602 44.1722 37.6115 44.1427C37.495 44.0941 34.6797 41.7638 34.6797 41.7638L33.6211 40.5824L33.2422 40.7104L33.2429 40.7091Z" fill="#585136"/>
<path fill-rule="evenodd" clip-rule="evenodd" d="M35.904 44.5728C35.904 44.5728 36.4768 44.5248 36.8166 44.311C37.1565 44.0973 34.8262 41.7869 34.8262 41.7869L34.9914 44.2829L35.904 44.5728Z" fill="#453A25"/>
<path fill-rule="evenodd" clip-rule="evenodd" d="M33.4272 40.5338C33.4272 40.5338 33.136 41.0874 33.136 41.2333C33.0874 41.7088 33.2333 43.2038 33.3498 43.6794C33.4662 44.1843 34.0973 44.951 34.9133 44.951C35.4176 44.951 36.1171 44.6406 36.1171 44.5632C36.1171 44.4659 35.3984 44.3712 35.2045 44.0096C35.088 43.8176 35.0394 43.3402 35.0125 42.8576C34.9933 42.5472 34.9933 42.2074 35.1098 42.0896C35.3722 41.7984 35.4202 40.9632 35.4202 40.9632L36.352 39.232H35.1264L33.6602 40.1446L33.4272 40.5338Z" fill="#84754B"/>
<path fill-rule="evenodd" clip-rule="evenodd" d="M33.0682 41.0682C33.0682 41.0682 34.0282 39.7965 34.8934 39.5046C35.7587 39.2128 36.1459 39.3882 36.1459 39.3882L35.641 40.6797L34.9222 41.4758L34.9709 41.8835C34.9709 41.8835 34.8538 42.9613 35.5725 43.7088C36.2912 44.4563 36.825 44.4275 37.136 44.4275C37.447 44.4275 38.3398 44.1651 38.7962 43.0874C39.2038 42.0781 39.5437 40.7834 38.7283 39.4854C37.9315 38.1939 36.5242 38.144 36.2522 38.144C35.9802 38.144 33.8445 38.2509 33.0682 41.0662V41.0682Z" fill="#252211"/>
<path fill-rule="evenodd" clip-rule="evenodd" d="M57.7184 45.3882C57.3594 45.223 57.6992 44.2138 58.0582 43.9027C58.4173 43.5917 58.8736 43.2333 59.6704 43.184C59.961 43.1648 60.2426 43.3491 60.1946 43.5437C60.1267 43.9027 59.6218 44.4077 59.1654 44.7667C58.5344 45.2621 58.1261 45.5725 57.7184 45.3882Z" fill="#F7F7E7"/>
<path fill-rule="evenodd" clip-rule="evenodd" d="M38.3008 39.8835C38.5632 39.8643 38.903 40.0755 38.9709 40.3597C39.0387 40.6701 38.8058 41.2915 38.3008 41.2915C37.8931 41.2915 37.6794 40.7866 37.6794 40.6413C37.684 40.5218 37.7173 40.4052 37.7766 40.3014C37.7958 40.272 37.8445 39.9322 38.3008 39.8835Z" fill="#F8F6DE"/>
<path fill-rule="evenodd" clip-rule="evenodd" d="M34.5146 40.1069C34.5146 40.1069 33.8445 40.4173 33.5341 41.0669C33.3123 41.5466 33.2452 42.0834 33.3421 42.6029C33.3907 42.8454 33.6333 43.447 33.7984 43.6608C33.9635 43.8746 34.1869 44.0205 34.352 44.0006C34.5171 43.9808 34.8563 43.5443 34.8563 43.2826C34.8563 43.0208 34.8762 41.9136 35.1962 41.3114C35.4778 40.7098 34.5165 40.1075 34.5165 40.1075L34.5146 40.1069Z" fill="#D4C38B"/>
<path fill-rule="evenodd" clip-rule="evenodd" d="M34.6118 40.0582C34.4954 40.1261 34.3014 40.2234 34.3494 40.3494C34.3981 40.4659 34.8058 40.5414 34.9517 40.8256C35.1168 41.1168 35.1168 41.4272 35.0682 41.5731C35.195 41.5129 35.3101 41.4305 35.408 41.3299C35.6218 41.0874 35.8835 40.7578 36.1069 40.7578C36.2528 40.7578 36.3981 40.8256 36.5344 40.8256C36.7482 40.8256 36.9613 40.7578 36.9907 40.5344C37.0387 40.2432 36.583 39.9808 36.3206 40.0294C36.3693 39.8374 36.4371 39.5539 36.2234 39.3594C36.0096 39.1648 35.3402 39.5053 35.1942 39.6026C35.0483 39.6998 34.6118 40.0589 34.6118 40.0589V40.0582Z" fill="#E2D59D"/>
<path fill-rule="evenodd" clip-rule="evenodd" d="M50.039 60.4563L51.4758 60.032L51.8835 60.3232C51.8835 60.3232 52.1741 60.9446 52.631 61.0221C52.4851 61.3325 52.1062 61.5981 52.1261 61.8182C52.1459 62.0384 52.3398 62.2067 52.3398 62.2067C52.3398 62.2067 51.0483 64.3424 53.5923 66.4947C52.9901 66.7373 52.2234 67.0707 51.8157 67.2627C52.1062 67.3306 52.7277 67.4547 52.9901 67.6902C53.2525 67.9258 53.2525 68.0006 53.495 68.1466C53.7376 68.2925 53.8829 68.4864 53.8349 68.5734C53.6698 68.4762 53.1162 68.1856 53.0195 68.457C52.9229 68.7283 50.6214 68.6221 50.6214 68.6221L46.7379 69.3696C46.7379 69.3696 46.8832 68.9811 46.4755 68.6221C46 68.1952 45.4176 68.6413 44.7962 68.1658C43.9808 67.5443 43.9514 66.8256 43.6896 66.5542C43.9514 66.3891 44.4858 66.1466 45.7574 65.9782C45.7088 65.881 45.5437 65.5898 45.641 65.328C45.7574 64.9882 46.2426 64.7744 46.0973 64.368C46.311 64.3194 46.4077 64.3194 46.9421 63.6493C47.447 62.9792 47.7574 62.8339 48.1459 62.7853C48.5344 62.7366 48.7674 62.7853 49.4861 62.1152C49.9904 61.6397 49.8259 61.232 49.8259 61.232C49.8259 61.232 50.1555 61.1251 50.0397 60.455L50.039 60.4563Z" fill="#CBAC5A"/>
<path fill-rule="evenodd" clip-rule="evenodd" d="M45.7965 60.672C45.8157 60.5747 45.8938 60.5261 46.4179 60.5747C46.9421 60.6234 50.2624 60.2643 51.1654 60.2157C52.0781 60.1478 55.2915 60.1958 56.855 60.5261C58.4186 60.8563 60.0006 61.2448 60.7674 61.4387C61.5354 61.6525 61.7773 61.7293 61.7478 61.8266C61.7286 61.9238 61.5558 62.0186 61.4566 61.9917C61.36 61.9725 58.816 61.1955 58.0301 61.0317C57.2442 60.8678 54.5248 60.4294 53.0381 60.4557C51.6499 60.4755 51.0963 60.4365 49.9219 60.5722C48.7469 60.7181 46.8051 60.912 46.2227 60.8346C45.6467 60.7667 45.7658 60.7667 45.7952 60.6694L45.7965 60.672Z" fill="#D6BC6F"/>
<path fill-rule="evenodd" clip-rule="evenodd" d="M53.6115 68.2816C53.6115 68.2816 55.6019 69.3594 56.3206 70.6797C56.8448 71.6602 56.0102 72.1459 56.0102 72.1459C56.0102 72.1459 57.1366 72.1459 56.9907 72.7674C56.9229 73.1552 55.049 74.2035 53.7965 74.7571C52.5248 75.3107 52.5734 75.2819 51.952 75.3786C51.3498 75.4758 49.6992 75.1866 49.3594 75.6698C49.0195 76.153 49.1674 76.6509 49.2621 76.7283C49.3594 76.7962 50.1459 76.8934 50.1459 76.8934C50.1459 76.8934 49.9808 77.3498 48.3501 77.3984C46.7194 77.447 46.311 77.5629 46.2138 77.7382C46.1165 77.9027 46.5242 77.8061 47.2723 77.9302C48.0198 78.0467 49.0682 78.1222 49.0682 78.1222C49.0682 78.1222 48.7283 78.4134 47.8451 78.6464C46.8352 78.9082 45.2525 79.1514 44.777 79.4426C45.0195 79.6077 45.3792 79.8502 45.545 79.8694C45.1373 79.9667 44.5638 80.1805 44.4672 80.2579C44.6125 80.3552 44.807 80.4717 44.807 80.4717C44.807 80.4717 43.991 81.4522 43.5155 81.6954C43.04 81.9386 40.3021 83.2096 39.36 82.967C37.0106 82.3456 36.7194 79.7728 36.1466 79.5789C35.2826 79.2877 34.8749 79.8694 34.1075 79.4618C34.4474 79.2192 34.6323 79.0739 34.9914 78.9088C34.6029 78.7168 32.5933 77.4426 32.5933 77.4426C32.3831 76.9845 32.1499 76.5374 31.8944 76.103C31.5059 75.433 30.9344 74.5395 30.5056 73.753C29.5738 72.025 29.5251 71.2288 28.6803 70.2483C28.8262 70.0563 29.3306 70.0832 29.3306 70.0832L36.409 72.4134L48.96 72.777L52.224 68.1171L53.6122 68.2822L53.6115 68.2816Z" fill="#DFC677"/>
<path fill-rule="evenodd" clip-rule="evenodd" d="M35.0195 75.3882C35.0953 75.4725 35.1835 75.5446 35.2813 75.6019C35.5245 75.767 35.8835 75.9616 36.1261 76.2522C36.2234 76.1069 36.4659 75.8445 36.8941 76.2522C37.3222 76.6598 37.8541 76.3693 38.185 76.4659C38.5248 76.583 38.544 76.631 38.544 76.631C38.544 76.631 38.736 76.4659 39.1654 76.2912C39.4278 76.1939 39.7382 76.1261 40.0781 76.0294C40.3885 75.9616 40.7283 75.8643 40.9619 75.8643C41.1757 76.0096 41.9424 76.8243 45.0202 75.6218C47.9232 74.4954 48.5926 74.3693 49.0784 74.5434C49.127 74.4269 49.1757 74.2035 49.9232 74.233C49.9232 73.9226 49.3018 72.864 49.3018 72.864L45.8746 71.6896H44L38.3789 72.7187L35.264 74.496L35.0214 75.392L35.0195 75.3882Z" fill="#C4A859"/>
<path fill-rule="evenodd" clip-rule="evenodd" d="M33.1456 73.4176C33.1456 73.4176 33.2134 73.9418 33.9904 74.4954C34.7584 75.0483 34.9997 75.3786 34.9997 75.3786C34.9997 75.3786 35.1456 75.1866 35.2621 74.9907C35.3786 74.777 35.4758 74.5344 35.6698 74.4666C36.0582 74.3014 36.9414 74.6118 37.136 74.5632C37.3011 74.5152 37.2525 74.1754 37.4272 74.1754C37.8349 74.1555 38.0966 74.4371 38.2426 74.4371C38.3885 74.4371 38.7469 74.4179 38.7955 74.3405C38.8442 74.263 38.8634 73.4566 39.417 73.0682C40.0192 72.6413 40.7571 72.8256 40.953 72.9229C40.953 73.0682 40.9722 73.4278 41.3606 73.447C41.7491 73.4662 41.7875 73.3984 42.1286 73.5149C42.4698 73.6314 42.8762 73.4957 43.0605 74.0678C43.2256 74.0198 43.6141 73.9712 43.5168 73.4176C43.7088 73.2723 43.8765 73.175 44.2848 72.6022C44.3821 72.457 44.5466 72.2918 44.6733 72.0781C45.0131 72.0781 45.4208 72.0102 45.9642 72.4858C45.799 72.6022 45.7018 72.6778 45.6538 72.7962C45.7959 72.9369 45.9256 73.0895 46.0416 73.2525C46.1875 73.4445 46.2848 73.68 46.4691 73.7286C46.8768 73.8451 47.5469 73.68 48.2944 73.7286C49.0131 73.7773 49.6147 74.039 49.8771 74.2042C49.9744 74.1562 49.9744 74.1363 50.217 74.185C50.4595 74.2336 50.6438 74.2528 50.3821 73.9424C50.5274 74.0102 50.6925 74.1562 50.8384 74.0102C50.9843 73.8643 51.1002 73.6512 51.5078 73.6026C51.9155 73.5539 52.0614 73.6218 52.2266 73.1949C52.4403 72.6707 51.7024 72.6707 51.7024 72.6707C51.7024 72.6707 52.0422 72.3597 52.4211 71.952C52.8774 71.5251 53.4016 70.9715 53.5277 70.2918C53.7414 69.0394 52.5184 68.8749 52.5184 68.8749L46.5862 70.7002L39.3338 70.3405L33.1494 73.4182L33.1456 73.4176Z" fill="#927D49"/>
<path fill-rule="evenodd" clip-rule="evenodd" d="M27.8157 56.2816C27.8157 56.2816 27.6237 56.5242 27.5053 57.097C27.3869 57.6698 27.4374 57.6019 27.3402 58.0096C27.2429 58.4173 26.048 62.4755 26.496 63.8445C26.944 65.2134 27.7197 65.7184 28.2048 66.825C28.3021 67.0675 28.3968 67.2134 28.4474 67.4272C28.6125 68.1453 28.4672 68.6989 28.6611 69.4176C28.729 69.6602 28.9043 69.9418 29.1661 70.233C29.7421 70.8346 30.681 71.4074 31.0861 71.815C31.6582 72.4173 32.4742 73.641 33.513 73.7568C34.0666 73.8246 34.8531 73.5917 35.5034 73.2038C36.0794 72.8442 36.4352 72.3398 37.0394 72.0518C37.4662 71.8381 37.9226 71.7606 38.3302 71.6634C39.175 71.4982 39.9424 71.4714 40.3987 71.5661C41.0976 71.712 42.7482 72.217 43.6627 72.217C44.3774 72.2054 45.088 72.1077 45.7792 71.9258C47.1674 71.5181 48.8467 70.8186 49.9539 70.5082C50.6042 70.3162 51.1283 70.2656 51.6627 70.1491C52.5754 69.9354 53.3421 69.6442 53.7792 69.0906C53.488 68.7507 53.129 68.2266 51.1866 68.2458C48.983 68.2944 46.439 69.5174 45.1866 69.712C43.9341 69.9066 43.3907 70.071 41.9923 69.5661C40.6214 69.056 40.576 68.7187 40.576 68.7187C40.576 68.7187 39.1366 67.712 38.5344 65.1456C37.9322 62.5792 38.5344 60.7091 40.0979 58.9318C40.5056 58.4755 40.4083 58.0678 40.4083 58.0678C40.4083 58.0678 41.4374 56.6797 41.1558 55.3798C40.8454 54.0883 38.855 54.3507 38.855 54.3507L27.8163 56.2816H27.8157Z" fill="#6E6342"/>
<path fill-rule="evenodd" clip-rule="evenodd" d="M29.4758 60.6022C29.3902 60.7632 29.35 60.9444 29.3594 61.1264C29.3786 61.3882 29.4566 61.728 30.2426 62.4954C30.9126 63.1648 30.7667 63.9123 30.7667 63.9123C30.7667 63.9123 31.104 63.9802 32.0192 63.552C32.7379 63.2122 32.9792 63.8144 32.9792 63.8144C33.1884 63.7047 33.4152 63.6324 33.6493 63.6006C33.8614 63.5811 34.0667 63.5156 34.2509 63.4086C34.2509 63.4086 35.0957 64.2726 35.8336 64.6803C36.5037 65.04 36.8922 65.2826 37.2224 65.04C37.5328 64.8262 37.5328 64.3891 37.513 64.1952C37.436 64.0162 37.3384 63.8468 37.2224 63.6902C37.0086 63.3798 36.6688 63.0202 36.6464 62.7302C36.5978 62.0608 37.1514 61.264 37.0342 61.0701C36.9171 60.8762 36.4813 60.8275 35.4035 61.216C34.2874 61.5846 29.4714 60.6042 29.4714 60.6042L29.4758 60.6022Z" fill="#39331F"/>
<path fill-rule="evenodd" clip-rule="evenodd" d="M32.0192 64.9421C32.0192 64.9421 31.4662 64.4179 31.6602 61.8739C31.8949 61.8705 32.1293 61.8933 32.359 61.9418C32.359 61.9418 32.6605 63.913 32.0192 64.9421Z" fill="#292311"/>
<path fill-rule="evenodd" clip-rule="evenodd" d="M28.0781 54.3398C28.1552 54.2827 28.2268 54.2184 28.2918 54.1478C28.0998 54.5069 27.2134 55.9437 27.9322 58.2061C28.6509 60.4582 30.4563 62.1376 32.6797 62.2157C34.903 62.2938 36.0717 61.2058 37.408 59.575C37.9322 58.9248 38.5344 58.1088 39.0682 57.5558C39.8643 56.6912 40.4858 56.4486 40.4858 55.6141C40.4858 53.9053 38.7379 53.1379 36.1651 52.3712C33.5923 51.6045 31.2717 51.6992 30.0678 52.224C28.8934 52.7962 28.3885 53.3984 28.0774 54.3405L28.0781 54.3398Z" fill="#252211"/>
<path fill-rule="evenodd" clip-rule="evenodd" d="M36.3398 65.7088L36.5318 65.6115C36.5318 65.6115 36.5798 64.8435 36.8909 64.864C37.2013 64.9126 37.3472 65.321 37.3178 65.4662C37.2986 65.6115 37.2211 65.8547 36.9101 65.8253C36.5024 65.8349 36.3379 65.7088 36.3379 65.7088H36.3398Z" fill="#3F3824"/>
<path fill-rule="evenodd" clip-rule="evenodd" d="M35.4758 62.4467C35.4758 62.4467 35.6678 62.3789 35.9027 62.6118C36.0947 62.6118 36.9318 62.5146 37.1942 62.6797C37.4566 62.8448 37.5341 62.9901 37.5341 62.9901C37.5341 62.9901 36.5536 63.2038 36.0192 62.9901C35.4758 62.8058 35.4758 62.4467 35.4758 62.4467H35.4758Z" fill="#2D2815"/>
<path fill-rule="evenodd" clip-rule="evenodd" d="M39.7965 62.592C39.7965 62.5434 39.2723 62.1843 38.7187 62.0672C38.6214 62.048 38.6016 62.1158 38.5267 62.1158C38.4781 62.0966 38.4589 61.9507 38.4589 61.9507L38.144 62.1165C38.144 62.1165 38.0954 62.1843 38.2605 62.3085C38.4058 62.425 38.649 62.5222 38.7168 62.7162C38.7846 62.9101 38.7846 62.9779 38.8141 63.0074C38.8333 63.0266 39.1731 63.0074 39.3382 62.9101C39.5034 62.8128 39.8144 62.6541 39.7946 62.5901L39.7965 62.592Z" fill="#82764F"/>
<path fill-rule="evenodd" clip-rule="evenodd" d="M34.8934 64.5632C34.8934 64.5632 34.9901 63.8938 35.641 63.8643C36.3104 63.8157 36.4371 64.4659 36.4371 64.4659L36.0486 64.8544C36.0486 64.8448 35.7574 64.4371 34.8966 64.5632H34.8934Z" fill="#2D2816"/>
<path fill-rule="evenodd" clip-rule="evenodd" d="M39.1168 61.6794C39.1168 61.6794 38.7571 62.0678 37.9616 62.1843C37.8938 62.087 37.7478 61.8931 37.9616 61.5827C38.1754 61.2723 38.4179 61.175 38.6605 61.2717C38.879 61.3071 39.0571 61.4662 39.1168 61.6794Z" fill="#574F35"/>
<path fill-rule="evenodd" clip-rule="evenodd" d="M40.5824 62.1555C40.6022 62.0582 40.5344 62.039 40.5824 61.9904C40.6304 61.9418 40.8934 61.8451 40.9421 61.8931C40.9613 61.913 40.9421 61.9904 40.9421 62.0851C40.9421 62.1798 40.9421 62.2771 40.8934 62.3469C40.8256 62.4442 40.6317 62.4928 40.5344 62.464C40.4371 62.4352 40.4179 62.2989 40.4179 62.272C40.4659 62.2528 40.5824 62.2042 40.5824 62.1555ZM42.24 61.1072C42.24 61.0586 42.4051 60.9613 42.5024 60.9613C42.6477 60.9613 42.6477 61.0778 42.6675 61.1072C42.7155 61.1264 42.7155 61.0874 42.7642 61.175C42.8128 61.2627 42.8813 61.4176 42.832 61.5149C42.7827 61.6122 42.5894 61.6794 42.5414 61.6602C42.4736 61.6115 42.2598 61.175 42.24 61.1072Z" fill="#82764F"/>
<path fill-rule="evenodd" clip-rule="evenodd" d="M38.903 62.3789C38.903 62.3789 39.1168 62.4269 39.408 62.6701C39.3107 62.7379 39.1648 62.8154 39.1648 62.8154C39.1648 62.8154 39.1456 62.592 38.903 62.3782V62.3789Z" fill="#6E6342"/>
<path fill-rule="evenodd" clip-rule="evenodd" d="M38.4275 60.2426C38.3789 60.1946 38.5728 60.0781 38.6893 60.0973C38.8058 60.1165 38.8544 60.1946 38.9805 60.2138C39.1066 60.233 39.1264 60.1651 39.1725 60.1165C39.2186 60.0678 39.3862 60.0973 39.415 60.1165C39.433 60.1378 39.4492 60.1605 39.4637 60.1843C39.4678 60.1097 39.5028 60.0401 39.5603 59.9923C39.6358 59.9369 39.7324 59.919 39.8227 59.9437C39.8419 60.0115 39.9392 60.2541 39.92 60.3027C39.9008 60.3514 39.6096 60.4198 39.5603 60.3706C39.609 60.4877 39.8227 60.7302 39.8515 60.7782C39.8803 60.8262 39.6378 60.9434 39.5411 60.9242C39.4054 60.9146 38.5702 60.4288 38.425 60.2445L38.4275 60.2426ZM39.6992 58.631C39.6812 58.5821 39.6468 58.541 39.6019 58.5146C39.5341 58.4954 39.3107 58.5146 39.3107 58.631C39.3107 58.7475 39.5027 59.399 39.7184 59.7382C39.9616 60.0781 40.1261 60.359 40.2912 60.4371C40.3988 60.4861 40.5259 60.4436 40.5824 60.3398C40.6016 60.2912 40.6502 59.9322 40.631 59.0874C40.6118 58.2426 40.5824 57.4272 40.5338 57.3786C40.4851 57.3299 40.2912 57.3306 40.2234 57.4272C40.1555 57.5238 39.7184 58.4858 39.6986 58.631H39.6992Z" fill="#585136"/>
<path fill-rule="evenodd" clip-rule="evenodd" d="M38.8352 63.6019C38.8352 63.6019 38.4954 63.3882 38.1651 63.5341C37.8547 63.68 37.8739 64.2528 37.8739 64.2528C38.0157 64.3083 38.1758 64.2901 38.3014 64.2042C38.5152 64.0589 38.7866 63.8163 38.8352 63.6026V63.6019Z" fill="#574F35"/>
<path fill-rule="evenodd" clip-rule="evenodd" d="M39.4758 64.3693C39.4566 64.1773 39.2838 64.1773 39.2838 64.0781C39.3083 63.9805 39.3964 63.9123 39.497 63.913C39.5942 63.913 39.689 64.0294 39.808 64.105C39.9245 64.1728 40.0992 64.297 40.1184 64.4448C40.1376 64.5926 39.9264 64.9978 39.6915 64.9978C39.4566 64.9978 39.5264 64.5606 39.4778 64.3667L39.4758 64.3693ZM41.3498 64.1069C41.3498 64.1069 40.9613 64.2234 40.9901 64.1069C41.0189 63.9904 41.1072 63.9616 41.2333 63.9616C41.2973 63.8946 41.3835 63.853 41.4758 63.8445C41.5287 63.8419 41.5805 63.8592 41.6211 63.8931C41.6211 63.8931 41.8835 63.7766 41.961 63.8445C42.0384 63.9123 41.9808 63.9123 42.0288 63.9904C42.0899 64.0771 42.13 64.1768 42.1459 64.2816C42.1459 64.359 41.8547 64.5242 41.6211 64.4954C41.3498 64.4371 41.3978 64.1555 41.3498 64.1069ZM43.6115 63.6698C43.6115 63.6698 43.728 63.7376 43.6314 63.8157C43.5635 63.8835 43.2237 64.0077 42.9318 64.0294C42.6406 64.0294 42.3789 64.0774 42.3789 63.9808C42.3789 63.8842 42.6214 63.6896 42.7667 63.641C42.8258 63.567 42.9153 63.5241 43.0099 63.5245C43.1264 63.5245 43.5821 63.4758 43.7088 63.4566C43.8253 63.4368 43.9226 63.5046 43.8541 63.6019C43.8253 63.6698 43.6115 63.6698 43.6115 63.6698ZM44.2816 60.672C44.2816 60.672 44.1357 60.9824 43.9712 60.9824C43.8061 60.9632 43.8061 60.9146 43.8061 60.8659C43.8061 60.7981 43.9712 60.6234 43.9514 60.5747C43.9034 60.5747 43.7862 60.5747 43.8061 60.4582C43.8061 60.361 43.9712 60.2445 44.1165 60.2662C44.2263 60.176 44.3629 60.1249 44.505 60.121C44.6701 60.121 44.8154 60.169 44.8154 60.2662C44.8154 60.3635 44.6234 60.5766 44.553 60.6259C44.4755 60.7034 44.3782 60.7539 44.2816 60.6739V60.672ZM42.0678 66.4096C42.0678 66.4096 41.8758 66.4294 41.8758 66.5261C41.8758 66.5747 41.9238 66.5747 41.9923 66.5459C42.0318 66.5437 42.0708 66.537 42.1088 66.5261C42.128 66.5459 42.128 66.6426 42.2739 66.6426C42.3937 66.6264 42.5092 66.5868 42.6138 66.5261C42.7302 66.4781 42.8275 66.4288 42.8275 66.3341C42.7789 66.169 42.6816 66.0909 42.5363 66.0909C42.4619 66.0862 42.3876 66.1031 42.3226 66.1395C42.3226 66.1395 42.2739 66.0422 42.1088 66.1395C41.9437 66.2368 41.9629 66.2368 42.0115 66.2854C42.0986 66.3629 42.0698 66.4134 42.0698 66.4134L42.0678 66.4096ZM40.9709 67.4195C40.9709 67.3709 41.2134 67.2736 41.2813 67.303C41.3491 67.3222 41.543 67.6909 41.543 67.7299C41.543 67.7786 41.3005 67.895 41.2032 67.895C41.1059 67.895 40.9414 67.7299 40.9414 67.703C40.9414 67.6838 41.0579 67.655 41.0579 67.6352C41.0867 67.5872 40.9709 67.4701 40.9709 67.4214V67.4195ZM40.2029 66.0019C40.2515 65.9827 40.2515 65.9341 40.3194 65.8854C40.3624 65.8568 40.4163 65.8497 40.4653 65.8662C40.5 65.8044 40.5606 65.7614 40.6304 65.7491C40.7469 65.7299 40.8442 65.7491 40.8224 65.7978C40.8224 65.9437 40.9197 66.0403 40.9197 66.1568C40.9197 66.2733 40.8518 66.4192 40.6093 66.5165C40.3667 66.5843 40.0365 66.5843 39.9878 66.5651C39.9392 66.5459 39.8906 66.3514 39.9392 66.2541C39.9878 66.1568 40.1235 66.0506 40.2016 66.0019H40.2029Z" fill="#82764F"/>
<path fill-rule="evenodd" clip-rule="evenodd" d="M40.512 66.0678C40.512 66.0678 40.3469 66.1651 40.3469 66.2138C40.3322 66.2607 40.3257 66.3099 40.3277 66.359C40.3277 66.3878 40.5414 66.3398 40.5702 66.3104C40.5798 66.2912 40.512 66.1184 40.512 66.0678Z" fill="#6E6342"/>
<path fill-rule="evenodd" clip-rule="evenodd" d="M39.0682 65.6115C39.1648 65.6314 39.3299 65.6115 39.456 65.6602C39.5533 65.7088 39.6211 65.8061 39.5238 65.9226C39.4266 66.039 39.3318 66.2138 39.1162 66.1843C38.8736 66.1651 38.6406 66.039 38.6406 65.9418C38.6324 65.8175 38.6744 65.695 38.7571 65.6019C38.8544 65.5245 38.9024 65.5731 39.0675 65.6115H39.0682Z" fill="#585136"/>
<path fill-rule="evenodd" clip-rule="evenodd" d="M38.9517 65.7088C38.9517 65.7088 38.6413 65.9514 38.5632 66.0685C38.4659 66.185 37.9904 66.7866 37.8451 66.9126C37.8934 66.8275 37.9484 66.7464 38.0096 66.6701C37.8176 66.7929 37.6737 66.9779 37.6019 67.1942C37.4854 67.5539 38.2528 67.7478 38.7571 67.8938C39.2614 68.0397 39.4566 68.0858 39.4566 68.0858C39.271 67.8067 39.1116 67.511 38.9805 67.2026C38.7885 66.7462 38.6893 66.6976 38.8154 66.4838C38.9126 66.2701 39.0586 66.1248 39.0586 65.9597C39.0003 65.8061 38.9517 65.7088 38.9517 65.7088Z" fill="#574F35"/>
<path fill-rule="evenodd" clip-rule="evenodd" d="M27.8835 66.4762C27.9542 66.4891 28.0266 66.4891 28.0973 66.4762C28.2426 66.4563 29.7574 65.9002 31.3402 66C32.525 66.0716 33.6994 66.2646 34.8448 66.576C36.8352 67.1002 39.3107 68.1389 40.9126 68.7315C41.3395 68.896 41.7574 69.1878 42.0646 69.3037C43.2883 69.7798 43.3363 69.7798 44.055 69.9059C44.8998 70.0224 45.7638 69.7408 46.6669 69.5469C47.7734 69.3037 49.6666 69.1872 51.3267 68.9446C51.8636 68.8702 52.3931 68.7501 52.9094 68.5856C52.9094 68.5856 51.5891 69.9059 48.4237 70.3814C47.1442 70.5757 45.844 70.5921 44.56 70.4301C43.5501 70.3328 42.8806 70.1869 42.3757 70.0416C41.8029 69.8765 40.6278 69.4394 39.1814 69.0816C38.1715 68.8192 37.0451 68.6253 35.7542 68.3827C32.5696 67.7997 29.1136 67.1302 27.8822 66.48L27.8835 66.4762Z" fill="#252211"/>
<path fill-rule="evenodd" clip-rule="evenodd" d="M24.3104 60.4762C23.5424 61.1264 22.7277 61.7478 21.9322 62.3494L19.5341 64.192C18.7187 64.7936 17.9226 65.415 17.1066 66.0173C16.2906 66.6195 15.4758 67.1917 14.6106 67.7453C15.3786 67.095 16.1933 66.4928 17.0086 65.9008C17.824 65.3088 18.6694 64.7283 19.456 64.128L21.8541 62.2829C22.679 61.6813 23.4752 61.0598 24.3104 60.4774V60.4762ZM20.0678 67.2723C20.0678 67.2723 20.9318 66.5536 22.0096 65.5443C23.3491 64.2925 24.9901 62.6899 25.5142 62.3994L20.0672 67.273L20.0678 67.2723Z" fill="#CFB66C"/>
<path fill-rule="evenodd" clip-rule="evenodd" d="M20.0678 67.2717C20.4954 66.8448 20.9517 66.4275 21.408 66.0192L22.1069 65.4176C22.3206 65.2256 22.5638 65.0099 22.777 64.7962C23.2038 64.3693 23.6218 63.9123 24.0486 63.4758C24.2602 63.2563 24.4839 63.0489 24.7187 62.8544C24.8361 62.7505 24.9665 62.6623 25.1066 62.592C25.2237 62.5242 25.3498 62.4 25.5142 62.3782C25.4176 62.5242 25.3011 62.592 25.2038 62.7181C25.0874 62.8154 24.9901 62.9318 24.8934 63.0285C24.6797 63.2422 24.4371 63.4362 24.2234 63.6307C23.767 64.0192 23.2915 64.3987 22.8352 64.8051C22.3789 65.2115 21.952 65.6499 21.495 66.0576C21.0003 66.4755 20.544 66.8832 20.0678 67.2736V67.2717ZM25.8739 63.3882C25.8739 63.3882 22.7091 66.4858 22.0582 66.9901L25.8739 63.3882Z" fill="#CFB66C"/>
<path fill-rule="evenodd" clip-rule="evenodd" d="M25.8739 63.3882C25.5892 63.7177 25.284 64.029 24.96 64.32L24 65.2326C23.6896 65.543 23.3978 65.8541 23.0682 66.1645C22.7283 66.4557 22.4179 66.7405 22.0582 67.0093L22.9901 66.0966C23.3011 65.7862 23.641 65.5245 23.9712 65.2134L24.903 64.3008C25.223 63.9808 25.5341 63.6698 25.8739 63.3882ZM26.0192 65.0675C25.7275 65.8817 25.3837 66.6763 24.9901 67.4464C24.1747 69.0778 22.9517 71.1162 22.4173 72.1555L26.0192 65.0675Z" fill="#CFB66C"/>
<path fill-rule="evenodd" clip-rule="evenodd" d="M26.0192 65.0682C26.0192 65.4272 25.9219 65.7382 25.8054 66.0486C25.6919 66.3593 25.5624 66.6639 25.4176 66.9613C25.2717 67.2525 25.1066 67.5635 24.9414 67.8451C24.7763 68.1267 24.5824 68.4173 24.4365 68.7091L23.456 70.4371C23.1162 71.0131 22.7859 71.5923 22.4269 72.1459C22.6694 71.5245 22.9997 70.9421 23.3107 70.3693C23.6506 69.7933 23.961 69.2173 24.2707 68.6214C24.422 68.3245 24.558 68.0201 24.6784 67.7094C24.8237 67.3984 24.969 67.1072 25.0861 66.8256C25.2314 66.5152 25.3478 66.2234 25.4938 65.9424C25.6582 65.641 25.7946 65.3498 26.0179 65.0682L26.0192 65.0682Z" fill="#CFB66C"/>
<path fill-rule="evenodd" clip-rule="evenodd" d="M29.4758 73.0291C29.4758 73.0291 28.5158 74.3008 28.6118 75.9123C28.8736 75.0682 29.2038 73.7766 29.4758 73.0291ZM30.3885 74.304C30.3885 74.304 30.0486 77.76 29.767 79.4592C30.1651 77.495 30.2426 77.6602 30.3885 74.304ZM36.7475 79.6634C36.7475 79.6634 35.3107 83.8874 35.2813 85.0611C35.5923 83.8541 36.1939 81.3882 36.7475 79.6602V79.6634Z" fill="#DEC270"/>
<path fill-rule="evenodd" clip-rule="evenodd" d="M40.1069 72.768C40.1069 72.768 42.4371 76.6125 44.185 79.8938C43.712 78.2426 42.624 75.2141 40.1069 72.768Z" fill="#CBAF59"/>
<path fill-rule="evenodd" clip-rule="evenodd" d="M46.3693 78.4275C47.6487 80.6891 48.8024 83.0194 49.8253 85.408C49.6314 83.7574 49.1066 80.9325 46.3693 78.4275Z" fill="#E3C677"/>
<path fill-rule="evenodd" clip-rule="evenodd" d="M64.777 84.096C65.1648 83.8534 65.9322 82.5325 66.6022 82.2029C67.2717 81.863 67.7766 81.7952 68.3789 81.1251C68.9805 80.4256 69.1469 79.9987 70.4659 79.4458C72.311 78.649 71.0419 77.6198 71.0419 77.6198C71.2452 77.4202 71.4625 77.2354 71.6922 77.0669C72.1683 76.7078 72.7213 76.2707 72.6733 75.5034C72.6054 74.2125 72.3629 72.3386 71.3043 71.2512C72.3334 71.0374 74.304 70.8922 75.5283 70.5818C76.9453 70.2221 77.5962 69.7171 77.5962 69.7171C77.5962 69.7171 76.7808 68.329 78.1011 66.9312C79.4214 65.5334 80.4992 64.6982 81.2954 63.1347C80.3827 63.0182 78.9914 62.5331 75.4406 63.8822C75.6323 63.9724 75.8173 64.0761 75.9942 64.1926C75.9942 64.1926 73.8099 64.7949 73.0138 65.465C71.625 66.6394 71.4502 67.6006 69.9456 68.3194C68.441 69.0381 66.9261 68.8435 65.6742 69.4259C64.4224 70.0083 64.2374 70.5037 63.7805 70.7174C63.8778 70.8339 63.7613 71.0278 63.9456 71.193C63.8291 71.3581 63.1494 72.4646 62.4602 72.4646C62.528 72.727 63.1104 72.921 63.1104 72.921C63.1104 72.921 62.6835 73.232 61.5962 73.3094C62.1491 73.8854 62.6739 74.5133 64.1203 75.4259C64.0038 75.6685 63.5181 76.0282 63.7126 76.4845C63.9264 76.9408 64.4806 77.5622 66.6931 78.0672C65.5667 78.1152 64.247 78.3776 62.4691 78.135C60.6925 77.9213 60.4013 77.7952 59.3043 78.0672C59.4208 78.1837 59.7312 78.1837 60.0032 78.4941C59.712 78.5133 57.8867 78.2803 57.2653 79.0963C56.615 79.9405 56.3334 81.3293 56.3821 82.2611C56.0422 82.4262 55.712 82.7174 55.8771 83.3197C56.0422 83.9219 56.9062 84.1158 57.4598 84.4941C58.0128 84.9018 58.0614 85.047 58.5862 84.9504C59.1392 84.8339 59.9546 84.281 60.4307 84.281C60.9069 84.281 61.2461 84.64 61.2461 84.64C61.2461 84.64 62.5376 84.0186 62.6637 84.135C62.7802 84.2515 62.6829 84.999 62.809 85.1155C62.937 85.2032 64.3917 84.3392 64.7802 84.096H64.777Z" fill="#ECD592"/>
</g>
<defs>
<clipPath id="clip0_9925_12916">
<rect width="120" height="120" fill="white"/>
</clipPath>
</defs>
</svg>
