<svg width="88" height="88" viewBox="0 0 88 88" fill="none" xmlns="http://www.w3.org/2000/svg">
<g clip-path="url(#clip0_12085_4857)">
<path d="M44 88C68.3005 88 88 68.3005 88 44C88 19.6995 68.3005 0 44 0C19.6995 0 0 19.6995 0 44C0 68.3005 19.6995 88 44 88Z" fill="#C3A634"/>
<path fill-rule="evenodd" clip-rule="evenodd" d="M36.432 40.1775H48.2955V46.464H36.432V59.7135H43.9147C46.8765 59.7135 49.2993 59.3148 51.1858 58.5117C53.0723 57.7115 54.5518 56.6032 55.627 55.1842C56.7267 53.7086 57.4754 52.0016 57.816 50.193C58.2133 48.1529 58.4068 46.0784 58.3935 44C58.4068 41.9216 58.2133 39.8471 57.816 37.807C57.4758 35.9983 56.7271 34.2912 55.627 32.8157C54.5518 31.3967 53.0695 30.2885 51.1858 29.4882C49.2993 28.6852 46.8765 28.2865 43.9147 28.2865H36.432V40.1803V40.1775ZM28.8255 46.464H24.75V40.1803H28.8255V22H46.8353C50.1628 22 53.042 22.5775 55.4757 23.7242C57.9095 24.8765 59.895 26.4468 61.4377 28.4405C62.9777 30.4315 64.1245 32.7635 64.8752 35.4338C65.626 38.104 66 40.9613 66 44C66.0189 46.8936 65.6395 49.7761 64.8725 52.5662C64.1245 55.2337 62.9777 57.5685 61.435 59.5595C59.895 61.5533 57.9095 63.1235 55.4757 64.2757C53.042 65.4252 50.16 66 46.8353 66H28.8255V46.464Z" fill="white"/>
</g>
<defs>
<clipPath id="clip0_12085_4857">
<rect width="88" height="88" fill="white"/>
</clipPath>
</defs>
</svg>
