<svg width="88" height="88" viewBox="0 0 88 88" fill="none" xmlns="http://www.w3.org/2000/svg">
<g clip-path="url(#clip0_12085_5162)">
<path d="M88 0H0V88H88V0Z" fill="black"/>
<path d="M44 80V67.7407C42.7706 67.7407 41.5145 67.6334 40.2851 67.4456L38.3608 79.544C40.2316 79.8659 42.1292 80 44 80ZM49.6125 79.5708C51.4833 79.2757 53.3274 78.8465 55.118 78.2563L51.3497 66.5872C50.1737 66.9627 48.9443 67.2578 47.7149 67.4456L49.6125 79.5708ZM32.882 78.2563L36.6503 66.614C35.4744 66.2385 34.3252 65.7556 33.2027 65.1923L27.6437 76.1103C29.3274 76.9419 31.0913 77.6662 32.882 78.2563ZM60.3296 76.1103C62.0134 75.2519 63.6169 74.2593 65.1403 73.1595L57.9243 63.2608C56.9354 63.9851 55.8664 64.6557 54.7439 65.1923L60.3296 76.1103ZM22.833 73.1326L30.049 63.234C29.0601 62.5097 28.098 61.7049 27.216 60.8197L18.5568 69.4844C19.8931 70.7988 21.3363 72.0328 22.833 73.1326ZM69.3897 69.538L69.4699 69.4575C70.8062 68.1431 72.0356 66.6945 73.1314 65.1923L63.2428 57.9762C62.5212 58.9687 61.6926 59.9344 60.8374 60.7928L60.7038 60.927L64.873 64.8703L69.3897 69.538ZM14.8953 65.1654L24.784 57.9493C24.0624 56.9568 23.3942 55.8838 22.833 54.7839L11.9287 60.3368C12.784 62.0268 13.7728 63.6364 14.8953 65.1654ZM76.0713 60.3636C76.9265 58.7004 77.6481 56.93 78.2361 55.1326L66.5835 51.377C66.2093 52.5574 65.7283 53.7109 65.167 54.8107L76.0713 60.3636ZM9.76392 55.1326L21.4165 51.3502C21.0423 50.1699 20.7483 48.9627 20.5612 47.7288L8.45434 49.6334C8.74833 51.4844 9.20267 53.3353 9.76392 55.1326ZM79.5457 49.6602C79.8396 47.8092 80 45.9046 80 44.0268H67.7595C67.7595 45.2608 67.6526 46.5216 67.4655 47.7556L79.5457 49.6602ZM20.2673 44C20.2673 42.766 20.3742 41.5052 20.5612 40.2712L8.45434 38.3666C8.16036 40.2176 8.02673 42.1222 8 44H20.2673ZM67.4655 40.2981L79.5724 38.3934C79.2784 36.5425 78.8508 34.6915 78.2628 32.8942L66.6102 36.6498C66.9844 37.8569 67.2784 39.0641 67.4655 40.2981ZM21.4165 36.6498C21.7906 35.4694 22.2717 34.3159 22.833 33.2161L11.9287 27.6632C11.0735 29.3264 10.3519 31.0969 9.76392 32.8942L21.4165 36.6498ZM65.1938 33.2429L76.1247 27.69C75.2695 26 74.2806 24.3905 73.1581 22.8614L63.2428 30.0775C63.9644 31.07 64.6325 32.1431 65.1938 33.2429ZM24.784 30.0507C25.5056 29.0581 26.3341 28.0924 27.216 27.2072L27.2428 27.1803L18.5835 18.5156L18.5568 18.5425C17.2205 19.8838 15.9911 21.3055 14.8953 22.8346L24.784 30.0507ZM60.8374 27.2608L63.4566 24.6051L69.4699 18.5961L69.4432 18.5693C68.1069 17.2548 66.6904 16.0209 65.1938 14.921L57.9777 24.8197C58.9666 25.544 59.9287 26.3487 60.784 27.234L60.8374 27.2608ZM30.0757 24.766C31.0646 24.0417 32.1336 23.3979 33.2561 22.8346L27.6971 11.9165C26.0134 12.775 24.4098 13.7675 22.8864 14.8674L30.0757 24.766ZM54.824 22.8614L60.4098 11.9434C58.7261 11.0849 56.9889 10.3607 55.1982 9.77049L51.4031 21.4128C52.5523 21.8152 53.7016 22.2981 54.824 22.8614ZM36.7038 21.4128C37.8797 21.0373 39.1091 20.7422 40.3385 20.5544L38.441 8.45604C36.5969 8.75112 34.7261 9.18033 32.9354 9.77049L36.7038 21.4128ZM47.7416 20.5544L49.6659 8.45604C47.8218 8.16095 45.9243 8 44.0534 8V20.2593C45.2828 20.2593 46.539 20.3666 47.7416 20.5544Z" fill="white"/>
<path d="M44.0002 68.2642V55.9716C42.9596 55.9716 41.9457 55.8377 40.9317 55.5699L37.7299 67.434C39.7844 67.9696 41.8923 68.2642 44.0002 68.2642ZM50.2704 67.434C52.3249 66.8984 54.2727 66.0949 56.1137 65.0237L49.9235 54.3915C49.043 54.9004 48.0825 55.3021 47.0952 55.5699L50.2704 67.434ZM31.9133 65.0237L38.1035 54.3915C37.223 53.8827 36.3958 53.2399 35.6487 52.5168L35.542 52.4097L31.6465 56.5073L26.8437 61.1404L26.9238 61.2208C28.418 62.6937 30.0989 63.9792 31.9133 65.0237ZM61.1032 61.2208C62.5974 59.721 63.9048 58.0606 64.9454 56.2394L54.246 50.0798C53.739 50.9635 53.0987 51.767 52.3516 52.5168L61.1032 61.2208ZM23.0549 56.2127L33.7543 50.0798C33.2474 49.196 32.8471 48.2586 32.5803 47.2677L20.6536 50.4279C21.1872 52.4365 22.0143 54.3915 23.0549 56.2127ZM67.3734 50.4547C67.9071 48.4193 68.2006 46.3304 68.2006 44.2414H55.8469C55.8469 45.2591 55.7135 46.3036 55.4467 47.2945L67.3734 50.4547ZM32.2068 44.2147C32.2068 43.197 32.3402 42.1525 32.607 41.1616L20.6536 38.0014C20.1199 40.0368 19.8264 42.1257 19.8264 44.2147H32.2068ZM55.42 41.1884L67.3734 38.0282C66.8398 35.9928 66.0127 34.0378 64.9721 32.2167L54.2727 38.3496C54.7529 39.2601 55.1532 40.1975 55.42 41.1884ZM33.781 38.3496C34.288 37.4926 34.9016 36.6623 35.6487 35.9393L35.6754 35.9125L31.2462 31.5203L27.0038 27.155L26.9238 27.2353C25.4296 28.7083 24.1489 30.3955 23.0816 32.1899L33.781 38.3496ZM52.3516 35.9393L56.7274 31.5739L61.2099 27.3425L61.1032 27.2353C59.609 25.7356 57.9281 24.4769 56.1137 23.4056L49.9235 34.0378C50.804 34.5466 51.6045 35.1626 52.3516 35.8857V35.9393ZM38.1035 34.0378C38.984 33.5289 39.9445 33.1272 40.9317 32.8594L37.7833 20.9953C35.7288 21.5309 33.781 22.3344 31.94 23.4056L38.1035 34.0378ZM47.0686 32.8862L50.2704 21.0221C48.2426 20.4865 46.1347 20.1919 44.0268 20.1919V32.4845C45.0407 32.4845 46.0813 32.6184 47.0686 32.8862Z" fill="white"/>
</g>
<defs>
<clipPath id="clip0_12085_5162">
<rect width="88" height="88" rx="44" fill="white"/>
</clipPath>
</defs>
</svg>
