<svg width="120" height="120" viewBox="0 0 120 120" fill="none" xmlns="http://www.w3.org/2000/svg">
<g clip-path="url(#clip0_9933_121)">
<path d="M120 0H0V120H120V0Z" fill="black"/>
<path d="M59.4268 109.205V92.3702C57.7484 92.3702 56.0336 92.2228 54.3552 91.965L51.7282 108.579C54.2822 109.021 56.8727 109.205 59.4268 109.205ZM67.0888 108.616C69.6429 108.211 72.1604 107.621 74.605 106.811L69.4604 90.7861C67.8551 91.3019 66.1767 91.7071 64.4983 91.965L67.0888 108.616ZM44.2485 106.811L49.3931 90.823C47.7877 90.3072 46.2188 89.6442 44.6864 88.8706L37.0973 103.864C39.3959 105.006 41.804 106 44.2485 106.811ZM81.7198 103.864C84.0184 102.685 86.2076 101.322 88.2873 99.8115L78.436 86.2182C77.086 87.2128 75.6266 88.1338 74.0942 88.8706L81.7198 103.864ZM30.5298 99.7746L40.381 86.1814C39.031 85.1868 37.7175 84.0816 36.5135 82.866L24.692 94.7646C26.5163 96.5697 28.4865 98.2643 30.5298 99.7746ZM94.0886 94.8383L94.198 94.7278C96.0223 92.9227 97.7007 90.9335 99.1966 88.8706L85.6968 78.9611C84.7116 80.3241 83.5806 81.6503 82.413 82.8291L82.2306 83.0133L87.9224 88.4285L94.0886 94.8383ZM19.6934 88.8337L33.1932 78.9243C32.2081 77.5613 31.296 76.0877 30.5298 74.5774L15.6434 82.2029C16.811 84.5237 18.161 86.734 19.6934 88.8337ZM103.21 82.2397C104.378 79.9557 105.363 77.5244 106.165 75.0563L90.2575 69.8989C89.7467 71.5198 89.09 73.1039 88.3238 74.6142L103.21 82.2397ZM12.688 75.0563L28.596 69.8621C28.0852 68.2412 27.6838 66.5835 27.4284 64.889L10.9002 67.5045C11.3016 70.0463 11.9218 72.5881 12.688 75.0563ZM107.953 67.5413C108.355 64.9995 108.574 62.384 108.574 59.8053H91.8629C91.8629 61.4999 91.717 63.2313 91.4616 64.9258L107.953 67.5413ZM27.0271 59.7685C27.0271 58.0739 27.173 56.3425 27.4284 54.648L10.9002 52.0325C10.4989 54.5743 10.3164 57.1898 10.28 59.7685H27.0271ZM91.4616 54.6848L107.99 52.0693C107.588 49.5275 107.005 46.9857 106.202 44.5175L90.294 49.6748C90.8048 51.3326 91.2062 52.9903 91.4616 54.6848ZM28.596 49.6748C29.1068 48.054 29.7635 46.4699 30.5298 44.9596L15.6434 37.3341C14.4759 39.6181 13.4907 42.0494 12.688 44.5175L28.596 49.6748ZM88.3602 44.9964L103.283 37.3709C102.116 35.0501 100.766 32.8398 99.2331 30.7401L85.6968 40.6495C86.6819 42.0125 87.594 43.4861 88.3602 44.9964ZM33.1932 40.6127C34.1784 39.2497 35.3094 37.9235 36.5135 36.7078L36.55 36.671L24.7285 24.7723L24.692 24.8091C22.8677 26.6511 21.1893 28.6035 19.6934 30.7032L33.1932 40.6127ZM82.413 36.7815L85.9887 33.1346L94.198 24.8828L94.1615 24.846C92.3372 23.0409 90.4035 21.3464 88.3602 19.836L78.509 33.4293C79.859 34.4239 81.1725 35.529 82.34 36.7447L82.413 36.7815ZM40.4175 33.3556C41.7675 32.361 43.2269 31.4768 44.7593 30.7032L37.1702 15.7101C34.8716 16.889 32.6824 18.252 30.6027 19.7623L40.4175 33.3556ZM74.2036 30.7401L81.8292 15.747C79.5306 14.5682 77.159 13.5735 74.7144 12.7631L69.5334 28.7508C71.1023 29.3034 72.6712 29.9665 74.2036 30.7401ZM49.466 28.7508C51.0714 28.2351 52.7498 27.8299 54.4282 27.572L51.8376 10.958C49.3201 11.3633 46.7661 11.9527 44.3215 12.7631L49.466 28.7508ZM64.5348 27.572L67.1618 10.958C64.6443 10.5528 62.0538 10.3318 59.4997 10.3318V27.1668C61.1781 27.1668 62.8929 27.3141 64.5348 27.572Z" fill="white"/>
<path d="M59.4268 93.0891V76.2084C58.0062 76.2084 56.622 76.0245 55.2378 75.6567L50.8667 91.949C53.6715 92.6845 56.5491 93.0891 59.4268 93.0891ZM67.9868 91.949C70.7916 91.2135 73.4507 90.1101 75.9641 88.6391L67.5133 74.0385C66.3112 74.7373 64.9999 75.289 63.6522 75.6567L67.9868 91.949ZM42.9259 88.6391L51.3767 74.0385C50.1746 73.3398 49.0454 72.4571 48.0255 71.4641L47.8798 71.317L42.5617 76.9439L36.005 83.3064L36.1143 83.4167C38.1541 85.4394 40.449 87.2047 42.9259 88.6391ZM82.7757 83.4167C84.8155 81.3572 86.6004 79.077 88.021 76.5762L73.4143 68.1174C72.7222 69.3311 71.848 70.4344 70.828 71.4641L82.7757 83.4167ZM30.8326 76.5394L45.4393 68.1174C44.7472 66.9038 44.2008 65.6166 43.8366 64.2558L27.5543 68.5955C28.2828 71.3538 29.412 74.0385 30.8326 76.5394ZM91.3357 68.6323C92.0642 65.8372 92.4649 62.9686 92.4649 60.1H75.5998C75.5998 61.4975 75.4177 62.9318 75.0534 64.2926L91.3357 68.6323ZM43.3266 60.0632C43.3266 58.6657 43.5087 57.2314 43.873 55.8706L27.5543 51.5309C26.8257 54.326 26.4251 57.1946 26.4251 60.0632H43.3266ZM75.017 55.9074L91.3357 51.5677C90.6072 48.7727 89.478 46.0879 88.0574 43.5871L73.4507 52.009C74.1064 53.2595 74.6527 54.5467 75.017 55.9074ZM45.4757 52.009C46.1678 50.8322 47.0056 49.6921 48.0255 48.6991L48.0619 48.6623L42.0153 42.6309L36.2236 36.6362L36.1143 36.7465C34.0745 38.7693 32.326 41.0862 30.869 43.5503L45.4757 52.009ZM70.828 48.6991L76.8018 42.7044L82.9214 36.8936L82.7757 36.7465C80.7358 34.687 78.441 32.9585 75.9641 31.4874L67.5133 46.0879C68.7153 46.7867 69.8081 47.6326 70.828 48.6255V48.6991ZM51.3767 46.0879C52.5787 45.3892 53.8901 44.8375 55.2378 44.4697L50.9396 28.1775C48.1348 28.913 45.4757 30.0163 42.9623 31.4874L51.3767 46.0879ZM63.6157 44.5065L67.9868 28.2142C65.2185 27.4787 62.3408 27.0742 59.4632 27.0742V43.9549C60.8474 43.9549 62.268 44.1387 63.6157 44.5065Z" fill="white"/>
</g>
<defs>
<clipPath id="clip0_9933_121">
<rect width="120" height="120" rx="60" fill="white"/>
</clipPath>
</defs>
</svg>
