<svg width="88" height="88" viewBox="0 0 88 88" fill="none" xmlns="http://www.w3.org/2000/svg">
<g clip-path="url(#clip0_12085_4884)">
<path fill-rule="evenodd" clip-rule="evenodd" d="M44 0C68.3022 0 88 19.6978 88 44C88 68.3022 68.3022 88 44 88C19.6978 88 0 68.3022 0 44C0 19.6978 19.6978 0 44 0Z" fill="black"/>
<path d="M24.1824 44L24.2141 55.6346L34.1 61.4519V68.2635L18.4285 59.0721V40.5978L24.1824 44ZM24.1824 32.3654V39.1452L18.425 35.7394V28.9596L24.1824 25.5538L29.9679 28.9596L24.1824 32.3654ZM38.2285 28.9596L43.9859 25.5538L49.7715 28.9596L43.9859 32.3654L38.2285 28.9596Z" fill="#F0B90B"/>
<path d="M28.3426 53.2231V46.4115L34.1 49.8173V56.5971L28.3426 53.2231ZM38.2285 63.8917L43.9859 67.2974L49.7715 63.8917V70.6715L43.9859 74.0772L38.2285 70.6715V63.8917ZM58.0285 28.9596L63.7859 25.5538L69.5715 28.9596V35.7394L63.7859 39.1452V32.3654L58.0285 28.9596ZM63.7859 55.6346L63.8176 44L69.575 40.5942V59.0686L53.9035 68.2599V61.4484L63.7859 55.6346Z" fill="#F0B90B"/>
<path d="M59.6574 53.2231L53.9 56.5971V49.8173L59.6574 46.4115V53.2231Z" fill="#F0B90B"/>
<path d="M59.6574 34.7769L59.6891 41.5884L49.775 47.4058V59.0686L44.0176 62.4426L38.2602 59.0686V47.4058L28.3461 41.5884V34.7769L34.1282 31.3711L43.9824 37.2167L53.8965 31.3711L59.682 34.7769H59.6574ZM28.3426 23.1458L43.9859 13.9227L59.6574 23.1458L53.9 26.5516L43.9859 20.7061L34.1 26.5516L28.3426 23.1458Z" fill="#F0B90B"/>
</g>
<defs>
<clipPath id="clip0_12085_4884">
<rect width="88" height="88" fill="white"/>
</clipPath>
</defs>
</svg>
