<svg width="19" height="20" viewBox="0 0 19 20" fill="none" xmlns="http://www.w3.org/2000/svg">
<path fill-rule="evenodd" clip-rule="evenodd" d="M17.9023 11.58C18.26 11.77 18.536 12.07 18.7301 12.37C19.1083 12.99 19.0776 13.75 18.7097 14.42L17.9943 15.62C17.6162 16.26 16.911 16.66 16.1855 16.66C15.8278 16.66 15.4292 16.56 15.1022 16.36C14.8365 16.19 14.5299 16.13 14.2029 16.13C13.1911 16.13 12.3429 16.96 12.3122 17.95C12.3122 19.1 11.372 20 10.1968 20H8.80692C7.62145 20 6.68125 19.1 6.68125 17.95C6.66081 16.96 5.81259 16.13 4.80085 16.13C4.46361 16.13 4.15702 16.19 3.90153 16.36C3.5745 16.56 3.16572 16.66 2.81825 16.66C2.08245 16.66 1.37729 16.26 0.99917 15.62L0.29402 14.42C-0.0841044 13.77 -0.104544 12.99 0.273581 12.37C0.437094 12.07 0.743681 11.77 1.09115 11.58C1.37729 11.44 1.56125 11.21 1.73498 10.94C2.24596 10.08 1.93937 8.95 1.07071 8.44C0.0589696 7.87 -0.268057 6.6 0.314459 5.61L0.99917 4.43C1.59191 3.44 2.85913 3.09 3.88109 3.67C4.77019 4.15 5.925 3.83 6.4462 2.98C6.60972 2.7 6.70169 2.4 6.68125 2.1C6.66081 1.71 6.77323 1.34 6.9674 1.04C7.34553 0.42 8.03024 0.02 8.77627 0H10.2172C10.9735 0 11.6582 0.42 12.0363 1.04C12.2203 1.34 12.3429 1.71 12.3122 2.1C12.2918 2.4 12.3838 2.7 12.5473 2.98C13.0685 3.83 14.2233 4.15 15.1226 3.67C16.1344 3.09 17.4118 3.44 17.9943 4.43L18.679 5.61C19.2718 6.6 18.9447 7.87 17.9228 8.44C17.0541 8.95 16.7475 10.08 17.2687 10.94C17.4322 11.21 17.6162 11.44 17.9023 11.58ZM6.60972 10.01C6.60972 11.58 7.9076 12.83 9.51208 12.83C11.1165 12.83 12.3838 11.58 12.3838 10.01C12.3838 8.44 11.1165 7.18 9.51208 7.18C7.9076 7.18 6.60972 8.44 6.60972 10.01Z" fill="#767A81"/>
</svg>
