<svg width="31" height="30" viewBox="0 0 31 30" fill="none" xmlns="http://www.w3.org/2000/svg">
<path d="M25.5396 8.89617C25.4478 8.51684 25.1051 8.25 24.713 8.25H21.1521C21.1607 7.8123 21.1559 7.4168 21.1466 7.08914C21.1309 6.47918 20.6328 6 20.0181 6H10.9888C10.3741 6 9.87602 6.47918 9.85835 7.08914C9.8195 7.4168 9.84422 7.8123 9.85482 8.25H6.29254C5.90042 8.25 5.56048 8.51684 5.46775 8.89617C5.43906 9.0157 4.77458 11.8781 6.63909 14.6449C7.9617 16.6073 10.1929 17.9858 13.2627 18.7723C13.9233 18.9412 14.3723 19.5478 14.3723 20.2267C14.373 21.0645 13.6842 21.75 12.8399 21.75H12.6774C11.7409 21.75 10.9821 22.5055 10.9821 23.4375C10.9821 23.7481 11.2351 24 11.5155 24H19.3967C19.7089 24 19.9302 23.7481 19.9302 23.4375C19.9302 22.5055 19.1714 21.75 18.2349 21.75H18.0708C17.2279 21.75 16.5391 21.0645 16.5391 20.226C16.5391 19.5471 16.9881 18.9403 17.6487 18.7716C20.7206 17.9862 22.9511 16.6077 24.2723 14.6442C26.232 11.8781 25.5679 9.0157 25.5396 8.89617ZM8.06414 13.7273C7.07713 12.2789 6.99023 10.7707 7.03863 9.9375H9.87849C10.0678 12.0335 10.5974 14.5465 11.9157 16.5855C10.1834 15.9 8.89395 14.9438 8.06414 13.7273ZM22.9431 13.7273C22.1151 14.9438 20.8257 15.8982 19.0926 16.5827C20.4103 14.5465 20.9401 12.0328 21.1274 9.9375H23.9672C23.9853 10.7707 23.9287 12.2824 22.9431 13.7273Z" fill="#767A81"/>
</svg>
