<svg width="24" height="24" viewBox="0 0 24 24" fill="none" xmlns="http://www.w3.org/2000/svg">
<rect width="24" height="24" rx="8" fill="#2D5BE6"/>
<path d="M4 12H8.44444M4 12C4 16.4183 7.58172 20 12 20M4 12C4 7.58172 7.58172 4 12 4M8.44444 12H15.5556M8.44444 12C8.44444 16.4183 10.0363 20 12 20M8.44444 12C8.44444 7.58172 10.0363 4 12 4M15.5556 12H20M15.5556 12C15.5556 7.58172 13.9637 4 12 4M15.5556 12C15.5556 16.4183 13.9637 20 12 20M20 12C20 7.58172 16.4183 4 12 4M20 12C20 16.4183 16.4183 20 12 20" stroke="white" stroke-width="1.5" stroke-linecap="round" stroke-linejoin="round"/>
</svg>
