<svg width="44" height="44" viewBox="0 0 44 44" fill="none" xmlns="http://www.w3.org/2000/svg">
<rect width="44" height="44" rx="22" fill="black"/>
<path d="M25.9721 17.8244H18.0951C17.7606 17.8244 17.4892 18.0782 17.4892 18.3914V25.7618C17.4892 26.0749 17.7606 26.3287 18.0951 26.3287H25.9721C26.3067 26.3287 26.5779 26.0749 26.5779 25.7618V18.3914C26.5779 18.0782 26.3067 17.8244 25.9721 17.8244Z" fill="white"/>
<path d="M16.8854 9.31946H9.00866C8.67398 9.31946 8.40277 9.57329 8.40277 9.88641V17.2568C8.40277 17.5699 8.67398 17.8238 9.00866 17.8238H16.8854C17.2201 17.8238 17.4915 17.5699 17.4915 17.2568V9.88641C17.4915 9.57329 17.2201 9.31946 16.8854 9.31946Z" fill="white"/>
<path d="M35.0657 9.31946H27.1887C26.8543 9.31946 26.5828 9.57329 26.5828 9.88641V17.2568C26.5828 17.5699 26.8543 17.8238 27.1887 17.8238H35.0657C35.4004 17.8238 35.6716 17.5699 35.6716 17.2568V9.88641C35.6716 9.57329 35.4004 9.31946 35.0657 9.31946Z" fill="white"/>
<path d="M16.8854 26.3285H9.00866C8.67398 26.3285 8.40277 26.5823 8.40277 26.8955V34.266C8.40277 34.579 8.67398 34.8329 9.00866 34.8329H16.8854C17.2201 34.8329 17.4915 34.579 17.4915 34.266V26.8955C17.4915 26.5823 17.2201 26.3285 16.8854 26.3285Z" fill="white"/>
<path d="M35.0657 26.3285H27.1887C26.8543 26.3285 26.5828 26.5823 26.5828 26.8955V34.266C26.5828 34.579 26.8543 34.8329 27.1887 34.8329H35.0657C35.4004 34.8329 35.6716 34.579 35.6716 34.266V26.8955C35.6716 26.5823 35.4004 26.3285 35.0657 26.3285Z" fill="white"/>
</svg>
