<svg width="120" height="120" viewBox="0 0 120 120" fill="none" xmlns="http://www.w3.org/2000/svg">
<rect width="120" height="119.867" rx="59.9334" fill="#6CE89E"/>
<path d="M80.8281 28.9407L66.4057 50.3441C65.4084 51.8017 67.3263 53.5661 68.7071 52.3387L82.8994 39.9876C83.2829 39.6807 83.8199 39.9109 83.8199 40.4479V79.0354C83.8199 79.5724 83.1295 79.8026 82.8226 79.419L39.8624 28.0201C38.4815 26.3324 36.4869 25.4118 34.2622 25.4118H32.7279C28.7387 25.4118 25.44 28.7105 25.44 32.7764V87.0905C25.44 91.1564 28.7387 94.4551 32.8046 94.4551C35.3362 94.4551 37.7144 93.1509 39.0952 90.9262L53.5176 69.5228C54.5149 68.0652 52.597 66.3008 51.2162 67.5282L37.0239 79.8026C36.6404 80.1094 36.1034 79.8793 36.1034 79.3423V40.8315C36.1034 40.2945 36.7938 40.0643 37.1006 40.4479L80.0609 91.8468C81.4418 93.5345 83.5131 94.4551 85.6611 94.4551H87.1954C91.2613 94.4551 94.56 91.1564 94.56 87.0905V32.7764C94.56 28.7105 91.2613 25.4118 87.1954 25.4118C84.5871 25.4118 82.2089 26.716 80.8281 28.9407Z" fill="black"/>
</svg>
