<svg width="24" height="25" viewBox="0 0 24 25" fill="none" xmlns="http://www.w3.org/2000/svg">
<rect y="0.365967" width="24" height="24" rx="8" fill="#0AA966"/>
<path d="M9 9.6993H13.3636C13.7976 9.6993 14.2138 9.83978 14.5207 10.0898C14.8276 10.3399 15 10.679 15 11.0326C15 11.3863 14.8276 11.7254 14.5207 11.9754C14.2138 12.2255 13.7976 12.366 13.3636 12.366M13.3636 12.366C13.7976 12.366 14.2138 12.5064 14.5207 12.7565C14.8276 13.0065 15 13.3457 15 13.6993C15 14.0529 14.8276 14.3921 14.5207 14.6421C14.2138 14.8922 13.7976 15.0326 13.3636 15.0326H9M13.3636 12.366H10.0909M10.0909 9.6993V15.0326M10.6364 8.36597V9.6993M12.8182 8.36597V9.6993M10.6364 15.0326V16.366M12.8182 15.0326V16.366" stroke="white" stroke-width="1.2" stroke-linecap="round" stroke-linejoin="round"/>
<circle cx="12" cy="12.366" r="7.4" stroke="white" stroke-width="1.2"/>
<circle cx="17" cy="7" r="1.4" fill="white" stroke="#0AA966" stroke-width="1.2"/>
</svg>
