<svg width="80" height="80" viewBox="0 0 80 80" fill="none" xmlns="http://www.w3.org/2000/svg">
<path d="M79.8346 39.807L73.7168 36.2784C71.9807 20.4825 59.4419 7.9118 43.6513 6.17506L40.1515 0.165403C40.0137 -0.0551345 39.7106 -0.0551345 39.5728 0.165403L36.1281 6.17506C20.2549 7.88423 7.66105 20.5376 5.98003 36.4438L0.165346 39.807C-0.0551155 39.9448 -0.0551155 40.2481 0.165346 40.3583L6.00759 43.7215C7.71617 59.5727 20.3101 72.1709 36.1556 73.8801L39.6004 79.8346C39.7381 80.0551 40.0413 80.0551 40.1791 79.8346L43.6238 73.8801C59.4144 72.1709 71.9531 59.6554 73.7168 43.8869L79.8346 40.3308C80.0551 40.248 80.0551 39.9172 79.8346 39.807ZM39.8484 10.8339C40.8405 11.5507 41.8601 12.295 42.8797 13.0117C42.8522 14.1696 42.8522 15.2998 42.8246 16.4576C40.9231 16.4576 38.9941 16.4576 37.0926 16.4852C37.0926 15.3274 37.065 14.1696 37.065 13.0393C37.9744 12.295 38.9114 11.5782 39.8484 10.8339ZM9.64521 40.0275C9.64521 37.6016 9.92079 35.2584 10.4719 32.9703C12.0152 28.339 14.4678 25.0861 16.1213 23.2116C15.7079 24.3969 14.4678 28.3666 16.1213 32.9152C18.1605 38.594 23.0934 40.8821 23.9752 41.2956C19.2077 41.268 14.4403 41.2129 9.67277 41.1853C9.67277 40.7994 9.64521 40.4135 9.64521 40.0275ZM33.6203 45.5134C32.8487 47.0847 31.2228 47.4431 31.0023 47.4982C30.0378 48.3252 28.1639 50.1723 27.3923 53.122C25.7389 59.4624 30.9197 64.5899 31.1677 64.8105C29.3213 64.5624 21.4675 63.2667 16.1213 56.3197C13.2277 52.5706 12.2632 48.7112 11.9049 46.5058C12.897 47.2777 14.33 48.1598 16.2315 48.5458C22.2391 49.7312 27.0065 44.6588 27.3923 44.2177C27.3647 44.0523 27.0891 42.3156 28.3017 41.1578C29.5142 39.9999 31.5811 40.1378 32.8212 41.2405C34.0888 42.3707 34.2817 44.1902 33.6203 45.5134ZM42.8797 68.3942C41.9979 69.6899 40.4271 69.745 40.1791 69.7726C39.931 69.7726 38.1122 69.8277 37.1202 68.3391C36.4312 67.2915 36.4037 65.9407 37.0375 64.8105C37.065 64.7553 37.2855 64.5348 37.2304 64.1764C37.2028 63.9559 37.0926 63.818 37.0375 63.7353V31.0957C38.9665 31.0957 40.8956 31.1233 42.8246 31.1233C42.8246 41.9572 42.7971 52.7911 42.7971 63.6251C42.7695 63.6251 42.5215 63.818 42.5215 64.1213C42.5215 64.4521 42.7695 64.6451 42.7971 64.6451C43.5687 65.858 43.5962 67.3191 42.8797 68.3942ZM42.99 27.2363C41.0058 27.2363 38.9941 27.2088 37.0099 27.2088C36.6517 27.1812 36.1281 27.1812 35.5218 27.2363C32.4353 27.5947 30.4236 29.6347 29.9 30.1584C27.8883 32.2536 27.3647 34.6519 27.2269 35.6168C26.6207 35.0654 21.6604 30.4617 22.1289 23.184C22.4871 17.7533 25.6287 14.2247 27.3923 12.5982C28.6048 16.9263 32.5731 20.1241 37.2855 20.1241H42.4664C47.2063 20.1241 51.2022 16.9263 52.3871 12.5431C53.2139 13.2874 57.2097 17.0366 57.568 23.2667C57.9814 30.2963 53.4068 34.8724 52.7454 35.5341C52.6352 34.707 52.2218 32.0882 49.9896 29.9103C48.0055 27.9806 45.7457 27.5396 45.0292 27.4017C44.2301 27.2363 43.5136 27.2087 42.99 27.2363ZM63.9063 56.3473C63.3276 57.1192 60.434 60.7305 55.198 63.0462C52.6903 64.1488 50.4305 64.6175 48.8598 64.838C49.7692 63.9834 51.5053 62.1089 52.3596 59.1592C52.6903 58.0565 53.3241 55.8511 52.6352 53.122C51.836 50.0069 49.8243 48.1598 49.0251 47.4982C47.3716 47.0847 46.1867 45.7339 46.0489 44.2177C46.0489 44.1075 45.9111 42.4259 47.2063 41.2956C48.3086 40.3308 50.2101 39.9724 51.5053 41.0199C52.4147 41.7642 52.8281 43.0048 52.6076 44.2453C53.021 44.7139 57.7609 49.7312 63.7685 48.5734C65.67 48.215 67.1305 47.3328 68.0951 46.5609C67.7919 48.5734 66.8825 52.4879 63.9063 56.3473ZM70.0241 41.268C65.229 41.268 60.434 41.268 55.639 41.2405C56.4932 40.8821 61.5363 38.594 63.5756 32.86C65.1739 28.339 63.9338 24.452 63.5205 23.2667C65.0913 24.8931 67.7092 28.0633 69.1974 32.86C69.1974 32.86 69.1974 32.86 69.1974 32.8876C69.7485 35.2032 70.0517 37.6016 70.0517 40.0275C70.0517 40.441 70.0517 40.8545 70.0241 41.268Z" fill="#0E1218"/>
</svg>
