<svg width="48" height="48" viewBox="0 0 48 48" fill="none" xmlns="http://www.w3.org/2000/svg">
<rect width="48" height="48" rx="24" fill="#0E1218"/>
<path d="M45.728 23.8948L42.391 21.9701C41.444 13.3542 34.6047 6.49741 25.9916 5.5501L24.0826 2.2721C24.0075 2.15181 23.8422 2.15181 23.767 2.2721L21.8881 5.5501C13.23 6.48237 6.36058 13.3842 5.44366 22.0603L2.27201 23.8948C2.15176 23.97 2.15176 24.1354 2.27201 24.1955L5.45869 26.03C6.39064 34.6761 13.2601 41.5478 21.9031 42.4801L23.782 45.728C23.8572 45.8483 24.0225 45.8483 24.0977 45.728L25.9766 42.4801C34.5897 41.5478 41.429 34.7212 42.391 26.1202L45.728 24.1805C45.8482 24.1353 45.8482 23.9549 45.728 23.8948ZM23.9173 8.09129C24.4585 8.48227 25.0146 8.88825 25.5708 9.27918C25.5558 9.91076 25.5558 10.5272 25.5407 11.1588C24.5035 11.1588 23.4513 11.1588 22.4142 11.1738C22.4142 10.5423 22.3991 9.91076 22.3991 9.29423C22.8951 8.88825 23.4062 8.49727 23.9173 8.09129ZM7.44285 24.0151C7.44285 22.6918 7.59316 21.4137 7.89377 20.1657C8.73557 17.6395 10.0734 15.8652 10.9753 14.8428C10.7498 15.4893 10.0734 17.6546 10.9753 20.1356C12.0876 23.2332 14.7782 24.4812 15.2592 24.7068C12.6588 24.6917 10.0584 24.6616 7.45788 24.6466C7.45788 24.4361 7.44285 24.2256 7.44285 24.0151ZM20.5202 27.0074C20.0993 27.8644 19.2124 28.0599 19.0922 28.09C18.5661 28.5411 17.544 29.5486 17.1231 31.1575C16.2212 34.6159 19.0471 37.4127 19.1824 37.5331C18.1753 37.3977 13.8914 36.691 10.9753 32.9017C9.39693 30.8568 8.87084 28.7516 8.67541 27.5487C9.21655 27.9697 9.99819 28.4509 11.0354 28.6614C14.3122 29.308 16.9126 26.5412 17.1231 26.3006C17.108 26.2104 16.9577 25.2631 17.6191 24.6316C18.2805 24 19.4079 24.0752 20.0843 24.6767C20.7757 25.2932 20.8809 26.2856 20.5202 27.0074ZM25.5708 39.4878C25.0898 40.1946 24.233 40.2246 24.0977 40.2397C23.9624 40.2397 22.9703 40.2697 22.4292 39.4578C22.0534 38.8863 22.0384 38.1495 22.3841 37.5331C22.3991 37.503 22.5194 37.3827 22.4893 37.1872C22.4743 37.0669 22.4142 36.9917 22.3841 36.9466V19.1432C23.4363 19.1432 24.4885 19.1582 25.5407 19.1582C25.5407 25.0676 25.5257 30.977 25.5257 36.8865C25.5106 36.8865 25.3754 36.9917 25.3754 37.1571C25.3754 37.3376 25.5106 37.4429 25.5257 37.4429C25.9466 38.1044 25.9616 38.9014 25.5708 39.4878ZM25.6309 17.038C24.5486 17.038 23.4513 17.023 22.369 17.023C22.1737 17.008 21.8881 17.008 21.5574 17.038C19.8738 17.2335 18.7765 18.3463 18.4909 18.6319C17.3936 19.7748 17.108 21.0829 17.0329 21.6092C16.7022 21.3085 13.9966 18.7974 14.2521 14.8277C14.4475 11.8655 16.1611 9.94081 17.1231 9.05363C17.7844 11.4144 19.949 13.1587 22.5194 13.1587H25.3453C27.9307 13.1587 30.1103 11.4144 30.7566 9.02358C31.2076 9.42956 33.3871 11.4746 33.5826 14.8728C33.808 18.7071 31.3128 21.2032 30.952 21.5641C30.8919 21.113 30.6664 19.6845 29.4489 18.4966C28.3666 17.444 27.134 17.2035 26.7432 17.1283C26.3073 17.038 25.9165 17.023 25.6309 17.038ZM37.0398 32.9168C36.7242 33.3378 35.1458 35.3076 32.2898 36.5707C30.922 37.1721 29.6894 37.4278 28.8326 37.5481C29.3287 37.0819 30.2756 36.0595 30.7416 34.4505C30.922 33.8491 31.2677 32.6461 30.8919 31.1575C30.456 29.4584 29.3587 28.4509 28.9228 28.09C28.0209 27.8644 27.3746 27.1276 27.2994 26.3006C27.2994 26.2405 27.2242 25.3233 27.9307 24.7068C28.532 24.1805 29.5692 23.985 30.2756 24.5564C30.7717 24.9624 30.9972 25.639 30.8769 26.3157C31.1024 26.5713 33.6878 29.308 36.9646 28.6765C38.0018 28.481 38.7985 27.9998 39.3246 27.5787C39.1592 28.6765 38.6632 30.8117 37.0398 32.9168ZM40.3768 24.6917C37.7613 24.6917 35.1458 24.6917 32.5304 24.6767C32.9963 24.4812 35.7471 23.2332 36.8594 20.1055C37.7312 17.6395 37.0548 15.5193 36.8294 14.8728C37.6862 15.7599 39.1141 17.4891 39.9259 20.1055C39.9259 20.1055 39.9259 20.1055 39.9259 20.1206C40.2265 21.3836 40.3918 22.6918 40.3918 24.0151C40.3918 24.2406 40.3918 24.4662 40.3768 24.6917Z" fill="white"/>
</svg>
