<svg width="292" height="291" viewBox="0 0 292 291" fill="none" xmlns="http://www.w3.org/2000/svg">
<path d="M290.6 144.8L268.4 132C262.1 74.7004 216.6 29.1004 159.3 22.8004L146.6 1.00039C146.1 0.200391 145 0.200391 144.5 1.00039L132 22.8004C74.4004 29.0004 28.7004 74.9004 22.6004 132.6L1.50039 144.8C0.700391 145.3 0.700391 146.4 1.50039 146.8L22.7004 159C28.9004 216.5 74.6004 262.2 132.1 268.4L144.6 290C145.1 290.8 146.2 290.8 146.7 290L159.2 268.4C216.5 262.2 262 216.8 268.4 159.6L290.6 146.7C291.4 146.4 291.4 145.2 290.6 144.8ZM145.5 39.7004C149.1 42.3004 152.8 45.0004 156.5 47.6004C156.4 51.8004 156.4 55.9004 156.3 60.1004C149.4 60.1004 142.4 60.1004 135.5 60.2004C135.5 56.0004 135.4 51.8004 135.4 47.7004C138.7 45.0004 142.1 42.4004 145.5 39.7004ZM35.9004 145.6C35.9004 136.8 36.9004 128.3 38.9004 120C44.5004 103.2 53.4004 91.4 59.4004 84.6004C57.9004 88.9 53.4004 103.3 59.4004 119.8C66.8004 140.4 84.7004 148.7 87.9004 150.2C70.6004 150.1 53.3004 149.9 36.0004 149.8C36.0004 148.4 35.9004 147 35.9004 145.6ZM122.9 165.5C120.1 171.2 114.2 172.5 113.4 172.7C109.9 175.7 103.1 182.4 100.3 193.1C94.3004 216.1 113.1 234.7 114 235.5C107.3 234.6 78.8004 229.9 59.4004 204.7C48.9004 191.1 45.4004 177.1 44.1004 169.1C47.7004 171.9 52.9004 175.1 59.8004 176.5C81.6004 180.8 98.9 162.4 100.3 160.8C100.2 160.2 99.2 153.9 103.6 149.7C108 145.5 115.5 146 120 150C124.6 154.1 125.3 160.7 122.9 165.5ZM156.5 248.5C153.3 253.2 147.6 253.4 146.7 253.5C145.8 253.5 139.2 253.7 135.6 248.3C133.1 244.5 133 239.6 135.3 235.5C135.4 235.3 136.2 234.5 136 233.2C135.9 232.4 135.5 231.9 135.3 231.6V113.2C142.3 113.2 149.3 113.3 156.3 113.3C156.3 152.6 156.2 191.9 156.2 231.2C156.1 231.2 155.2 231.9 155.2 233C155.2 234.2 156.1 234.9 156.2 234.9C159 239.3 159.1 244.6 156.5 248.5ZM156.9 99.2C149.7 99.2 142.4 99.1 135.2 99.1C133.9 99 132 99 129.8 99.2C118.6 100.5 111.3 107.9 109.4 109.8C102.1 117.4 100.2 126.1 99.7 129.6C97.5 127.6 79.5004 110.9 81.2004 84.5004C82.5004 64.8004 93.9004 52.0004 100.3 46.1004C104.7 61.8004 119.1 73.4004 136.2 73.4004H155C172.2 73.4004 186.7 61.8004 191 45.9004C194 48.6004 208.5 62.2004 209.8 84.8004C211.3 110.3 194.7 126.9 192.3 129.3C191.9 126.3 190.4 116.8 182.3 108.9C175.1 101.9 166.9 100.3 164.3 99.8C161.4 99.2 158.8 99.1 156.9 99.2ZM232.8 204.8C230.7 207.6 220.2 220.7 201.2 229.1C192.1 233.1 183.9 234.8 178.2 235.6C181.5 232.5 187.8 225.7 190.9 215C192.1 211 194.4 203 191.9 193.1C189 181.8 181.7 175.1 178.8 172.7C172.8 171.2 168.5 166.3 168 160.8C168 160.4 167.5 154.3 172.2 150.2C176.2 146.7 183.1 145.4 187.8 149.2C191.1 151.9 192.6 156.4 191.8 160.9C193.3 162.6 210.5 180.8 232.3 176.6C239.2 175.3 244.5 172.1 248 169.3C246.9 176.6 243.6 190.8 232.8 204.8ZM255 150.1C237.6 150.1 220.2 150.1 202.8 150C205.9 148.7 224.2 140.4 231.6 119.6C237.4 103.2 232.9 89.1 231.4 84.8004C237.1 90.7 246.6 102.2 252 119.6C252 119.6 252 119.6 252 119.7C254 128.1 255.1 136.8 255.1 145.6C255.1 147.1 255.1 148.6 255 150.1Z" fill="#0E1218"/>
</svg>
