<svg width="120" height="120" viewBox="0 0 120 120" fill="none" xmlns="http://www.w3.org/2000/svg">
<rect width="120" height="120" rx="60" fill="black"/>
<path d="M86.3459 44.1222H77.8535C76.8721 44.1222 75.9307 43.7032 75.2698 42.9651L71.8248 39.0948C71.304 38.5162 70.5829 38.1771 69.8018 38.1771C69.0207 38.1771 68.2996 38.5162 67.7789 39.0948L64.8145 42.4264C63.8531 43.5037 62.4511 44.1421 61.009 44.1421H14.5212C13.1993 47.8728 12.338 51.8429 11.9975 55.9726H55.8815C56.6626 55.9726 57.3837 55.6534 57.9245 55.0948L62.0104 50.8454C62.5112 50.3067 63.2322 50.0075 63.9533 50.0075H64.1135C64.8946 50.0075 65.6157 50.3466 66.1365 50.9252L69.5815 54.7955C70.2424 55.5337 71.1838 55.9526 72.1653 55.9526H107.977C107.637 51.8429 106.776 47.8529 105.454 44.1022L86.3459 44.1222Z" fill="white"/>
<path d="M38.5562 80.8703C39.3374 80.8703 40.0584 80.5511 40.5992 79.9925L44.6852 75.7431C45.2059 75.2045 45.9069 74.9052 46.648 74.9052H46.8083C47.5894 74.9052 48.3305 75.2444 48.8312 75.803L52.2762 79.6733C52.9372 80.4115 53.8786 80.8304 54.86 80.8304H103.411C105.233 77.0798 106.555 73.0698 107.357 68.8603H60.7486C59.7672 68.8603 58.8258 68.4414 58.1648 67.7032L54.7198 63.8728C54.199 63.2943 53.478 62.9751 52.6968 62.9751C51.9157 62.9751 51.1746 63.3142 50.6739 63.8728L47.7096 67.2045C46.7482 68.3017 45.3461 68.9202 43.884 68.9202H12.6584C13.4596 73.1297 14.7815 77.1396 16.6042 80.8903L38.5562 80.8703Z" fill="white"/>
<path d="M72.9864 31.1746C73.7676 31.1746 74.4886 30.8554 75.0294 30.2968L79.1154 26.0474C79.6161 25.5087 80.3372 25.2095 81.0782 25.2095H81.2385C82.0196 25.2095 82.7407 25.5486 83.2614 26.1272L86.7065 30.0175C87.3674 30.7556 88.3088 31.1746 89.2902 31.1746H98.5237C89.7309 19.5237 75.7505 12.0025 60.0075 12.0025C44.2646 12.0025 30.2641 19.5237 21.4713 31.1746H72.9864Z" fill="white"/>
<path d="M54.4594 92.7406H41.841C40.8596 92.7406 39.9182 92.3217 39.2572 91.5835L35.8122 87.7132C35.2915 87.1347 34.5704 86.8155 33.7893 86.8155C33.0081 86.8155 32.267 87.1546 31.7663 87.7132L28.802 91.0449C27.8406 92.1421 26.4385 92.7606 24.9764 92.7606H24.7761C33.5689 102.137 46.0872 108.022 60.0075 108.022C73.9278 108.022 86.426 102.137 95.2389 92.7606L54.4594 92.7406Z" fill="white"/>
</svg>
