<svg width="88" height="88" viewBox="0 0 88 88" fill="none" xmlns="http://www.w3.org/2000/svg">
<rect width="88" height="88" rx="44" fill="black"/>
<path d="M63.3203 32.3563H57.0926C56.3729 32.3563 55.6825 32.0491 55.1978 31.5077L52.6715 28.6695C52.2896 28.2452 51.7608 27.9965 51.188 27.9965C50.6151 27.9965 50.0864 28.2452 49.7045 28.6695L47.5306 31.1127C46.8256 31.9028 45.7975 32.3709 44.7399 32.3709H10.6489C9.67944 35.1067 9.04785 38.0181 8.79816 41.0466H40.9798C41.5526 41.0466 42.0814 40.8125 42.4779 40.4028L45.4743 37.2866C45.8415 36.8916 46.3703 36.6722 46.8991 36.6722H47.0166C47.5894 36.6722 48.1182 36.9209 48.5001 37.3452L51.0264 40.1834C51.5111 40.7247 52.2015 41.0319 52.9212 41.0319H79.1835C78.9338 38.0181 78.3022 35.0921 77.3328 32.3417L63.3203 32.3563Z" fill="white"/>
<path d="M28.2745 59.3049C28.8474 59.3049 29.3761 59.0708 29.7727 58.6612L32.7691 55.545C33.151 55.15 33.6651 54.9305 34.2085 54.9305H34.326C34.8989 54.9305 35.4423 55.1792 35.8095 55.5889L38.3359 58.4271C38.8206 58.9684 39.5109 59.2757 40.2306 59.2757H75.8346C77.1712 56.5252 78.1406 53.5846 78.7281 50.4976H44.5489C43.8292 50.4976 43.1389 50.1904 42.6542 49.6491L40.1278 46.8401C39.7459 46.4158 39.2172 46.1817 38.6443 46.1817C38.0715 46.1817 37.528 46.4304 37.1608 46.8401L34.987 49.2833C34.282 50.088 33.2538 50.5415 32.1816 50.5415H9.28284C9.87036 53.6284 10.8398 56.5691 12.1764 59.3196L28.2745 59.3049Z" fill="white"/>
<path d="M53.5234 22.8614C54.0962 22.8614 54.625 22.6273 55.0216 22.2176L58.0179 19.1014C58.3851 18.7064 58.9139 18.487 59.4574 18.487H59.5749C60.1477 18.487 60.6765 18.7357 61.0584 19.16L63.5847 22.0128C64.0694 22.5541 64.7598 22.8614 65.4795 22.8614H72.2507C65.8026 14.3174 55.5503 8.80185 44.0055 8.80185C32.4606 8.80185 22.1937 14.3174 15.7456 22.8614H53.5234Z" fill="white"/>
<path d="M39.9369 68.0098H30.6834C29.9637 68.0098 29.2733 67.7026 28.7886 67.1613L26.2623 64.3231C25.8804 63.8988 25.3516 63.6647 24.7788 63.6647C24.2059 63.6647 23.6625 63.9134 23.2953 64.3231L21.1214 66.7663C20.4164 67.5709 19.3882 68.0245 18.316 68.0245H18.1691C24.6172 74.9006 33.7973 79.2165 44.0055 79.2165C54.2137 79.2165 63.3791 74.9006 69.8418 68.0245L39.9369 68.0098Z" fill="white"/>
</svg>
