<svg width="30" height="34" viewBox="0 0 30 34" fill="none" xmlns="http://www.w3.org/2000/svg">
<path fill-rule="evenodd" clip-rule="evenodd" d="M15 28C21.0751 28 26 23.0751 26 17C26 10.9249 21.0751 6 15 6C8.92487 6 4 10.9249 4 17C4 23.0751 8.92487 28 15 28ZM20.1018 13.318C20.3624 12.5362 19.6187 11.7925 18.8369 12.053L13.1977 13.9328C12.6005 14.1319 12.1319 14.6005 11.9328 15.1977L10.053 20.8369C9.79246 21.6187 10.5362 22.3624 11.318 22.1018L16.9572 20.2221C17.5544 20.023 18.023 19.5544 18.2221 18.9572L20.1018 13.318Z" fill="#767A81"/>
</svg>
