<svg width="48" height="48" viewBox="0 0 48 48" fill="none" xmlns="http://www.w3.org/2000/svg">
<g clip-path="url(#clip0_4_19)">
<path d="M20.7924 24.5167L21.6368 23.6423V20.5877L20.7924 19.7133H19.6409L18.8403 20.5877V23.6423L19.6409 24.5167H20.7924Z" fill="#75FB6E"/>
<path d="M28.3592 24.4826L29.1597 23.6082V20.5877L28.3592 19.7133H27.1967L26.3633 20.5877V23.6082L27.1967 24.4826H28.3592Z" fill="#75FB6E"/>
<path d="M47.2762 17.6011L46.1138 17.4422L41.9575 20.7466L41.793 21.9503L41.6066 22.1207H40.477L39.6326 22.9837V24.1419L40.4003 24.9368V25.3456L39.5997 26.22L39.6326 31.6366L40.477 32.4656L40.5209 32.8857L40.5428 32.9084L39.7533 33.7147V34.9184L39.3914 35.2818H33.5134L33.1624 34.9184V34.2938V28.8204L32.9979 28.6615L32.318 27.9574V27.5373L32.2522 27.4805L33.0747 26.6288V25.4705L33.0199 25.4024L33.1624 25.3911L33.3927 25.0958L34.5552 24.9709L37.3516 21.2463L37.2419 20.088L37.5161 19.7928L37.5051 19.6792L37.5161 19.6678L37.4832 19.3385L37.4722 19.259L38.3167 18.3847L38.2399 11.4351L37.3955 10.6061V10.5153L37.4393 10.1519L37.1213 9.73172L37.231 8.52803L34.4016 4.80341L33.2392 4.6785L33.0637 4.44003L33.0747 4.42867V3.2704L32.2742 2.39603H31.2433H31.1556L30.7608 2.06671V0.874379L29.8725 0H24.0822H23.9178H18.1165L17.2392 0.874379V2.06671L16.8444 2.39603H16.7567H15.7149L14.9143 3.2704V4.42867L14.9253 4.44003L14.7608 4.6785L13.5984 4.80341L10.7581 8.52803L10.8787 9.73172L10.5607 10.1519L10.6045 10.5153V10.6061L9.76011 11.4351L9.68334 18.3847L10.5168 19.259L10.4839 19.7928L10.791 20.1221L10.6813 21.2463L13.4777 24.9709L14.6402 25.0958L14.8814 25.3911L14.9801 25.4024L14.9143 25.4705V26.6288L15.7149 27.5032L15.682 27.5373V27.9574L15.0021 28.6615L14.8376 28.8204V34.2938V34.9184L14.4757 35.2818H8.59767L8.23578 34.9184V33.7147L7.43523 32.8857L7.47909 32.4656L8.32351 31.6366L8.35641 26.22L7.55586 25.3456L7.59973 24.9368L8.35641 24.1419V22.9837L7.52296 22.1207H6.38245L6.19602 21.9503L6.04249 20.7466L1.87526 17.4422L0.723783 17.6011L0 18.555L0.164496 19.7587L4.32077 23.0632L5.48321 22.9042L5.57094 22.9723L5.55997 22.9837V24.1419L6.36052 25.0163H6.40439V25.2661L5.55997 26.1292L5.48321 31.5571L6.28376 32.4315V32.8403H6.23989L5.43934 33.7147V34.9184L6.23989 35.7473H7.40233L7.76422 36.1107V37.3144L8.56477 38.1434H14.4428L15.2762 37.3144V36.1107L15.6381 35.7473H16.8444L17.634 34.9184V34.4982V28.8204L16.9212 27.9574L16.8773 27.5032L17.7217 26.6288V25.4705L16.8773 24.5962H15.7478L15.5613 24.3463L15.682 23.154L12.8417 19.4294L11.6792 19.3045V19.2931V19.259L12.5236 18.4301L12.5565 11.5145L11.756 10.6402L11.767 10.5153L11.7999 10.4812L12.9623 10.3563L15.7587 6.63165L15.6381 5.42796L15.7368 5.30305H16.8773L17.7217 4.42867V3.34989V3.2704L18.1165 2.94109H23.9178H24.0822H29.8725L30.2783 3.2704V3.34989V4.42867L31.1227 5.30305H32.2632L32.3619 5.42796L32.2413 6.63165L35.0377 10.3563L36.2001 10.4812L36.2221 10.5153L36.233 10.6402L35.4325 11.5145L35.4764 18.4301L36.3208 19.259V19.3045L35.2022 19.4294L32.3619 23.154L32.4716 24.3463L32.2632 24.6302L32.2413 24.5962H31.0788L30.2783 25.4705V26.6288L31.0788 27.5032H31.1227L31.0788 27.9574L30.3989 28.8204V34.4982V34.9184L31.1995 35.7473H32.3619L32.7128 36.1107V37.3144L33.5572 38.1434H39.4352L40.2358 37.3144V36.1107L40.5977 35.7473H41.7601L42.5607 34.9184V33.7147L41.7601 32.8403H41.6724V32.4315L42.4729 31.5571L42.3962 26.1292L41.5517 25.2661V25.0163H41.6395L42.44 24.1419V22.9837L42.4291 22.9723L42.5168 22.9042L43.6792 23.0632L47.8355 19.7587L48 18.555L47.2762 17.6011Z" fill="#75FB6E"/>
<path d="M20.3537 35.4975L19.5202 36.3605V37.5642L19.1584 37.939H17.9959L12.403 43.6054V44.775L12.0411 45.1384H6.16315L5.80126 44.775V43.5713L4.95684 42.6969H3.80537L3.00482 43.5713V44.775L3.80537 45.604H4.95684L5.31874 45.9673V47.171L6.11928 48H11.9973L12.8417 47.171V45.9673L13.1926 45.604L13.2365 45.638H14.3989L20.0028 39.9716V38.7679L20.3208 38.3932H21.4394L22.3605 37.5642V36.3605L21.5161 35.4975H20.3537Z" fill="#75FB6E"/>
<path d="M43.1199 42.6969L42.2755 43.5713V44.775L41.9136 45.1384H36.0356L35.6738 44.775V43.6054L30.0809 37.939H28.9184L28.5565 37.5642V36.3605L27.7231 35.4975H26.5607L25.7162 36.3605V37.5642L26.6374 38.3932H27.756L28.074 38.7679V39.9716L33.6779 45.638H34.8403L34.8732 45.604L35.2351 45.9673V47.171L36.0795 48H41.9575L42.7581 47.171V45.9673L43.1199 45.604H44.2714L45.072 44.775V43.5713L44.2714 42.6969H43.1199Z" fill="#75FB6E"/>
</g>
<defs>
<clipPath id="clip0_4_19">
<rect width="48" height="48" fill="white"/>
</clipPath>
</defs>
</svg>
