<svg width="36" height="36" viewBox="0 0 36 36" fill="none" xmlns="http://www.w3.org/2000/svg">
<circle cx="18" cy="18" r="18" fill="#333333"/>
<path d="M18.0009 26C17.4486 26 17.0009 25.5523 17.0009 25L17.0009 11C17.0009 10.4477 17.4486 10 18.0009 10C18.5532 10 19.0009 10.4477 19.0009 11L19.0009 25C19.0009 25.5523 18.5532 26 18.0009 26Z" fill="#767A81"/>
<path d="M10.0009 18C10.0009 17.4477 10.4486 17 11.0009 17H25.0009C25.5532 17 26.0009 17.4477 26.0009 18C26.0009 18.5523 25.5532 19 25.0009 19H11.0009C10.4486 19 10.0009 18.5523 10.0009 18Z" fill="#767A81"/>
</svg>
