<svg width="24" height="25" viewBox="0 0 24 25" fill="none" xmlns="http://www.w3.org/2000/svg">
<rect y="0.261475" width="24" height="24" rx="8" fill="#FF5656"/>
<path d="M10.2225 17.6554C10.6943 18.0323 11.3173 18.2615 12.0003 18.2615C12.6833 18.2615 13.3063 18.0323 13.7781 17.6554M7.00541 15.716C6.72434 15.716 6.56735 15.2744 6.73737 15.0291C7.1319 14.4598 7.51269 13.6249 7.51269 12.6195L7.52897 11.1626C7.52897 8.45578 9.53086 6.26147 12.0003 6.26147C14.5062 6.26147 16.5375 8.4881 16.5375 11.2348L16.5213 12.6195C16.5213 13.6318 16.8889 14.4713 17.2674 15.0408C17.4309 15.2867 17.2735 15.716 16.9959 15.716H7.00541Z" stroke="white" stroke-width="1.2" stroke-linecap="round" stroke-linejoin="round"/>
</svg>
