<svg width="88" height="88" viewBox="0 0 88 88" fill="none" xmlns="http://www.w3.org/2000/svg">
<rect width="88" height="88" rx="44" fill="black"/>
<path d="M50.9136 36.0372H37.1057C36.9666 36.0367 36.8287 36.0636 36.7 36.1164C36.5712 36.1692 36.4542 36.2468 36.3554 36.3448C36.2567 36.4428 36.1782 36.5593 36.1245 36.6877C36.0708 36.816 36.0429 36.9537 36.0424 37.0928V50.7955C36.0424 51.3772 36.5201 51.851 37.1057 51.851H50.9059C51.045 51.8516 51.1829 51.8247 51.3116 51.7719C51.4403 51.7191 51.5574 51.6415 51.6561 51.5435C51.7549 51.4455 51.8333 51.329 51.8871 51.2006C51.9408 51.0723 51.9687 50.9346 51.9692 50.7955V37.0928C51.9682 36.8125 51.8561 36.544 51.6575 36.3462C51.4589 36.1483 51.19 36.0372 50.9097 36.0372M34.9367 20H21.0672C20.7841 20 20.5127 20.1124 20.3126 20.3125C20.1124 20.5127 20 20.7841 20 21.0671V34.9355C20 35.5249 20.4777 36.0026 21.0672 36.0026H34.9367C35.2197 36.0026 35.4911 35.8901 35.6913 35.69C35.8914 35.4899 36.0039 35.2185 36.0039 34.9355V21.0671C36.0039 20.7841 35.8914 20.5127 35.6913 20.3125C35.4911 20.1124 35.2197 20 34.9367 20ZM66.9328 20H53.0633C52.7803 20 52.5089 20.1124 52.3087 20.3125C52.1086 20.5127 51.9961 20.7841 51.9961 21.0671V34.9355C51.9961 35.5249 52.4777 36.0026 53.0633 36.0026H66.9328C67.2159 36.0026 67.4873 35.8901 67.6874 35.69C67.8876 35.4899 68 35.2185 68 34.9355V21.0671C68 20.7841 67.8876 20.5127 67.6874 20.3125C67.4873 20.1124 67.2159 20 66.9328 20ZM34.9367 52.0013H21.0672C20.7841 52.0013 20.5127 52.1137 20.3126 52.3138C20.1124 52.514 20 52.7854 20 53.0684V66.9368C20 67.5262 20.4777 68 21.0672 68H34.9367C35.219 68 35.4899 67.8881 35.6899 67.6888C35.8899 67.4895 36.0028 67.2191 36.0039 66.9368V53.0684C36.0039 52.7854 35.8914 52.514 35.6913 52.3138C35.4911 52.1137 35.2197 52.0013 34.9367 52.0013ZM66.9328 52.0013H53.0633C52.7803 52.0013 52.5089 52.1137 52.3087 52.3138C52.1086 52.514 51.9961 52.7854 51.9961 53.0684V66.9368C51.9961 67.5262 52.4777 68 53.0633 68H66.9328C67.2152 68 67.486 67.8881 67.6861 67.6888C67.8861 67.4895 67.999 67.2191 68 66.9368V53.0684C68 52.7854 67.8876 52.514 67.6874 52.3138C67.4873 52.1137 67.2159 52.0013 66.9328 52.0013Z" fill="white"/>
</svg>
