<svg width="120" height="120" viewBox="0 0 120 120" fill="none" xmlns="http://www.w3.org/2000/svg">
<g clip-path="url(#clip0_9993_3004)">
<path d="M60 120C93.1371 120 120 93.1371 120 60C120 26.8629 93.1371 0 60 0C26.8629 0 0 26.8629 0 60C0 93.1371 26.8629 120 60 120Z" fill="url(#paint0_linear_9993_3004)"/>
<path fill-rule="evenodd" clip-rule="evenodd" d="M59.8226 99.8436C48.1455 99.8348 38.7394 97.0328 32.1673 91.9999C25.5163 86.9065 21.9879 79.6786 21.9879 71.5001C21.9879 63.6196 25.5085 57.9371 29.492 54.0961C32.6139 51.086 36.0589 49.1581 38.4576 48.0493C37.9153 46.3845 37.2384 44.205 36.6329 41.954C35.8228 38.9418 35.0279 35.4076 35.0279 32.8179C35.0279 29.7525 35.6963 26.674 37.4983 24.2819C39.4021 21.7546 42.2683 20.4008 45.7164 20.4008C48.4111 20.4008 50.6991 21.4003 52.4903 23.1248C54.2024 24.773 55.3419 26.9621 56.1286 29.244C57.5111 33.2536 58.0495 38.2913 58.2005 43.3185H61.5033C61.6543 38.2913 62.1925 33.2536 63.5751 29.244C64.3619 26.9621 65.5014 24.773 67.2135 23.1248C69.0046 21.4003 71.2925 20.4008 73.9874 20.4008C77.4355 20.4008 80.3016 21.7546 82.2055 24.2819C84.0075 26.674 84.6759 29.7525 84.6759 32.8179C84.6759 35.4076 83.881 38.9418 83.0707 41.954C82.4652 44.205 81.7885 46.3845 81.246 48.0493C83.6449 49.1581 87.0899 51.086 90.2116 54.0961C94.1952 57.9371 97.7158 63.6196 97.7158 71.5001C97.7158 79.6786 94.1875 86.9065 87.5365 91.9999C80.9644 97.0328 71.5583 99.8348 59.8811 99.8436H59.8226Z" fill="#633001"/>
<path d="M45.7162 23.316C40.6659 23.316 38.3411 27.1222 38.3411 32.386C38.3411 36.5699 41.0424 44.9493 42.1506 48.2113C42.3999 48.9449 42.0081 49.7488 41.2939 50.0333C37.2462 51.6455 25.3012 57.5488 25.3012 71.0683C25.3012 85.3097 37.44 96.0475 59.825 96.0645C59.8339 96.0645 59.8428 96.0645 59.8517 96.0645C59.8606 96.0645 59.8695 96.0645 59.8785 96.0645C82.2634 96.0475 94.4022 85.3097 94.4022 71.0683C94.4022 57.5488 82.4572 51.6455 78.4096 50.0333C77.6952 49.7488 77.3036 48.9449 77.5529 48.2113C78.6611 44.9493 81.3622 36.5699 81.3622 32.386C81.3622 27.1222 79.0375 23.316 73.9872 23.316C66.7175 23.316 64.9054 33.7189 64.7761 44.8838C64.7675 45.6292 64.171 46.2339 63.4331 46.2339H56.2704C55.5324 46.2339 54.936 45.6292 54.9274 44.8838C54.7981 33.7189 52.9859 23.316 45.7162 23.316Z" fill="#D1884F"/>
<path d="M59.8785 91.5025C43.4311 91.5025 25.3296 82.6085 25.3012 71.0952C25.3012 71.1132 25.3012 71.1312 25.3012 71.1491C25.3012 85.402 37.4594 96.1455 59.8785 96.1455C82.2975 96.1455 94.4556 85.402 94.4556 71.1491C94.4556 71.1312 94.4556 71.1132 94.4556 71.0952C94.4272 82.6085 76.3259 91.5025 59.8785 91.5025Z" fill="#FEDC90"/>
<path d="M50.7399 67.559C50.7399 71.4461 48.9214 73.4706 46.6783 73.4706C44.435 73.4706 42.6166 71.4461 42.6166 67.559C42.6166 63.6718 44.435 61.6473 46.6783 61.6473C48.9214 61.6473 50.7399 63.6718 50.7399 67.559Z" fill="#633001"/>
<path d="M77.1402 67.559C77.1402 71.4461 75.3219 73.4706 73.0786 73.4706C70.8355 73.4706 69.017 71.4461 69.017 67.559C69.017 63.6718 70.8355 61.6473 73.0786 61.6473C75.3219 61.6473 77.1402 63.6718 77.1402 67.559Z" fill="#633001"/>
</g>
<defs>
<linearGradient id="paint0_linear_9993_3004" x1="60" y1="0" x2="60" y2="120" gradientUnits="userSpaceOnUse">
<stop stop-color="#53DEE9"/>
<stop offset="1" stop-color="#1FC7D4"/>
</linearGradient>
<clipPath id="clip0_9993_3004">
<rect width="120" height="120" fill="white"/>
</clipPath>
</defs>
</svg>
