<svg width="48" height="48" viewBox="0 0 48 48" fill="none" xmlns="http://www.w3.org/2000/svg">
<g clip-path="url(#clip0_10737_13914)">
<path d="M24 48C37.2548 48 48 37.2548 48 24C48 10.7452 37.2548 0 24 0C10.7452 0 0 10.7452 0 24C0 37.2548 10.7452 48 24 48Z" fill="url(#paint0_linear_10737_13914)"/>
<path fill-rule="evenodd" clip-rule="evenodd" d="M23.9291 39.9374C19.2582 39.9339 15.4958 38.8131 12.8669 36.7999C10.2065 34.7626 8.79517 31.8714 8.79517 28.6C8.79517 25.4478 10.2034 23.1748 11.7968 21.6384C13.0456 20.4344 14.4236 19.6632 15.3831 19.2197C15.1661 18.5538 14.8954 17.682 14.6532 16.7816C14.3291 15.5767 14.0112 14.163 14.0112 13.1271C14.0112 11.901 14.2785 10.6696 14.9993 9.71273C15.7609 8.70183 16.9073 8.16028 18.2866 8.16028C19.3645 8.16028 20.2797 8.56008 20.9961 9.24988C21.681 9.90918 22.1368 10.7848 22.4515 11.6976C23.0045 13.3014 23.2198 15.3165 23.2802 17.3274H24.6013C24.6617 15.3165 24.877 13.3014 25.4301 11.6976C25.7448 10.7848 26.2006 9.90918 26.8854 9.24988C27.6019 8.56008 28.517 8.16028 29.595 8.16028C30.9742 8.16028 32.1207 8.70183 32.8822 9.71273C33.603 10.6696 33.8704 11.901 33.8704 13.1271C33.8704 14.163 33.5524 15.5767 33.2283 16.7816C32.9861 17.682 32.7154 18.5538 32.4984 19.2197C33.458 19.6632 34.836 20.4344 36.0847 21.6384C37.6781 23.1748 39.0863 25.4478 39.0863 28.6C39.0863 31.8714 37.675 34.7626 35.0146 36.7999C32.3858 38.8131 28.6233 39.9339 23.9525 39.9374H23.9291Z" fill="#633001"/>
<path d="M18.2865 9.32642C16.2664 9.32642 15.3365 10.8489 15.3365 12.9544C15.3365 14.628 16.417 17.9797 16.8603 19.2845C16.96 19.578 16.8033 19.8995 16.5176 20.0133C14.8985 20.6582 10.1205 23.0195 10.1205 28.4273C10.1205 34.1239 14.976 38.419 23.93 38.4258C23.9336 38.4258 23.9371 38.4258 23.9407 38.4258C23.9443 38.4258 23.9478 38.4258 23.9514 38.4258C32.9054 38.419 37.7609 34.1239 37.7609 28.4273C37.7609 23.0195 32.9829 20.6582 31.3639 20.0133C31.0781 19.8995 30.9215 19.578 31.0212 19.2845C31.4645 17.9797 32.5449 14.628 32.5449 12.9544C32.5449 10.8489 31.615 9.32642 29.5949 9.32642C26.687 9.32642 25.9622 13.4876 25.9105 17.9535C25.907 18.2517 25.6684 18.4936 25.3733 18.4936H22.5082C22.213 18.4936 21.9744 18.2517 21.971 17.9535C21.9193 13.4876 21.1944 9.32642 18.2865 9.32642Z" fill="#D1884F"/>
<path d="M23.9514 36.601C17.3725 36.601 10.1319 33.0434 10.1205 28.4381C10.1205 28.4453 10.1205 28.4525 10.1205 28.4597C10.1205 34.1608 14.9838 38.4582 23.9514 38.4582C32.919 38.4582 37.7823 34.1608 37.7823 28.4597C37.7823 28.4525 37.7823 28.4453 37.7823 28.4381C37.7709 33.0434 30.5304 36.601 23.9514 36.601Z" fill="#FEDC90"/>
<path d="M20.296 27.0236C20.296 28.5784 19.5686 29.3882 18.6713 29.3882C17.774 29.3882 17.0467 28.5784 17.0467 27.0236C17.0467 25.4687 17.774 24.6589 18.6713 24.6589C19.5686 24.6589 20.296 25.4687 20.296 27.0236Z" fill="#633001"/>
<path d="M30.8561 27.0236C30.8561 28.5784 30.1287 29.3882 29.2314 29.3882C28.3342 29.3882 27.6068 28.5784 27.6068 27.0236C27.6068 25.4687 28.3342 24.6589 29.2314 24.6589C30.1287 24.6589 30.8561 25.4687 30.8561 27.0236Z" fill="#633001"/>
</g>
<defs>
<linearGradient id="paint0_linear_10737_13914" x1="24" y1="0" x2="24" y2="48" gradientUnits="userSpaceOnUse">
<stop stop-color="#53DEE9"/>
<stop offset="1" stop-color="#1FC7D4"/>
</linearGradient>
<clipPath id="clip0_10737_13914">
<rect width="48" height="48" rx="24" fill="white"/>
</clipPath>
</defs>
</svg>
