<svg width="24" height="25" viewBox="0 0 24 25" fill="none" xmlns="http://www.w3.org/2000/svg">
<rect y="0.725586" width="24" height="24" rx="8" fill="white" fill-opacity="0.05"/>
<rect y="0.725586" width="24" height="24" rx="8" fill="#A839FF"/>
<path fill-rule="evenodd" clip-rule="evenodd" d="M10.4712 8.92102C10.5962 9.04604 10.6664 9.21558 10.6664 9.39235C10.6664 9.56913 10.5962 9.73867 10.4712 9.86369L7.60919 12.7257L10.4712 15.5877C10.5926 15.7134 10.6598 15.8818 10.6583 16.0566C10.6568 16.2314 10.5867 16.3986 10.4631 16.5222C10.3395 16.6458 10.1723 16.716 9.99746 16.7175C9.82266 16.719 9.65426 16.6518 9.52852 16.5304L6.19519 13.197C6.07021 13.072 6 12.9025 6 12.7257C6 12.5489 6.07021 12.3794 6.19519 12.2544L9.52852 8.92102C9.65354 8.79604 9.82308 8.72583 9.99986 8.72583C10.1766 8.72583 10.3462 8.79604 10.4712 8.92102ZM13.5285 8.92102C13.6535 8.79604 13.8231 8.72583 13.9999 8.72583C14.1766 8.72583 14.3462 8.79604 14.4712 8.92102L17.8045 12.2544C17.9295 12.3794 17.9997 12.5489 17.9997 12.7257C17.9997 12.9025 17.9295 13.072 17.8045 13.197L14.4712 16.5304C14.3455 16.6518 14.1771 16.719 14.0023 16.7175C13.8275 16.716 13.6603 16.6458 13.5366 16.5222C13.413 16.3986 13.3429 16.2314 13.3414 16.0566C13.3399 15.8818 13.4071 15.7134 13.5285 15.5877L16.3905 12.7257L13.5285 9.86369C13.4035 9.73867 13.3333 9.56913 13.3333 9.39235C13.3333 9.21558 13.4035 9.04604 13.5285 8.92102Z" fill="white"/>
</svg>
