<svg width="120" height="120" viewBox="0 0 120 120" fill="none" xmlns="http://www.w3.org/2000/svg">
<g clip-path="url(#clip0_10009_2046)">
<path d="M120 60C120 26.8629 93.1371 0 60 0C26.8629 0 0 26.8629 0 60C0 93.1371 26.8629 120 60 120C93.1371 120 120 93.1371 120 60Z" fill="black"/>
<path d="M75.071 30.6959C80.9157 34.9334 85.319 39.4118 89.321 45.4147C89.321 47.3947 89.321 49.3747 89.321 51.4147C87.7431 51.1362 86.1653 50.8578 84.5397 50.5709C79.4642 49.9885 76.1746 50.091 71.321 51.4147C71.4756 50.0534 71.6303 48.6922 71.7897 47.2897C71.7967 42.2115 71.7967 42.2115 68.0397 38.8522C63.4515 36.2012 61.4908 35.3542 56.321 36.4147C52.5409 38.5696 52.5409 38.5696 50.321 42.4147C50.1872 47.8544 50.1872 47.8544 51.821 52.9147C56.7522 56.2021 58.5484 56.3449 64.3073 56.5358C65.8493 56.5938 67.3914 56.6518 68.9801 56.7115C70.5879 56.758 72.1957 56.8044 73.8522 56.8522C75.4774 56.9102 77.1026 56.9682 78.777 57.028C82.7914 57.1694 86.8058 57.2978 90.821 57.4147C89.7901 66.4967 88.2809 71.9547 81.821 78.4147C74.5719 83.6018 66.8502 85.1945 58.196 86.6588C54.5481 87.288 54.5481 87.288 50.7897 89.8522C46.052 92.6692 42.2232 92.2325 36.821 91.9147C37.0162 90.9711 37.2115 90.0275 37.4128 89.0553C38.8206 81.2448 38.8206 81.2448 36.7506 73.8268C36.0623 72.8967 35.3739 71.9667 34.6647 71.0084C30.2424 64.8766 29.7125 59.9129 30.1061 52.4342C31.6978 43.4843 36.4104 37.3457 43.571 31.9147C53.1245 26.5385 64.9584 27.2649 75.071 30.6959Z" fill="#64F7D2"/>
<path d="M78.821 57.4147C82.781 57.4147 86.741 57.4147 90.821 57.4147C90.2819 66.2203 88.1397 72.096 81.821 78.4147C74.5719 83.6018 66.8502 85.1945 58.196 86.6588C54.5481 87.288 54.5481 87.288 50.7897 89.8522C46.052 92.6692 42.2232 92.2324 36.821 91.9147C37.811 86.9647 38.801 82.0147 39.821 76.9147C40.9811 76.9843 42.1413 77.0539 43.3366 77.1256C53.5616 77.4799 61.441 77.1693 69.821 70.9147C73.7678 66.7601 76.4981 62.6411 78.821 57.4147Z" fill="#01CD99"/>
<path d="M75.821 31.9147C82.4654 35.2369 85.741 38.9177 89.321 45.4147C89.321 47.3947 89.321 49.3747 89.321 51.4147C82.196 50.2897 82.196 50.2897 78.821 46.9147C78.237 43.9299 77.7426 40.9267 77.321 37.9147C76.8458 35.9086 76.3569 33.9053 75.821 31.9147Z" fill="#02C895"/>
</g>
<defs>
<clipPath id="clip0_10009_2046">
<rect width="120" height="120" fill="white"/>
</clipPath>
</defs>
</svg>
