<svg width="48" height="48" viewBox="0 0 48 48" fill="none" xmlns="http://www.w3.org/2000/svg">
<g clip-path="url(#clip0_10737_13939)">
<path d="M48 24C48 10.7452 37.2548 0 24 0C10.7452 0 0 10.7452 0 24C0 37.2548 10.7452 48 24 48C37.2548 48 48 37.2548 48 24Z" fill="black"/>
<path d="M30.0284 12.2783C32.3663 13.9733 34.1276 15.7647 35.7284 18.1658C35.7284 18.9578 35.7284 19.7498 35.7284 20.5658C35.0973 20.4544 34.4661 20.3431 33.8159 20.2283C31.7857 19.9953 30.4698 20.0363 28.5284 20.5658C28.5903 20.0213 28.6521 19.4768 28.7159 18.9158C28.7187 16.8846 28.7187 16.8846 27.2159 15.5408C25.3806 14.4804 24.5963 14.1416 22.5284 14.5658C21.0163 15.4278 21.0163 15.4278 20.1284 16.9658C20.0749 19.1417 20.0749 19.1417 20.7284 21.1658C22.7009 22.4808 23.4194 22.5379 25.7229 22.6143C26.3397 22.6375 26.9565 22.6607 27.5921 22.6846C28.2352 22.7031 28.8783 22.7217 29.5409 22.7408C30.191 22.764 30.841 22.7872 31.5108 22.8111C33.1166 22.8677 34.7223 22.9191 36.3284 22.9658C35.9161 26.5986 35.3124 28.7818 32.7284 31.3658C29.8288 33.4407 26.7401 34.0777 23.2784 34.6635C21.8192 34.9152 21.8192 34.9152 20.3159 35.9408C18.4208 37.0676 16.8893 36.8929 14.7284 36.7658C14.8065 36.3884 14.8846 36.0109 14.9651 35.6221C15.5282 32.4979 15.5282 32.4979 14.7003 29.5307C14.4249 29.1586 14.1496 28.7866 13.8659 28.4033C12.0969 25.9506 11.885 23.9651 12.0424 20.9736C12.6791 17.3937 14.5642 14.9382 17.4284 12.7658C21.2498 10.6154 25.9833 10.9059 30.0284 12.2783Z" fill="#64F7D2"/>
<path d="M31.5284 22.9658C33.1124 22.9658 34.6964 22.9658 36.3284 22.9658C36.1127 26.4881 35.2559 28.8383 32.7284 31.3658C29.8288 33.4407 26.7401 34.0777 23.2784 34.6635C21.8192 34.9152 21.8192 34.9152 20.3159 35.9408C18.4208 37.0676 16.8893 36.8929 14.7284 36.7658C15.1244 34.7858 15.5204 32.8058 15.9284 30.7658C16.3925 30.7937 16.8565 30.8215 17.3346 30.8502C21.4246 30.9919 24.5764 30.8677 27.9284 28.3658C29.5071 26.704 30.5993 25.0564 31.5284 22.9658Z" fill="#01CD99"/>
<path d="M30.3284 12.7659C32.9861 14.0948 34.2964 15.5671 35.7284 18.1659C35.7284 18.9579 35.7284 19.7499 35.7284 20.5659C32.8784 20.1159 32.8784 20.1159 31.5284 18.7659C31.2948 17.572 31.097 16.3707 30.9284 15.1659C30.7383 14.3634 30.5427 13.5621 30.3284 12.7659Z" fill="#02C895"/>
</g>
<defs>
<clipPath id="clip0_10737_13939">
<rect width="48" height="48" rx="24" fill="white"/>
</clipPath>
</defs>
</svg>
