<svg width="88" height="88" viewBox="0 0 88 88" fill="none" xmlns="http://www.w3.org/2000/svg">
<rect width="88" height="88" rx="44" fill="#F3E3CC"/>
<path fill-rule="evenodd" clip-rule="evenodd" d="M43.9104 79.2C54.3672 79.2 63.762 74.6634 70.2242 67.4556C67.2181 64.8498 62.6879 64.6914 59.4877 67.2671L58.8764 67.7592C53.0169 72.4752 44.4789 71.7788 39.4655 66.1759C36.7311 63.1201 32.0481 62.808 28.9306 65.4739L21.8818 71.5017C27.9191 76.3192 35.5775 79.2 43.9104 79.2ZM55.3523 62.1551C60.9333 57.6631 68.7779 57.8243 74.1456 62.1626C77.3541 56.8601 79.2 50.645 79.2 44.0001C79.2 36.6162 76.9208 29.7635 73.0259 24.1036C70.5148 23.5702 67.7932 24.1932 65.7273 26.0193L65.1392 26.539C59.5041 31.5198 50.9431 31.2171 45.6757 25.851C42.803 22.9243 38.1105 22.8282 35.1196 25.6348L26.9168 33.3324L22.4043 28.5482L30.6071 20.8505C36.2097 15.593 44.9999 15.773 50.3814 21.2555C53.1932 24.1201 57.7634 24.2817 60.7715 21.6228L61.3596 21.1031C63.1856 19.489 65.2981 18.401 67.5102 17.8287C61.2579 12.2159 52.9841 8.8 43.9104 8.8C25.9959 8.8 11.1992 22.1146 8.92392 39.3639C14.3653 36.7594 21.0771 37.7616 25.5137 42.2934C28.3146 45.1543 32.8245 45.4562 35.9835 42.9945L40.5699 39.4205C46.334 34.9289 54.482 35.1462 59.9971 39.9389L68.9263 47.6987L64.6003 52.6514L55.6711 44.8918C52.5352 42.1664 47.9019 42.0427 44.6243 44.5968L40.038 48.1709C34.2338 52.6937 25.948 52.139 20.8021 46.8827C17.8097 43.8262 12.9158 43.7196 9.79248 46.6429L8.79999 47.5718C9.54274 54.9236 12.5536 61.6081 17.1241 66.918L24.6444 60.4871C30.4842 55.493 39.2566 56.0775 44.3788 61.8019C47.0551 64.793 51.6129 65.1646 54.7407 62.6471L55.3523 62.1551Z" fill="url(#paint0_linear_12085_5079)"/>
<defs>
<linearGradient id="paint0_linear_12085_5079" x1="44" y1="8.8" x2="44" y2="79.2" gradientUnits="userSpaceOnUse">
<stop stop-color="#91305A"/>
<stop offset="1" stop-color="#DC3B41"/>
</linearGradient>
</defs>
</svg>
