<svg width="120" height="121" viewBox="0 0 120 121" fill="none" xmlns="http://www.w3.org/2000/svg">
<rect width="120" height="120.306" rx="60" fill="#F3E3CC"/>
<path fill-rule="evenodd" clip-rule="evenodd" d="M59.8778 108.275C74.1372 108.275 86.9482 102.073 95.7603 92.2194C91.661 88.6569 85.4835 88.4404 81.1197 91.9617L80.286 92.6344C72.2958 99.0817 60.6531 98.1297 53.8166 90.4698C50.0878 86.2922 43.702 85.8656 39.4509 89.5101L29.8388 97.7508C38.0715 104.337 48.5148 108.275 59.8778 108.275ZM75.4804 84.973C83.0909 78.8319 93.788 79.0522 101.108 84.9833C105.483 77.7341 108 69.2374 108 60.153C108 50.0585 104.892 40.69 99.5807 32.9523C96.1566 32.2231 92.4453 33.0748 89.6281 35.5713L88.8262 36.2818C81.142 43.0911 69.4679 42.6773 62.2851 35.3412C58.3677 31.3401 51.9689 31.2087 47.8904 35.0456L36.7047 45.5691L30.5513 39.0285L41.737 28.505C49.3769 21.3173 61.3635 21.5635 68.7019 29.0587C72.5362 32.9749 78.7683 33.1958 82.8703 29.5608L83.6722 28.8502C86.1622 26.6437 89.0429 25.1562 92.0594 24.3738C83.5336 16.7004 72.251 12.0306 59.8778 12.0306C35.4489 12.0306 15.2716 30.2331 12.169 53.8149C19.589 50.2542 28.7416 51.6244 34.7914 57.8198C38.6108 61.731 44.7607 62.1437 49.0684 58.7783L55.3225 53.8923C63.1828 47.7516 74.2937 48.0488 81.8142 54.6009L93.9904 65.2094L88.0914 71.9803L75.9152 61.372C71.6389 57.6461 65.3208 57.477 60.8514 60.9688L54.5972 65.855C46.6824 72.0382 35.3836 71.2798 28.3665 64.0939C24.286 59.9153 17.6124 59.7695 13.3534 63.766L12 65.036C13.0128 75.0867 17.1186 84.2252 23.351 91.4844L33.606 82.6926C41.5694 75.8651 53.5317 76.6642 60.5165 84.4901C64.1661 88.5793 70.3813 89.0873 74.6465 85.6455L75.4804 84.973Z" fill="url(#paint0_linear_9933_25)"/>
<defs>
<linearGradient id="paint0_linear_9933_25" x1="60" y1="12.0306" x2="60" y2="108.275" gradientUnits="userSpaceOnUse">
<stop stop-color="#91305A"/>
<stop offset="1" stop-color="#DC3B41"/>
</linearGradient>
</defs>
</svg>
