<svg width="120" height="121" viewBox="0 0 120 121" fill="none" xmlns="http://www.w3.org/2000/svg">
<g clip-path="url(#clip0_10737_13877)">
<path d="M60 0.305847C26.8627 0.305847 0 27.1686 0 60.3058C0 93.4431 26.8627 120.306 60 120.306C93.1373 120.306 120 93.4431 120 60.3058C120 27.1686 93.1373 0.305847 60 0.305847Z" fill="#102623"/>
<path d="M104 60.397C104 89.3873 86.1959 98.6897 76.8151 90.4067C69.0936 83.6528 66.7962 69.3809 55.182 67.9154C40.4409 66.0677 39.1646 85.6283 29.4649 85.6283C18.1697 85.6283 16 69.2534 16 60.843C16 52.2415 18.4249 40.5179 28.0609 40.5179C39.2923 40.5179 39.9304 57.275 53.9696 56.3829C67.9449 55.4273 68.2001 37.9692 77.2621 30.5146C85.1747 24.0793 104 31.0243 104 60.397Z" fill="#97FCE4"/>
</g>
<defs>
<clipPath id="clip0_10737_13877">
<rect width="120" height="120" fill="white" transform="translate(0 0.305847)"/>
</clipPath>
</defs>
</svg>
