<svg width="88" height="88" viewBox="0 0 88 88" fill="none" xmlns="http://www.w3.org/2000/svg">
<g clip-path="url(#clip0_12085_5209)">
<path d="M44 0C19.6993 0 0 19.6993 0 44C0 68.3007 19.6993 88 44 88C68.3007 88 88 68.3007 88 44C88 19.6993 68.3007 0 44 0Z" fill="#102623"/>
<path d="M76.2666 44.0669C76.2666 65.3264 63.2103 72.1481 56.331 66.0739C50.6686 61.1211 48.9838 50.655 40.4667 49.5804C29.6566 48.2254 28.7206 62.5698 21.6075 62.5698C13.3244 62.5698 11.7333 50.5616 11.7333 44.3939C11.7333 38.0861 13.5116 29.4888 20.5779 29.4888C28.8143 29.4888 29.2822 41.7774 39.5776 41.1232C49.8262 40.4224 50.0134 27.6198 56.6588 22.1531C62.4614 17.4339 76.2666 22.5268 76.2666 44.0669Z" fill="#97FCE4"/>
</g>
<defs>
<clipPath id="clip0_12085_5209">
<rect width="88" height="88" fill="white"/>
</clipPath>
</defs>
</svg>
