<svg width="48" height="48" viewBox="0 0 48 48" fill="none" xmlns="http://www.w3.org/2000/svg">
<g clip-path="url(#clip0_12085_5266)">
<path d="M48 24C48 10.7452 37.2548 0 24 0C10.7452 0 0 10.7452 0 24C0 37.2548 10.7452 48 24 48C37.2548 48 48 37.2548 48 24Z" fill="black"/>
<path d="M39.0629 19.1563V32.8654L23.82 41.6663L8.56651 32.8654V15.2531L23.82 6.44158L35.5404 13.2115L37.3069 12.196L23.82 4.40002L6.79999 14.227V33.8809L23.82 43.7079L40.84 33.8809V18.1303L39.0629 19.1563Z" fill="url(#paint0_linear_12085_5266)"/>
<path d="M19.5465 32.8654H16.9972V24.3078H25.5019C26.3058 24.2972 27.078 23.9693 27.6387 23.3981C28.2099 22.8269 28.5272 22.0547 28.5272 21.2507C28.5272 20.8488 28.4532 20.4574 28.3051 20.0872C28.1464 19.7169 27.9243 19.389 27.6387 19.114C27.3636 18.8284 27.0251 18.6062 26.6655 18.4476C26.2953 18.2889 25.9039 18.2149 25.5019 18.2149H16.9972V15.6127H25.5125C27.004 15.6232 28.432 16.2156 29.4792 17.2734C30.537 18.3312 31.1294 19.7592 31.14 21.2402C31.1506 22.3826 30.8015 23.4933 30.1456 24.4241C29.5427 25.3127 28.6859 26.0108 27.6916 26.434C26.7078 26.7513 25.6817 26.8994 24.6451 26.8888H19.5465V32.8654Z" fill="url(#paint1_linear_12085_5266)"/>
<path d="M31.0871 32.654H28.1146L25.8192 28.6449C26.7289 28.5921 27.6281 28.4017 28.4849 28.1055L31.0871 32.654Z" fill="url(#paint2_linear_12085_5266)"/>
<path d="M37.2858 16.3003L39.0524 17.284L40.8083 16.3109V14.2482L39.0524 13.2327L37.2964 14.2482V16.3003H37.2858Z" fill="url(#paint3_linear_12085_5266)"/>
</g>
<defs>
<linearGradient id="paint0_linear_12085_5266" x1="41.8554" y1="16.8416" x2="5.75388" y2="31.2785" gradientUnits="userSpaceOnUse">
<stop stop-color="#7D4695"/>
<stop offset="0.4897" stop-color="#4267B0"/>
<stop offset="0.4898" stop-color="#4368B0"/>
<stop offset="1" stop-color="#60BFBB"/>
</linearGradient>
<linearGradient id="paint1_linear_12085_5266" x1="41.1584" y1="15.0987" x2="5.05692" y2="29.5356" gradientUnits="userSpaceOnUse">
<stop stop-color="#7D4695"/>
<stop offset="0.4897" stop-color="#4267B0"/>
<stop offset="0.4898" stop-color="#4368B0"/>
<stop offset="1" stop-color="#60BFBB"/>
</linearGradient>
<linearGradient id="paint2_linear_12085_5266" x1="44.7683" y1="24.1259" x2="8.66674" y2="38.5628" gradientUnits="userSpaceOnUse">
<stop stop-color="#7D4695"/>
<stop offset="0.4897" stop-color="#4267B0"/>
<stop offset="0.4898" stop-color="#4368B0"/>
<stop offset="1" stop-color="#60BFBB"/>
</linearGradient>
<linearGradient id="paint3_linear_12085_5266" x1="40.9169" y1="14.5019" x2="4.81532" y2="28.9388" gradientUnits="userSpaceOnUse">
<stop stop-color="#7D4695"/>
<stop offset="0.4897" stop-color="#4267B0"/>
<stop offset="0.4898" stop-color="#4368B0"/>
<stop offset="1" stop-color="#60BFBB"/>
</linearGradient>
<clipPath id="clip0_12085_5266">
<rect width="48" height="48" rx="24" fill="white"/>
</clipPath>
</defs>
</svg>
