<svg width="313" height="301" viewBox="0 0 313 301" fill="none" xmlns="http://www.w3.org/2000/svg">
<path d="M106.667 2.40007C100.4 5.3334 92.6669 13.6001 88.5336 21.6001C80.0002 38.5334 74.9336 42.4001 56.8002 45.8667C32.4002 50.4001 23.0669 60.4001 25.0669 80.0001C25.4669 84.0001 26.2669 91.3334 26.8002 96.1334C27.8669 107.2 26.2669 110.8 14.6669 123.333C4.13355 134.667 0.133554 142.4 0.266888 150.667C0.400221 158.933 4.26689 166 15.3336 178.267C27.3336 191.333 28.2669 194.267 26.0002 212.667C22.5336 242.267 28.5336 249.467 62.4002 256.667C75.4669 259.467 79.2002 262.667 87.6002 277.6C101.334 302.267 112.4 305.867 137.867 293.733C152.134 286.933 160.267 286.933 174.8 293.6C190.134 300.667 198 302.267 205.334 299.333C212 296.933 220.4 288.267 224.8 279.733C233.067 263.333 238.8 258.667 254.134 256C274.667 252.4 283.067 247.067 286.934 235.2C288.934 228.8 288.934 226.4 287.6 214.933C286.667 207.867 286 200.533 286 198.933C286 193.6 290 186.933 299.334 176.667C309.867 165.067 312.934 159.2 312.934 150.667C312.934 142.133 309.867 136.267 299.067 124.4C285.867 109.867 285.467 108.667 286.8 94.1334C287.467 87.4667 287.867 78.5334 287.734 74.4001C287.467 59.6001 279.467 51.0667 262.667 47.3334C237.6 41.7334 234.534 39.7334 226.134 24.0001C220.134 12.6667 212.534 4.66673 205.2 1.86673C197.734 -0.933268 190.8 0.400066 174.8 7.60007C160.4 14.1334 155.2 14.5334 144.534 10.0001C127.2 2.80007 123.867 1.60007 118 0.800066C113.6 0.133399 110.534 0.666732 106.667 2.40007ZM169.467 56.5334C173.334 58.2667 178 61.8667 180 64.5334C187.334 74.1334 187.467 77.0667 183.2 129.733C179.2 180.4 178.8 182.133 171.334 188.533C167.067 192 158.267 195.067 155.2 194.133C154.134 193.867 151.734 193.2 149.734 192.8C145.2 191.733 138.534 186.133 135.867 181.2C134.534 178.4 132.8 163.067 130.134 129.733C125.867 77.0667 126 74.1334 133.334 64.5334C138 58.5334 148.667 53.3334 156.667 53.3334C160.134 53.3334 165.467 54.6667 169.467 56.5334ZM167.2 206.667C182.4 214.267 182.4 237.733 167.2 245.333C151.867 253.2 134.667 242.8 134.8 225.867C135.067 208.933 152 198.8 167.2 206.667Z" fill="#FF9314"/>
</svg>
