<svg width="31" height="31" viewBox="0 0 31 31" fill="none" xmlns="http://www.w3.org/2000/svg">
<path d="M10.4728 0.916153C9.87156 1.20927 9.12956 2.03533 8.73298 2.83474C7.91422 4.52682 7.42809 4.9132 5.68823 5.25961C3.3471 5.71261 2.45159 6.71187 2.64349 8.67042C2.68187 9.07013 2.75862 9.80292 2.8098 10.2826C2.91214 11.3884 2.75862 11.7482 1.64563 13.0006C0.634979 14.1331 0.251187 14.9058 0.26398 15.7319C0.276773 16.5579 0.647772 17.2641 1.70959 18.4898C2.86097 19.7955 2.95052 20.0887 2.73304 21.9273C2.40042 24.8851 2.97611 25.6046 6.22554 26.3241C7.47926 26.6038 7.83746 26.9236 8.64343 28.4158C9.96111 30.8807 11.0229 31.2404 13.4664 30.028C14.8353 29.3485 15.6156 29.3485 17.0101 30.0147C18.4813 30.7208 19.2361 30.8807 19.9397 30.5876C20.5793 30.3477 21.3853 29.4817 21.8075 28.629C22.6006 26.9902 23.1507 26.5239 24.6219 26.2574C26.5921 25.8977 27.398 25.3648 27.769 24.179C27.9609 23.5394 27.9609 23.2996 27.833 22.1538C27.7434 21.4477 27.6795 20.7149 27.6795 20.555C27.6795 20.022 28.0633 19.3559 28.9588 18.33C29.9694 17.1708 30.2637 16.5846 30.2637 15.7319C30.2637 14.8792 29.9694 14.2929 28.9332 13.1071C27.6667 11.6549 27.6283 11.535 27.7562 10.0827C27.8202 9.41654 27.8586 8.52387 27.8458 8.11084C27.8202 6.63193 27.0526 5.77923 25.4407 5.40617C23.0356 4.84658 22.7414 4.64673 21.9354 3.07456C21.3597 1.94206 20.6305 1.14265 19.9269 0.862859C19.2105 0.583065 18.5452 0.7163 17.0101 1.43577C15.6284 2.08862 15.1295 2.12859 14.1061 1.67559C12.443 0.956123 12.1231 0.836212 11.5602 0.756271C11.1381 0.689653 10.8438 0.742947 10.4728 0.916153ZM16.4984 6.32549C16.8694 6.49869 17.3171 6.85843 17.509 7.1249C18.2126 8.08419 18.2254 8.37731 17.816 13.6401C17.4322 18.703 17.3939 18.8762 16.6775 19.5157C16.2681 19.8622 15.4237 20.1686 15.1295 20.0753C15.0272 20.0487 14.7969 19.9821 14.605 19.9421C14.17 19.8355 13.5304 19.2759 13.2745 18.783C13.1466 18.5032 12.9803 16.971 12.7244 13.6401C12.315 8.37731 12.3278 8.08419 13.0314 7.1249C13.4792 6.52534 14.5026 6.00573 15.2702 6.00573C15.6028 6.00573 16.1146 6.13896 16.4984 6.32549ZM16.2809 21.3277C17.7393 22.0872 17.7393 24.4321 16.2809 25.1916C14.8097 25.9776 13.1594 24.9384 13.1722 23.2463C13.1977 21.5542 14.8225 20.5417 16.2809 21.3277Z" fill="#FF9314"/>
</svg>
