<svg width="24" height="25" viewBox="0 0 24 25" fill="none" xmlns="http://www.w3.org/2000/svg">
<rect y="0.627441" width="24" height="24" rx="8" fill="#028D68"/>
<path d="M15.4561 8.91806C16.4371 8.31412 19.4004 8.88134 19.4004 12.5479C19.4004 14.3845 18.6675 15.5083 17.8359 16.0616C16.9799 16.6312 16.0094 16.6206 15.3916 16.2052H15.3926L15.3896 16.2042L15.1836 16.0509C14.9832 15.8871 14.7969 15.69 14.6064 15.464C14.4792 15.3129 14.3555 15.1555 14.2236 14.9884C14.0942 14.8242 13.9571 14.6507 13.8125 14.4815C13.2224 13.7912 12.4595 13.1142 11.1816 12.9913H11.1807C10.4009 12.9169 9.76869 13.0585 9.2373 13.3302C8.71862 13.5954 8.32687 13.9703 8.00781 14.3058C7.66468 14.6666 7.44039 14.9382 7.1709 15.1544C6.93089 15.3469 6.71377 15.4415 6.44824 15.4415C5.70444 15.4415 5.27243 15.058 4.99121 14.4942C4.69374 13.8978 4.59961 13.144 4.59961 12.6095C4.59964 12.0707 4.7024 11.4886 4.95508 11.0626C5.18487 10.6754 5.54558 10.3956 6.19336 10.3956C6.93782 10.3958 7.3064 10.7783 7.94727 11.378C8.25442 11.6655 8.62531 11.9967 9.11035 12.2384C9.60721 12.4859 10.1957 12.6275 10.9326 12.5919L10.9346 12.5909C11.6723 12.5525 12.2584 12.3453 12.7412 12.0196C13.215 11.7 13.5598 11.286 13.8447 10.8868C13.9866 10.688 14.1208 10.4826 14.2461 10.2921C14.3741 10.0975 14.4949 9.91565 14.6221 9.74326C14.8754 9.39981 15.1346 9.12105 15.457 8.91904L15.4561 8.91806Z" stroke="white" stroke-width="1.2" stroke-linejoin="round"/>
</svg>
