<svg width="88" height="88" viewBox="0 0 88 88" fill="none" xmlns="http://www.w3.org/2000/svg">
<circle cx="44" cy="44" r="44" fill="#13B5EC"/>
<path fill-rule="evenodd" clip-rule="evenodd" d="M47.6667 35.2037L57.5667 29.3997V41.0077L47.6667 35.2037ZM57.5667 60.078L44.3667 67.8167L31.1667 60.078V46.5353L44.3667 54.274L57.5667 46.5353V60.078ZM31.1667 29.3997L41.0667 35.2037L31.1667 41.0077V29.3997ZM46.0167 37.9675L55.9167 43.7715L46.0167 49.5755V37.9675ZM42.7167 49.5755L32.8167 43.7715L42.7167 37.9675V49.5755ZM55.9167 26.6358L44.3667 33.269L32.8167 26.6358L44.3667 19.7263L55.9167 26.6358ZM27.8667 25.5303V61.7364L44.3667 71.1334L60.8667 61.7364V25.5303L44.3667 16.1334L27.8667 25.5303Z" fill="white"/>
</svg>
