<svg width="24" height="24" viewBox="0 0 24 24" fill="none" xmlns="http://www.w3.org/2000/svg">
<g clip-path="url(#clip0_11300_8070)">
<path d="M18.75 0H5.25C2.35051 0 0 2.35051 0 5.25V18.75C0 21.6495 2.35051 24 5.25 24H18.75C21.6495 24 24 21.6495 24 18.75V5.25C24 2.35051 21.6495 0 18.75 0Z" fill="#4A7CFF"/>
<path d="M10.3125 12C11.7622 12 12.9375 10.8247 12.9375 9.375C12.9375 7.92525 11.7622 6.75 10.3125 6.75C8.86275 6.75 7.6875 7.92525 7.6875 9.375C7.6875 10.8247 8.86275 12 10.3125 12Z" fill="white"/>
<path d="M5.625 15.9375C5.625 13.3125 8.25 12 10.3125 12C12.375 12 15 13.3125 15 15.9375V16.5H5.625V15.9375Z" fill="white"/>
<path d="M18.8438 8.4375H16.4062C16.1474 8.4375 15.9375 8.64737 15.9375 8.90625C15.9375 9.16513 16.1474 9.375 16.4062 9.375H18.8438C19.1026 9.375 19.3125 9.16513 19.3125 8.90625C19.3125 8.64737 19.1026 8.4375 18.8438 8.4375Z" fill="white"/>
<path d="M18.8438 10.7812H16.4062C16.1474 10.7812 15.9375 10.9911 15.9375 11.25C15.9375 11.5089 16.1474 11.7188 16.4062 11.7188H18.8438C19.1026 11.7188 19.3125 11.5089 19.3125 11.25C19.3125 10.9911 19.1026 10.7812 18.8438 10.7812Z" fill="white"/>
<path d="M17.7188 13.125H16.4062C16.1474 13.125 15.9375 13.3349 15.9375 13.5938C15.9375 13.8526 16.1474 14.0625 16.4062 14.0625H17.7188C17.9776 14.0625 18.1875 13.8526 18.1875 13.5938C18.1875 13.3349 17.9776 13.125 17.7188 13.125Z" fill="white"/>
</g>
<defs>
<clipPath id="clip0_11300_8070">
<rect width="24" height="24" rx="8" fill="white"/>
</clipPath>
</defs>
</svg>
