<svg width="88" height="88" viewBox="0 0 88 88" fill="none" xmlns="http://www.w3.org/2000/svg">
<g clip-path="url(#clip0_12_2)">
<path d="M88 44C88 19.6995 68.3005 0 44 0C19.6995 0 0 19.6995 0 44C0 68.3005 19.6995 88 44 88C68.3005 88 88 68.3005 88 44Z" fill="#162F29"/>
<path d="M77.6875 44.1804C77.6875 44.5221 77.6827 44.8635 77.6728 45.2052H77.634H61.2876V44.4587H45.5176C45.5176 44.3025 45.5224 44.1463 45.5224 43.9952C45.5224 43.8438 45.5224 43.6828 45.5176 43.5314H61.2876V42.79H61.3122H77.6582C77.6776 43.2535 77.6875 43.7169 77.6875 44.1804ZM45.2393 40.8188L60.6731 38.9206L60.7658 39.6623L77.0631 37.6567C76.9069 36.8566 76.7213 36.0661 76.5116 35.2902L60.4681 37.2665L60.5609 38.0079L45.0538 39.9161C45.1224 40.2186 45.1858 40.5211 45.2393 40.8283V40.8188ZM44.4341 37.8323L59.1848 34.1484L59.3652 34.8706L75.0185 30.9622C74.6962 30.2059 74.3501 29.4593 73.979 28.7323L58.7847 32.5285L58.9651 33.2507L44.0928 36.9688C44.2149 37.2566 44.3271 37.5445 44.4341 37.8374V37.8323ZM43.1266 35.0365L56.9158 29.8302L57.1795 30.5279L71.7688 25.0191C71.2954 24.3262 70.7978 23.6528 70.2709 22.999L56.3255 28.2639L56.5888 28.9616L42.6338 34.2314C42.8047 34.4949 42.9704 34.7633 43.1266 35.0365ZM41.3164 32.4504L53.4952 26.1023L53.8369 26.7659L67.3042 19.7444C66.6846 19.1443 66.0403 18.5734 65.3767 18.022L52.7197 24.619L53.0611 25.2825L40.6773 31.738C40.8918 31.9722 41.1066 32.2065 41.3116 32.4504H41.3164ZM38.379 29.6594L49.4065 22.6477L49.8065 23.2771L61.9758 15.5383C61.2099 15.0504 60.4289 14.5966 59.624 14.1721L48.5133 21.2375L48.9137 21.867L37.569 29.0787C37.847 29.2641 38.1154 29.4593 38.3838 29.6594H38.379ZM35.7733 28.0297L45.0149 20.4519L45.4883 21.0277L55.8961 12.4887C55.0128 12.152 54.1053 11.8495 53.1879 11.586L43.956 19.1589L44.4294 19.7347L34.8511 27.5905C35.1634 27.7272 35.4708 27.8735 35.7733 28.0297ZM32.3235 26.6878L39.6231 19.4224L40.1452 19.9493L49.4212 10.7321C48.4158 10.5662 47.3961 10.4442 46.3617 10.3662L38.452 18.2367L38.9741 18.7637L31.2647 26.4341C31.6209 26.5073 31.9722 26.5902 32.3235 26.6878ZM28.2883 26.0779L34.1094 19.0223L34.6852 19.4956L42.2631 10.3125C41.1114 10.3662 39.9744 10.4784 38.8571 10.6443L32.8212 17.9586L33.397 18.4319L27.0928 26.073C27.2685 26.0681 27.449 26.0633 27.6247 26.0633C27.8491 26.0633 28.0687 26.0633 28.2883 26.073V26.0779ZM24.7995 26.2877L29.2837 19.3492L29.9082 19.7542L35.3293 11.3616C34.0899 11.6836 32.8798 12.074 31.699 12.5278L27.8833 18.4367L28.5079 18.8417L23.5406 26.5317C23.9554 26.4341 24.375 26.3512 24.7995 26.2828V26.2877ZM20.9252 27.3661L24.1505 21.3205L24.8044 21.6718L29.0738 13.6744C27.7027 14.3429 26.3853 15.0992 25.1264 15.9384L22.6721 20.5349L23.3308 20.8862L19.5346 28.0004C19.9835 27.771 20.4471 27.5612 20.9204 27.3709L20.9252 27.3661ZM18.144 28.786L19.5151 24.8922L20.2177 25.141L22.8819 17.578C21.5303 18.6514 20.2616 19.8225 19.0857 21.0863L17.939 24.3408L18.6417 24.5897L16.846 29.6838C17.2657 29.3666 17.6951 29.069 18.1391 28.7909L18.144 28.786ZM14.7235 31.5721L15.3285 28.742L16.0556 28.8982L17.2754 23.199C15.9921 24.8288 14.8552 26.5805 13.8842 28.4298L14.4258 28.5469L13.3133 33.2311C13.7476 32.6505 14.2209 32.0942 14.7235 31.5721ZM12.2106 34.8804V31.133C11.303 33.5288 10.6589 36.5101 10.3125 39.4328C10.737 37.8129 11.3811 36.2856 12.2106 34.8804ZM10.3369 48.6548C10.6931 51.1482 11.3176 53.5539 12.1862 55.8422V53.0757C11.386 51.7095 10.7565 50.226 10.3369 48.6548ZM13.4305 54.9248L14.4015 59.4532L13.8599 59.5701C14.8308 61.4244 15.9677 63.1712 17.251 64.801L16.0312 59.1019L15.3042 59.2581L14.6893 56.3937C14.2453 55.9255 13.8208 55.4374 13.4305 54.9201V54.9248ZM16.8119 58.2919L18.6173 63.4154L17.9146 63.664L19.0613 66.9185C20.2373 68.1824 21.5059 69.3535 22.8575 70.4268L20.1933 62.8639L19.4907 63.1125L18.1147 59.1994C17.6707 58.9164 17.2364 58.6186 16.8168 58.3015L16.8119 58.2919ZM19.5053 59.9848L23.3113 67.1187L22.6526 67.47L25.1069 72.0665C26.3658 72.9058 27.6832 73.6619 29.0543 74.3303L24.7849 66.3329L24.1261 66.6846L20.8911 60.6243C20.4178 60.434 19.9542 60.2191 19.5004 59.99L19.5053 59.9848ZM23.5113 61.4585L28.4834 69.1581L27.8589 69.5633L31.6746 75.4721C32.8554 75.926 34.0655 76.3165 35.3049 76.6385L29.8838 68.2458L29.2593 68.6506L24.7702 61.7027C24.3457 61.6341 23.9212 61.5512 23.5064 61.4537L23.5113 61.4585ZM27.0636 61.9271L33.3677 69.568L32.792 70.0414L38.8278 77.3557C39.945 77.5218 41.0821 77.634 42.2338 77.6875L34.6559 68.4996L34.0801 68.9729L28.259 61.9172C28.0492 61.9271 27.8345 61.9271 27.6198 61.9271C27.4344 61.9271 27.2441 61.9271 27.0586 61.9172L27.0636 61.9271ZM31.2452 61.5659L38.9499 69.2314L38.4278 69.7583L46.3371 77.6288C47.3715 77.5507 48.3916 77.429 49.3966 77.2629L40.1258 68.0409L39.5989 68.5729L32.304 61.3122C31.9576 61.4049 31.6014 61.4926 31.2452 61.5659ZM34.8365 60.4193L44.4052 68.2704L43.9318 68.8461L53.1634 76.4188C54.0808 76.1552 54.9883 75.8527 55.8716 75.5161L45.459 66.9772L44.9856 67.5528L35.7538 59.9801C35.4512 60.1363 35.1439 60.2826 34.8316 60.4193H34.8365ZM37.5492 58.9263L48.8792 66.1331L48.4792 66.7623L59.5896 73.828C60.3948 73.4034 61.1805 72.9447 61.9417 72.4618L49.7724 64.7229L49.3724 65.3525L38.3596 58.3502C38.0912 58.5504 37.8228 58.7455 37.5445 58.931L37.5492 58.9263ZM40.6721 56.2716L53.0416 62.7176L52.6999 63.3809L65.3572 69.978C66.0209 69.4265 66.6648 68.8556 67.2844 68.2557L53.8175 61.2341L53.4758 61.8977L41.3116 55.5592C41.1066 55.8034 40.8965 56.0424 40.6773 56.2716H40.6721ZM42.629 53.7735L56.5646 59.0385L56.3009 59.7362L70.2464 65.0008C70.7685 64.3471 71.2661 63.6739 71.7442 62.9809L57.1549 57.4721L56.8913 58.1698L43.1218 52.9683C42.9656 53.2415 42.7995 53.5099 42.629 53.7735ZM44.088 51.0411L58.9358 54.7492L58.7554 55.4715L73.9497 59.2676C74.3255 58.5405 74.672 57.794 74.994 57.0379L59.341 53.1293L59.1602 53.8516L44.4294 50.1725C44.3219 50.4651 44.205 50.7533 44.088 51.0411ZM45.0538 48.0938L60.5363 49.9968L60.4435 50.7386L76.487 52.7146C76.6971 51.9339 76.8823 51.1434 77.0385 50.3481L60.7413 48.3428L60.6485 49.0842L45.2393 47.1863C45.1858 47.4936 45.1224 47.7961 45.0538 48.0986V48.0938Z" fill="white"/>
</g>
<defs>
<clipPath id="clip0_12_2">
<rect width="88" height="88" fill="white"/>
</clipPath>
</defs>
</svg>
