<svg width="24" height="25" viewBox="0 0 24 25" fill="none" xmlns="http://www.w3.org/2000/svg">
<rect y="0.307129" width="24" height="24" rx="8" fill="#FF0302"/>
<g clip-path="url(#clip0_3802_3265)">
<path d="M19.6811 8.43065C19.5906 8.09026 19.4123 7.7796 19.1641 7.52976C18.9159 7.27991 18.6063 7.09965 18.2665 7.00702C17.0156 6.67065 12.0156 6.67065 12.0156 6.67065C12.0156 6.67065 7.01563 6.67065 5.76472 7.00702C5.42491 7.09965 5.1154 7.27991 4.86715 7.52976C4.6189 7.7796 4.44063 8.09026 4.35017 8.43065C4.01563 9.68702 4.01562 12.307 4.01562 12.307C4.01562 12.307 4.01563 14.927 4.35017 16.1834C4.44063 16.5238 4.6189 16.8344 4.86715 17.0843C5.1154 17.3341 5.42491 17.5144 5.76472 17.607C7.01563 17.9434 12.0156 17.9434 12.0156 17.9434C12.0156 17.9434 17.0156 17.9434 18.2665 17.607C18.6063 17.5144 18.9159 17.3341 19.1641 17.0843C19.4123 16.8344 19.5906 16.5238 19.6811 16.1834C20.0156 14.927 20.0156 12.307 20.0156 12.307C20.0156 12.307 20.0156 9.68702 19.6811 8.43065Z" fill="white"/>
<path d="M10.3794 14.6862V9.92798L14.5612 12.3071L10.3794 14.6862Z" fill="#FF0302"/>
</g>
<defs>
<clipPath id="clip0_3802_3265">
<rect width="16" height="16" fill="white" transform="translate(4 4.30713)"/>
</clipPath>
</defs>
</svg>
