<svg width="81" height="80" viewBox="0 0 81 80" fill="none" xmlns="http://www.w3.org/2000/svg">
<g clip-path="url(#clip0_11563_11313)">
<circle cx="40.5" cy="39.9999" r="40" fill="white" fill-opacity="0.07"/>
<g clip-path="url(#clip1_11563_11313)">
<path d="M32.2857 22.6428C33.8202 22.6428 35.2918 23.2524 36.3769 24.3374C37.4619 25.4225 38.0715 26.8941 38.0715 28.4285V30.3571C38.0715 31.8916 37.4619 33.3632 36.3769 34.4482C35.2918 35.5333 33.8202 36.1428 32.2857 36.1428H28.4286C26.8941 36.1428 25.4225 35.5333 24.3375 34.4482C23.2524 33.3632 22.6429 31.8916 22.6429 30.3571V28.4285C22.6429 26.8941 23.2524 25.4225 24.3375 24.3374C25.4225 23.2524 26.8941 22.6428 28.4286 22.6428H32.2857Z" fill="#767A81"/>
<path d="M32.2857 39.9999C33.8202 39.9999 35.2918 40.6095 36.3769 41.6945C37.4619 42.7796 38.0715 44.2512 38.0715 45.7857V51.5714C38.0715 53.1058 37.4619 54.5775 36.3769 55.6625C35.2918 56.7475 33.8202 57.3571 32.2857 57.3571H28.4286C26.8941 57.3571 25.4225 56.7475 24.3375 55.6625C23.2524 54.5775 22.6429 53.1058 22.6429 51.5714V45.7857C22.6429 44.2512 23.2524 42.7796 24.3375 41.6945C25.4225 40.6095 26.8941 39.9999 28.4286 39.9999H32.2857Z" fill="#767A81"/>
<path d="M51.5714 22.6428C53.1059 22.6428 54.5775 23.2524 55.6626 24.3374C56.7476 25.4225 57.3572 26.8941 57.3572 28.4285V34.2143C57.3572 35.7487 56.7476 37.2203 55.6626 38.3054C54.5775 39.3904 53.1059 40 51.5714 40H47.7143C46.1798 40 44.7082 39.3904 43.6232 38.3054C42.5382 37.2203 41.9286 35.7487 41.9286 34.2143V28.4285C41.9286 26.8941 42.5382 25.4225 43.6232 24.3374C44.7082 23.2524 46.1798 22.6428 47.7143 22.6428H51.5714Z" fill="#767A81"/>
<path d="M51.5714 43.8571C53.1059 43.8571 54.5775 44.4666 55.6626 45.5517C56.7476 46.6367 57.3572 48.1083 57.3572 49.6428V51.5713C57.3572 53.1058 56.7476 54.5774 55.6626 55.6625C54.5775 56.7475 53.1059 57.3571 51.5714 57.3571H47.7143C46.1798 57.3571 44.7082 56.7475 43.6232 55.6625C42.5382 54.5774 41.9286 53.1058 41.9286 51.5713V49.6428C41.9286 48.1083 42.5382 46.6367 43.6232 45.5517C44.7082 44.4666 46.1798 43.8571 47.7143 43.8571H51.5714Z" fill="#767A81"/>
</g>
</g>
<defs>
<clipPath id="clip0_11563_11313">
<rect x="0.5" y="-6.10352e-05" width="80" height="80" rx="40" fill="white"/>
</clipPath>
<clipPath id="clip1_11563_11313">
<rect width="36" height="36" fill="white" transform="translate(22 21.9999)"/>
</clipPath>
</defs>
</svg>
