<svg width="40" height="41" viewBox="0 0 40 41" fill="none" xmlns="http://www.w3.org/2000/svg">
<path d="M12 2.5C13.5913 2.5 15.1174 3.13214 16.2426 4.25736C17.3679 5.38258 18 6.9087 18 8.5V10.5C18 12.0913 17.3679 13.6174 16.2426 14.7426C15.1174 15.8679 13.5913 16.5 12 16.5H8C6.4087 16.5 4.88258 15.8679 3.75736 14.7426C2.63214 13.6174 2 12.0913 2 10.5V8.5C2 6.9087 2.63214 5.38258 3.75736 4.25736C4.88258 3.13214 6.4087 2.5 8 2.5H12Z" fill="#767A81"/>
<path d="M12 20.5C13.5913 20.5 15.1174 21.1321 16.2426 22.2574C17.3679 23.3826 18 24.9087 18 26.5V32.5C18 34.0913 17.3679 35.6174 16.2426 36.7426C15.1174 37.8679 13.5913 38.5 12 38.5H8C6.4087 38.5 4.88258 37.8679 3.75736 36.7426C2.63214 35.6174 2 34.0913 2 32.5V26.5C2 24.9087 2.63214 23.3826 3.75736 22.2574C4.88258 21.1321 6.4087 20.5 8 20.5H12Z" fill="#767A81"/>
<path d="M32 2.5C33.5913 2.5 35.1174 3.13214 36.2426 4.25736C37.3679 5.38258 38 6.9087 38 8.5V14.5C38 16.0913 37.3679 17.6174 36.2426 18.7426C35.1174 19.8679 33.5913 20.5 32 20.5H28C26.4087 20.5 24.8826 19.8679 23.7574 18.7426C22.6321 17.6174 22 16.0913 22 14.5V8.5C22 6.9087 22.6321 5.38258 23.7574 4.25736C24.8826 3.13214 26.4087 2.5 28 2.5H32Z" fill="#767A81"/>
<path d="M32 24.5C33.5913 24.5 35.1174 25.1321 36.2426 26.2574C37.3679 27.3826 38 28.9087 38 30.5V32.5C38 34.0913 37.3679 35.6174 36.2426 36.7426C35.1174 37.8679 33.5913 38.5 32 38.5H28C26.4087 38.5 24.8826 37.8679 23.7574 36.7426C22.6321 35.6174 22 34.0913 22 32.5V30.5C22 28.9087 22.6321 27.3826 23.7574 26.2574C24.8826 25.1321 26.4087 24.5 28 24.5H32Z" fill="#767A81"/>
</svg>
