<svg width="88" height="88" viewBox="0 0 88 88" fill="none" xmlns="http://www.w3.org/2000/svg">
<path d="M44 73.2188C60.1371 73.2188 73.2188 60.1371 73.2188 44C73.2188 27.8629 60.1371 14.7812 44 14.7812C27.8629 14.7812 14.7812 27.8629 14.7812 44C14.7812 60.1371 27.8629 73.2188 44 73.2188Z" fill="#039393"/>
<path fill-rule="evenodd" clip-rule="evenodd" d="M47.7302 45.2682C47.5219 45.2839 46.4455 45.3482 44.0443 45.3482C42.1345 45.3482 40.7785 45.2908 40.3028 45.2682C32.9222 44.9436 27.4133 43.6588 27.4133 42.1205C27.4133 40.5823 32.9222 39.2993 40.3028 38.9694V43.9887C40.7854 44.0234 42.1675 44.105 44.0773 44.105C46.3691 44.105 47.5167 44.0095 47.7233 43.9904V38.9728C55.0882 39.301 60.585 40.5858 60.585 42.1205C60.585 43.6554 55.0899 44.9401 47.7233 45.2665L47.7302 45.2682ZM47.7302 38.4537V33.9622H58.0085V27.1129H30.0245V33.9622H40.301V38.4519C31.9482 38.8357 25.6666 40.4903 25.6666 42.473C25.6666 44.4557 31.9482 46.1086 40.301 46.4941V60.887H47.7285V46.4888C56.0622 46.1051 62.3333 44.4523 62.3333 42.4712C62.3333 40.4903 56.0674 38.8375 47.7285 38.4519L47.7302 38.4537Z" fill="white"/>
<path d="M9.13847 46.0625C10.1661 63.7066 24.2934 77.8338 41.9375 78.8614V82.9927C22.0145 81.9559 6.04402 65.9855 5.00717 46.0625H9.13847ZM82.9927 46.0625C81.9559 65.9855 65.9854 81.9558 46.0625 82.9927V78.8614C63.7066 77.8338 77.8338 63.7066 78.8615 46.0625H82.9927ZM41.9375 9.13851C24.2934 10.1662 10.1661 24.2934 9.13847 41.9375H5.00708C6.04392 22.0145 22.0145 6.04405 41.9375 5.0072V9.13851ZM46.0625 5.0072C65.9854 6.04406 81.9559 22.0145 82.9927 41.9375H78.8615C77.8338 24.2934 63.7066 10.1662 46.0625 9.13851V5.0072Z" fill="#039393"/>
</svg>
