<svg width="48" height="48" viewBox="0 0 48 48" fill="none" xmlns="http://www.w3.org/2000/svg">
<g clip-path="url(#clip0_12085_6969)">
<rect width="48" height="48" rx="24" fill="white"/>
<path d="M25.848 17.2963C26.656 16.4723 27.344 15.5603 27.904 14.5763C26.224 12.5763 24.4 10.9123 22.552 9.68828C19.392 7.60028 16.544 7.08828 14.544 8.24028C13.608 8.78428 12.896 9.67228 12.424 10.8403C13.752 10.9283 15.056 11.1923 16.312 11.6323C19.456 12.6803 22.76 14.6563 25.848 17.2963Z" fill="black"/>
<path d="M15.04 29.2803C12.448 24.8003 10.888 20.0643 10.648 15.9683C10.552 14.6563 10.632 13.3283 10.888 12.0403C9.64 12.1923 8.608 12.6483 7.848 13.4083C6.208 15.0403 5.968 17.9203 7.168 21.5203C8.408 25.2483 11.048 29.2483 14.576 32.7843C17.52 35.7283 20.776 38.0403 23.944 39.4483C20.672 37.1603 17.52 33.5843 15.04 29.2803Z" fill="black"/>
<path d="M0 0V48H48V0H0ZM45.048 23.52C41.664 23.528 38.416 24.832 35.976 27.168C36.504 29.008 36.832 30.808 36.928 32.496C37.136 35.936 36.4 38.616 34.832 40.264L34.848 40.28L34.776 40.352C33.608 41.52 31.984 42.12 29.952 42.12C28.424 42.088 26.92 41.808 25.48 41.304C21.584 40.008 17.416 37.272 13.76 33.616C10.104 29.96 7.368 25.784 6.072 21.896C4.728 17.864 5.064 14.56 7.032 12.6C8.072 11.552 9.496 10.976 11.208 10.864C11.76 9.232 12.696 7.992 13.976 7.256C16.376 5.872 19.656 6.392 23.208 8.736C25.024 9.936 26.808 11.544 28.472 13.464C29.216 11.792 29.616 9.976 29.624 8.112H31.912C31.912 11.6 33.304 14.936 35.768 17.4C38.232 19.864 41.576 21.248 45.056 21.256V23.52H45.048Z" fill="black"/>
<path d="M35.0321 28.1679C33.0241 30.5359 31.9121 33.5359 31.9041 36.6639H29.6161C29.6081 33.1839 28.2241 29.8399 25.7601 27.3759C23.2961 24.9119 19.9601 23.5279 16.4721 23.5199V22.3759V21.2319C19.6081 21.2239 22.6241 20.1039 24.9921 18.0799C22.0561 15.5839 18.9201 13.7119 15.9521 12.7279C14.7041 12.2879 13.4001 12.0399 12.0721 11.9839C11.7841 13.2719 11.6961 14.5919 11.7921 15.9039C12.0241 19.8319 13.5361 24.3759 16.0321 28.7039C18.5281 33.0319 21.7201 36.6079 25.0001 38.7759C28.1601 40.8639 31.0081 41.3759 33.0081 40.2239C35.0081 39.0639 35.9921 36.3439 35.7441 32.5599C35.6801 31.1599 35.4321 29.6879 35.0321 28.1679Z" fill="black"/>
</g>
<defs>
<clipPath id="clip0_12085_6969">
<rect width="48" height="48" rx="24" fill="white"/>
</clipPath>
</defs>
</svg>
