<svg width="48" height="48" viewBox="0 0 48 48" fill="none" xmlns="http://www.w3.org/2000/svg">
<rect width="48" height="48" rx="24" fill="url(#paint0_linear_10737_15628)"/>
<path d="M26.8533 29.3888C27 29.2908 27.203 29.3537 27.2632 29.5156L29.5434 35.6497C29.6167 35.8469 29.4319 36.0431 29.2213 35.9917L20.826 33.9404C20.6003 33.8852 20.5467 33.5994 20.7382 33.4715L26.8533 29.3888Z" fill="white"/>
<path d="M28.326 28.0348C28.3155 28.0065 28.3101 27.9766 28.3101 27.9465V21.7645C28.3101 21.5896 28.1357 21.4639 27.9619 21.5135L20.768 23.5638C20.5942 23.6133 20.4198 23.4877 20.4198 23.3128V19.3175C20.4198 19.2358 20.4593 19.1588 20.5267 19.1093L29.9012 12.2196C30.0314 12.1238 30.2193 12.1604 30.3009 12.2974L35.964 21.8049C36.0041 21.8723 36.0111 21.9533 35.9831 22.0262L31.2153 34.4426C31.1273 34.6716 30.7908 34.6699 30.7054 34.44L28.326 28.0348Z" fill="white"/>
<path d="M18.0194 12.7554C18.0646 12.7126 18.124 12.6865 18.1872 12.6816L26.8395 12.001C27.1098 11.9797 27.2417 12.3118 27.0259 12.4701L19.651 17.8808C19.5828 17.9309 19.494 17.9469 19.4116 17.924L14.5552 16.5739C14.3554 16.5184 14.292 16.2757 14.4405 16.1355L18.0194 12.7554Z" fill="white"/>
<path d="M13.2034 17.9325C13.2241 17.7728 13.3878 17.6688 13.548 17.7135L18.6949 19.1487C18.8109 19.181 18.8908 19.2835 18.8908 19.4001V25.2108C18.8908 25.3858 19.0654 25.5115 19.2393 25.4618L26.3832 23.4206C26.5571 23.3709 26.7316 23.4966 26.7316 23.6715V27.3624C26.7316 27.4481 26.6881 27.5284 26.6151 27.5773L18.6023 32.9487C18.4978 33.0188 18.3569 33.0094 18.2634 32.9261L12.0873 27.4269C12.023 27.3696 11.9913 27.286 12.0021 27.2022L13.2034 17.9325Z" fill="white"/>
<defs>
<linearGradient id="paint0_linear_10737_15628" x1="38" y1="9" x2="-6.98312e-06" y2="48" gradientUnits="userSpaceOnUse">
<stop offset="0.015625" stop-color="#3294FF"/>
<stop offset="1" stop-color="#005BBE"/>
</linearGradient>
</defs>
</svg>
