<svg width="120" height="120" viewBox="0 0 120 120" fill="none" xmlns="http://www.w3.org/2000/svg">
<rect width="120" height="120" rx="60" fill="url(#paint0_linear_10009_2020)"/>
<path d="M67.1332 73.4719C67.4998 73.2271 68.0075 73.3842 68.1579 73.7891L73.8584 89.1241C74.0417 89.6173 73.5798 90.1079 73.0532 89.9792L52.065 84.8509C51.5006 84.713 51.3667 83.9984 51.8455 83.6787L67.1332 73.4719Z" fill="white"/>
<path d="M70.815 70.087C70.7887 70.0162 70.7752 69.9416 70.7752 69.8664V54.4112C70.7752 53.974 70.3392 53.6598 69.9046 53.7837L51.92 58.9095C51.4853 59.0333 51.0494 58.7191 51.0494 58.282V48.2938C51.0494 48.0896 51.1482 47.8971 51.3166 47.7733L74.7528 30.5489C75.0785 30.3095 75.5482 30.4009 75.7522 30.7434L89.9098 54.5123C90.0101 54.6807 90.0277 54.8833 89.9578 55.0654L78.0382 86.1064C77.8183 86.6791 76.9769 86.6748 76.7633 86.0999L70.815 70.087Z" fill="white"/>
<path d="M45.0483 31.8885C45.1615 31.7816 45.3099 31.7163 45.4678 31.7039L67.0987 30.0024C67.7744 29.9493 68.1041 30.7795 67.5646 31.1753L49.1275 44.7021C48.9569 44.8273 48.7349 44.8673 48.5289 44.8101L36.3879 41.4348C35.8885 41.296 35.7299 40.6894 36.1012 40.3387L45.0483 31.8885Z" fill="white"/>
<path d="M33.0084 44.8311C33.0601 44.4321 33.4694 44.172 33.87 44.2837L46.7371 47.8717C47.0273 47.9526 47.227 48.2089 47.227 48.5002V63.0271C47.227 63.4644 47.6633 63.7787 48.0981 63.6544L65.9579 58.5514C66.3927 58.4272 66.829 58.7414 66.829 59.1788V68.406C66.829 68.6203 66.7202 68.8209 66.5378 68.9432L46.5058 82.3718C46.2445 82.5469 45.8922 82.5234 45.6584 82.3153L30.2182 68.5673C30.0574 68.4241 29.9781 68.2149 30.0052 68.0054L33.0084 44.8311Z" fill="white"/>
<defs>
<linearGradient id="paint0_linear_10009_2020" x1="95" y1="22.5" x2="-1.74578e-05" y2="120" gradientUnits="userSpaceOnUse">
<stop offset="0.015625" stop-color="#3294FF"/>
<stop offset="1" stop-color="#005BBE"/>
</linearGradient>
</defs>
</svg>
