<svg width="88" height="88" viewBox="0 0 88 88" fill="none" xmlns="http://www.w3.org/2000/svg">
<path fill-rule="evenodd" d="M29.9469 0.555416C28.1831 1.41523 26.0066 3.83832 24.8433 6.18326C22.4416 11.1467 21.0156 12.2801 15.912 13.2962C9.04473 14.625 6.4179 17.5562 6.98079 23.3013C7.09337 24.4737 7.31853 26.6233 7.46863 28.0302C7.76884 31.2741 7.31853 32.3293 4.05374 36.003C1.08917 39.325 -0.0366212 41.5918 0.000905079 44.0149C0.0384313 46.438 1.12669 48.5093 4.24137 52.1049C7.61874 55.935 7.88142 56.7948 7.24347 62.1881C6.26779 70.8644 7.95647 72.9748 17.4881 75.0853C21.1657 75.906 22.2165 76.844 24.5806 81.2212C28.4458 88.4514 31.5605 89.5066 38.728 85.9501C42.7433 83.9569 45.0324 83.9569 49.1228 85.911C53.4383 87.9824 55.6524 88.4514 57.7163 87.5916C59.5926 86.8881 61.9568 84.3477 63.1951 81.8465C65.5218 77.0394 67.1354 75.6715 71.4509 74.8898C77.23 73.8346 79.5941 72.2713 80.6824 68.793C81.2453 66.9171 81.2453 66.2136 80.87 62.8525C80.6073 60.7812 80.4197 58.6316 80.4197 58.1626C80.4197 56.5994 81.5455 54.6452 84.1723 51.6359C87.1369 48.2358 88 46.5161 88 44.0149C88 41.5136 87.1369 39.794 84.0973 36.3157C80.3822 32.0557 80.2696 31.704 80.6449 27.444C80.8325 25.4899 80.9451 22.8714 80.9075 21.6598C80.8325 17.3217 78.5809 14.8204 73.8526 13.7261C66.7977 12.0847 65.9346 11.4984 63.5704 6.88674C61.8817 3.56475 59.7427 1.21981 57.6788 0.399087C55.5773 -0.42164 53.6259 -0.0308178 49.1228 2.07962C45.07 3.99465 43.6064 4.1119 40.6043 2.7831C35.7259 0.672663 34.7878 0.320922 33.1366 0.086429C31.8982 -0.108982 31.0351 0.0473467 29.9469 0.555416ZM31 38L40 47L58 27L65 34L40 60L24 45Z" fill="#2D5BE6"/>
</svg>
