<svg width="120" height="120" viewBox="0 0 120 120" fill="none" xmlns="http://www.w3.org/2000/svg">
<rect width="120" height="120" rx="60" fill="#69DD83"/>
<path d="M87.9895 86.4918L72.3457 71.2091H47.6422L31.9984 86.4918L39.3387 93.6626L54.9825 78.3799C56.3237 77.0697 58.0919 76.3549 59.994 76.3549C61.8962 76.3549 63.6641 77.0697 65.0053 78.3799L80.6493 93.6626L87.9895 86.4918Z" fill="white"/>
<path d="M74.9551 66.8018L96.3173 72.3885L99 62.5852L77.6375 56.9985C75.8086 56.5222 74.2844 55.3787 73.3332 53.7706C72.3822 52.1743 72.1385 50.3042 72.6262 48.5175L78.3447 27.6483L68.3097 25.0278L62.5912 45.897L74.9429 66.7901L74.9551 66.8018Z" fill="white"/>
<path d="M23.6826 72.3885L45.0451 66.8018L45.0573 66.7901L57.4089 45.897L51.6904 25.0278L41.6554 27.6483L47.374 48.5175C47.8617 50.3042 47.6178 52.1743 46.6668 53.7706C45.7157 55.3787 44.1916 56.5222 42.3626 56.9985L21.0001 62.5852L23.6826 72.3885Z" fill="white"/>
</svg>
