<svg width="120" height="120" viewBox="0 0 120 120" fill="none" xmlns="http://www.w3.org/2000/svg">
<g clip-path="url(#clip0_462_46)">
<path d="M120 0H0V120H120V0Z" fill="white"/>
<path d="M74.3555 74.5201L93.0491 93.224L84.2783 102L65.5841 83.2963C63.9814 81.6927 61.8687 80.8179 59.5957 80.8179C57.3228 80.8179 55.21 81.6927 53.6073 83.2963L34.9134 102L26.1421 93.224L44.8359 74.5201H74.3409H74.3555Z" fill="#00DE73"/>
<path d="M77.4736 69.1261L103.001 75.9634L106.207 63.9655L80.6793 57.1282C78.4936 56.5451 76.6722 55.1456 75.5357 53.1775C74.3993 51.224 74.1079 48.9352 74.6907 46.7484L81.5241 21.2072L69.5327 18L62.6992 43.5412L77.459 69.1115L77.4736 69.1261Z" fill="#00DE73"/>
<path d="M41.7328 69.1261L16.2055 75.9634L13 63.9655L38.5273 57.1282C40.7129 56.5451 42.5342 55.1456 43.6706 53.1775C44.8072 51.224 45.0986 48.9352 44.5158 46.7484L37.6822 21.2072L49.6737 18L56.5072 43.5412L41.7474 69.1115L41.7328 69.1261Z" fill="#00DE73"/>
</g>
<defs>
<clipPath id="clip0_462_46">
<rect width="120" height="120" rx="60" fill="white"/>
</clipPath>
</defs>
</svg>
