<svg width="88" height="88" viewBox="0 0 88 88" fill="none" xmlns="http://www.w3.org/2000/svg">
<rect width="88" height="88" rx="44" fill="#69DD83"/>
<path d="M64.5256 63.4273L53.0535 52.22H34.9376L23.4655 63.4273L28.8483 68.6859L40.3205 57.4786C41.304 56.5178 42.6007 55.9936 43.9956 55.9936C45.3905 55.9936 46.687 56.5178 47.6705 57.4786L59.1428 68.6859L64.5256 63.4273Z" fill="white"/>
<path d="M54.967 48.988L70.6327 53.0849L72.5999 45.8958L56.9341 41.7989C55.5929 41.4496 54.4752 40.6111 53.7776 39.4318C53.0802 38.2611 52.9015 36.8898 53.2592 35.5795L57.4527 20.2754L50.0937 18.3537L45.9001 33.6578L54.958 48.9794L54.967 48.988Z" fill="white"/>
<path d="M17.3673 53.0849L33.0331 48.988L33.0421 48.9794L42.0999 33.6578L37.9064 18.3537L30.5473 20.2754L34.741 35.5795C35.0987 36.8898 34.9198 38.2611 34.2224 39.4318C33.5249 40.6111 32.4072 41.4496 31.066 41.7989L15.4001 45.8958L17.3673 53.0849Z" fill="white"/>
</svg>
