<svg width="88" height="88" viewBox="0 0 88 88" fill="none" xmlns="http://www.w3.org/2000/svg">
<g clip-path="url(#clip0_12085_5063)">
<path d="M42.9859 0H45.014C45.0828 0.0171875 45.1515 0.034375 45.2203 0.0515625C45.6156 0.06875 46.0109 0.06875 46.4062 0.103125C47.4203 0.189063 48.4343 0.240625 49.4484 0.378125C50.7203 0.55 52.0093 0.75625 53.2812 1.01406C56.0656 1.59844 58.7812 2.45781 61.3937 3.59219C73.8718 8.97188 83.1703 19.8 86.5906 32.9484C87.0031 34.5125 87.3125 36.1109 87.5531 37.7094C87.6906 38.6547 87.7937 39.6172 87.8625 40.5625C87.9312 41.3016 87.9312 42.0578 87.9656 42.7969C87.9828 42.8656 88 42.9172 88.0172 42.9859V45.0141C88 45.0484 87.9828 45.0828 87.9656 45.1344C87.9484 45.5641 87.9484 45.9938 87.914 46.4234C87.8453 47.3 87.8109 48.1766 87.6906 49.0531C87.5015 50.4625 87.2953 51.8547 87.0203 53.2469C86.3156 56.5984 85.2156 59.8469 83.7375 62.9234C80.764 69.1625 76.3812 74.5938 70.9156 78.8047C66.2578 82.4313 60.9297 85.0609 55.2234 86.5391C52.7656 87.1922 50.2734 87.6219 47.7297 87.8109C46.6468 87.8969 45.564 87.9313 44.4812 87.9828C43.9312 88 43.364 87.9828 42.814 87.9484C41.8172 87.8969 40.8031 87.8625 39.8062 87.7594C38.7922 87.6562 37.7781 87.5187 36.764 87.3641C34.6156 87.0203 32.5015 86.5219 30.439 85.8344C16.3625 81.2969 5.55153 69.9875 1.59841 55.7562C0.859343 53.1266 0.378093 50.4453 0.171843 47.7125C0.103093 46.6984 0.0343428 45.6672 -3.21628e-05 44.6531C-0.0172197 44.0516 -3.21632e-05 43.4328 0.0343428 42.8312C0.103093 41.6625 0.154655 40.5109 0.25778 39.3594C0.360905 38.2766 0.515593 37.1766 0.704655 36.1109C1.16872 33.4813 1.89059 30.9031 2.85309 28.4109C7.92341 15.0906 19.1297 5.03594 32.9312 1.44375C34.4953 1.03125 36.0937 0.721875 37.6922 0.48125C38.6375 0.34375 39.6 0.240625 40.5453 0.171875C41.3015 0.103125 42.0578 0.103125 42.7968 0.06875C42.8828 0.034375 42.9343 0.0171875 42.9859 0ZM43.9828 76.3812C61.8578 76.4672 76.2781 61.8578 76.3984 44.3781C76.5187 26.1938 61.9609 11.8422 44.3953 11.6531C25.9875 11.4641 11.825 26.1766 11.6359 43.6219C11.4297 61.9781 26.3312 76.45 43.9828 76.3812Z" fill="#7B2BF9"/>
<path d="M43.9828 76.3812C26.3312 76.4672 11.4297 61.9953 11.6187 43.6219C11.8078 26.1937 25.9703 11.464 44.3781 11.6531C61.9437 11.8422 76.5015 26.1937 76.3812 44.3781C76.2953 61.8578 61.875 76.45 43.9828 76.3812ZM61.3765 34.2375C61.2734 34.1515 61.2047 34.0828 61.1359 34.0312C60.775 33.7562 60.4312 33.464 60.0703 33.189C54.8281 29.1328 48.8468 26.1078 42.4703 24.2859C39.6172 23.4437 36.6781 22.9453 33.7218 22.7906C32.6218 22.739 31.5218 22.7906 30.4218 22.825C29.339 22.8594 28.2562 22.9969 27.1906 23.2203C25.3515 23.5984 23.5984 24.2 22 25.1969C20.4875 26.125 19.25 27.4484 18.4422 29.0469C17.5828 30.7484 17.4109 32.5875 17.6 34.4609C17.7547 35.8187 18.1156 37.1594 18.6312 38.414C19.525 40.6656 20.7968 42.6937 22.275 44.6187C23.839 46.6297 25.5922 48.4687 27.5172 50.1187C28.05 50.6 28.8578 50.6344 29.4078 50.1703C32.3125 47.8844 35.3547 45.8047 38.5343 43.9312C39.2562 43.5359 39.7031 42.7969 39.7203 41.989C39.789 40.9062 39.8578 39.8062 39.9437 38.7234C40.0125 37.8812 40.0984 37.039 40.2187 36.1969C40.425 34.839 40.6484 33.464 40.9234 32.1234C41.3015 30.1812 41.8172 28.2562 42.4703 26.3828C42.5734 25.9531 43.0203 25.6953 43.45 25.7984C43.4843 25.8156 43.5187 25.8156 43.5531 25.8328C43.8625 25.9359 44.189 26.039 44.4984 26.1422C45.0828 26.3312 45.289 26.7265 45.0828 27.3109C44.1031 30.2844 43.3984 33.3437 43.0031 36.4375C42.814 37.8984 42.6765 39.3594 42.5562 40.8203C42.4703 42.0578 42.4531 43.3125 42.4187 44.55C42.4015 45.2547 42.4359 45.9765 42.4531 46.6812C42.4531 47.0765 42.4703 47.4547 42.4875 47.85C42.5734 49.139 42.6422 50.4281 42.7625 51.7C42.8484 52.6797 42.9687 53.6594 43.1234 54.639C43.3468 55.9969 43.639 57.3547 43.914 58.7125C44.0687 59.4344 43.7765 60.0187 43.089 60.3109C42.5906 60.5172 42.0922 60.7062 41.5937 60.9125C40.889 61.2047 40.0812 61.1875 39.4109 60.8437C36.8843 59.675 34.4437 58.3687 32.0718 56.9078C27.6547 54.1062 23.6672 50.8062 20.3843 46.6984C18.7172 44.6015 17.2906 42.35 16.2593 39.875C16.0015 39.239 15.7781 38.5859 15.5547 37.9328C15.5031 37.7781 15.4172 37.6406 15.2453 37.6922C15.1422 37.7265 15.039 37.8125 15.0047 37.9156C14.6437 39.4625 14.4375 41.0265 14.3859 42.6078C14.3515 43.914 14.3859 45.2375 14.4718 46.5437C14.5406 47.5922 14.6781 48.6234 14.8843 49.6547C15.2968 51.9062 15.9843 54.1062 16.9297 56.1859C17.5828 57.6125 18.339 58.9875 19.1984 60.2937C19.3187 60.5515 19.5937 60.689 19.8687 60.6547C20.1265 60.6203 20.35 60.4312 20.4187 60.1734C20.5218 59.95 20.625 59.7265 20.7453 59.5031C21.8281 57.5437 23.2547 55.8422 24.8359 54.2609C25.214 53.9 25.8156 53.8656 26.2281 54.1922C26.4 54.3125 26.5547 54.45 26.7093 54.5703C27.1734 54.914 27.2765 55.5672 26.9328 56.0312C26.8984 56.0828 26.8468 56.1344 26.7953 56.1859C25.7125 57.2515 24.7328 58.4203 23.8734 59.6578C23.2547 60.5859 22.6875 61.5484 22.4468 62.6484C22.189 63.7828 22.5328 64.5047 23.5812 64.9859C24.3718 65.3297 25.214 65.5187 26.0734 65.5359C26.8468 65.5703 27.6203 65.5703 28.3765 65.5015C29.5968 65.3812 30.8343 65.2437 32.0375 65.0031C34.9078 64.4187 37.7437 63.6109 40.4765 62.5625C44.3781 61.1015 48.1765 59.3828 51.8547 57.4062C56.2203 55.0859 60.3625 52.4047 64.2468 49.3625C64.4531 49.225 64.5734 48.9844 64.5734 48.7437C64.625 47.7469 64.7109 46.75 64.7453 45.7703C64.7797 44.9109 64.7797 44.0515 64.7969 43.1922C64.7969 42.814 64.7797 42.4359 64.7625 42.0578C64.7281 41.2156 64.7281 40.3734 64.6765 39.5312C64.6078 38.5 64.5219 37.4687 64.4015 36.4547C64.264 35.2859 64.1093 34.1 63.9203 32.9312C63.5078 30.3875 62.8547 27.8953 61.9781 25.4719C61.2906 23.564 60.4312 21.7422 59.2625 20.0922C58.5062 19.0094 57.6297 18.0125 56.4953 17.3078C55.2062 16.5 53.8484 16.2765 52.3875 16.8265C51.5453 17.1703 50.7719 17.6687 50.1187 18.3047C48.9843 19.3703 48.1078 20.6422 47.3343 22C47.0593 22.4984 47.1968 22.8937 47.7297 23.1C52.6109 24.9906 57.2172 27.5515 61.3937 30.714C62.0469 31.1953 62.4937 31.9 62.6484 32.6906C62.7859 33.3781 62.9062 34.0484 62.9922 34.7359C63.1297 35.8531 62.5453 36.7469 61.5312 37.0047C58.4031 37.7953 55.3437 38.8094 52.3703 40.0297C49.6718 41.1297 47.025 42.3672 44.4468 43.725C43.9312 43.9828 43.5531 43.7422 43.5531 43.175C43.5703 42.7281 43.6047 42.2984 43.6047 41.8515C43.6047 41.25 43.8625 40.8719 44.4297 40.614C46.0797 39.8578 47.6953 39.05 49.3453 38.3281C52.6625 36.85 56.0828 35.6297 59.589 34.6672C60.1906 34.5297 60.7578 34.3922 61.3765 34.2375ZM43.9656 73.6656C45.2203 73.6484 46.475 73.5625 47.7297 73.3906C47.9359 73.3906 48.1078 73.2531 48.1765 73.064C48.2281 72.875 48.1422 72.6687 47.9875 72.5656C46.664 71.4484 45.65 70.0906 44.7734 68.6125C44.1375 67.5125 43.5703 66.3781 43.089 65.2094C42.9172 64.7969 42.625 64.6765 42.2125 64.8312C39.0328 66.0515 35.7672 67.0312 32.4328 67.7187C31.075 67.9937 29.7172 68.1828 28.325 68.2687C28.1015 68.2859 27.9297 68.3375 27.8609 68.5609C27.7922 68.7844 27.9297 68.9219 28.1187 69.025C28.6859 69.3687 29.2359 69.7125 29.8203 70.039C33.2234 71.9125 36.9703 73.0812 40.8203 73.4765C41.8687 73.5797 42.9172 73.5969 43.9656 73.6656ZM43.5187 21.639C44.1718 21.639 44.5672 21.3984 44.825 20.9344C45.4437 19.7828 46.1828 18.7 46.9906 17.6859C47.6093 16.9125 48.2968 16.225 49.0703 15.6062C49.225 15.5031 49.2937 15.314 49.2422 15.125C49.2078 14.9531 49.0531 14.8156 48.8812 14.7812C48.7781 14.764 48.675 14.7469 48.5718 14.7297C47.3859 14.6094 46.2172 14.4719 45.0312 14.4031C44.189 14.3687 43.3468 14.3687 42.5047 14.4375C41.3703 14.5234 40.2531 14.6265 39.1359 14.7812C36.5234 15.1937 33.9625 15.9672 31.5562 17.0844C29.9062 17.8406 28.3422 18.7515 26.864 19.8C26.7265 19.9031 26.6062 20.0062 26.675 20.1953C26.7437 20.3672 26.8984 20.3844 27.0531 20.35C28.3593 20.1094 29.6656 19.9719 30.989 19.9375C32.1062 19.9203 33.2234 19.9547 34.3406 20.0062C35.389 20.075 36.4375 20.1781 37.4859 20.3156C39.239 20.5562 40.975 20.9172 42.6765 21.3984C43.0203 21.5359 43.3125 21.6047 43.5187 21.639ZM53.1953 71.9297C53.539 71.8781 53.9 71.8437 54.2265 71.7578C55.3265 71.4828 56.2203 70.8812 57.0281 70.125C58.4375 68.8015 59.4515 67.2031 60.3109 65.4844C60.4312 65.2609 60.3453 64.9687 60.1218 64.8484C60.0359 64.814 59.95 64.7797 59.864 64.7969C59.2968 64.814 58.7297 64.8656 58.1625 64.8656C57.2515 64.8656 56.3406 64.8484 55.4468 64.7797C54.5187 64.7281 53.5734 64.6594 52.6625 64.5047C51.2875 64.2984 49.9297 64.0406 48.5718 63.7656C47.8843 63.6281 47.1968 63.4219 46.5093 63.25C46.2515 63.164 45.9593 63.2328 45.7703 63.439C45.5984 63.6453 45.564 63.9375 45.7015 64.1609C46.2172 65.175 46.6812 66.2234 47.2312 67.2203C47.9531 68.5781 48.95 69.764 50.1703 70.7265C51.0468 71.4484 52.0265 71.8953 53.1953 71.9297ZM39.6515 46.4922C38.4828 46.9562 31.2297 52.0094 30.7656 52.6797C33.9625 54.9828 37.4 56.9078 41.0265 58.4547C40.1672 54.5187 39.7203 50.514 39.6515 46.4922ZM57.4062 62.15C58.0078 62.1328 58.6094 62.1156 59.2109 62.0812C59.8125 62.0469 60.3969 61.9437 60.9984 61.9094C61.6687 61.875 62.0297 61.5312 62.2359 60.9125C62.9922 58.575 63.5765 56.1859 63.9719 53.7625C64.0062 53.5906 64.0062 53.4359 63.8515 53.3328C63.6968 53.2469 63.5593 53.3156 63.4219 53.4187C62.9234 53.7797 62.425 54.1406 61.9094 54.4844C58.4375 56.8562 54.8109 59.0047 51.064 60.9125C50.9093 60.9812 50.789 61.0844 50.8062 61.2562C50.8234 61.4453 50.9781 61.514 51.15 61.5484C53.2125 61.9265 55.3093 62.1328 57.4062 62.15ZM72.0844 51.7344C72.05 51.2359 72.0328 50.7203 71.9469 50.2219C71.8094 49.4312 71.6547 48.6578 71.4484 47.8844C71.3109 47.3687 70.7265 47.2484 70.3312 47.6094C69.489 48.4 68.6297 49.1906 67.7875 49.9812C67.4781 50.239 67.2718 50.5828 67.1687 50.9781C67.0828 51.3562 67.0312 51.7515 66.9797 52.1469C66.7906 53.2984 66.6531 54.45 66.4125 55.5844C66.1375 56.9765 65.7765 58.3515 65.45 59.7265C65.3468 60.0359 65.5187 60.3797 65.8281 60.4828C65.9828 60.5344 66.1547 60.5172 66.3093 60.4312C66.4468 60.3625 66.5672 60.2937 66.7047 60.2422C68.114 59.5031 69.3515 58.5578 70.2969 57.2687C71.4828 55.6703 72.1187 53.7281 72.0844 51.7344ZM70.9672 33.5156C71.3625 33.5328 71.5687 33.2578 71.4484 32.8797C71.4312 32.8109 71.3969 32.7422 71.3625 32.6734C70.125 29.7 68.4062 26.95 66.275 24.5265C65.6734 23.839 65.0203 23.2031 64.3844 22.5672C64.2984 22.4984 64.1781 22.4812 64.0578 22.5156C63.9375 22.5672 63.8687 22.7047 63.9203 22.825C63.9203 22.8422 63.9203 22.8422 63.9375 22.8594C63.989 22.9625 64.0234 23.0828 64.0578 23.1859C65.2094 26.039 66.0515 29.0125 66.5844 32.0547C66.6875 32.8109 67.3406 33.3781 68.114 33.3437C68.6125 33.3437 69.1281 33.3609 69.6265 33.3953C70.0734 33.4125 70.5203 33.464 70.9672 33.5156ZM68.8015 36.0594C68.6984 36.0594 68.6125 36.0594 68.5094 36.0594C68.2859 36.025 68.0797 36.1453 67.9937 36.3515C67.8906 36.575 67.9937 36.7469 68.1312 36.9015C68.475 37.314 68.8359 37.7094 69.1453 38.139C69.8328 39.0672 70.5031 40.0125 71.1734 40.9578C71.4484 41.3359 71.9468 41.3359 72.1875 40.9406C72.5484 40.339 72.8062 39.6687 72.9609 38.9984C73.2187 37.8297 72.8406 37.0906 71.775 36.6265C71.7578 36.6094 71.7406 36.6094 71.7062 36.6094C70.7781 36.1969 69.7984 36.0937 68.8015 36.0594ZM67.5469 45.7359H67.5125C67.5125 45.7531 67.5125 45.7875 67.5125 45.8047C67.5125 45.9594 67.4953 46.114 67.6672 46.1828C67.839 46.2515 67.9594 46.1656 68.0625 46.0453C68.5265 45.564 68.9906 45.1 69.4375 44.6187C69.7812 44.2578 69.8156 44 69.5578 43.5875C69.0937 42.8312 68.6125 42.1094 68.1312 41.3703C68.0281 41.2156 67.9078 41.1297 67.7359 41.1812C67.564 41.2328 67.5297 41.3875 67.5297 41.5594C67.5468 42.9515 67.5469 44.3437 67.5469 45.7359ZM63.5765 66.1719C63.6453 66.1375 63.6968 66.1031 63.7484 66.0687C63.9031 65.9312 64.075 65.7937 64.2125 65.639C64.6765 65.1922 65.1406 64.7453 65.5875 64.2812C65.6562 64.1953 65.6906 64.075 65.6562 63.9547C65.6218 63.8 65.4844 63.7656 65.3297 63.7828C65.2953 63.7828 65.2781 63.7828 65.2437 63.8C64.8656 63.9031 64.4875 64.0234 64.1094 64.1437C64.0234 64.1781 63.9375 64.2297 63.8859 64.3156C63.6625 64.814 63.439 65.2953 63.2328 65.8109C63.1812 65.9828 63.3187 66.1719 63.5765 66.1719ZM73.6484 44.4812C73.6312 44.3953 73.6312 44.3094 73.6312 44.2234C73.6312 44.1719 73.5969 44.1031 73.5625 44.0859C73.5109 44.0859 73.4594 44.1031 73.4078 44.1375C73.1672 44.3265 73.1328 44.6703 73.3219 44.9109C73.3219 44.9281 73.339 44.9281 73.339 44.9453C73.425 45.0484 73.5453 45.0312 73.5797 44.8937C73.614 44.7562 73.6312 44.6359 73.6484 44.4812Z" fill="white"/>
<path d="M61.3765 34.2375C60.7578 34.3922 60.1734 34.5297 59.6062 34.6844C56.0999 35.6469 52.6796 36.8672 49.3624 38.3453C47.7124 39.0844 46.0968 39.8922 44.4468 40.6312C43.8968 40.8891 43.6218 41.2672 43.6218 41.8687C43.6218 42.3156 43.5874 42.7453 43.5703 43.1922C43.5531 43.7594 43.9484 44.0172 44.464 43.7422C47.0421 42.3844 49.689 41.1469 52.3874 40.0469C55.3609 38.8094 58.4203 37.8125 61.5484 37.0219C62.5624 36.7641 63.1468 35.8703 63.0093 34.7531C62.9234 34.0656 62.8031 33.3781 62.6656 32.7078C62.5109 31.9172 62.064 31.2125 61.4109 30.7312C57.2343 27.5687 52.6281 25.0078 47.7468 23.1172C47.214 22.9109 47.0765 22.4984 47.3515 22.0172C48.1249 20.6594 49.0015 19.4047 50.1359 18.3219C50.789 17.6859 51.5624 17.1875 52.4046 16.8437C53.8484 16.2766 55.2234 16.5 56.5124 17.325C57.6468 18.0469 58.5234 19.0266 59.2796 20.1094C60.4484 21.7766 61.2906 23.5984 61.9953 25.4891C62.8718 27.9125 63.5249 30.4047 63.9374 32.9484C64.1265 34.1172 64.2812 35.2859 64.4187 36.4719C64.539 37.5031 64.6249 38.5172 64.6937 39.5484C64.7453 40.3906 64.7624 41.2328 64.7796 42.075C64.7968 42.4531 64.814 42.8312 64.814 43.2094C64.814 44.0687 64.7968 44.9281 64.7624 45.7875C64.7281 46.7844 64.6421 47.7812 64.5906 48.7609C64.5906 49.0016 64.4703 49.2422 64.264 49.3797C60.3796 52.4219 56.2203 55.1031 51.8718 57.4234C48.2109 59.4 44.3953 61.1188 40.4937 62.5797C37.7437 63.6281 34.9249 64.4359 32.0546 65.0203C30.8515 65.2609 29.614 65.3984 28.3937 65.5188C27.6203 65.5875 26.864 65.6047 26.0906 65.5531C25.2312 65.5359 24.389 65.3469 23.5984 65.0031C22.5499 64.5047 22.2062 63.7828 22.464 62.6656C22.7218 61.5656 23.2718 60.6031 23.8906 59.675C24.7671 58.4375 25.7468 57.2687 26.8124 56.2031C27.2421 55.8078 27.2765 55.1547 26.8812 54.725C26.8296 54.6734 26.7781 54.6219 26.7265 54.5875C26.5718 54.45 26.4171 54.3297 26.2453 54.2094C25.8328 53.8828 25.2312 53.9172 24.8531 54.2781C23.289 55.8594 21.8453 57.5437 20.7624 59.5203C20.6421 59.7437 20.5218 59.9672 20.4359 60.1906C20.3499 60.4484 20.1437 60.6203 19.8859 60.6719C19.6109 60.7062 19.3359 60.5687 19.2156 60.3109C18.3562 59.0047 17.5999 57.6297 16.9468 56.2031C16.0015 54.1234 15.314 51.9234 14.9015 49.6719C14.7124 48.6406 14.5749 47.6094 14.489 46.5609C14.4031 45.2547 14.3687 43.9312 14.4031 42.625C14.4546 41.0437 14.6609 39.4797 15.0218 37.9328C15.0562 37.8297 15.1593 37.7437 15.2624 37.7094C15.4343 37.6578 15.5203 37.7953 15.5718 37.95C15.8124 38.6031 16.0187 39.2562 16.2765 39.8922C17.3078 42.3672 18.7343 44.6187 20.4015 46.7156C23.6843 50.8234 27.6546 54.1234 32.089 56.925C34.4437 58.3859 36.9015 59.7094 39.4281 60.8609C40.1156 61.2047 40.9062 61.2219 41.6109 60.9297C42.1093 60.7234 42.6078 60.5344 43.1062 60.3281C43.7937 60.0359 44.0859 59.4516 43.9312 58.7297C43.6562 57.3719 43.3812 56.0312 43.1406 54.6562C42.9687 53.6766 42.8656 52.6969 42.7796 51.7172C42.6593 50.4281 42.5906 49.1562 42.5046 47.8672C42.4874 47.4719 42.4703 47.0937 42.4703 46.6984C42.4531 45.9937 42.4187 45.2719 42.4359 44.5672C42.4703 43.3297 42.4874 42.075 42.5734 40.8375C42.6765 39.3766 42.814 37.9156 43.0203 36.4547C43.4156 33.3437 44.1203 30.2844 45.0999 27.3281C45.3062 26.7437 45.0999 26.3484 44.5156 26.1594C44.2062 26.0562 43.8968 25.9531 43.5703 25.85C43.1578 25.6781 42.6937 25.8844 42.5218 26.2969C42.5046 26.3312 42.5046 26.3656 42.4874 26.4C41.8515 28.2734 41.3359 30.1984 40.9406 32.1406C40.6828 33.4984 40.4421 34.8562 40.2359 36.2141C40.1156 37.0562 40.0296 37.8984 39.9609 38.7406C39.8749 39.8234 39.8062 40.9062 39.7374 42.0062C39.7203 42.8141 39.2562 43.5703 38.5515 43.9484C35.3718 45.8219 32.3296 47.9016 29.4249 50.1875C28.8578 50.6344 28.0499 50.6172 27.5343 50.1359C25.6093 48.4859 23.8562 46.6469 22.2921 44.6359C20.814 42.7281 19.5593 40.6828 18.6484 38.4312C18.1328 37.1594 17.7718 35.8359 17.6171 34.4781C17.4109 32.6047 17.5999 30.7656 18.4593 29.0641C19.2671 27.4828 20.4874 26.1422 22.0171 25.2141C23.6156 24.2172 25.3687 23.6156 27.2078 23.2375C28.2734 23.0141 29.3562 22.8766 30.439 22.8422C31.539 22.8078 32.639 22.7562 33.739 22.8078C36.7124 22.9625 39.6515 23.4609 42.4874 24.3031C48.864 26.125 54.8453 29.15 60.0874 33.2062C60.4484 33.4812 60.7921 33.7734 61.1531 34.0484C61.2218 34.0828 61.2734 34.1344 61.3765 34.2375Z" fill="#7B2BF9"/>
<path d="M43.9656 73.6656C42.9172 73.5969 41.8687 73.5797 40.8375 73.4766C36.9703 73.0812 33.2406 71.9125 29.8375 70.039C29.2531 69.7297 28.7031 69.3687 28.1359 69.025C27.964 68.9219 27.8265 68.7844 27.8781 68.5609C27.9469 68.3375 28.1187 68.2859 28.3422 68.2687C29.7172 68.1828 31.0922 67.9937 32.45 67.7187C35.7844 67.0312 39.05 66.0687 42.2297 64.8312C42.6422 64.6766 42.9344 64.7969 43.1062 65.2094C43.5875 66.3781 44.1547 67.5125 44.7906 68.6125C45.6672 70.0906 46.6812 71.4484 48.0047 72.5656C48.1765 72.6687 48.2453 72.875 48.1937 73.0641C48.125 73.2531 47.9531 73.3906 47.7468 73.3906C46.475 73.5453 45.2203 73.6484 43.9656 73.6656Z" fill="#7B2BF9"/>
<path d="M43.5187 21.6391C43.3296 21.5875 43.0203 21.536 42.7109 21.45C41.0093 20.986 39.2734 20.625 37.5203 20.3672C36.4718 20.2297 35.4234 20.1094 34.375 20.0578C33.2578 19.9891 32.1406 19.9547 31.0234 19.9891C29.7 20.0235 28.3765 20.161 27.0875 20.4016C26.9156 20.436 26.7781 20.4188 26.7093 20.2469C26.6406 20.0578 26.7609 19.9547 26.8984 19.8516C28.3765 18.8031 29.9406 17.8922 31.5906 17.136C33.9968 16.0188 36.5406 15.2281 39.1703 14.8328C40.2875 14.661 41.4218 14.5578 42.539 14.4891C43.3812 14.4203 44.2234 14.4203 45.0656 14.4547C46.2515 14.5235 47.4203 14.661 48.6062 14.7813C48.7093 14.7985 48.8125 14.8156 48.9156 14.8328C49.1046 14.85 49.2421 14.9875 49.2765 15.1766C49.3281 15.3656 49.2593 15.5547 49.1046 15.6578C48.3312 16.2766 47.6437 16.9641 47.025 17.7375C46.2 18.7516 45.4781 19.8516 44.8593 20.986C44.5671 21.4156 44.1718 21.6391 43.5187 21.6391Z" fill="#7B2BF9"/>
<path d="M53.1953 71.9297C52.0265 71.8953 51.0468 71.4313 50.1531 70.7438C48.95 69.7813 47.9531 68.5953 47.214 67.2375C46.6468 66.2406 46.1828 65.1922 45.6843 64.1781C45.5468 63.9547 45.564 63.6625 45.7531 63.4563C45.9421 63.25 46.2343 63.1641 46.4921 63.2672C47.1796 63.4391 47.8671 63.6453 48.5546 63.7828C49.9125 64.0578 51.2874 64.3156 52.6453 64.5219C53.5734 64.6594 54.5015 64.7281 55.4296 64.7969C56.3406 64.8485 57.2515 64.8656 58.1453 64.8828C58.7125 64.8828 59.2796 64.8313 59.8468 64.8141C60.1046 64.7969 60.3281 64.986 60.3625 65.2438C60.3625 65.3297 60.3453 65.4156 60.3109 65.5016C59.4515 67.2203 58.4203 68.8188 57.0281 70.1422C56.2203 70.8985 55.3265 71.5172 54.2265 71.775C53.9 71.8438 53.539 71.8781 53.1953 71.9297Z" fill="#7B2BF9"/>
<path d="M39.6516 46.4922C39.7031 50.5141 40.1672 54.5359 41.0266 58.4719C37.4 56.925 33.9625 54.9828 30.7656 52.6969C31.2297 52.0094 38.4828 46.9563 39.6516 46.4922Z" fill="#7B2BF9"/>
<path d="M57.4062 62.15C55.3093 62.1328 53.2125 61.9266 51.15 61.5485C50.9781 61.5141 50.8234 61.4453 50.8062 61.2563C50.789 61.0844 50.9093 60.9985 51.064 60.9125C54.8109 59.0047 58.4375 56.8563 61.9093 54.4844C62.4078 54.1407 62.9234 53.7797 63.4218 53.4188C63.5593 53.3328 63.6796 53.2469 63.8515 53.3328C64.0234 53.436 64.0062 53.5735 63.9718 53.7625C63.5765 56.186 62.9921 58.575 62.2359 60.9125C62.0296 61.5313 61.6687 61.875 60.9984 61.9094C60.3968 61.9438 59.8125 62.0297 59.2109 62.0813C58.6093 62.1157 58.0078 62.1328 57.4062 62.15Z" fill="#7B2BF9"/>
<path d="M72.0844 51.7344C72.1016 53.7281 71.4828 55.6703 70.2969 57.2687C69.3516 58.5578 68.1141 59.5031 66.7047 60.2422C66.5672 60.3109 66.4469 60.3797 66.3094 60.4312C66.0172 60.5859 65.6563 60.4828 65.5016 60.2078C65.4157 60.0531 65.3985 59.8812 65.45 59.7265C65.7766 58.3515 66.1203 56.9765 66.4125 55.5844C66.636 54.45 66.7907 53.2984 66.9797 52.1469C67.0485 51.7515 67.0828 51.3562 67.1688 50.9781C67.2719 50.6 67.4953 50.239 67.7875 49.9812C68.6297 49.1906 69.4891 48.4 70.3313 47.6094C70.7094 47.2484 71.311 47.3687 71.4485 47.8844C71.6547 48.6578 71.8094 49.4312 71.9469 50.2219C72.05 50.7203 72.05 51.2359 72.0844 51.7344Z" fill="#7B2BF9"/>
<path d="M70.9672 33.5156C70.5203 33.4812 70.0734 33.4125 69.6094 33.3953C69.1109 33.3609 68.5953 33.3609 68.0969 33.3437C67.3234 33.3781 66.6703 32.8109 66.5672 32.0547C66.0344 29.0125 65.1922 26.0562 64.0406 23.1859C63.9891 23.0828 63.9547 22.9625 63.9203 22.8594C63.8516 22.739 63.9031 22.5844 64.0234 22.5328C64.0406 22.5328 64.0406 22.5156 64.0578 22.5156C64.1781 22.4812 64.2984 22.4984 64.3844 22.5672C65.0203 23.2031 65.6734 23.839 66.275 24.5265C68.4063 26.9328 70.1422 29.6828 71.3625 32.6734C71.3969 32.7422 71.4141 32.8109 71.4484 32.8797C71.5859 33.2578 71.3625 33.5328 70.9672 33.5156Z" fill="#7B2BF9"/>
<path d="M68.8016 36.0594C69.7985 36.0938 70.7781 36.1969 71.7235 36.575C71.7406 36.575 71.7578 36.5922 71.7922 36.5922C72.8578 37.0563 73.236 37.7954 72.9781 38.9641C72.8235 39.6516 72.5656 40.3047 72.2047 40.9063C71.9641 41.3188 71.4656 41.3188 71.1906 40.9235C70.5203 39.9782 69.85 39.0329 69.1625 38.1047C68.8531 37.675 68.4922 37.2797 68.1485 36.8672C68.011 36.6954 67.8906 36.5407 68.011 36.3172C68.0969 36.111 68.3203 36.0079 68.5266 36.025C68.6125 36.0594 68.6985 36.0594 68.8016 36.0594Z" fill="#7B2BF9"/>
<path d="M67.5468 45.7359C67.5468 44.3438 67.5468 42.9516 67.5468 41.5594C67.5468 41.3875 67.564 41.25 67.7531 41.1813C67.9422 41.1125 68.0625 41.2156 68.1484 41.3703C68.6297 42.1094 69.1109 42.8484 69.575 43.5875C69.8328 44 69.7812 44.2578 69.4547 44.6188C69.0078 45.1 68.5437 45.5641 68.0797 46.0453C67.9593 46.1656 67.839 46.2516 67.6843 46.1828C67.5125 46.1141 67.5297 45.9594 67.5297 45.8047C67.5297 45.7875 67.5297 45.7531 67.5297 45.7359H67.5468Z" fill="#7B2BF9"/>
<path d="M63.5765 66.1718C63.3187 66.1718 63.1812 65.9828 63.2672 65.7765C63.4734 65.2781 63.6968 64.7797 63.9203 64.2812C63.9718 64.1953 64.0406 64.1437 64.1437 64.1093C64.5218 63.989 64.9 63.8859 65.2781 63.7656C65.3125 63.7656 65.3297 63.7484 65.364 63.7484C65.5015 63.7312 65.6562 63.7656 65.6906 63.9203C65.7078 64.0406 65.6906 64.1609 65.6218 64.2468C65.175 64.7109 64.7109 65.1578 64.2468 65.6047C64.0922 65.7593 63.9375 65.8968 63.7828 66.0343C63.6968 66.1031 63.6281 66.1375 63.5765 66.1718Z" fill="#7B2BF9"/>
<path d="M73.6484 44.4813C73.6313 44.6188 73.6141 44.7563 73.5969 44.8938C73.5625 45.0313 73.4422 45.0485 73.3563 44.9453C73.15 44.7219 73.1672 44.3781 73.3906 44.1719C73.4078 44.1547 73.4078 44.1547 73.425 44.1547C73.4594 44.1203 73.5281 44.1031 73.5797 44.1031C73.6141 44.1203 73.6484 44.1891 73.6484 44.2406C73.6313 44.3094 73.6313 44.3953 73.6484 44.4813Z" fill="#7B2BF9"/>
</g>
<defs>
<clipPath id="clip0_12085_5063">
<rect width="88" height="88" fill="white"/>
</clipPath>
</defs>
</svg>
