<svg width="120" height="120" viewBox="0 0 120 120" fill="none" xmlns="http://www.w3.org/2000/svg">
<g clip-path="url(#clip0_9933_2)">
<path d="M58.6172 0H61.3828C61.4766 0.0234375 61.5703 0.046875 61.6641 0.0703125C62.2031 0.09375 62.7422 0.09375 63.2813 0.140625C64.6641 0.257813 66.0469 0.328125 67.4297 0.515625C69.1641 0.75 70.9219 1.03125 72.6563 1.38281C76.4531 2.17969 80.1563 3.35156 83.7188 4.89844C100.734 12.2344 113.414 27 118.078 44.9297C118.641 47.0625 119.063 49.2422 119.391 51.4219C119.578 52.7109 119.719 54.0234 119.813 55.3125C119.906 56.3203 119.906 57.3516 119.953 58.3594C119.977 58.4531 120 58.5234 120.023 58.6172V61.3828C120 61.4297 119.977 61.4766 119.953 61.5469C119.93 62.1328 119.93 62.7188 119.883 63.3047C119.789 64.5 119.742 65.6953 119.578 66.8906C119.32 68.8125 119.039 70.7109 118.664 72.6094C117.703 77.1797 116.203 81.6094 114.188 85.8047C110.133 94.3125 104.156 101.719 96.7031 107.461C90.3516 112.406 83.0859 115.992 75.3047 118.008C71.9531 118.898 68.5547 119.484 65.086 119.742C63.6094 119.859 62.1328 119.906 60.6563 119.977C59.9063 120 59.1328 119.977 58.3828 119.93C57.0234 119.859 55.6406 119.813 54.2813 119.672C52.8984 119.531 51.5156 119.344 50.1328 119.133C47.2031 118.664 44.3203 117.984 41.5078 117.047C22.3125 110.859 7.57032 95.4375 2.1797 76.0312C1.17188 72.4453 0.515634 68.7891 0.234384 65.0625C0.140634 63.6797 0.0468839 62.2734 8.85379e-06 60.8906C-0.0234286 60.0703 8.85292e-06 59.2266 0.0468839 58.4062C0.140634 56.8125 0.210946 55.2422 0.351571 53.6719C0.492196 52.1953 0.703134 50.6953 0.960946 49.2422C1.59376 45.6563 2.57813 42.1406 3.89063 38.7422C10.8047 20.5781 26.0859 6.86719 44.9063 1.96875C47.0391 1.40625 49.2188 0.984375 51.3984 0.65625C52.6875 0.46875 54 0.328125 55.2891 0.234375C56.3203 0.140625 57.3516 0.140625 58.3594 0.09375C58.4766 0.046875 58.5469 0.0234375 58.6172 0ZM59.9766 104.156C84.3516 104.273 104.016 84.3516 104.18 60.5156C104.344 35.7188 84.4922 16.1484 60.5391 15.8906C35.4375 15.6328 16.125 35.6953 15.8672 59.4844C15.5859 84.5156 35.9063 104.25 59.9766 104.156Z" fill="#7B2BF9"/>
<path d="M59.9766 104.156C35.9063 104.273 15.586 84.5391 15.8438 59.4844C16.1016 35.7187 35.4141 15.6328 60.5156 15.8906C84.4688 16.1484 104.32 35.7187 104.156 60.5156C104.039 84.3516 84.375 104.25 59.9766 104.156ZM83.6953 46.6875C83.5547 46.5703 83.461 46.4766 83.3672 46.4062C82.875 46.0312 82.4063 45.6328 81.9141 45.2578C74.7656 39.7266 66.6094 35.6016 57.9141 33.1172C54.0235 31.9687 50.0156 31.2891 45.9844 31.0781C44.4844 31.0078 42.9844 31.0781 41.4844 31.125C40.0078 31.1719 38.5313 31.3594 37.0781 31.6641C34.5703 32.1797 32.1797 33 30 34.3594C27.9375 35.625 26.25 37.4297 25.1485 39.6094C23.9766 41.9297 23.7422 44.4375 24 46.9922C24.211 48.8437 24.7031 50.6719 25.4063 52.3828C26.625 55.4531 28.3594 58.2187 30.375 60.8437C32.5078 63.5859 34.8985 66.0937 37.5235 68.3437C38.25 69 39.3516 69.0469 40.1016 68.4141C44.0625 65.2969 48.211 62.4609 52.5469 59.9062C53.5313 59.3672 54.1406 58.3594 54.1641 57.2578C54.2578 55.7812 54.3516 54.2812 54.4688 52.8047C54.5625 51.6562 54.6797 50.5078 54.8438 49.3594C55.125 47.5078 55.4297 45.6328 55.8047 43.8047C56.3203 41.1562 57.0235 38.5312 57.9141 35.9766C58.0547 35.3906 58.6641 35.0391 59.25 35.1797C59.2969 35.2031 59.3438 35.2031 59.3906 35.2266C59.8125 35.3672 60.2578 35.5078 60.6797 35.6484C61.4766 35.9062 61.7578 36.4453 61.4766 37.2422C60.1406 41.2969 59.1797 45.4687 58.6406 49.6875C58.3828 51.6797 58.1953 53.6719 58.0313 55.6641C57.9141 57.3516 57.8906 59.0625 57.8438 60.75C57.8203 61.7109 57.8672 62.6953 57.8906 63.6562C57.8906 64.1953 57.9141 64.7109 57.9375 65.25C58.0547 67.0078 58.1485 68.7656 58.3125 70.5C58.4297 71.8359 58.5938 73.1719 58.8047 74.5078C59.1094 76.3594 59.5078 78.2109 59.8828 80.0625C60.0938 81.0469 59.6953 81.8437 58.7578 82.2422C58.0781 82.5234 57.3985 82.7812 56.7188 83.0625C55.7578 83.4609 54.6563 83.4375 53.7422 82.9687C50.2969 81.375 46.9688 79.5938 43.7344 77.6016C37.711 73.7813 32.2735 69.2812 27.7969 63.6797C25.5235 60.8203 23.5781 57.75 22.1719 54.375C21.8203 53.5078 21.5156 52.6172 21.211 51.7266C21.1406 51.5156 21.0235 51.3281 20.7891 51.3984C20.6485 51.4453 20.5078 51.5625 20.461 51.7031C19.9688 53.8125 19.6875 55.9453 19.6172 58.1016C19.5703 59.8828 19.6172 61.6875 19.7344 63.4687C19.8281 64.8984 20.0156 66.3047 20.2969 67.7109C20.8594 70.7812 21.7969 73.7812 23.086 76.6172C23.9766 78.5625 25.0078 80.4375 26.1797 82.2187C26.3438 82.5703 26.7188 82.7578 27.0938 82.7109C27.4453 82.6641 27.75 82.4063 27.8438 82.0547C27.9844 81.75 28.125 81.4453 28.2891 81.1406C29.7656 78.4688 31.711 76.1484 33.8672 73.9922C34.3828 73.5 35.2031 73.4531 35.7656 73.8984C36 74.0625 36.211 74.25 36.4219 74.4141C37.0547 74.8828 37.1953 75.7734 36.7266 76.4062C36.6797 76.4766 36.6094 76.5469 36.5391 76.6172C35.0625 78.0703 33.7266 79.6641 32.5547 81.3516C31.711 82.6172 30.9375 83.9297 30.6094 85.4297C30.2578 86.9766 30.7266 87.9609 32.1563 88.6172C33.2344 89.0859 34.3828 89.3437 35.5547 89.3672C36.6094 89.4141 37.6641 89.4141 38.6953 89.3203C40.3594 89.1563 42.0469 88.9688 43.6875 88.6406C47.6016 87.8438 51.4688 86.7422 55.1953 85.3125C60.5156 83.3203 65.6953 80.9766 70.711 78.2812C76.6641 75.1172 82.3125 71.4609 87.6094 67.3125C87.8906 67.125 88.0547 66.7969 88.0547 66.4687C88.125 65.1094 88.2422 63.75 88.2891 62.4141C88.336 61.2422 88.336 60.0703 88.3594 58.8984C88.3594 58.3828 88.336 57.8672 88.3125 57.3516C88.2656 56.2031 88.2656 55.0547 88.1953 53.9062C88.1016 52.5 87.9844 51.0937 87.8203 49.7109C87.6328 48.1172 87.4219 46.5 87.1641 44.9062C86.6016 41.4375 85.711 38.0391 84.5157 34.7344C83.5782 32.1328 82.4063 29.6484 80.8125 27.3984C79.7813 25.9219 78.586 24.5625 77.0391 23.6016C75.2813 22.5 73.4297 22.1953 71.4375 22.9453C70.2891 23.4141 69.2344 24.0937 68.3438 24.9609C66.7969 26.4141 65.6016 28.1484 64.5469 30C64.1719 30.6797 64.3594 31.2187 65.086 31.5C71.7422 34.0781 78.0235 37.5703 83.7188 41.8828C84.6094 42.5391 85.2188 43.5 85.4297 44.5781C85.6172 45.5156 85.7813 46.4297 85.8985 47.3672C86.086 48.8906 85.2891 50.1094 83.9063 50.4609C79.6406 51.5391 75.4688 52.9219 71.4141 54.5859C67.7344 56.0859 64.125 57.7734 60.6094 59.625C59.9063 59.9766 59.3906 59.6484 59.3906 58.875C59.4141 58.2656 59.461 57.6797 59.461 57.0703C59.461 56.25 59.8125 55.7344 60.586 55.3828C62.836 54.3516 65.0391 53.25 67.2891 52.2656C71.8125 50.25 76.4766 48.5859 81.2578 47.2734C82.0782 47.0859 82.8516 46.8984 83.6953 46.6875ZM59.9531 100.453C61.6641 100.43 63.375 100.312 65.086 100.078C65.3672 100.078 65.6016 99.8906 65.6953 99.6328C65.7656 99.375 65.6485 99.0938 65.4375 98.9531C63.6328 97.4297 62.25 95.5781 61.0547 93.5625C60.1875 92.0625 59.4141 90.5156 58.7578 88.9219C58.5235 88.3594 58.125 88.1953 57.5625 88.4063C53.2266 90.0703 48.7735 91.4062 44.2266 92.3437C42.375 92.7187 40.5235 92.9766 38.625 93.0938C38.3203 93.1172 38.086 93.1875 37.9922 93.4922C37.8985 93.7969 38.086 93.9844 38.3438 94.125C39.1172 94.5938 39.8672 95.0625 40.6641 95.5078C45.3047 98.0625 50.4141 99.6562 55.6641 100.195C57.0938 100.336 58.5235 100.359 59.9531 100.453ZM59.3438 29.5078C60.2344 29.5078 60.7735 29.1797 61.125 28.5469C61.9688 26.9766 62.9766 25.5 64.0781 24.1172C64.9219 23.0625 65.8594 22.125 66.9141 21.2812C67.125 21.1406 67.2188 20.8828 67.1485 20.625C67.1016 20.3906 66.8906 20.2031 66.6563 20.1562C66.5156 20.1328 66.375 20.1094 66.2344 20.0859C64.6172 19.9219 63.0235 19.7344 61.4063 19.6406C60.2578 19.5937 59.1094 19.5937 57.961 19.6875C56.4141 19.8047 54.8906 19.9453 53.3672 20.1562C49.8047 20.7187 46.3125 21.7734 43.0313 23.2969C40.7813 24.3281 38.6485 25.5703 36.6328 27C36.4453 27.1406 36.2813 27.2812 36.375 27.5391C36.4688 27.7734 36.6797 27.7969 36.8906 27.75C38.6719 27.4219 40.4531 27.2344 42.2578 27.1875C43.7813 27.1641 45.3047 27.2109 46.8281 27.2812C48.2578 27.375 49.6875 27.5156 51.1172 27.7031C53.5078 28.0312 55.875 28.5234 58.1953 29.1797C58.6641 29.3672 59.0625 29.4609 59.3438 29.5078ZM72.5391 98.0859C73.0078 98.0156 73.5 97.9687 73.9453 97.8516C75.4453 97.4766 76.6641 96.6562 77.7656 95.625C79.6875 93.8203 81.0703 91.6406 82.2422 89.2969C82.4063 88.9922 82.2891 88.5937 81.9844 88.4297C81.8672 88.3828 81.75 88.3359 81.6328 88.3594C80.8594 88.3828 80.086 88.4531 79.3125 88.4531C78.0703 88.4531 76.8281 88.4297 75.6094 88.3359C74.3438 88.2656 73.0547 88.1719 71.8125 87.9609C69.9375 87.6797 68.086 87.3281 66.2344 86.9531C65.2969 86.7656 64.3594 86.4844 63.4219 86.25C63.0703 86.1328 62.6719 86.2266 62.4141 86.5078C62.1797 86.7891 62.1328 87.1875 62.3203 87.4922C63.0235 88.875 63.6563 90.3047 64.4063 91.6641C65.3906 93.5156 66.75 95.1328 68.4141 96.4453C69.6094 97.4297 70.9453 98.0391 72.5391 98.0859ZM54.0703 63.3984C52.4766 64.0312 42.586 70.9219 41.9531 71.8359C46.3125 74.9766 51 77.6016 55.9453 79.7109C54.7735 74.3438 54.1641 68.8828 54.0703 63.3984ZM78.2813 84.75C79.1016 84.7266 79.9219 84.7031 80.7422 84.6563C81.5625 84.6094 82.3594 84.4688 83.1797 84.4219C84.0938 84.375 84.586 83.9062 84.8672 83.0625C85.8985 79.875 86.6953 76.6172 87.2344 73.3125C87.2813 73.0781 87.2813 72.8672 87.0703 72.7266C86.8594 72.6094 86.6719 72.7031 86.4844 72.8437C85.8047 73.3359 85.125 73.8281 84.4219 74.2969C79.6875 77.5312 74.7422 80.4609 69.6328 83.0625C69.4219 83.1562 69.2578 83.2969 69.2813 83.5312C69.3047 83.7891 69.5156 83.8828 69.75 83.9297C72.5625 84.4453 75.4219 84.7266 78.2813 84.75ZM98.2969 70.5469C98.25 69.8672 98.2266 69.1641 98.1094 68.4844C97.9219 67.4062 97.711 66.3516 97.4297 65.2969C97.2422 64.5937 96.4453 64.4297 95.9063 64.9219C94.7578 66 93.586 67.0781 92.4375 68.1562C92.0156 68.5078 91.7344 68.9766 91.5938 69.5156C91.4766 70.0312 91.4063 70.5703 91.336 71.1094C91.0782 72.6797 90.8906 74.25 90.5625 75.7969C90.1875 77.6953 89.6953 79.5703 89.25 81.4453C89.1094 81.8672 89.3438 82.3359 89.7656 82.4766C89.9766 82.5469 90.211 82.5234 90.4219 82.4063C90.6094 82.3125 90.7735 82.2187 90.961 82.1484C92.8828 81.1406 94.5703 79.8516 95.8594 78.0938C97.4766 75.9141 98.3438 73.2656 98.2969 70.5469ZM96.7735 45.7031C97.3125 45.7266 97.5938 45.3516 97.4297 44.8359C97.4063 44.7422 97.3594 44.6484 97.3125 44.5547C95.625 40.5 93.2813 36.75 90.375 33.4453C89.5547 32.5078 88.6641 31.6406 87.7969 30.7734C87.6797 30.6797 87.5157 30.6562 87.3516 30.7031C87.1875 30.7734 87.0938 30.9609 87.1641 31.125C87.1641 31.1484 87.1641 31.1484 87.1875 31.1719C87.2578 31.3125 87.3047 31.4766 87.3516 31.6172C88.9219 35.5078 90.0703 39.5625 90.7969 43.7109C90.9375 44.7422 91.8281 45.5156 92.8828 45.4687C93.5625 45.4687 94.2657 45.4922 94.9453 45.5391C95.5547 45.5625 96.1641 45.6328 96.7735 45.7031ZM93.8203 49.1719C93.6797 49.1719 93.5625 49.1719 93.4219 49.1719C93.1172 49.125 92.836 49.2891 92.7188 49.5703C92.5782 49.875 92.7188 50.1094 92.9063 50.3203C93.375 50.8828 93.8672 51.4219 94.2891 52.0078C95.2266 53.2734 96.1407 54.5625 97.0547 55.8516C97.4297 56.3672 98.1094 56.3672 98.4375 55.8281C98.9297 55.0078 99.2813 54.0937 99.4922 53.1797C99.8438 51.5859 99.3282 50.5781 97.875 49.9453C97.8516 49.9219 97.8282 49.9219 97.7813 49.9219C96.5157 49.3594 95.1797 49.2187 93.8203 49.1719ZM92.1094 62.3672H92.0625C92.0625 62.3906 92.0625 62.4375 92.0625 62.4609C92.0625 62.6719 92.0391 62.8828 92.2735 62.9766C92.5078 63.0703 92.6719 62.9531 92.8125 62.7891C93.4453 62.1328 94.0781 61.5 94.6875 60.8437C95.1563 60.3516 95.2032 60 94.8516 59.4375C94.2188 58.4062 93.5625 57.4219 92.9063 56.4141C92.7656 56.2031 92.6016 56.0859 92.3672 56.1562C92.1328 56.2266 92.086 56.4375 92.086 56.6719C92.1094 58.5703 92.1094 60.4687 92.1094 62.3672ZM86.6953 90.2344C86.7891 90.1875 86.8594 90.1406 86.9297 90.0937C87.1406 89.9062 87.375 89.7187 87.5625 89.5078C88.1953 88.8984 88.8282 88.2891 89.4375 87.6562C89.5313 87.5391 89.5781 87.375 89.5313 87.2109C89.4844 87 89.2969 86.9531 89.086 86.9766C89.0391 86.9766 89.0157 86.9766 88.9688 87C88.4532 87.1406 87.9375 87.3047 87.4219 87.4688C87.3047 87.5156 87.1875 87.5859 87.1172 87.7031C86.8125 88.3828 86.5078 89.0391 86.2266 89.7422C86.1563 89.9766 86.3438 90.2344 86.6953 90.2344ZM100.43 60.6562C100.406 60.5391 100.406 60.4219 100.406 60.3047C100.406 60.2344 100.359 60.1406 100.313 60.1172C100.242 60.1172 100.172 60.1406 100.102 60.1875C99.7735 60.4453 99.7266 60.9141 99.9844 61.2422C99.9844 61.2656 100.008 61.2656 100.008 61.2891C100.125 61.4297 100.289 61.4062 100.336 61.2187C100.383 61.0312 100.406 60.8672 100.43 60.6562Z" fill="white"/>
<path d="M83.6953 46.6875C82.8516 46.8984 82.0547 47.0859 81.2813 47.2969C76.5 48.6094 71.836 50.2734 67.3125 52.2891C65.0625 53.2969 62.8594 54.3984 60.6094 55.4062C59.8594 55.7578 59.4844 56.2734 59.4844 57.0938C59.4844 57.7031 59.4375 58.2891 59.4141 58.8984C59.3906 59.6719 59.9297 60.0234 60.6328 59.6484C64.1485 57.7969 67.7578 56.1094 71.4375 54.6094C75.4922 52.9219 79.6641 51.5625 83.9297 50.4844C85.3125 50.1328 86.1094 48.9141 85.9219 47.3906C85.8047 46.4531 85.6406 45.5156 85.4531 44.6016C85.2422 43.5234 84.6328 42.5625 83.7422 41.9063C78.0469 37.5938 71.7656 34.1016 65.1094 31.5234C64.3828 31.2422 64.1953 30.6797 64.5703 30.0234C65.625 28.1719 66.8203 26.4609 68.3672 24.9844C69.2578 24.1172 70.3125 23.4375 71.461 22.9688C73.4297 22.1953 75.3047 22.5 77.0625 23.625C78.6094 24.6094 79.8047 25.9453 80.836 27.4219C82.4297 29.6953 83.5782 32.1797 84.5391 34.7578C85.7344 38.0625 86.625 41.4609 87.1875 44.9297C87.4453 46.5234 87.6563 48.1172 87.8438 49.7344C88.0078 51.1406 88.125 52.5234 88.2188 53.9297C88.2891 55.0781 88.3125 56.2266 88.336 57.375C88.3594 57.8906 88.3828 58.4062 88.3828 58.9219C88.3828 60.0937 88.3594 61.2656 88.3125 62.4375C88.2656 63.7969 88.1485 65.1563 88.0781 66.4922C88.0781 66.8203 87.9141 67.1484 87.6328 67.3359C82.336 71.4844 76.6641 75.1406 70.7344 78.3047C65.7422 81 60.5391 83.3438 55.2188 85.3359C51.4688 86.7656 47.625 87.8672 43.711 88.6641C42.0703 88.9922 40.3828 89.1797 38.7188 89.3438C37.6641 89.4375 36.6328 89.4609 35.5781 89.3906C34.4063 89.3672 33.2578 89.1094 32.1797 88.6406C30.75 87.9609 30.2813 86.9766 30.6328 85.4531C30.9844 83.9531 31.7344 82.6406 32.5781 81.375C33.7735 79.6875 35.1094 78.0937 36.5625 76.6406C37.1485 76.1016 37.1953 75.2109 36.6563 74.625C36.586 74.5547 36.5156 74.4844 36.4453 74.4375C36.2344 74.25 36.0235 74.0859 35.7891 73.9219C35.2266 73.4766 34.4063 73.5234 33.8906 74.0156C31.7578 76.1719 29.7891 78.4687 28.3125 81.1641C28.1485 81.4687 27.9844 81.7734 27.8672 82.0781C27.75 82.4297 27.4688 82.6641 27.1172 82.7344C26.7422 82.7813 26.3672 82.5937 26.2031 82.2422C25.0313 80.4609 24 78.5859 23.1094 76.6406C21.8203 73.8047 20.8828 70.8047 20.3203 67.7344C20.0625 66.3281 19.875 64.9219 19.7578 63.4922C19.6406 61.7109 19.5938 59.9062 19.6406 58.125C19.711 55.9687 19.9922 53.8359 20.4844 51.7266C20.5313 51.5859 20.6719 51.4687 20.8125 51.4219C21.0469 51.3516 21.1641 51.5391 21.2344 51.75C21.5625 52.6406 21.8438 53.5313 22.1953 54.3984C23.6016 57.7734 25.5469 60.8437 27.8203 63.7031C32.2969 69.3047 37.711 73.8047 43.7578 77.625C46.9688 79.6172 50.3203 81.4219 53.7656 82.9922C54.7031 83.4609 55.7813 83.4844 56.7422 83.0859C57.4219 82.8047 58.1016 82.5469 58.7813 82.2656C59.7188 81.8672 60.1172 81.0703 59.9063 80.0859C59.5313 78.2344 59.1563 76.4062 58.8281 74.5312C58.5938 73.1953 58.4531 71.8594 58.336 70.5234C58.1719 68.7656 58.0781 67.0312 57.961 65.2734C57.9375 64.7344 57.9141 64.2188 57.9141 63.6797C57.8906 62.7188 57.8438 61.7344 57.8672 60.7734C57.9141 59.0859 57.9375 57.375 58.0547 55.6875C58.1953 53.6953 58.3828 51.7031 58.6641 49.7109C59.2031 45.4688 60.1641 41.2969 61.5 37.2656C61.7813 36.4688 61.5 35.9297 60.7031 35.6719C60.2813 35.5313 59.8594 35.3906 59.4141 35.25C58.8516 35.0156 58.2188 35.2969 57.9844 35.8594C57.961 35.9063 57.961 35.9531 57.9375 36C57.0703 38.5547 56.3672 41.1797 55.8281 43.8281C55.4766 45.6797 55.1485 47.5313 54.8672 49.3828C54.7031 50.5313 54.586 51.6797 54.4922 52.8281C54.375 54.3047 54.2813 55.7812 54.1875 57.2812C54.1641 58.3828 53.5313 59.4141 52.5703 59.9297C48.2344 62.4844 44.086 65.3203 40.125 68.4375C39.3516 69.0469 38.25 69.0234 37.5469 68.3672C34.9219 66.1172 32.5313 63.6094 30.3985 60.8672C28.3828 58.2656 26.6719 55.4766 25.4297 52.4063C24.7266 50.6719 24.2344 48.8672 24.0235 47.0156C23.7422 44.4609 24 41.9531 25.1719 39.6328C26.2735 37.4766 27.9375 35.6484 30.0235 34.3828C32.2031 33.0234 34.5938 32.2031 37.1016 31.6875C38.5547 31.3828 40.0313 31.1953 41.5078 31.1484C43.0078 31.1016 44.5078 31.0313 46.0078 31.1016C50.0625 31.3125 54.0703 31.9922 57.9375 33.1406C66.6328 35.625 74.7891 39.75 81.9375 45.2813C82.4297 45.6563 82.8985 46.0547 83.3906 46.4297C83.4844 46.4766 83.5547 46.5469 83.6953 46.6875Z" fill="#7B2BF9"/>
<path d="M59.9531 100.453C58.5235 100.359 57.0938 100.336 55.6875 100.195C50.4141 99.6563 45.3281 98.0625 40.6875 95.5078C39.8906 95.0859 39.1406 94.5938 38.3672 94.125C38.1328 93.9844 37.9453 93.7969 38.0156 93.4922C38.1094 93.1875 38.3438 93.1172 38.6485 93.0938C40.5235 92.9766 42.3985 92.7188 44.25 92.3438C48.7969 91.4063 53.25 90.0938 57.586 88.4063C58.1485 88.1953 58.5469 88.3594 58.7813 88.9219C59.4375 90.5156 60.211 92.0625 61.0781 93.5625C62.2735 95.5781 63.6563 97.4297 65.4609 98.9531C65.6953 99.0938 65.7891 99.375 65.7188 99.6328C65.625 99.8906 65.3906 100.078 65.1094 100.078C63.375 100.289 61.6641 100.43 59.9531 100.453Z" fill="#7B2BF9"/>
<path d="M59.3437 29.5078C59.0859 29.4375 58.6641 29.3672 58.2422 29.25C55.9219 28.6172 53.5547 28.125 51.1641 27.7734C49.7344 27.5859 48.3047 27.4219 46.875 27.3516C45.3516 27.2578 43.8281 27.2109 42.3047 27.2578C40.5 27.3047 38.6953 27.4922 36.9375 27.8203C36.7031 27.8672 36.5156 27.8437 36.4219 27.6094C36.3281 27.3516 36.4922 27.2109 36.6797 27.0703C38.6953 25.6406 40.8281 24.3984 43.0781 23.3672C46.3594 21.8437 49.8281 20.7656 53.4141 20.2266C54.9375 19.9922 56.4844 19.8516 58.0078 19.7578C59.1562 19.6641 60.3047 19.6641 61.4531 19.7109C63.0703 19.8047 64.6641 19.9922 66.2812 20.1562C66.4219 20.1797 66.5625 20.2031 66.7031 20.2266C66.9609 20.25 67.1484 20.4375 67.1953 20.6953C67.2656 20.9531 67.1719 21.2109 66.9609 21.3516C65.9062 22.1953 64.9687 23.1328 64.125 24.1875C63 25.5703 62.0156 27.0703 61.1719 28.6172C60.7734 29.2031 60.2344 29.5078 59.3437 29.5078Z" fill="#7B2BF9"/>
<path d="M72.5391 98.0859C70.9453 98.0391 69.6094 97.4063 68.3907 96.4688C66.75 95.1563 65.3907 93.5391 64.3828 91.6875C63.6094 90.3281 62.9766 88.8984 62.2969 87.5156C62.1094 87.2109 62.1328 86.8125 62.3907 86.5313C62.6485 86.25 63.0469 86.1328 63.3985 86.2734C64.336 86.5078 65.2735 86.7891 66.211 86.9766C68.0625 87.3516 69.9375 87.7031 71.7891 87.9844C73.0547 88.1719 74.3203 88.2656 75.586 88.3594C76.8282 88.4297 78.0703 88.4531 79.2891 88.4766C80.0625 88.4766 80.836 88.4063 81.6094 88.3828C81.961 88.3594 82.2657 88.6172 82.3125 88.9688C82.3125 89.0859 82.2891 89.2031 82.2422 89.3203C81.0703 91.6641 79.6641 93.8438 77.7657 95.6484C76.6641 96.6797 75.4453 97.5234 73.9453 97.875C73.5 97.9688 73.0078 98.0156 72.5391 98.0859Z" fill="#7B2BF9"/>
<path d="M54.0703 63.3984C54.1406 68.8828 54.7734 74.3672 55.9453 79.7344C51 77.625 46.3125 74.9766 41.9531 71.8594C42.5859 70.9219 52.4766 64.0313 54.0703 63.3984Z" fill="#7B2BF9"/>
<path d="M78.2813 84.75C75.4219 84.7266 72.5625 84.4453 69.75 83.9297C69.5156 83.8828 69.3047 83.7891 69.2813 83.5313C69.2578 83.2969 69.4219 83.1797 69.6328 83.0625C74.7422 80.4609 79.6875 77.5313 84.4219 74.2969C85.1016 73.8281 85.8047 73.3359 86.4844 72.8438C86.6719 72.7266 86.8359 72.6094 87.0703 72.7266C87.3047 72.8672 87.2813 73.0547 87.2344 73.3125C86.6953 76.6172 85.8984 79.875 84.8672 83.0625C84.5859 83.9063 84.0938 84.375 83.1797 84.4219C82.3594 84.4688 81.5625 84.5859 80.7422 84.6563C79.9219 84.7031 79.1016 84.7266 78.2813 84.75Z" fill="#7B2BF9"/>
<path d="M98.2969 70.5469C98.3203 73.2656 97.4766 75.9141 95.8594 78.0937C94.5703 79.8516 92.8828 81.1406 90.9609 82.1484C90.7734 82.2422 90.6094 82.3359 90.4219 82.4062C90.0234 82.6172 89.5313 82.4766 89.3203 82.1016C89.2031 81.8906 89.1797 81.6562 89.25 81.4453C89.6953 79.5703 90.1641 77.6953 90.5625 75.7969C90.8672 74.25 91.0781 72.6797 91.3359 71.1094C91.4297 70.5703 91.4766 70.0312 91.5937 69.5156C91.7344 69 92.0391 68.5078 92.4375 68.1562C93.5859 67.0781 94.7578 66 95.9063 64.9219C96.4219 64.4297 97.2422 64.5937 97.4297 65.2969C97.7109 66.3516 97.9219 67.4062 98.1094 68.4844C98.25 69.1641 98.25 69.8672 98.2969 70.5469Z" fill="#7B2BF9"/>
<path d="M96.7734 45.7031C96.1641 45.6562 95.5547 45.5625 94.9219 45.5391C94.2422 45.4922 93.5391 45.4922 92.8594 45.4687C91.8047 45.5156 90.9141 44.7422 90.7734 43.7109C90.0469 39.5625 88.8984 35.5312 87.3281 31.6172C87.2578 31.4766 87.2109 31.3125 87.1641 31.1719C87.0703 31.0078 87.1406 30.7969 87.3047 30.7266C87.3281 30.7266 87.3281 30.7031 87.3516 30.7031C87.5156 30.6562 87.6797 30.6797 87.7969 30.7734C88.6641 31.6406 89.5547 32.5078 90.375 33.4453C93.2813 36.7266 95.6484 40.4766 97.3125 44.5547C97.3594 44.6484 97.3828 44.7422 97.4297 44.8359C97.6172 45.3516 97.3125 45.7266 96.7734 45.7031Z" fill="#7B2BF9"/>
<path d="M93.8203 49.1719C95.1797 49.2188 96.5156 49.3594 97.8047 49.875C97.8281 49.875 97.8516 49.8984 97.8984 49.8984C99.3516 50.5312 99.8672 51.5391 99.5156 53.1328C99.3047 54.0703 98.9531 54.9609 98.4609 55.7813C98.1328 56.3438 97.4531 56.3438 97.0781 55.8047C96.1641 54.5156 95.25 53.2266 94.3125 51.9609C93.8906 51.375 93.3984 50.8359 92.9297 50.2734C92.7422 50.0391 92.5781 49.8281 92.7422 49.5234C92.8594 49.2422 93.1641 49.1016 93.4453 49.125C93.5625 49.1719 93.6797 49.1719 93.8203 49.1719Z" fill="#7B2BF9"/>
<path d="M92.1094 62.3672C92.1094 60.4687 92.1094 58.5703 92.1094 56.6719C92.1094 56.4375 92.1328 56.25 92.3906 56.1562C92.6485 56.0625 92.8125 56.2031 92.9297 56.4141C93.5859 57.4219 94.2422 58.4297 94.875 59.4375C95.2266 60 95.1563 60.3516 94.711 60.8437C94.1016 61.5 93.4688 62.1328 92.836 62.7891C92.6719 62.9531 92.5078 63.0703 92.2969 62.9766C92.0625 62.8828 92.0859 62.6719 92.0859 62.4609C92.0859 62.4375 92.0859 62.3906 92.0859 62.3672H92.1094Z" fill="#7B2BF9"/>
<path d="M86.6953 90.2344C86.3438 90.2344 86.1563 89.9766 86.2735 89.6953C86.5547 89.0156 86.8594 88.3359 87.1641 87.6562C87.2344 87.5391 87.3282 87.4687 87.4688 87.4219C87.9844 87.2578 88.5 87.1172 89.0156 86.9531C89.0625 86.9531 89.086 86.9297 89.1328 86.9297C89.3203 86.9062 89.5313 86.9531 89.5782 87.1641C89.6016 87.3281 89.5781 87.4922 89.4844 87.6094C88.875 88.2422 88.2422 88.8516 87.6094 89.4609C87.3985 89.6719 87.1875 89.8594 86.9766 90.0469C86.8594 90.1406 86.7656 90.1875 86.6953 90.2344Z" fill="#7B2BF9"/>
<path d="M100.43 60.6562C100.406 60.8437 100.383 61.0313 100.359 61.2188C100.313 61.4063 100.148 61.4297 100.031 61.2891C99.75 60.9844 99.7734 60.5156 100.078 60.2344C100.102 60.2109 100.102 60.2109 100.125 60.2109C100.172 60.1641 100.266 60.1406 100.336 60.1406C100.383 60.1641 100.43 60.2578 100.43 60.3281C100.406 60.4219 100.406 60.5391 100.43 60.6562Z" fill="#7B2BF9"/>
</g>
<defs>
<clipPath id="clip0_9933_2">
<rect width="120" height="120" fill="white"/>
</clipPath>
</defs>
</svg>
