<svg width="24" height="24" viewBox="0 0 24 24" fill="none" xmlns="http://www.w3.org/2000/svg">
<rect width="24" height="24" rx="8" fill="#070C34"/>
<path d="M15.3354 9.44321L16.2723 10.5434C16.3803 10.667 16.4744 10.7685 16.5141 10.8266C16.7947 11.1051 16.9517 11.4804 16.9517 11.8724C16.9258 12.3353 16.6231 12.6498 16.3452 12.9873L15.6898 13.7565L15.3474 14.1549C15.3354 14.1687 15.3271 14.1853 15.3243 14.2038C15.3215 14.2222 15.3243 14.2406 15.3326 14.2572C15.34 14.2738 15.3529 14.2877 15.3695 14.2978C15.3861 14.308 15.4046 14.3117 15.4231 14.3107H18.8421C19.3637 14.3107 20.0218 14.7497 19.984 15.4146C19.984 15.7162 19.8603 16.0067 19.6434 16.2207C19.4255 16.4346 19.131 16.5554 18.8246 16.5564H13.4707C13.1181 16.5564 12.1711 16.5942 11.9061 15.7872C11.8498 15.6185 11.8424 15.4377 11.884 15.2643C11.9615 15.0089 12.0834 14.7691 12.244 14.5551C12.5135 14.1567 12.8052 13.7574 13.0923 13.371C13.4634 12.8647 13.8437 12.375 14.2175 11.8585C14.2304 11.8419 14.2378 11.8207 14.2378 11.7995C14.2378 11.7783 14.2304 11.7571 14.2175 11.7405L12.8569 10.146C12.8486 10.134 12.8366 10.1257 12.8228 10.1192C12.8098 10.1128 12.796 10.1091 12.7803 10.1091C12.7646 10.1091 12.7508 10.1128 12.7378 10.1192C12.7249 10.1257 12.7129 10.1358 12.7037 10.146C12.3391 10.6301 10.744 12.7752 10.4043 13.2096C10.0646 13.644 9.22645 13.6679 8.76214 13.2096L6.63446 11.106C6.62153 11.0931 6.60399 11.0829 6.58461 11.0802C6.56615 11.0765 6.54676 11.0783 6.5283 11.0857C6.51076 11.0931 6.496 11.1051 6.48492 11.1217C6.47384 11.1383 6.4683 11.1567 6.4683 11.1752V15.2182C6.47384 15.505 6.38707 15.7863 6.22184 16.0233C6.05661 16.2594 5.81938 16.4392 5.54523 16.5361C5.36984 16.596 5.18338 16.6145 4.99969 16.5886C4.816 16.5628 4.64061 16.4946 4.49015 16.3885C4.33877 16.2834 4.21508 16.1432 4.13015 15.9809C4.04523 15.8186 4 15.6387 4 15.4561V8.18622C4.012 7.92431 4.108 7.67254 4.27415 7.46688C4.43846 7.26122 4.66554 7.11275 4.92215 7.04266C5.14184 6.98548 5.37354 6.98548 5.59323 7.0445C5.81292 7.10352 6.01323 7.21788 6.17292 7.37835L9.44337 10.6025C9.45353 10.6126 9.46553 10.62 9.47845 10.6246C9.49137 10.6292 9.50522 10.631 9.51999 10.6301C9.53384 10.6292 9.54676 10.6246 9.55876 10.6181C9.57076 10.6117 9.58184 10.6015 9.58922 10.5914L11.9126 7.42261C12.0206 7.29442 12.1554 7.19021 12.3077 7.11828C12.46 7.04634 12.6261 7.00853 12.796 7.00669H18.8403C19.0055 7.00669 19.1689 7.04266 19.3194 7.10998C19.4698 7.1773 19.6046 7.27598 19.7126 7.39864C19.8215 7.52129 19.9027 7.66608 19.9507 7.82102C19.9987 7.97779 20.0117 8.14103 19.9895 8.30242C19.947 8.58278 19.8021 8.83823 19.5824 9.02083C19.3627 9.20436 19.084 9.30304 18.796 9.29935H15.4111C15.3935 9.29935 15.3769 9.30488 15.3631 9.31318C15.3492 9.32148 15.3372 9.33531 15.3289 9.34915C15.3215 9.3639 15.3169 9.3805 15.3178 9.3971C15.3178 9.4137 15.3243 9.42938 15.3344 9.44414H15.3335L15.3354 9.44321Z" fill="url(#paint0_linear_11301_10313)"/>
<defs>
<linearGradient id="paint0_linear_11301_10313" x1="1.34247" y1="5.65563" x2="19.2806" y2="16.0219" gradientUnits="userSpaceOnUse">
<stop offset="0.23" stop-color="#FF0075"/>
<stop offset="0.27" stop-color="#FF0569"/>
<stop offset="0.34" stop-color="#FF1349"/>
<stop offset="0.41" stop-color="#FF2228"/>
<stop offset="0.51" stop-color="#FF4A15"/>
<stop offset="0.61" stop-color="#FF6C05"/>
<stop offset="0.66" stop-color="#FF7900"/>
<stop offset="0.7" stop-color="#FF880C"/>
<stop offset="0.82" stop-color="#FFAC2B"/>
<stop offset="0.92" stop-color="#FFC23E"/>
<stop offset="0.98" stop-color="#FFCB45"/>
</linearGradient>
</defs>
</svg>
