<svg width="88" height="89" viewBox="0 0 88 89" fill="none" xmlns="http://www.w3.org/2000/svg">
<rect width="88" height="88.2243" rx="44" fill="black"/>
<path fill-rule="evenodd" clip-rule="evenodd" d="M24.7366 70.6915C16.7214 64.7032 11.5322 55.1405 11.5322 44.3667C11.5322 26.2337 26.2337 11.5322 44.3667 11.5322C59.3373 11.5322 75.6789 20.4809 79.6318 34.1732C75.2163 18.8661 61.1035 7.66333 44.3667 7.66333C24.0974 7.66333 7.66333 24.0974 7.66333 44.3667C7.66333 64.6359 24.0974 81.07 44.3667 81.07C64.6359 81.07 81.07 64.6359 81.07 44.3667V42.4322H79.0515C78.9926 42.4322 78.9001 42.4322 78.7823 42.4322C78.5469 42.4322 78.202 42.4238 77.7647 42.407C76.8984 42.3818 75.6957 42.3229 74.35 42.2052C71.5998 41.9697 68.4543 41.4987 66.318 40.6408C62.8781 39.2699 60.9353 37.4448 58.7149 35.317L58.5888 35.1908C56.3684 33.0546 53.8705 30.6576 49.5391 28.6138C45.275 26.6037 40.5567 26.9317 37.0916 27.6382C35.3338 27.9999 33.8199 28.4793 32.7518 28.8661C32.2135 29.0596 31.7846 29.2362 31.4818 29.3624C29.7408 30.0941 28.0419 30.9688 26.3346 31.7678C26.3346 31.7678 29.6904 32.6929 31.3556 33.206C31.4145 33.2228 31.507 33.2564 31.6332 33.2985C31.8771 33.3826 32.2388 33.5087 32.6761 33.6854C33.5508 34.0386 34.703 34.5769 35.8384 35.3086C37.6299 36.4608 39.1185 37.9074 39.7241 39.6904C35.9225 40.1867 32.3565 41.8603 29.682 43.4331C28.0672 44.3835 26.7215 45.3339 25.7795 46.0488C25.3085 46.402 24.93 46.7048 24.6777 46.915C24.4591 47.0917 21.0276 50.1194 21.0276 50.1194C21.0276 50.1194 25.4599 50.5904 27.6466 51.0278C29.1016 51.3221 31.0613 51.7931 33.105 52.508C35.1572 53.2229 37.2346 54.1649 38.9587 55.3676C40.6829 56.5703 41.9529 57.9664 42.5752 59.556C44.3919 64.1986 42.6089 68.7234 39.026 71.2634C35.4852 73.7865 30.1109 74.3837 24.7366 70.6915ZM37.2598 76.4358C38.7064 75.9648 40.0521 75.2836 41.2716 74.4257C46.1413 70.9606 48.7065 64.6191 46.1749 58.1598C45.1825 55.6199 43.2817 53.6771 41.1707 52.2052C39.0597 50.7334 36.629 49.6484 34.375 48.8663C32.8948 48.3532 31.465 47.9495 30.2202 47.6467C30.666 47.3608 31.1454 47.058 31.65 46.7636C34.6273 45.0143 38.37 43.4079 41.9613 43.4079C47.3776 43.4079 51.4062 45.0647 55.2498 46.8477C55.6031 47.0075 55.9479 47.1758 56.3011 47.344C59.741 48.9588 63.3491 50.6493 67.5459 50.6493C71.6166 50.6493 74.7874 49.4971 76.9741 48.3112C75.0313 64.5939 61.1708 77.2096 44.3667 77.2096C41.9276 77.2096 39.5475 76.9404 37.2598 76.4358ZM72.8025 45.931C71.3559 46.4272 69.6065 46.7805 67.5544 46.7805C64.2659 46.7805 61.4315 45.46 57.8403 43.7863C57.5207 43.6349 57.2011 43.492 56.873 43.3406C53.2734 41.6753 49.1186 39.9091 43.7022 39.5895C42.9789 36.0066 40.2623 33.5508 37.9326 32.0621C37.6719 31.8939 37.4112 31.7341 37.1589 31.5911C37.3944 31.5407 37.6299 31.4818 37.8738 31.4313C41.0025 30.7837 44.7367 30.6239 47.8991 32.1126C51.6501 33.8788 53.7696 35.9141 55.9731 38.0252L56.0488 38.1009C58.3196 40.2792 60.7166 42.5584 64.8966 44.2321C67.2095 45.1572 70.2205 45.6535 72.8025 45.931Z" fill="url(#paint0_linear_12085_5082)"/>
<defs>
<linearGradient id="paint0_linear_12085_5082" x1="7.01122" y1="45.0523" x2="81.7294" y2="43.687" gradientUnits="userSpaceOnUse">
<stop stop-color="#29CCB9"/>
<stop offset="0.4948" stop-color="#0091FF"/>
<stop offset="1" stop-color="#FF66B7"/>
</linearGradient>
</defs>
</svg>
