<svg width="120" height="121" viewBox="0 0 120 121" fill="none" xmlns="http://www.w3.org/2000/svg">
<rect width="120" height="120.306" rx="60" fill="black"/>
<path fill-rule="evenodd" clip-rule="evenodd" d="M33.7317 96.3975C22.8019 88.2317 15.7257 75.1916 15.7257 60.5C15.7257 35.7732 35.7732 15.7257 60.5 15.7257C80.9145 15.7257 103.198 27.9285 108.589 46.5998C102.568 25.7265 83.323 10.45 60.5 10.45C32.8601 10.45 10.45 32.8601 10.45 60.5C10.45 88.1399 32.8601 110.55 60.5 110.55C88.1399 110.55 110.55 88.1399 110.55 60.5V57.8622H107.797C107.717 57.8622 107.591 57.8622 107.43 57.8622C107.109 57.8622 106.639 57.8507 106.043 57.8278C104.861 57.7934 103.221 57.7131 101.386 57.5525C97.6361 57.2314 93.3468 56.5891 90.4337 55.4193C85.7429 53.5499 83.0936 51.0612 80.0658 48.1595L79.8938 47.9875C76.866 45.0744 73.4598 41.8058 67.5533 39.0189C61.7386 36.2778 55.3046 36.7251 50.5795 37.6885C48.1825 38.1817 46.1181 38.8354 44.6615 39.3629C43.9275 39.6267 43.3426 39.8676 42.9298 40.0396C40.5557 41.0374 38.239 42.2302 35.9108 43.3197C35.9108 43.3197 40.4869 44.5813 42.7577 45.2809C42.838 45.3038 42.9642 45.3497 43.1362 45.407C43.4688 45.5217 43.962 45.6937 44.5583 45.9346C45.7511 46.4163 47.3223 47.1503 48.8706 48.1481C51.3135 49.7193 53.3435 51.6919 54.1692 54.1233C48.9853 54.8 44.1225 57.0823 40.4754 59.227C38.2734 60.5229 36.4384 61.8189 35.1539 62.7938C34.5116 63.2755 33.9955 63.6883 33.6515 63.9751C33.3533 64.2159 28.674 68.3447 28.674 68.3447C28.674 68.3447 34.7181 68.9869 37.7 69.5833C39.6841 69.9847 42.3563 70.627 45.1432 71.6018C47.9416 72.5767 50.7744 73.8612 53.1256 75.5013C55.4767 77.1413 57.2085 79.0451 58.0572 81.2127C60.5344 87.5435 58.103 93.7138 53.2173 97.1774C48.3889 100.618 41.0603 101.432 33.7317 96.3975ZM50.8088 104.231C52.7815 103.588 54.6165 102.659 56.2795 101.49C62.9199 96.7645 66.4179 88.117 62.9658 79.3089C61.6125 75.8453 59.0205 73.196 56.1419 71.189C53.2632 69.1819 49.9487 67.7024 46.875 66.6358C44.8565 65.9362 42.9068 65.3857 41.2094 64.9729C41.8173 64.5829 42.471 64.17 43.1591 63.7686C47.2191 61.3831 52.3227 59.1926 57.2199 59.1926C64.6059 59.1926 70.0994 61.4519 75.3407 63.8833C75.8224 64.1012 76.2926 64.3306 76.7743 64.56C81.465 66.762 86.3852 69.0672 92.1081 69.0672C97.659 69.0672 101.983 67.496 104.965 65.8789C102.315 88.0826 83.4147 105.286 60.5 105.286C57.1741 105.286 53.9284 104.919 50.8088 104.231ZM99.2762 62.6332C97.3035 63.3099 94.918 63.7916 92.1196 63.7916C87.6353 63.7916 83.7703 61.991 78.8731 59.7087C78.4373 59.5022 78.0015 59.3073 77.5542 59.1008C72.6455 56.83 66.9799 54.4215 59.594 53.9857C58.6077 49.1 54.9032 45.7511 51.7264 43.7211C51.3708 43.4917 51.0153 43.2738 50.6712 43.0789C50.9923 43.01 51.3135 42.9298 51.6461 42.8609C55.9125 41.9778 61.0046 41.7599 65.3169 43.7899C70.432 46.1984 73.3222 48.9738 76.327 51.8525L76.4302 51.9557C79.5268 54.9262 82.7954 58.0342 88.4954 60.3165C91.6494 61.5781 95.7552 62.2547 99.2762 62.6332Z" fill="url(#paint0_linear_9933_41)"/>
<defs>
<linearGradient id="paint0_linear_9933_41" x1="9.56078" y1="61.435" x2="111.449" y2="59.5731" gradientUnits="userSpaceOnUse">
<stop stop-color="#29CCB9"/>
<stop offset="0.4948" stop-color="#0091FF"/>
<stop offset="1" stop-color="#FF66B7"/>
</linearGradient>
</defs>
</svg>
