<svg width="24" height="24" viewBox="0 0 24 24" fill="none" xmlns="http://www.w3.org/2000/svg">
<rect width="24" height="24" rx="8" fill="#0086FF"/>
<path d="M16.0935 14.6018C15.7234 15.1147 14.9449 15.9664 14.5119 15.9664H12.4995V14.6007H14.1024C14.3317 14.6007 14.5503 14.5047 14.7081 14.3359C15.5315 13.4534 16.0071 12.4032 16.0071 11.2769C16.0071 9.35521 14.6186 7.65637 12.4984 6.63265V5.71484C12.4984 5.31991 12.1891 5 11.8073 5C11.4255 5 11.1162 5.31991 11.1162 5.71484V6.09542C10.5222 5.91561 9.893 5.77882 9.23605 5.7005C10.3239 6.92278 10.9883 8.55764 10.9883 10.3502C10.9883 11.9575 10.4572 13.4335 9.56452 14.6029H11.1162V15.9708H8.84465C8.53751 15.9708 8.28795 15.7137 8.28795 15.3949V14.797C8.28795 14.6922 8.20583 14.6062 8.10345 14.6062H5.10878C5.05013 14.6062 5 14.6558 5 14.7165C4.99787 17.1633 6.86954 19 9.10807 19H15.4269C16.9413 19 17.6186 16.9923 18.5059 15.7148C18.8503 15.2206 19.6769 14.8235 19.9275 14.7132C19.9733 14.6933 20 14.6492 20 14.5974V13.8031C20 13.7226 19.9232 13.6619 19.8475 13.6839C19.8475 13.6839 16.1948 14.5521 16.1522 14.5643C16.1095 14.5775 16.0935 14.6018 16.0935 14.6018Z" fill="white"/>
<path d="M9.81834 10.3447C9.81834 9.11251 9.40988 7.97848 8.72734 7.08162L5.29008 13.2339H8.98756C9.51333 12.4043 9.81834 11.4104 9.81834 10.3447Z" fill="white"/>
<path d="M8.72734 7.08162C9.40988 7.97848 9.81834 9.11251 9.81834 10.3447C9.81834 11.4104 9.51333 12.4043 8.98756 13.2339H5.29008L8.72734 7.08162ZM20 14.5974C20 14.6492 19.9733 14.6933 19.9275 14.7132C19.6769 14.8235 18.8503 15.2206 18.5059 15.7148C17.6186 16.9923 16.9413 19 15.4269 19H9.10807C6.86954 19 4.99787 17.1633 5 14.7165C5 14.6558 5.05013 14.6062 5.10878 14.6062H8.10345C8.20583 14.6062 8.28795 14.6922 8.28795 14.797V15.3949C8.28795 15.7137 8.53751 15.9708 8.84465 15.9708H11.1162V14.6029H9.56452C10.4572 13.4335 10.9883 11.9575 10.9883 10.3502C10.9883 8.55764 10.3239 6.92278 9.23605 5.7005C9.893 5.77882 10.5222 5.91561 11.1162 6.09542V5.71484C11.1162 5.31991 11.4255 5 11.8073 5C12.1891 5 12.4984 5.31991 12.4984 5.71484V6.63265C14.6186 7.65637 16.0071 9.35521 16.0071 11.2769C16.0071 12.4032 15.5315 13.4534 14.7081 14.3359C14.5503 14.5047 14.3317 14.6007 14.1024 14.6007H12.4995V15.9664H14.5119C14.9449 15.9664 15.7234 15.1147 16.0935 14.6018C16.0935 14.6018 16.1095 14.5753 16.1522 14.562C16.1948 14.5488 19.8475 13.6817 19.8475 13.6817C19.9243 13.6597 20 13.7203 20 13.8009V14.5974Z" fill="white"/>
</svg>
