<svg width="40" height="40" viewBox="0 0 40 40" fill="none" xmlns="http://www.w3.org/2000/svg">
<path d="M4 18H12C12.5304 18 13.0391 18.2107 13.4142 18.5858C13.7893 18.9609 14 19.4696 14 20V36C14 36.5304 13.7893 37.0391 13.4142 37.4142C13.0391 37.7893 12.5304 38 12 38H8C6.46958 38.0001 4.99697 37.4153 3.88348 36.3654C2.76999 35.3155 2.09978 33.8798 2.01 32.352L2 32V20C2 19.4696 2.21071 18.9609 2.58579 18.5858C2.96086 18.2107 3.46957 18 4 18Z" fill="#767A81"/>
<path d="M38 20V32C38.0001 33.5304 37.4153 35.003 36.3654 36.1165C35.3155 37.23 33.8798 37.9002 32.352 37.99L32 38H20C19.4696 38 18.9609 37.7893 18.5858 37.4142C18.2107 37.0391 18 36.5304 18 36V20C18 19.4696 18.2107 18.9609 18.5858 18.5858C18.9609 18.2107 19.4696 18 20 18H36C36.5304 18 37.0391 18.2107 37.4142 18.5858C37.7893 18.9609 38 19.4696 38 20Z" fill="#767A81"/>
<path d="M32 2C33.5304 1.99991 35.003 2.58465 36.1165 3.63457C37.23 4.68448 37.9002 6.12021 37.99 7.648L38 8V12C38 12.5304 37.7893 13.0391 37.4142 13.4142C37.0391 13.7893 36.5304 14 36 14H20C19.4696 14 18.9609 13.7893 18.5858 13.4142C18.2107 13.0391 18 12.5304 18 12V4C18 3.46957 18.2107 2.96086 18.5858 2.58579C18.9609 2.21071 19.4696 2 20 2H32Z" fill="#767A81"/>
<path d="M14 4V12C14 12.5304 13.7893 13.0391 13.4142 13.4142C13.0391 13.7893 12.5304 14 12 14H4C3.46957 14 2.96086 13.7893 2.58579 13.4142C2.21071 13.0391 2 12.5304 2 12V8C1.99991 6.46958 2.58465 4.99697 3.63457 3.88348C4.68448 2.76999 6.12021 2.09978 7.648 2.01L8 2H12C12.5304 2 13.0391 2.21071 13.4142 2.58579C13.7893 2.96086 14 3.46957 14 4Z" fill="#767A81"/>
</svg>
