<svg width="81" height="80" viewBox="0 0 81 80" fill="none" xmlns="http://www.w3.org/2000/svg">
<g clip-path="url(#clip0_11563_11313)">
<circle cx="40.5" cy="39.9999" r="40" fill="white" fill-opacity="0.07"/>
<path fill-rule="evenodd" clip-rule="evenodd" d="M32.5 22C26.9772 22 22.5 26.4772 22.5 32V48C22.5 53.5228 26.9772 58 32.5 58H48.5C54.0228 58 58.5 53.5228 58.5 48V32C58.5 26.4772 54.0228 22 48.5 22H32.5ZM42.6213 30.8213C41.4497 29.6497 39.5503 29.6497 38.3787 30.8213L31.3076 37.8923C30.136 39.0639 30.136 40.9634 31.3076 42.135L38.3787 49.206C39.5503 50.3776 41.4497 50.3776 42.6213 49.206L49.6924 42.135C50.864 40.9634 50.864 39.0639 49.6924 37.8923L42.6213 30.8213Z" fill="#767A81"/>
</g>
<defs>
<clipPath id="clip0_11563_11313">
<rect x="0.5" y="-6.10352e-05" width="80" height="80" rx="40" fill="white"/>
</clipPath>
</defs>
</svg>
