<svg width="24" height="25" viewBox="0 0 24 25" fill="none" xmlns="http://www.w3.org/2000/svg">
<rect y="0.78418" width="24" height="24" rx="8" fill="#8BC53F"/>
<g clip-path="url(#clip0_3802_3201)">
<path d="M11.9641 5.00008C7.54581 5.02015 3.98057 8.61773 4.00008 13.036C4.02015 17.4542 7.61828 21.0194 12.0359 20.9999C16.4542 20.9799 20.0194 17.3823 19.9999 12.9646C19.9799 8.54582 16.3823 4.98057 11.9641 5.00008ZM10.951 12.6078C10.1611 12.6078 9.52049 11.9678 9.52049 11.1778C9.52049 10.3878 10.1611 9.7478 10.951 9.7478C11.741 9.7478 12.3811 10.3884 12.3811 11.1778C12.3811 11.9672 11.7405 12.6078 10.951 12.6078ZM12.0917 14.1538L12.099 14.1448L12.1068 14.1359C12.5149 14.3991 12.9809 14.4922 13.4464 14.5056C13.9125 14.5178 14.3875 14.4827 14.8547 14.3885C15.3213 14.2915 15.7802 14.1482 16.2234 13.9653C16.472 13.8627 16.7196 13.7507 16.9554 13.6191C16.957 13.618 16.9582 13.6174 16.9598 13.6163C17.1065 13.5282 17.2497 13.4351 17.3902 13.3393C17.4209 13.3175 17.4505 13.2946 17.4794 13.2712L17.4828 13.2751L17.4951 13.2896C17.1355 13.6169 16.7073 13.86 16.2713 14.0746C15.8309 14.282 15.3715 14.452 14.8971 14.5747C14.4243 14.6968 13.9309 14.7893 13.4314 14.7436C12.9397 14.7001 12.4218 14.5279 12.0906 14.1543L12.0917 14.1538ZM15.7623 12.6078C15.7618 12.4361 15.9 12.2978 16.0706 12.2962C16.2423 12.2956 16.3806 12.4333 16.3823 12.6045C16.3828 12.7756 16.2446 12.9155 16.074 12.9161C15.9028 12.9167 15.764 12.7784 15.7623 12.6078ZM13.3121 20.2807C13.0032 18.116 14.8937 15.9958 15.9597 14.9109C16.2016 14.665 16.5757 14.326 16.9236 13.9659C18.3073 12.6719 18.5827 11.126 15.7506 10.3533C15.2137 10.1977 14.6574 9.97748 14.0937 9.75503C14.0759 9.7032 14.0558 9.65413 14.0324 9.60787C13.9677 9.49637 13.8545 9.36813 13.6834 9.22262C13.3154 8.90317 12.6236 8.91153 12.0265 9.05315C11.3664 8.8976 10.7152 8.8424 10.0892 8.99237C7.35012 9.74723 6.90971 11.083 6.80322 12.6925C6.65827 14.432 6.57353 15.7282 5.91512 17.2089C5.09335 16.0236 4.60888 14.5858 4.60219 13.0343C4.58379 8.94888 7.88086 5.62226 11.9663 5.60386C16.0517 5.58546 19.3783 8.88255 19.3967 12.968C19.4134 16.6168 16.7842 19.6614 13.3115 20.2819L13.3121 20.2807Z" fill="white"/>
<path d="M11.9569 11.1905C11.9569 11.7464 11.5064 12.1963 10.9511 12.1963C10.3958 12.1963 9.94482 11.7464 9.94482 11.1905C9.94482 10.6347 10.3953 10.1848 10.9511 10.1848C11.507 10.1848 11.9569 10.6347 11.9569 11.1905Z" fill="white"/>
</g>
<defs>
<clipPath id="clip0_3802_3201">
<rect width="16" height="16" fill="white" transform="translate(4 4.78418)"/>
</clipPath>
</defs>
</svg>
