<svg width="24" height="24" viewBox="0 0 24 24" fill="none" xmlns="http://www.w3.org/2000/svg">
<rect width="24" height="24" rx="8" fill="#8BC53F"/>
<g clip-path="url(#clip0_8506_8189)">
<mask id="mask0_8506_8189" style="mask-type:luminance" maskUnits="userSpaceOnUse" x="4" y="4" width="16" height="16">
<path d="M20 4H4V20H20V4Z" fill="white"/>
</mask>
<g mask="url(#mask0_8506_8189)">
<path d="M19.8867 11.9641C19.9062 16.3822 16.3659 19.9803 11.9793 19.9999C7.59208 20.0195 4.02011 16.4539 4.00008 12.0359C3.9806 7.61725 7.52085 4.0197 11.9075 4.00008C16.2947 3.98046 19.8667 7.54552 19.8861 11.9641H19.8867Z" fill="#8DC63F"/>
<path d="M19.2879 11.9662C19.3062 16.052 16.0325 19.3788 11.9764 19.3973C7.91977 19.4158 4.61659 16.1187 4.59822 12.0329C4.57986 7.94723 7.85356 4.62037 11.9102 4.60188C15.9663 4.58394 19.2695 7.88053 19.2879 11.9662Z" fill="#F9E988"/>
<path d="M12.0771 5.08114C12.5401 4.98978 13.0209 5.00211 13.4895 5.07834C13.958 5.15736 14.4199 5.30308 14.8378 5.53286C15.2562 5.76489 15.6185 6.0793 15.9791 6.37467C16.3386 6.67339 16.698 6.97155 17.0392 7.29942C17.3836 7.62392 17.6925 7.99214 17.9429 8.39902C18.1977 8.80255 18.4198 9.23074 18.5767 9.68415C18.8833 10.5915 18.9896 11.5695 18.8371 12.5021H18.7898C18.6362 11.5774 18.4276 10.6969 18.102 9.85845C17.9434 9.43924 17.772 9.02337 17.5589 8.62657C17.3413 8.23314 17.1087 7.84474 16.8444 7.47147C16.5773 7.10157 16.2601 6.76139 15.8862 6.4974C15.5133 6.23007 15.0843 6.05634 14.6697 5.89155C14.254 5.72454 13.84 5.56369 13.4088 5.43871C12.9781 5.31036 12.5368 5.21957 12.0771 5.12822V5.08058V5.08114Z" fill="white"/>
<path d="M15.6682 9.35232C15.1351 9.19709 14.5831 8.97627 14.0233 8.75377C13.991 8.61252 13.867 8.43655 13.6154 8.22077C13.2498 7.9013 12.5631 7.90972 11.97 8.05095C11.315 7.8957 10.6678 7.84022 10.0468 7.99042C4.96847 9.39997 7.84764 12.8372 5.98291 16.2936C6.24834 16.8602 9.10804 20.168 13.2459 19.2802C13.2459 19.2802 11.8308 15.8553 15.0244 14.2109C17.6148 12.8776 19.4862 10.4015 15.6677 9.35177L15.6682 9.35232Z" fill="#8BC53F"/>
<path d="M16.2947 11.605C16.2947 11.7759 16.1578 11.9154 15.9881 11.916C15.8184 11.9171 15.6798 11.7787 15.6787 11.6072C15.6776 11.4363 15.8151 11.2967 15.9853 11.2961C16.1551 11.295 16.2936 11.4335 16.2947 11.6044V11.605Z" fill="white"/>
<path d="M11.9697 8.05176C12.3398 8.0781 13.6775 8.51806 14.0225 8.75401C13.7365 7.91333 12.7666 7.8018 11.9697 8.05176Z" fill="#009345"/>
<path d="M12.3217 10.1768C12.3217 10.967 11.6856 11.6071 10.9016 11.6071C10.1175 11.6071 9.48145 10.967 9.48145 10.1768C9.48145 9.38655 10.1175 8.74707 10.9016 8.74707C11.6856 8.74707 12.3217 9.38712 12.3217 10.1768Z" fill="white"/>
<path d="M11.901 10.1903C11.901 10.7457 11.4536 11.1963 10.9022 11.1963C10.3507 11.1963 9.90332 10.7463 9.90332 10.1903C9.90332 9.63436 10.3507 9.18433 10.9022 9.18433C11.4536 9.18433 11.901 9.63493 11.901 10.1903Z" fill="#58595B"/>
<path d="M17.4453 12.2349C16.2951 13.0514 14.9857 13.6707 13.1299 13.6707C12.2612 13.6707 12.0848 12.741 11.5106 13.1966C11.214 13.432 10.1689 13.9583 9.33922 13.9185C8.50228 13.8781 7.16622 13.3883 6.7906 11.6055C6.64202 13.3883 6.56633 14.702 5.90137 16.2074C7.2252 18.3421 10.3809 19.9887 13.2456 19.2809C12.9379 17.1159 14.8165 14.9957 15.8749 13.9106C16.2756 13.4998 17.0435 12.8289 17.4453 12.2349Z" fill="#8BC53F"/>
<path d="M17.4003 12.2888C17.043 12.6166 16.6179 12.8599 16.1849 13.0739C15.7476 13.2819 15.2918 13.4511 14.821 13.5739C14.3519 13.6961 13.8617 13.788 13.3653 13.7431C12.8779 13.7 12.3626 13.5274 12.0337 13.1535L12.0493 13.1356C12.4549 13.399 12.9174 13.4915 13.3798 13.5049C13.8422 13.5173 14.3135 13.4825 14.7782 13.3878C15.2417 13.2914 15.6969 13.1474 16.1371 12.9647C16.5761 12.782 17.0102 12.5707 17.3847 12.2703L17.3997 12.2882L17.4003 12.2888Z" fill="#58595B"/>
</g>
</g>
<defs>
<clipPath id="clip0_8506_8189">
<rect width="16" height="16" fill="white" transform="translate(4 4)"/>
</clipPath>
</defs>
</svg>
