<svg width="238" height="238" viewBox="0 0 238 238" fill="none" xmlns="http://www.w3.org/2000/svg">
<path d="M237.7 118.8C237.7 184.5 184.5 237.7 118.8 237.7C53.1 237.7 0 184.5 0 118.8C0 53.1 53.2 0 118.8 0C184.4 0 237.7 53.2 237.7 118.8Z" fill="black"/>
<path d="M87.8001 58C110.7 46.3 138.2 48.5 158.9 63.6L157.2 64.5L146.1 70.2C128.8 60.5 107.7 60.8 90.6001 70.8C73.5001 80.8 63.0001 99.1 63.0001 119C63.0001 121.4 63.2001 123.9 63.5001 126.3L157.4 78.5L176.8 68.6L199.6 57V70.9L176.6 82.6L165.5 88.3L66.5001 138.7L61.0001 141.5L55.4001 144.4L38.1001 153.2V139.3L44.0001 136.3C48.5001 134 51.1001 129.3 50.7001 124.3C50.6001 122.6 50.5001 120.8 50.5001 119.1C50.6001 93.2 65.0001 69.7 87.8001 58Z" fill="white"/>
<path d="M199.6 84.7V98.6L193.7 101.6C189.2 103.9 186.6 108.6 187 113.6C187.1 115.3 187.2 117.1 187.2 118.8C187.2 144.5 172.8 168 149.9 179.6C127 191.2 99.4998 189.1 78.7998 174L90.8998 167.8L91.5998 167.4C108.9 177.1 130.1 176.9 147.2 166.9C164.3 156.9 174.9 138.5 174.9 118.7C174.9 116.2 174.7 113.8 174.4 111.4L80.3998 159.3L60.9998 169.2L38.2998 180.8V166.9L61.1998 155.2L72.2998 149.5L199.6 84.7Z" fill="white"/>
</svg>
