<svg width="88" height="88" viewBox="0 0 88 88" fill="none" xmlns="http://www.w3.org/2000/svg">
<g clip-path="url(#clip0_12085_5170)">
<path d="M88 0H0V88H88V0Z" fill="black"/>
<path d="M22.4837 46.8202C22.3582 45.8844 22.2951 44.9416 22.2947 43.9977C22.2998 40.2318 23.3106 36.5326 25.227 33.2664C27.1434 30.0002 29.8989 27.2805 33.2206 25.3765C36.5423 23.4725 40.3148 22.4503 44.1646 22.4113C48.0144 22.3723 51.8079 23.3177 55.1692 25.154L60.2222 22.6351C56.1942 19.7754 51.4362 18.0607 46.4742 17.6806C41.5122 17.3005 36.5393 18.2697 32.1053 20.4812C27.6712 22.6927 23.9486 26.0603 21.3488 30.2119C18.7491 34.3634 17.3734 39.1372 17.374 44.0056C17.374 44.678 17.4 45.3478 17.4522 46.0149C17.5253 46.9596 17.3111 47.9044 16.8366 48.7303C16.362 49.5562 15.6484 50.2264 14.7853 50.6565L12.4667 51.813V57.2071L76.2667 25.4074V20.016L22.4837 46.8202Z" fill="white"/>
<path d="M76.2667 30.8042L25.9037 55.8869L12.4667 62.588V67.9768L66.2632 41.1647C66.3887 42.1067 66.4518 43.0557 66.4521 44.0056C66.4497 47.7759 65.4392 51.4799 63.521 54.7501C61.6027 58.0202 58.8434 60.7427 55.5169 62.6473C52.1904 64.5519 48.4125 65.5724 44.5582 65.6074C40.7039 65.6424 36.9073 64.6907 33.5453 62.8468L33.2754 62.9867L28.5084 65.3629C32.5356 68.2228 37.2925 69.9379 42.2538 70.319C47.215 70.7 52.1874 69.7321 56.6215 67.5221C61.0555 65.3121 64.7787 61.9461 67.3796 57.7961C69.9804 53.646 71.3578 48.8734 71.3594 44.0056C71.3594 43.3271 71.3324 42.6485 71.2811 41.9779C71.2081 41.0335 71.4221 40.0891 71.8961 39.2633C72.3701 38.4374 73.083 37.767 73.9453 37.3363L76.2667 36.1798V30.8042Z" fill="white"/>
</g>
<defs>
<clipPath id="clip0_12085_5170">
<rect width="88" height="88" rx="44" fill="white"/>
</clipPath>
</defs>
</svg>
