<svg width="120" height="120" viewBox="0 0 120 120" fill="none" xmlns="http://www.w3.org/2000/svg">
<circle cx="60" cy="60" r="60" fill="#2E3148"/>
<circle cx="60" cy="60" r="34.8149" fill="#1B1E36"/>
<path fill-rule="evenodd" clip-rule="evenodd" d="M48.3951 60.1239C48.3951 31.1458 53.6467 7.65457 60.1234 7.65457C66.6 7.65457 71.8517 31.1458 71.8517 60.1239C71.8517 89.1019 66.6 112.593 60.1234 112.593C53.6467 112.593 48.3951 89.1019 48.3951 60.1239ZM59.4518 109.879C59.4518 109.879 60.1925 110.62 60.9331 109.632C60.9331 109.632 64.4122 106.667 66.8962 92.593C66.8962 92.593 70.1232 74.0746 69.6293 57.5314C69.6293 57.5314 70.1232 38.5191 64.669 18.2722C64.669 18.2722 62.8219 11.7461 60.6197 10.1856C60.2531 9.92488 59.7521 9.96538 59.4322 10.2816C57.9144 11.7826 53.4542 18.5434 51.0024 47.1629C51.0024 47.1629 49.7606 83.2123 54.9778 100.002C54.9778 100.002 56.4691 106.423 59.4518 109.879Z" fill="#6F7390"/>
<path fill-rule="evenodd" clip-rule="evenodd" d="M54.2745 49.9483C79.4222 35.5282 102.41 28.3925 105.635 34.0123C108.857 39.6298 91.1179 55.8763 65.9702 70.2965C40.8225 84.7166 17.8325 91.8499 14.6102 86.2325C11.388 80.615 29.1269 64.3685 54.2745 49.9483ZM16.6296 84.2914C16.6296 84.2914 16.3507 85.3061 17.5853 85.4616H17.5857C17.5857 85.4616 21.887 87.0048 35.3313 82.1602C35.3313 82.1602 53.0001 75.7478 67.104 67.0838C67.104 67.0838 83.8421 58.0493 98.6798 43.237C98.6798 43.237 103.433 38.389 103.68 35.701C103.727 35.2519 103.443 34.8345 103.008 34.7131C100.956 34.1482 92.867 33.637 66.8251 45.7531C66.8251 45.7531 34.9358 62.615 22.9632 75.4963C22.9632 75.4963 18.144 79.9853 16.6296 84.2914Z" fill="#6F7390"/>
<path fill-rule="evenodd" clip-rule="evenodd" d="M66.0168 49.9651C91.0762 64.4938 108.77 80.8147 105.521 86.4197C102.274 92.0347 79.3181 84.8103 54.2443 70.2816C29.1706 55.753 11.4792 39.4416 14.7259 33.8271C17.9726 28.2125 40.9574 35.4365 66.0168 49.9651ZM17.4125 34.5807C17.4125 34.5807 16.3992 34.8547 16.8792 35.9928L16.8826 36.0053C16.8826 36.0053 17.7043 40.4967 28.6426 49.7064C28.6426 49.7064 43.0378 61.788 57.5957 69.6399C57.5957 69.6399 73.7981 79.5927 94.0574 85.0248C94.0574 85.0248 100.631 86.6991 103.085 85.5754C103.495 85.3893 103.712 84.9348 103.598 84.4987C103.057 82.4395 99.4478 75.1853 75.912 58.716C75.912 58.716 45.3432 39.5679 28.2 35.664C28.2 35.664 21.8986 33.7335 17.4125 34.5807Z" fill="#6F7390"/>
<circle cx="60" cy="60" r="6.1728" fill="#B7B9C8"/>
<ellipse cx="85.3085" cy="36.2962" rx="3.58032" ry="3.70368" fill="#B7B9C8"/>
<ellipse cx="26.543" cy="48.889" rx="3.58032" ry="3.70368" fill="#B7B9C8"/>
<ellipse cx="52.716" cy="94.321" rx="3.58032" ry="3.70368" fill="#B7B9C8"/>
</svg>
