<svg width="88" height="88" viewBox="0 0 88 88" fill="none" xmlns="http://www.w3.org/2000/svg">
<circle cx="44" cy="44" r="44" fill="#2E3148"/>
<circle cx="44" cy="44" r="25.5309" fill="#1B1E36"/>
<path fill-rule="evenodd" clip-rule="evenodd" d="M35.4897 44.0908C35.4897 22.8402 39.3409 5.61334 44.0905 5.61334C48.84 5.61334 52.6913 22.8402 52.6913 44.0908C52.6913 65.3414 48.84 82.5683 44.0905 82.5683C39.3409 82.5683 35.4897 65.3414 35.4897 44.0908ZM43.598 80.5777C43.598 80.5777 44.1412 81.1212 44.6843 80.3968C44.6843 80.3968 47.2356 78.2221 49.0572 67.9015C49.0572 67.9015 51.4237 54.3213 51.0615 42.1897C51.0615 42.1897 51.4237 28.2473 47.4239 13.3996C47.4239 13.3996 46.0694 8.61378 44.4544 7.46943C44.1856 7.27823 43.8182 7.30793 43.5836 7.53983C42.4706 8.64054 39.1998 13.5985 37.4018 34.5861C37.4018 34.5861 36.4911 61.0224 40.317 73.335C40.317 73.335 41.4107 78.0433 43.598 80.5777Z" fill="#6F7390"/>
<path fill-rule="evenodd" clip-rule="evenodd" d="M39.8013 36.6288C58.243 26.054 75.1006 20.8212 77.4653 24.9424C79.8283 29.0618 66.8198 40.976 48.3782 51.5508C29.9365 62.1255 13.0771 67.3566 10.7142 63.2372C8.35119 59.1177 21.3597 47.2036 39.8013 36.6288ZM12.195 61.8137C12.195 61.8137 11.9905 62.5578 12.8959 62.6718H12.8962C12.8962 62.6718 16.0505 63.8035 25.9096 60.2508C25.9096 60.2508 38.8668 55.5484 49.2096 49.1948C49.2096 49.1948 61.4842 42.5695 72.3652 31.7071C72.3652 31.7071 75.8511 28.1519 76.032 26.1807C76.0663 25.8514 75.8581 25.5453 75.5392 25.4563C74.0344 25.042 68.1025 24.6671 49.0051 33.5523C49.0051 33.5523 25.6196 45.9177 16.8397 55.364C16.8397 55.364 13.3056 58.6559 12.195 61.8137Z" fill="#6F7390"/>
<path fill-rule="evenodd" clip-rule="evenodd" d="M48.4123 36.6411C66.7892 47.2954 79.765 59.2641 77.3819 63.3744C75.001 67.4921 58.1666 62.1942 39.7792 51.5398C21.3918 40.8855 8.41809 28.9238 10.799 24.8065C13.1799 20.6891 30.0355 25.9867 48.4123 36.6411ZM12.7692 25.3591C12.7692 25.3591 12.0261 25.5601 12.3781 26.3947L12.3805 26.4039C12.3805 26.4039 12.9832 29.6975 21.0045 36.4514C21.0045 36.4514 31.561 45.3112 42.2368 51.0692C42.2368 51.0692 54.1186 58.3679 68.9755 62.3515C68.9755 62.3515 73.7957 63.5793 75.5955 62.7553C75.8965 62.6188 76.0555 62.2855 75.9722 61.9657C75.5755 60.4556 72.9284 55.1359 55.6688 43.0584C55.6688 43.0584 33.2517 29.0164 20.68 26.1536C20.68 26.1536 16.0589 24.7378 12.7692 25.3591Z" fill="#6F7390"/>
<circle cx="44" cy="44" r="4.52672" fill="#B7B9C8"/>
<ellipse cx="62.5595" cy="26.6172" rx="2.62557" ry="2.71603" fill="#B7B9C8"/>
<ellipse cx="19.4649" cy="35.8519" rx="2.62557" ry="2.71603" fill="#B7B9C8"/>
<ellipse cx="38.6584" cy="69.1687" rx="2.62557" ry="2.71603" fill="#B7B9C8"/>
</svg>
