<svg width="24" height="24" viewBox="0 0 24 24" fill="none" xmlns="http://www.w3.org/2000/svg">
<rect width="24" height="24" rx="8" fill="url(#paint0_linear_11301_14074)"/>
<path fill-rule="evenodd" clip-rule="evenodd" d="M17.7069 13.561C17.4279 13.7374 17.0993 13.7592 16.8496 13.6183C16.5323 13.4392 16.3579 13.0197 16.3579 12.4363V10.6907C16.3579 9.84781 16.0246 9.248 15.4673 9.08605C14.5229 8.81093 13.8127 9.96644 13.5458 10.4004L11.8802 13.1009V9.80019C11.8615 9.04078 11.6148 8.58654 11.1465 8.44956C10.8367 8.35902 10.3731 8.39532 9.92273 9.08449L6.19122 15.0763C5.69166 14.1279 5.43124 13.0719 5.43259 12C5.43259 8.39063 8.32507 5.45444 11.8802 5.45444C15.4353 5.45444 18.3274 8.39063 18.3274 12C18.3274 12.0062 18.329 12.0117 18.3294 12.0176C18.3294 12.0238 18.3282 12.0293 18.3286 12.0355C18.3621 12.7344 18.1358 13.2901 17.7069 13.561ZM19.76 12.0004V11.982L19.7596 11.9641C19.7397 7.56839 16.2131 4 11.8798 4C7.53522 4 4 7.58868 4 12C4 16.4109 7.53522 20 11.8802 20C13.874 20 15.7768 19.2421 17.2375 17.8665C17.5278 17.5934 17.545 17.1333 17.2757 16.839C17.2123 16.7691 17.1356 16.7126 17.0501 16.6727C16.9646 16.6328 16.872 16.6104 16.7778 16.6068C16.6835 16.6032 16.5894 16.6184 16.5011 16.6516C16.4128 16.6847 16.332 16.7352 16.2634 16.8C15.0794 17.9212 13.5108 18.5459 11.8802 18.5456C9.97659 18.5456 8.2638 17.703 7.08254 16.3668L10.4476 10.9635V13.4544C10.4476 14.6509 10.9116 15.0377 11.3007 15.1508C11.6901 15.264 12.2853 15.1867 12.91 14.1721L14.761 11.1715C14.8203 11.0747 14.8749 10.9912 14.9249 10.919V12.4363C14.9249 13.5547 15.3729 14.4492 16.1538 14.8898C16.8578 15.287 17.7428 15.2511 18.464 14.7961C19.3381 14.2439 19.8092 13.2265 19.76 12.0004Z" fill="white"/>
<defs>
<linearGradient id="paint0_linear_11301_14074" x1="21.5" y1="2" x2="12" y2="24" gradientUnits="userSpaceOnUse">
<stop stop-color="#4878F6"/>
<stop offset="1" stop-color="#1C3CF5"/>
</linearGradient>
</defs>
</svg>
