<svg width="32" height="32" viewBox="0 0 32 32" fill="none" xmlns="http://www.w3.org/2000/svg">
<rect width="32" height="32" rx="16" fill="#767A81"/>
<path fill-rule="evenodd" clip-rule="evenodd" d="M20.3633 7.39588C20.8906 6.86836 21.7456 6.868 22.2733 7.39507L24.6038 9.72288C25.1317 10.2502 25.1321 11.1056 24.6046 11.6333L13.6031 22.6405C13.4149 22.8288 13.1754 22.9572 12.9145 23.0098L8 24L8.99202 19.0915C9.04464 18.8311 9.17285 18.5921 9.36062 18.4042L20.3633 7.39588Z" fill="white"/>
<path d="M18.1306 9.81757L22.1829 13.8697M8 24L12.9145 23.0098C13.1754 22.9572 13.4149 22.8288 13.6031 22.6405L24.6046 11.6333C25.1321 11.1056 25.1317 10.2502 24.6038 9.72288L22.2733 7.39507C21.7456 6.868 20.8906 6.86836 20.3633 7.39588L9.36062 18.4042C9.17285 18.5921 9.04464 18.8311 8.99202 19.0915L8 24Z" stroke="#767A81" stroke-width="1.33333" stroke-linecap="round" stroke-linejoin="round"/>
</svg>
