<svg width="120" height="120" viewBox="0 0 120 120" fill="none" xmlns="http://www.w3.org/2000/svg">
<g clip-path="url(#clip0_10033_3661)">
<path d="M120 60C120 26.8629 93.1371 0 60 0C26.8629 0 0 26.8629 0 60C0 93.1371 26.8629 120 60 120C93.1371 120 120 93.1371 120 60Z" fill="white"/>
<g clip-path="url(#clip1_10033_3661)">
<path d="M72.2557 74.556C49.575 81.36 30.8131 91.284 19.0689 102.912L18.5504 103.428C21.6733 106.38 25.0978 109.02 28.7995 111.264L29.5953 110.292C32.8026 106.38 36.2391 102.6 39.8201 99.036C49.4302 89.472 60.4271 81.192 72.2677 74.544L72.2557 74.556Z" fill="#141416"/>
<path d="M0.00549316 64.476C0.909791 76.608 5.41943 87.732 12.4973 96.78L12.8229 96.456C20.0937 89.292 29.5591 82.776 40.9774 77.1C50.9854 72.12 62.4765 67.848 74.8601 64.476H0.00549316Z" fill="#141416"/>
<path d="M46.1621 14.616C66.4556 34.812 91.9935 48.168 120.004 53.232C116.628 23.292 91.1138 0 60.1133 0C51.9255 0 44.1248 1.632 36.9983 4.572C39.8921 8.052 42.9791 11.436 46.1621 14.616Z" fill="#141416"/>
<path d="M19.0689 17.088C30.8131 28.728 49.575 38.64 72.2557 45.456C60.4151 38.796 49.4182 30.5279 39.8081 20.964C36.2391 17.412 32.8026 13.632 29.5833 9.70796L28.7875 8.73596C25.0857 10.98 21.6613 13.62 18.5504 16.572L19.0689 17.088Z" fill="#141416"/>
<path d="M46.1621 105.384C42.9671 108.564 39.8801 111.948 36.9983 115.428C44.1128 118.368 51.9255 120 60.1133 120C91.1138 120 116.628 96.708 120.016 66.756C92.0055 71.82 66.4676 85.176 46.1741 105.372L46.1621 105.384Z" fill="#141416"/>
<path d="M40.9774 42.9C29.5591 37.224 20.0937 30.708 12.8229 23.544L12.4973 23.22C5.41943 32.268 0.909791 43.392 0.00549316 55.524H74.8481C62.4645 52.152 50.9854 47.88 40.9654 42.888L40.9774 42.9Z" fill="#141416"/>
</g>
</g>
<defs>
<clipPath id="clip0_10033_3661">
<rect width="120" height="120" fill="white"/>
</clipPath>
<clipPath id="clip1_10033_3661">
<rect width="120" height="120" fill="white"/>
</clipPath>
</defs>
</svg>
