<svg width="88" height="88" viewBox="0 0 88 88" fill="none" xmlns="http://www.w3.org/2000/svg">
<g clip-path="url(#clip0_12085_5178)">
<g clip-path="url(#clip1_12085_5178)">
<rect width="88" height="88" rx="44" fill="white"/>
<path d="M52.9875 54.6744C36.355 59.664 22.5963 66.9416 13.9839 75.4688L13.6036 75.8472C15.8938 78.012 18.405 79.948 21.1196 81.5936L21.7032 80.8808C24.0552 78.012 26.5753 75.24 29.2014 72.6264C36.2488 65.6128 44.3132 59.5408 52.9963 54.6656L52.9875 54.6744Z" fill="#141416"/>
<path d="M0.00402832 47.2824C0.66718 56.1792 3.97424 64.3368 9.1647 70.972L9.40346 70.7344C14.7354 65.4808 21.6767 60.7024 30.0501 56.54C37.3893 52.888 45.8161 49.7552 54.8974 47.2824H0.00402832Z" fill="#141416"/>
<path d="M33.8522 10.7184C48.7341 25.5288 67.4619 35.3232 88.003 39.0368C85.5269 17.0808 66.8167 0 44.083 0C38.0787 0 32.3582 1.1968 27.1321 3.3528C29.2542 5.9048 31.518 8.3864 33.8522 10.7184Z" fill="#141416"/>
<path d="M13.9839 12.5312C22.5963 21.0672 36.355 28.336 52.9875 33.3344C44.3044 28.4504 36.24 22.3871 29.1926 15.3736C26.5753 12.7688 24.0552 9.99677 21.6944 7.11917L21.1108 6.40637C18.3962 8.05197 15.885 9.98797 13.6036 12.1528L13.9839 12.5312Z" fill="#141416"/>
<path d="M33.8522 77.2816C31.5092 79.6136 29.2454 82.0952 27.1321 84.6472C32.3494 86.8032 38.0787 88 44.083 88C66.8167 88 85.5269 70.9192 88.0118 48.9544C67.4707 52.668 48.7429 62.4624 33.861 77.2728L33.8522 77.2816Z" fill="#141416"/>
<path d="M30.0501 31.46C21.6767 27.2976 14.7354 22.5192 9.40346 17.2656L9.1647 17.028C3.97424 23.6632 0.66718 31.8208 0.00402832 40.7176H54.8886C45.8073 38.2448 37.3893 35.112 30.0413 31.4512L30.0501 31.46Z" fill="#141416"/>
</g>
</g>
<defs>
<clipPath id="clip0_12085_5178">
<rect width="88" height="88" fill="white"/>
</clipPath>
<clipPath id="clip1_12085_5178">
<rect width="88" height="88" rx="44" fill="white"/>
</clipPath>
</defs>
</svg>
