<svg width="32" height="32" viewBox="0 0 32 32" fill="none" xmlns="http://www.w3.org/2000/svg">
<path d="M19.2682 19.8816C13.22 21.696 8.21683 24.3424 5.08504 27.4432L4.94678 27.5808C5.77956 28.368 6.69274 29.072 7.67987 29.6704L7.89208 29.4112C8.74736 28.368 9.66376 27.36 10.6187 26.4096C13.1814 23.8592 16.1139 21.6512 19.2714 19.8784L19.2682 19.8816Z" fill="#141416"/>
<path d="M0.00146484 17.1936C0.242611 20.4288 1.44518 23.3952 3.33262 25.808L3.41944 25.7216C5.35833 23.8112 7.88242 22.0736 10.9273 20.56C13.5961 19.232 16.6604 18.0928 19.9627 17.1936H0.00146484Z" fill="#141416"/>
<path d="M12.3099 3.8976C17.7215 9.2832 24.5316 12.8448 32.0011 14.1952C31.1007 6.2112 24.297 0 16.0302 0C13.8468 0 11.7666 0.4352 9.86621 1.2192C10.6379 2.1472 11.4611 3.0496 12.3099 3.8976Z" fill="#141416"/>
<path d="M5.08504 4.55679C8.21683 7.66079 13.22 10.304 19.2682 12.1216C16.1107 10.3456 13.1782 8.14078 10.6155 5.59039C9.66376 4.64319 8.74736 3.63519 7.88887 2.58879L7.67666 2.32959C6.68952 2.92799 5.77635 3.63199 4.94678 4.41919L5.08504 4.55679Z" fill="#141416"/>
<path d="M12.3099 28.1024C11.4579 28.9504 10.6347 29.8528 9.86621 30.7808C11.7634 31.5648 13.8468 32 16.0302 32C24.297 32 31.1007 25.7888 32.0043 17.8016C24.5348 19.152 17.7247 22.7136 12.3131 28.0992L12.3099 28.1024Z" fill="#141416"/>
<path d="M10.9273 11.44C7.88242 9.92639 5.35833 8.18879 3.41944 6.27839L3.33262 6.19199C1.44518 8.60479 0.242611 11.5712 0.00146484 14.8064H19.9595C16.6572 13.9072 13.5961 12.768 10.9241 11.4368L10.9273 11.44Z" fill="#141416"/>
</svg>
