<svg width="88" height="88" viewBox="0 0 88 88" fill="none" xmlns="http://www.w3.org/2000/svg">
<circle cx="44" cy="44" r="44" fill="black"/>
<path d="M27.2764 54.4241C27.5813 54.1191 28.0005 53.9413 28.4452 53.9413H68.7693C69.5062 53.9413 69.8746 54.8306 69.3537 55.3515L61.388 63.3172C61.0831 63.6221 60.6638 63.8 60.2192 63.8H19.895C19.1582 63.8 18.7897 62.9107 19.3106 62.3898L27.2764 54.4241Z" fill="url(#paint0_linear_12085_4897)"/>
<path d="M27.2764 24.6828C27.594 24.3779 28.0132 24.2 28.4452 24.2H68.7693C69.5062 24.2 69.8746 25.0893 69.3537 25.6102L61.388 33.5759C61.0831 33.8808 60.6638 34.0587 60.2192 34.0587H19.895C19.1582 34.0587 18.7897 33.1694 19.3106 32.6485L27.2764 24.6828Z" fill="url(#paint1_linear_12085_4897)"/>
<path d="M61.388 39.4581C61.0831 39.1532 60.6638 38.9753 60.2192 38.9753H19.895C19.1582 38.9753 18.7897 39.8647 19.3106 40.3855L27.2764 48.3513C27.5813 48.6562 28.0005 48.8341 28.4452 48.8341H68.7693C69.5062 48.8341 69.8746 47.9447 69.3537 47.4239L61.388 39.4581Z" fill="url(#paint2_linear_12085_4897)"/>
<defs>
<linearGradient id="paint0_linear_12085_4897" x1="-72.0729" y1="16.7191" x2="-73.1458" y2="70.7065" gradientUnits="userSpaceOnUse">
<stop stop-color="#00FFA3"/>
<stop offset="1" stop-color="#DC1FFF"/>
</linearGradient>
<linearGradient id="paint1_linear_12085_4897" x1="-84.2756" y1="10.3482" x2="-85.3485" y2="64.3357" gradientUnits="userSpaceOnUse">
<stop stop-color="#00FFA3"/>
<stop offset="1" stop-color="#DC1FFF"/>
</linearGradient>
<linearGradient id="paint2_linear_12085_4897" x1="-78.2131" y1="13.5134" x2="-79.286" y2="67.5008" gradientUnits="userSpaceOnUse">
<stop stop-color="#00FFA3"/>
<stop offset="1" stop-color="#DC1FFF"/>
</linearGradient>
</defs>
</svg>
