<svg width="120" height="120" viewBox="0 0 120 120" fill="none" xmlns="http://www.w3.org/2000/svg">
<path d="M0 60C0 93.1371 26.8629 120 60 120C93.1371 120 120 93.1371 120 60C120 26.8629 93.1371 0 60 0C26.8629 0 0 26.8629 0 60Z" fill="#4DA2FF"/>
<path fill-rule="evenodd" clip-rule="evenodd" d="M80.4227 52.6848C83.9587 57.1829 86.0893 62.8974 86.0893 69.0938C86.0893 75.2901 83.9133 81.1652 80.264 85.7092L79.9467 86.0994L79.856 85.5945C79.788 85.1814 79.6973 84.7453 79.6067 84.3093C77.7933 76.2081 71.8547 69.2544 62.0627 63.6088C55.4667 59.8221 51.6813 55.2552 50.684 50.0686C50.0493 46.718 50.5253 43.3444 51.432 40.4527C52.3613 37.5611 53.7213 35.1514 54.8773 33.7056L58.6853 29.0009C59.3427 28.1747 60.612 28.1747 61.2693 29.0009L80.4227 52.6848ZM86.4293 47.9802L60.952 16.4475C60.476 15.8508 59.5467 15.8508 59.0707 16.4475L33.5707 47.9802L33.48 48.0949C28.8107 53.993 26 61.4745 26 69.6216C26 88.6009 41.232 104 60 104C78.768 104 94 88.6009 94 69.6216C94 61.4745 91.1893 53.993 86.4973 48.0949L86.4293 47.9802ZM39.668 52.593L41.9347 49.7702L42.0027 50.2981C42.048 50.7112 42.116 51.1243 42.2067 51.5374C43.68 59.3631 48.9613 65.9038 57.756 70.9527C65.4173 75.359 69.86 80.4308 71.152 86.0076C71.696 88.3255 71.7867 90.6204 71.56 92.617L71.5373 92.7318L71.424 92.7777C67.9787 94.4759 64.08 95.4398 59.9773 95.4398C45.584 95.4398 33.9107 83.6438 33.9107 69.0938C33.9107 62.8515 36.064 57.0911 39.668 52.593Z" fill="white"/>
</svg>
