<svg width="88" height="88" viewBox="0 0 88 88" fill="none" xmlns="http://www.w3.org/2000/svg">
<path d="M0 44C0 68.3005 19.6995 88 44 88C68.3005 88 88 68.3005 88 44C88 19.6995 68.3005 0 44 0C19.6995 0 0 19.6995 0 44Z" fill="#4DA2FF"/>
<path fill-rule="evenodd" clip-rule="evenodd" d="M58.9766 38.6355C61.5697 41.9342 63.1322 46.1247 63.1322 50.6688C63.1322 55.2128 61.5364 59.5212 58.8602 62.8534L58.6275 63.1395L58.5611 62.7693C58.5112 62.4664 58.4447 62.1466 58.3782 61.8268C57.0484 55.886 52.6934 50.7866 45.5126 46.6465C40.6755 43.8696 37.8996 40.5205 37.1682 36.717C36.7028 34.2598 37.0519 31.7859 37.7168 29.6653C38.3983 27.5448 39.3956 25.7777 40.2434 24.7174L43.0359 21.2673C43.5179 20.6615 44.4488 20.6615 44.9308 21.2673L58.9766 38.6355ZM63.3815 35.1855L44.6981 12.0615C44.349 11.6239 43.6675 11.6239 43.3185 12.0615L24.6185 35.1855L24.552 35.2696C21.1278 39.5948 19.0667 45.0813 19.0667 51.0558C19.0667 64.974 30.2368 76.2667 44 76.2667C57.7632 76.2667 68.9333 64.974 68.9333 51.0558C68.9333 45.0813 66.8722 39.5948 63.4314 35.2696L63.3815 35.1855ZM29.0898 38.5682L30.7521 36.4982L30.8019 36.8853C30.8352 37.1882 30.885 37.4911 30.9515 37.7941C32.032 43.533 35.905 48.3294 42.3544 52.032C47.9727 55.2633 51.2306 58.9826 52.1781 63.0722C52.577 64.772 52.6435 66.455 52.4773 67.9192L52.4607 68.0033L52.3776 68.037C49.851 69.2824 46.992 69.9892 43.9834 69.9892C33.4282 69.9892 24.8678 61.3388 24.8678 50.6688C24.8678 46.0911 26.4469 41.8668 29.0898 38.5682Z" fill="white"/>
</svg>
