<svg width="48" height="48" viewBox="0 0 48 48" fill="none" xmlns="http://www.w3.org/2000/svg">
<g clip-path="url(#clip0_10737_15642)">
<path d="M24 48C37.2548 48 48 37.2548 48 24C48 10.7452 37.2548 0 24 0C10.7452 0 0 10.7452 0 24C0 37.2548 10.7452 48 24 48Z" fill="url(#paint0_linear_10737_15642)"/>
<path d="M39.1546 22.5328L32.3757 15.7539L32.3634 15.7416L32.3366 15.7181C32.2927 15.6785 32.2468 15.6412 32.199 15.6063C32.1655 15.5795 32.1319 15.5537 32.0961 15.5303C32.0805 15.5191 32.0648 15.5101 32.0481 15.5001C31.6616 15.247 31.1941 15.1484 30.7383 15.224C30.2826 15.2996 29.8719 15.5439 29.5879 15.9082L19.045 26.4523V17.0589C19.045 16.5651 18.8488 16.0915 18.4996 15.7424C18.1505 15.3932 17.6769 15.197 17.1831 15.197C16.6893 15.197 16.2157 15.3932 15.8665 15.7424C15.5174 16.0915 15.3212 16.5651 15.3212 17.0589V26.4523L11.4722 22.6032C11.1203 22.2678 10.6512 22.0832 10.1651 22.089C9.67904 22.0947 9.21447 22.2904 8.87071 22.6342C8.52696 22.9779 8.33129 23.4425 8.32551 23.9286C8.31973 24.4147 8.5043 24.8838 8.83979 25.2356L15.8669 32.2627C15.9111 32.3075 15.9577 32.3496 16.0067 32.3891C16.0537 32.4271 16.1029 32.464 16.1521 32.5009C16.406 32.6654 16.6961 32.7656 16.9975 32.7928H17.0053C17.0657 32.7984 17.1261 32.8017 17.1864 32.8017H17.2144C17.2651 32.8017 17.3154 32.7995 17.3654 32.795H17.4023C17.4504 32.7894 17.4984 32.7838 17.5454 32.7738H17.5667C17.6192 32.7626 17.6718 32.7503 17.7232 32.7346H17.7322C17.7883 32.7177 17.8435 32.6979 17.8977 32.6754C17.9748 32.6435 18.0495 32.6061 18.1213 32.5635L18.1638 32.5389C18.2341 32.4959 18.3014 32.4481 18.3651 32.3958L18.3841 32.379C18.4232 32.3455 18.4624 32.3119 18.4959 32.2739L29.1864 21.5767V30.9409C29.1864 31.4348 29.3826 31.9083 29.7318 32.2575C30.081 32.6067 30.5545 32.8028 31.0483 32.8028C31.5421 32.8028 32.0157 32.6067 32.3649 32.2575C32.7141 31.9083 32.9102 31.4348 32.9102 30.9409V21.5476L36.5222 25.1663C36.8728 25.5085 37.3442 25.6988 37.8342 25.6958C38.3242 25.6928 38.7932 25.4967 39.1396 25.1502C39.486 24.8037 39.6818 24.3345 39.6846 23.8446C39.6874 23.3546 39.497 22.8833 39.1546 22.5328Z" fill="white"/>
</g>
<defs>
<linearGradient id="paint0_linear_10737_15642" x1="3.21163" y1="11.9978" x2="44.7884" y2="36.0011" gradientUnits="userSpaceOnUse">
<stop offset="0.13" stop-color="#348BED"/>
<stop offset="0.31" stop-color="#2B80E8"/>
<stop offset="0.64" stop-color="#1461DB"/>
<stop offset="0.72" stop-color="#0E57D7"/>
</linearGradient>
<clipPath id="clip0_10737_15642">
<rect width="48" height="48" fill="white"/>
</clipPath>
</defs>
</svg>
