<svg width="24" height="25" viewBox="0 0 24 25" fill="none" xmlns="http://www.w3.org/2000/svg">
<rect y="0.888672" width="24" height="24" rx="8" fill="black"/>
<path d="M12.6799 10.7727L9.65534 6.46524L9.62547 6.42271H9.5735H6H5.80758L5.91816 6.58018L10.5581 13.1873L5.9249 18.4567L5.77891 18.6227H6H7.05857H7.10381L7.13368 18.5887L11.1458 14.0244L14.3447 18.5802L14.3745 18.6227H14.4265H18H18.1924L18.0818 18.4652L13.27 11.6114L17.6858 6.58873L17.8318 6.42271H17.6107H16.5522H16.507L16.4771 6.45665L12.6799 10.7727ZM11.774 13.1947L11.774 13.1946L11.2986 12.5299L11.2986 12.5299L7.63471 7.40358H9.01506L12.034 11.6279L12.0341 11.628L12.5074 12.2926L12.5075 12.2928L16.3573 17.6799H14.9769L11.774 13.1947Z" fill="white" stroke="white" stroke-width="0.2"/>
</svg>
