<svg width="88" height="88" viewBox="0 0 88 88" fill="none" xmlns="http://www.w3.org/2000/svg">
<g clip-path="url(#clip0_12085_4989)">
<path d="M44 88C68.3005 88 88 68.3005 88 44C88 19.6995 68.3005 0 44 0C19.6995 0 0 19.6995 0 44C0 68.3005 19.6995 88 44 88Z" fill="black"/>
<path d="M24.1824 44L24.2141 55.6347L34.1 61.452V68.2635L18.4285 59.0722V40.5978L24.1824 44ZM24.1824 32.3654V39.1452L18.425 35.7395V28.9597L24.1824 25.5539L29.9679 28.9597L24.1824 32.3654ZM38.2285 28.9597L43.9859 25.5539L49.7715 28.9597L43.9859 32.3654L38.2285 28.9597Z" fill="#F0B90B"/>
<path d="M28.3426 53.2231V46.4116L34.1 49.8174V56.5972L28.3426 53.2231ZM38.2285 63.8917L43.9859 67.2975L49.7715 63.8917V70.6715L43.9859 74.0773L38.2285 70.6715V63.8917ZM58.0285 28.9597L63.7859 25.5539L69.5715 28.9597V35.7395L63.7859 39.1452V32.3654L58.0285 28.9597ZM63.7859 55.6347L63.8176 44L69.575 40.5943V59.0686L53.9035 68.26V61.4484L63.7859 55.6347Z" fill="#F0B90B"/>
<path d="M59.6574 53.2231L53.9 56.5971V49.8173L59.6574 46.4116V53.2231Z" fill="#F0B90B"/>
<path d="M59.6574 34.777L59.6891 41.5885L49.775 47.4058V59.0686L44.0176 62.4427L38.2602 59.0686V47.4058L28.3461 41.5885V34.777L34.1282 31.3712L43.9824 37.2167L53.8965 31.3712L59.682 34.777H59.6574ZM28.3426 23.1459L43.9859 13.9228L59.6574 23.1459L53.9 26.5516L43.9859 20.7061L34.1 26.5516L28.3426 23.1459Z" fill="#F0B90B"/>
</g>
<defs>
<clipPath id="clip0_12085_4989">
<rect width="88" height="88" fill="white"/>
</clipPath>
</defs>
</svg>
