<svg width="120" height="120" viewBox="0 0 120 120" fill="none" xmlns="http://www.w3.org/2000/svg">
<g clip-path="url(#clip0_9925_12833)">
<path fill-rule="evenodd" clip-rule="evenodd" d="M60 0C93.1394 0 120 26.8606 120 60C120 93.1394 93.1394 120 60 120C26.8606 120 0 93.1394 0 60C0 26.8606 26.8606 0 60 0Z" fill="black"/>
<path d="M32.976 60L33.0192 75.8654L46.5 83.7981V93.0865L25.1298 80.5529V55.3606L32.976 60ZM32.976 44.1346V53.3798L25.125 48.7356V39.4904L32.976 34.8462L40.8654 39.4904L32.976 44.1346ZM52.1298 39.4904L59.9808 34.8462L67.8702 39.4904L59.9808 44.1346L52.1298 39.4904Z" fill="#F0B90B"/>
<path d="M38.649 72.5769V63.2885L46.5 67.9327V77.1779L38.649 72.5769ZM52.1298 87.125L59.9808 91.7692L67.8702 87.125V96.3702L59.9808 101.014L52.1298 96.3702V87.125ZM79.1298 39.4904L86.9808 34.8462L94.8702 39.4904V48.7356L86.9808 53.3798V44.1346L79.1298 39.4904ZM86.9808 75.8654L87.024 60L94.875 55.3558V80.5481L73.5048 93.0817V83.7933L86.9808 75.8654Z" fill="#F0B90B"/>
<path d="M81.351 72.5769L73.5 77.1779V67.9327L81.351 63.2885V72.5769Z" fill="#F0B90B"/>
<path d="M81.351 47.4231L81.3942 56.7115L67.875 64.6442V80.5481L60.024 85.149L52.1731 80.5481V64.6442L38.6538 56.7115V47.4231L46.5385 42.7788L59.976 50.75L73.4952 42.7788L81.3846 47.4231H81.351ZM38.649 31.5625L59.9808 18.9856L81.351 31.5625L73.5 36.2067L59.9808 28.2356L46.5 36.2067L38.649 31.5625Z" fill="#F0B90B"/>
</g>
<defs>
<clipPath id="clip0_9925_12833">
<rect width="120" height="120" fill="white"/>
</clipPath>
</defs>
</svg>
