<svg width="16" height="16" viewBox="0 0 16 16" fill="none" xmlns="http://www.w3.org/2000/svg">
<rect width="16" height="16" rx="8" fill="#767A81"/>
<path d="M12.8171 6.3636H12.5694C12.4546 6.29583 12.3327 6.24111 12.2058 6.20043C11.8058 6.06817 11.2777 6 10.6355 6C9.9933 6 9.46518 6.06817 9.06613 6.20043C8.74662 6.30701 8.60595 6.4245 8.56051 6.47017C8.41378 6.40002 8.2532 6.3636 8.09056 6.3636C7.92792 6.3636 7.76734 6.40002 7.62061 6.47017C7.57516 6.42472 7.4345 6.30701 7.11499 6.20043C6.71549 6.06817 6.18737 6 5.54517 6C4.90297 6 4.37484 6.06817 3.9758 6.20043C3.8489 6.24111 3.72695 6.29583 3.6122 6.3636H3.3636C3.26716 6.3636 3.17468 6.4019 3.10649 6.47009C3.03831 6.53828 3 6.63076 3 6.72719C3 6.82362 3.03831 6.9161 3.10649 6.98429C3.17468 7.05248 3.26716 7.09079 3.3636 7.09079H3.36746C3.39018 8.12385 3.51381 8.74469 3.779 9.18668C3.94513 9.47205 4.1998 9.69544 4.50437 9.82298C4.7823 9.94205 5.12294 10 5.54517 10C6.09397 10 6.87411 9.91569 7.31133 9.18714C7.5313 8.82036 7.65424 8.33064 7.70242 7.58459C7.71843 7.54304 7.72667 7.49891 7.72674 7.45438C7.72674 7.35795 7.76504 7.26547 7.83323 7.19728C7.90142 7.12909 7.9939 7.09079 8.09033 7.09079C8.18676 7.09079 8.27924 7.12909 8.34743 7.19728C8.41562 7.26547 8.45393 7.35795 8.45393 7.45438C8.45405 7.49875 8.46229 7.54273 8.47824 7.58414C8.52642 8.33019 8.64936 8.81991 8.86933 9.18668C9.03546 9.47205 9.29013 9.69544 9.59471 9.82298C9.87263 9.94205 10.2133 10 10.6355 10C11.1843 10 11.9644 9.91569 12.4017 9.18714C12.6669 8.74514 12.7909 8.1243 12.8132 7.09124H12.8171C12.9135 7.09124 13.006 7.05293 13.0742 6.98475C13.1424 6.91656 13.1807 6.82408 13.1807 6.72764C13.1807 6.63121 13.1424 6.53873 13.0742 6.47054C13.006 6.40236 12.9135 6.36405 12.8171 6.36405V6.3636Z" fill="white"/>
</svg>
