<svg width="24" height="25" viewBox="0 0 24 25" fill="none" xmlns="http://www.w3.org/2000/svg">
<rect y="0.202393" width="24" height="24" rx="8" fill="#FF4500"/>
<g clip-path="url(#clip0_3802_3221)">
<path d="M12 20.2024C16.4183 20.2024 20 16.6207 20 12.2024C20 7.78411 16.4183 4.20239 12 4.20239C7.58172 4.20239 4 7.78411 4 12.2024C4 16.6207 7.58172 20.2024 12 20.2024Z" fill="white"/>
<path d="M17.3335 12.2024C17.3335 11.5568 16.8095 11.0328 16.1639 11.0328C15.8458 11.0328 15.5651 11.1545 15.3592 11.3603C14.5639 10.7896 13.4598 10.4153 12.2434 10.3685L12.7768 7.87025L14.5078 8.23517C14.5265 8.67493 14.8914 9.03049 15.3405 9.03049C15.799 9.03049 16.1733 8.65622 16.1733 8.19774C16.1733 7.73926 15.799 7.36499 15.3405 7.36499C15.013 7.36499 14.7323 7.55212 14.6013 7.83283L12.6645 7.42113C12.6084 7.41177 12.5522 7.42113 12.5054 7.4492C12.4586 7.47727 12.4306 7.52405 12.4119 7.5802L11.8224 10.3685C10.5779 10.4059 9.46449 10.7708 8.65982 11.3603C8.45397 11.1638 8.16391 11.0328 7.85514 11.0328C7.20952 11.0328 6.68555 11.5568 6.68555 12.2024C6.68555 12.6796 6.96625 13.0819 7.37794 13.2691C7.35923 13.3814 7.34987 13.503 7.34987 13.6246C7.34987 15.4211 9.43642 16.8714 12.0189 16.8714C14.6013 16.8714 16.6879 15.4211 16.6879 13.6246C16.6879 13.503 16.6785 13.3907 16.6598 13.2784C17.0434 13.0913 17.3335 12.6796 17.3335 12.2024ZM9.3335 13.0352C9.3335 12.5767 9.70777 12.2024 10.1662 12.2024C10.6247 12.2024 10.999 12.5767 10.999 13.0352C10.999 13.4936 10.6247 13.8679 10.1662 13.8679C9.70777 13.8679 9.3335 13.4936 9.3335 13.0352ZM13.9838 15.234C13.413 15.8048 12.3277 15.8422 12.0095 15.8422C11.6914 15.8422 10.5967 15.7954 10.0353 15.234C9.95104 15.1498 9.95104 15.0094 10.0353 14.9252C10.1195 14.841 10.2598 14.841 10.344 14.9252C10.6996 15.2808 11.4668 15.4118 12.0189 15.4118C12.5709 15.4118 13.3288 15.2808 13.6937 14.9252C13.7779 14.841 13.9183 14.841 14.0025 14.9252C14.068 15.0188 14.068 15.1498 13.9838 15.234ZM13.8341 13.8679C13.3756 13.8679 13.0013 13.4936 13.0013 13.0352C13.0013 12.5767 13.3756 12.2024 13.8341 12.2024C14.2926 12.2024 14.6668 12.5767 14.6668 13.0352C14.6668 13.4936 14.2926 13.8679 13.8341 13.8679Z" fill="#FF4500"/>
</g>
<defs>
<clipPath id="clip0_3802_3221">
<rect width="16" height="16" fill="white" transform="translate(4 4.20239)"/>
</clipPath>
</defs>
</svg>
