<svg width="19" height="4" viewBox="0 0 19 4" fill="none" xmlns="http://www.w3.org/2000/svg">
<path fill-rule="evenodd" clip-rule="evenodd" d="M4 2C4 3.10457 3.10457 4 2 4C0.895431 4 0 3.10457 0 2C0 0.895431 0.895431 0 2 0C3.10457 0 4 0.895431 4 2ZM11.5 2C11.5 3.10457 10.6046 4 9.5 4C8.39543 4 7.5 3.10457 7.5 2C7.5 0.895431 8.39543 0 9.5 0C10.6046 0 11.5 0.895431 11.5 2ZM17 4C18.1046 4 19 3.10457 19 2C19 0.895431 18.1046 0 17 0C15.8954 0 15 0.895431 15 2C15 3.10457 15.8954 4 17 4Z" fill="white"/>
</svg>
