<svg width="88" height="88" viewBox="0 0 88 88" fill="none" xmlns="http://www.w3.org/2000/svg">
<circle cx="44" cy="44" r="44" fill="#E84142"/>
<path fill-rule="evenodd" clip-rule="evenodd" d="M46.6331 13.0614C45.1086 10.4283 42.6834 10.4283 41.159 13.0614L13.4771 61.8079C11.9527 64.4756 13.2 66.589 16.2488 66.589H30.1417C32.948 66.4157 35.4771 64.926 37.0016 62.5701L53.7354 33.5716C54.948 31.0772 54.948 28.1323 53.7354 25.6378L48.7464 16.8724L46.6331 13.0614ZM65.0299 45.1433C63.5055 42.5102 61.0457 42.5102 59.5213 45.1433L49.8551 61.8079C48.3653 64.441 49.6126 66.589 52.6268 66.589H71.7512C74.8 66.589 76.0472 64.441 74.5228 61.8079L65.0299 45.1433Z" fill="white"/>
</svg>
