<svg width="88" height="88" viewBox="0 0 88 88" fill="none" xmlns="http://www.w3.org/2000/svg">
<rect width="88" height="88" rx="44" fill="white"/>
<g clip-path="url(#clip0_12085_5103)">
<path d="M26.474 64.5333L33.2855 52.7793L40.0971 41.0667L46.8671 29.3126L47.9885 27.4502L48.4869 29.3126L50.5636 37.0521L48.2377 41.0667L41.4262 52.7793L34.6561 64.5333H42.7968L49.6084 52.7793L53.1387 46.6954L54.8001 52.7793L57.9567 64.5333H65.2666L62.1101 52.7793L58.9535 41.0667L58.1228 38.0454L63.1899 29.3126H55.7969L55.5477 28.4435L52.9726 18.8416L52.6403 17.6H45.538L45.3719 17.8483L38.7265 29.3126L31.9149 41.0667L25.1449 52.7793L18.3333 64.5333H26.474Z" fill="black"/>
</g>
<defs>
<clipPath id="clip0_12085_5103">
<rect width="46.9333" height="46.9333" fill="white" transform="translate(18.3333 17.6)"/>
</clipPath>
</defs>
</svg>
