<svg width="120" height="120" viewBox="0 0 120 120" fill="none" xmlns="http://www.w3.org/2000/svg">
<rect width="120" height="120" rx="60" fill="white"/>
<g clip-path="url(#clip0_10033_3680)">
<path d="M36.1009 88L45.3894 71.9718L54.6779 56L63.9097 39.9718L65.4389 37.4321L66.1186 39.9718L68.9504 50.5256L65.7788 56L56.4903 71.9718L47.2584 88H58.3593L67.6478 71.9718L72.4619 63.6755L74.7274 71.9718L79.0319 88H89L84.6956 71.9718L80.3912 56L79.2584 51.8801L86.1681 39.9718H76.0867L75.7469 38.7866L72.2354 25.6931L71.7823 24H62.0973L61.8708 24.3386L52.8088 39.9718L43.5204 56L34.2885 71.9718L25 88H36.1009Z" fill="black"/>
</g>
<defs>
<clipPath id="clip0_10033_3680">
<rect width="64" height="64" fill="white" transform="translate(25 24)"/>
</clipPath>
</defs>
</svg>
