<svg width="128" height="128" viewBox="0 0 128 128" fill="none" xmlns="http://www.w3.org/2000/svg">
<rect width="128" height="128" rx="64" fill="white"/>
<g clip-path="url(#clip0_392_46)">
<path d="M37.3965 106L49.4425 85.2134L61.4885 64.5L73.4611 43.7134L75.4442 40.4198L76.3257 43.7134L79.9982 57.4004L75.885 64.5L63.8389 85.2134L51.8664 106H66.2628L78.3089 85.2134L84.5522 74.4541L87.4903 85.2134L93.0726 106H106L100.418 85.2134L94.8354 64.5L93.3664 59.157L102.327 43.7134H89.2531L88.8124 42.1764L84.2584 25.1958L83.6708 23H71.1106L70.8168 23.4392L59.0646 43.7134L47.0186 64.5L35.046 85.2134L23 106H37.3965Z" fill="black"/>
</g>
<defs>
<clipPath id="clip0_392_46">
<rect width="83" height="83" fill="white" transform="translate(23 23)"/>
</clipPath>
</defs>
</svg>
