<svg width="24" height="25" viewBox="0 0 24 25" fill="none" xmlns="http://www.w3.org/2000/svg">
<rect y="0.575195" width="24" height="24" rx="8" fill="#32BBF5"/>
<path d="M11.9997 19.2418C15.6816 19.2418 18.6663 16.257 18.6663 12.5751C18.6663 8.89322 15.6816 5.90845 11.9997 5.90845C8.31778 5.90845 5.33301 8.89322 5.33301 12.5751C5.33301 16.257 8.31778 19.2418 11.9997 19.2418Z" stroke="white" stroke-width="1.2" stroke-linecap="round" stroke-linejoin="round"/>
<path d="M5.33301 12.5752H18.6663" stroke="white" stroke-width="1.2" stroke-linecap="round" stroke-linejoin="round"/>
<path d="M12.0003 19.2418C13.289 19.2418 14.3337 16.257 14.3337 12.5751C14.3337 8.89322 13.289 5.90845 12.0003 5.90845C10.7117 5.90845 9.66699 8.89322 9.66699 12.5751C9.66699 16.257 10.7117 19.2418 12.0003 19.2418Z" stroke="white" stroke-width="1.2" stroke-linecap="round" stroke-linejoin="round"/>
</svg>
