<svg width="24" height="25" viewBox="0 0 24 25" fill="none" xmlns="http://www.w3.org/2000/svg">
<rect y="0.575195" width="24" height="24" rx="8" fill="url(#paint0_linear_3790_3302)"/>
<g clip-path="url(#clip0_3790_3302)">
<path d="M12 6.01582C14.1375 6.01582 14.3906 6.0252 15.2313 6.0627C16.0125 6.09707 16.4344 6.22832 16.7156 6.3377C17.0875 6.48145 17.3563 6.65645 17.6344 6.93457C17.9156 7.21582 18.0875 7.48145 18.2313 7.85332C18.3406 8.13457 18.4719 8.55957 18.5063 9.3377C18.5438 10.1814 18.5531 10.4346 18.5531 12.5689C18.5531 14.7064 18.5438 14.9596 18.5063 15.8002C18.4719 16.5814 18.3406 17.0033 18.2313 17.2846C18.0875 17.6564 17.9125 17.9252 17.6344 18.2033C17.3531 18.4846 17.0875 18.6564 16.7156 18.8002C16.4344 18.9096 16.0094 19.0408 15.2313 19.0752C14.3875 19.1127 14.1344 19.1221 12 19.1221C9.8625 19.1221 9.60938 19.1127 8.76875 19.0752C7.9875 19.0408 7.56563 18.9096 7.28438 18.8002C6.9125 18.6564 6.64375 18.4814 6.36563 18.2033C6.08438 17.9221 5.9125 17.6564 5.76875 17.2846C5.65938 17.0033 5.52813 16.5783 5.49375 15.8002C5.45625 14.9564 5.44688 14.7033 5.44688 12.5689C5.44688 10.4314 5.45625 10.1783 5.49375 9.3377C5.52813 8.55645 5.65938 8.13457 5.76875 7.85332C5.9125 7.48145 6.0875 7.2127 6.36563 6.93457C6.64688 6.65332 6.9125 6.48145 7.28438 6.3377C7.56563 6.22832 7.99063 6.09707 8.76875 6.0627C9.60938 6.0252 9.8625 6.01582 12 6.01582ZM12 4.5752C9.82813 4.5752 9.55625 4.58457 8.70313 4.62207C7.85313 4.65957 7.26875 4.79707 6.7625 4.99395C6.23438 5.2002 5.7875 5.47207 5.34375 5.91895C4.89688 6.3627 4.625 6.80957 4.41875 7.33457C4.22187 7.84395 4.08438 8.4252 4.04688 9.2752C4.00938 10.1314 4 10.4033 4 12.5752C4 14.7471 4.00938 15.0189 4.04688 15.8721C4.08438 16.7221 4.22187 17.3064 4.41875 17.8127C4.625 18.3408 4.89688 18.7877 5.34375 19.2314C5.7875 19.6752 6.23438 19.9502 6.75938 20.1533C7.26875 20.3502 7.85 20.4877 8.7 20.5252C9.55313 20.5627 9.825 20.5721 11.9969 20.5721C14.1688 20.5721 14.4406 20.5627 15.2938 20.5252C16.1438 20.4877 16.7281 20.3502 17.2344 20.1533C17.7594 19.9502 18.2063 19.6752 18.65 19.2314C19.0938 18.7877 19.3688 18.3408 19.5719 17.8158C19.7688 17.3064 19.9063 16.7252 19.9438 15.8752C19.9813 15.0221 19.9906 14.7502 19.9906 12.5783C19.9906 10.4064 19.9813 10.1346 19.9438 9.28145C19.9063 8.43145 19.7688 7.84707 19.5719 7.34082C19.375 6.80957 19.1031 6.3627 18.6563 5.91895C18.2125 5.4752 17.7656 5.2002 17.2406 4.99707C16.7313 4.8002 16.15 4.6627 15.3 4.6252C14.4438 4.58457 14.1719 4.5752 12 4.5752Z" fill="white"/>
<path d="M12 8.46582C9.73125 8.46582 7.89062 10.3064 7.89062 12.5752C7.89062 14.8439 9.73125 16.6846 12 16.6846C14.2688 16.6846 16.1094 14.8439 16.1094 12.5752C16.1094 10.3064 14.2688 8.46582 12 8.46582ZM12 15.2408C10.5281 15.2408 9.33437 14.0471 9.33437 12.5752C9.33437 11.1033 10.5281 9.90957 12 9.90957C13.4719 9.90957 14.6656 11.1033 14.6656 12.5752C14.6656 14.0471 13.4719 15.2408 12 15.2408Z" fill="white"/>
<path d="M17.2312 8.30337C17.2312 8.83462 16.8 9.26275 16.2719 9.26275C15.7406 9.26275 15.3125 8.8315 15.3125 8.30337C15.3125 7.77212 15.7438 7.34399 16.2719 7.34399C16.8 7.34399 17.2312 7.77524 17.2312 8.30337Z" fill="white"/>
</g>
<defs>
<linearGradient id="paint0_linear_3790_3302" x1="23.5387" y1="24.5752" x2="-0.461279" y2="0.575195" gradientUnits="userSpaceOnUse">
<stop stop-color="#FBE18A"/>
<stop offset="0.21" stop-color="#FCBB45"/>
<stop offset="0.38" stop-color="#F75274"/>
<stop offset="0.52" stop-color="#D53692"/>
<stop offset="0.74" stop-color="#8F39CE"/>
<stop offset="1" stop-color="#5B4FE9"/>
</linearGradient>
<clipPath id="clip0_3790_3302">
<rect width="16" height="16" fill="white" transform="translate(4 4.5752)"/>
</clipPath>
</defs>
</svg>
