<svg width="24" height="24" viewBox="0 0 24 24" fill="none" xmlns="http://www.w3.org/2000/svg">
<path d="M6.13729 4.34168C6.33781 4.08984 6.64218 3.94312 6.9641 3.94312L17.0359 3.94312C17.3578 3.94312 17.6622 4.08984 17.8627 4.34169L22.0703 9.62619C22.4226 10.0686 22.3641 10.71 21.9377 11.0814L12.6828 19.1433C12.2846 19.4902 11.6915 19.4899 11.2936 19.1426L2.06023 11.0823C1.63451 10.7106 1.57646 10.0699 1.92846 9.62776L6.13729 4.34168L5.41409 3.76587L6.13729 4.34168Z" stroke="white" stroke-width="1.88624"/>
<line x1="1.52545" y1="10.3491" x2="22.5763" y2="10.3491" stroke="white" stroke-width="1.88624"/>
<line y1="-0.943119" x2="17.4815" y2="-0.943119" transform="matrix(0.349038 -0.937109 0.938383 0.345597 12.1017 20.2922)" stroke="white" stroke-width="1.88624"/>
<line y1="-0.943119" x2="17.4815" y2="-0.943119" transform="matrix(0.349038 0.937109 0.938383 -0.345597 6.91522 3.10107)" stroke="white" stroke-width="1.88624"/>
</svg>
