<svg width="88" height="88" viewBox="0 0 88 88" fill="none" xmlns="http://www.w3.org/2000/svg">
<path d="M86.6737 54.6438C80.7972 78.2155 56.9229 92.5607 33.3485 86.6827C9.78389 80.8062 -4.56136 56.9304 1.31774 33.3607C7.19167 9.78644 31.0659 -4.55989 54.6331 1.31663C78.2058 7.19315 92.5502 31.0715 86.6731 54.6442L86.6735 54.6438H86.6737Z" fill="#23292F"/>
<path d="M65.6348 18.3333H74.514L56.0358 36.6291C49.344 43.2513 38.4947 43.2513 31.7982 36.6291L13.3128 18.3333H22.1991L36.2377 32.2316C40.4938 36.4263 47.3294 36.4263 51.5854 32.2316L65.6348 18.3333Z" fill="white"/>
<path d="M22.0851 69.2084H13.2L31.7982 50.7998C38.4899 44.1776 49.3392 44.1776 56.0358 50.7998L74.634 69.2084H65.7548L51.5962 55.1973C47.3402 51.0026 40.5046 51.0026 36.2485 55.1973L22.0851 69.2084Z" fill="white"/>
</svg>
