<svg width="120" height="120" viewBox="0 0 120 120" fill="none" xmlns="http://www.w3.org/2000/svg">
<path d="M118.191 74.5143C110.178 106.657 77.6222 126.219 45.4752 118.204C13.3417 110.19 -6.22004 77.6324 1.79691 45.4918C9.80683 13.3451 42.3626 -6.21803 74.4997 1.79541C106.644 9.80884 126.205 42.3702 118.191 74.5149L118.191 74.5143H118.191Z" fill="#23292F"/>
<path d="M89.5021 25H101.61L76.4124 49.9488C67.2873 58.979 52.4928 58.979 43.3611 49.9488L18.1538 25H30.2715L49.4151 43.9521C55.2188 49.6722 64.54 49.6722 70.3438 43.9521L89.5021 25Z" fill="white"/>
<path d="M30.1161 94.375H18L43.3611 69.2724C52.4862 60.2422 67.2808 60.2422 76.4124 69.2724L101.774 94.375H89.6657L70.3585 75.2691C64.5548 69.549 55.2335 69.549 49.4298 75.2691L30.1161 94.375Z" fill="white"/>
</svg>
