<svg width="48" height="48" viewBox="0 0 48 48" fill="none" xmlns="http://www.w3.org/2000/svg">
<rect width="48" height="48" rx="24" fill="black"/>
<rect width="48" height="48" rx="24" fill="#7715F5"/>
<path d="M34.4643 18.2715C35.4009 18.2715 36.3165 17.9938 37.0953 17.4734C37.8741 16.953 38.4811 16.2134 38.8395 15.3481C39.1979 14.4827 39.2917 13.5305 39.109 12.6119C38.9263 11.6933 38.4753 10.8494 37.8129 10.1871C37.1506 9.52479 36.3068 9.07377 35.3882 8.89102C34.4695 8.70833 33.5173 8.80211 32.652 9.16055C31.7867 9.51899 31.047 10.126 30.5267 10.9048C30.0063 11.6835 29.7286 12.5992 29.7286 13.5358C29.7285 14.1577 29.851 14.7735 30.089 15.3481C30.3269 15.9227 30.6758 16.4448 31.1155 16.8845C31.5553 17.3243 32.0774 17.6731 32.6519 17.9111C33.2265 18.1491 33.8424 18.2715 34.4643 18.2715ZM19.9434 39.6C17.6603 39.6 15.4285 38.9231 13.5302 37.6547C11.6319 36.3863 10.1524 34.5834 9.27867 32.4742C8.40499 30.3649 8.17638 28.0439 8.62183 25.8047C9.06722 23.5655 10.1666 21.5087 11.781 19.8943C13.3953 18.2799 15.4522 17.1806 17.6914 16.7351C19.9306 16.2897 22.2515 16.5183 24.3608 17.392C26.4701 18.2658 28.2729 19.7453 29.5413 21.6436C30.8097 23.5419 31.4867 25.7737 31.4867 28.0567C31.4867 29.5727 31.1881 31.0737 30.6081 32.4742C30.028 33.8747 29.1777 35.1473 28.1058 36.2192C27.0339 37.2911 25.7614 38.1414 24.3608 38.7215C22.9603 39.3016 21.4592 39.6001 19.9434 39.6Z" fill="white"/>
</svg>
