<svg width="48" height="48" viewBox="0 0 48 48" fill="none" xmlns="http://www.w3.org/2000/svg">
<g clip-path="url(#clip0_13434_10432)">
<path d="M24 48C37.2857 48 48 37.2857 48 24C48 10.7143 37.2857 0 24 0C10.7143 0 0 10.7143 0 24C0 37.2857 10.7143 48 24 48Z" fill="#EBE8E1"/>
<path d="M12.0635 21.2727C13.0535 26.8827 26.2341 28.742 33.1814 28.645C33.4218 28.6417 33.609 28.4448 33.609 28.2044C33.609 27.983 33.4484 27.7957 33.229 27.7661C26.0427 26.7946 15.322 26.096 14.5181 21.2727C14.0202 18.2854 27.9869 13.5117 33.1812 12.6649C33.728 12.5758 34.1544 12.115 34.1544 11.5609C34.1544 10.9261 33.6013 10.4349 32.9752 10.5396C24.9865 11.8757 11.2852 16.8622 12.0635 21.2727Z" fill="#0D0E22"/>
<path d="M12.0635 23.4546C13.0535 29.0645 26.2341 30.9239 33.1814 30.8268C33.4218 30.8235 33.609 30.6266 33.609 30.3862C33.609 30.1648 33.4484 29.9776 33.229 29.9479C26.0427 28.9765 15.322 28.2779 14.5181 23.4546C14.0202 20.4672 27.9869 15.6936 33.1812 14.8468C33.728 14.7576 34.1544 14.2968 34.1544 13.7428C34.1544 13.108 33.6013 12.6167 32.9752 12.7214C24.9865 14.0575 11.2852 19.044 12.0635 23.4546Z" fill="#0030FF"/>
<path d="M12.0635 25.6364C13.0535 31.2463 26.2341 33.1057 33.1814 33.0087C33.4218 33.0053 33.609 32.8084 33.609 32.568C33.609 32.3466 33.4484 32.1594 33.229 32.1297C26.0427 31.1583 15.322 30.4597 14.5181 25.6364C14.0202 22.649 27.9869 17.8754 33.1812 17.0286C33.728 16.9394 34.1544 16.4786 34.1544 15.9246C34.1544 15.2898 33.6013 14.7985 32.9752 14.9032C24.9865 16.2393 11.2852 21.2258 12.0635 25.6364Z" fill="#97A9FF"/>
<path d="M12.0635 27.8182C13.0535 33.4281 26.2341 35.2875 33.1814 35.1905C33.4218 35.1871 33.609 34.9903 33.609 34.7498C33.609 34.5285 33.4484 34.3412 33.229 34.3115C26.0427 33.3401 15.322 32.6415 14.5181 27.8182C14.0202 24.8309 27.9869 20.0572 33.1812 19.2104C33.728 19.1213 34.1544 18.6604 34.1544 18.1064C34.1544 17.4716 33.6013 16.9803 32.9752 17.085C24.9865 18.4211 11.2852 23.4076 12.0635 27.8182Z" fill="#F8F4DD"/>
<path d="M12.0318 29.7273C13.0218 35.3372 26.2023 37.1966 33.1496 37.0995C33.39 37.0962 33.5772 36.8993 33.5772 36.6589C33.5772 36.4375 33.4166 36.2503 33.1972 36.2206C26.0109 35.2492 15.2902 34.5506 14.4863 29.7273C13.9884 26.7399 27.9551 21.9663 33.1495 21.1195C33.6963 21.0303 34.1227 20.5695 34.1227 20.0155C34.1227 19.3807 33.5696 18.8894 32.9435 18.9941C24.9547 20.3302 11.2534 25.3167 12.0318 29.7273Z" fill="#FF1100"/>
</g>
<defs>
<clipPath id="clip0_13434_10432">
<rect width="48" height="48" fill="white"/>
</clipPath>
</defs>
</svg>
