<svg width="88" height="88" viewBox="0 0 88 88" fill="none" xmlns="http://www.w3.org/2000/svg">
<g clip-path="url(#clip0_12085_5048)">
<path d="M44 88C68.3571 88 88 68.3571 88 44C88 19.6429 68.3571 0 44 0C19.6429 0 0 19.6429 0 44C0 68.3571 19.6429 88 44 88Z" fill="#0098EA"/>
<path d="M59.0857 24.5142H28.9143C23.4143 24.5142 19.9572 30.4856 22.6286 35.3571L41.1714 67.5714C42.4286 69.6142 45.4143 69.6142 46.6714 67.5714L65.2143 35.3571C68.0429 30.4856 64.5857 24.5142 59.0857 24.5142ZM41.3286 57.8285L37.2429 49.9714L27.5 32.5285C26.8714 31.4285 27.6572 30.0142 29.0714 30.0142H41.3286V57.8285ZM60.5 32.5285L50.7572 49.9714L46.6714 57.8285V30.0142H58.9286C60.3429 30.0142 61.1286 31.4285 60.5 32.5285Z" fill="white"/>
</g>
<defs>
<clipPath id="clip0_12085_5048">
<rect width="88" height="88" fill="white"/>
</clipPath>
</defs>
</svg>
