<svg width="120" height="120" viewBox="0 0 120 120" fill="none" xmlns="http://www.w3.org/2000/svg">
<g clip-path="url(#clip0_9925_23282)">
<path d="M60 120C93.2143 120 120 93.2143 120 60C120 26.7857 93.2143 0 60 0C26.7857 0 0 26.7857 0 60C0 93.2143 26.7857 120 60 120Z" fill="#0098EA"/>
<path d="M80.5715 33.4285H39.4286C31.9286 33.4285 27.2143 41.5713 30.8572 48.2142L56.1429 92.1428C57.8572 94.9285 61.9286 94.9285 63.6429 92.1428L88.9286 48.2142C92.7857 41.5713 88.0715 33.4285 80.5715 33.4285ZM56.3572 78.857L50.7857 68.1428L37.5 44.357C36.6429 42.857 37.7143 40.9285 39.6429 40.9285H56.3572V78.857ZM82.5 44.357L69.2143 68.1428L63.6429 78.857V40.9285H80.3572C82.2857 40.9285 83.3572 42.857 82.5 44.357Z" fill="white"/>
</g>
<defs>
<clipPath id="clip0_9925_23282">
<rect width="120" height="120" fill="white"/>
</clipPath>
</defs>
</svg>
