<svg width="120" height="120" viewBox="0 0 120 120" fill="none" xmlns="http://www.w3.org/2000/svg">
<g clip-path="url(#clip0_10976_4316)">
<path d="M60 120C93.1371 120 120 93.1371 120 60C120 26.8629 93.1371 0 60 0C26.8629 0 0 26.8629 0 60C0 93.1371 26.8629 120 60 120Z" fill="#814625"/>
<path d="M57.7623 56.9617C57.6963 56.7624 57.6502 56.558 57.6146 56.3516C57.5983 56.256 57.5791 56.1607 57.5576 56.0662C57.5105 55.8609 57.4582 55.6567 57.4018 55.4537C58.3374 54.0894 62.8102 46.9734 57.7203 42.4063C52.0713 37.3374 45.4709 43.9813 45.4709 43.9813L45.4914 44.0107C42.5248 43.1424 39.308 43.0406 36.1784 43.9809C36.1398 43.9421 29.561 37.3522 23.9287 42.4063C18.2944 47.4619 24.3785 55.641 24.4102 55.6837C24.3455 55.8759 24.2932 56.0726 24.2587 56.2719C23.6491 59.772 19.4998 60.8522 19.4998 66.9489C19.4998 73.0455 23.8406 78.0602 32.7007 78.0602H36.3363C36.3526 78.0825 37.85 80.126 40.9237 80.1238C43.7771 80.1217 45.6614 78.0776 45.6778 78.0602H49.1469C58.007 78.0602 62.3478 73.1632 62.3478 66.9489C62.3478 61.2714 58.7491 59.9441 57.7623 56.9617Z" fill="white"/>
<path d="M100.104 49.9958C100.104 49.9958 100.763 44.1197 95.7538 42.8571V40.5004H91.8748V42.7982C86.5913 43.924 87.2721 49.9958 87.2721 49.9958V51.0032C87.2721 51.0032 86.5909 57.0764 91.8767 58.201L91.8761 63.2453C86.307 64.2226 87.0107 70.4937 87.0107 70.4937V71.5011C87.0107 71.5011 86.3295 77.5729 91.6133 78.6985V80.9965H95.4923V78.6398C100.501 77.3772 99.8421 71.5011 99.8421 71.5011C100.061 71.5011 100.239 71.3301 100.239 71.1194V70.8756C100.239 70.6647 100.061 70.4937 99.8421 70.4937C99.8421 70.4937 100.496 64.6686 95.5571 63.3721V58.201H95.4988C100.785 57.0764 100.103 51.0032 100.103 51.0032C100.322 51.0032 100.5 50.8322 100.5 50.6213V50.3776C100.5 50.1668 100.322 49.9958 100.104 49.9958ZM96.9426 70.4937H96.5876C96.3688 70.4937 96.1913 70.6647 96.1913 70.8756V71.1194C96.1913 71.3301 96.3688 71.5011 96.5876 71.5011H96.9426C96.9426 75.1461 95.6858 75.7594 95.2629 75.8627C95.1934 75.8796 95.1259 75.8299 95.1259 75.7609V74.5992C95.1259 73.9568 94.701 73.6051 94.2761 73.4136C93.7389 73.1717 93.1134 73.1717 92.5764 73.4136C92.1516 73.6051 91.7265 73.9568 91.7265 74.5992V75.7609C91.7265 75.829 91.6603 75.8798 91.5919 75.8631C91.1715 75.7617 89.91 75.1532 89.91 71.5011V70.4937C89.91 66.8487 91.1666 66.2354 91.5896 66.1322C91.659 66.1154 91.7265 66.1649 91.7265 66.2339V67.3958C91.7265 68.038 92.1516 68.3899 92.5764 68.5814C93.1134 68.823 93.7389 68.823 94.2761 68.5814C94.701 68.3899 95.1259 68.038 95.1259 67.3958V66.2339C95.1259 66.166 95.1921 66.115 95.2605 66.1317C95.6811 66.2331 96.9426 66.8417 96.9426 70.4937ZM96.8492 51.0032H97.2039C97.2039 54.6552 95.9426 55.264 95.5221 55.3652C95.4536 55.3819 95.3874 55.3309 95.3874 55.2631V54.1011C95.3874 53.4589 94.9626 53.107 94.5375 52.9156C94.0005 52.6739 93.375 52.6739 92.8378 52.9156C92.4129 53.107 91.9881 53.4589 91.9881 54.1011V55.2631C91.9881 55.3321 91.9206 55.3815 91.851 55.3647C91.4282 55.2615 90.1716 54.6482 90.1716 51.0032V49.9958C90.1716 46.3437 91.4329 45.7349 91.8534 45.6336C91.9219 45.6171 91.9881 45.6683 91.9881 45.736V46.8977C91.9881 47.5401 92.4129 47.8919 92.8378 48.0833C93.375 48.3252 94.0005 48.3252 94.5375 48.0833C94.9626 47.8919 95.3874 47.5401 95.3874 46.8977V45.736C95.3874 45.667 95.4549 45.6173 95.5245 45.6342C95.9473 45.7375 97.2039 46.3508 97.2039 49.9958H96.8492C96.6302 49.9958 96.4526 50.1668 96.4526 50.3776V50.6213C96.4526 50.8322 96.6302 51.0032 96.8492 51.0032Z" fill="white"/>
<path d="M80.6924 60.3726C80.6924 60.3726 81.3774 54.2655 76.0436 53.1657V47.6791C81.2354 46.5072 80.5618 40.5004 80.5618 40.5004C80.5618 40.5004 77.6501 40.5004 77.6621 40.5004C77.6621 44.1526 76.4008 44.7612 75.9802 44.8624C75.9118 44.8791 75.8456 44.8279 75.8456 44.7602V43.5983C75.8456 42.9561 75.4207 42.6044 74.9956 42.4129C74.4586 42.171 73.8331 42.171 73.296 42.4129C72.8711 42.6044 72.4462 42.9561 72.4462 43.5983V44.7602C72.4462 44.8292 72.3787 44.8789 72.3091 44.862C71.8863 44.7587 70.6297 44.1454 70.6297 40.5004C70.6419 40.5004 67.73 40.5004 67.73 40.5004C67.73 40.5004 67.031 46.7337 72.5452 47.7396V53.1582C67.1728 54.2382 67.8607 60.3722 67.8607 60.3722V61.3797C67.8607 61.3797 67.1728 67.5139 72.5452 68.5939V73.7607C67.031 74.7668 67.73 80.9997 67.73 80.9997C67.73 80.9997 70.6417 80.9997 70.6297 80.9997C70.6297 77.3477 71.891 76.7389 72.3116 76.6377C72.38 76.621 72.4462 76.672 72.4462 76.7399V77.9018C72.4462 78.544 72.8711 78.8959 73.296 79.0874C73.8331 79.3291 74.4586 79.3291 74.9956 79.0874C75.4207 78.8959 75.8456 78.544 75.8456 77.9018V76.7399C75.8456 76.6709 75.9131 76.6214 75.9826 76.6382C76.4054 76.7414 77.6621 77.3547 77.6621 80.9997C77.6499 80.9997 80.5618 80.9997 80.5618 80.9997C80.5618 80.9997 81.2354 74.9929 76.0436 73.821V68.5864C81.3774 67.4864 80.6924 61.3795 80.6924 61.3795C80.9114 61.3795 81.089 61.2085 81.089 60.9977V60.7538C81.089 60.5431 80.9114 60.3726 80.6924 60.3726ZM77.438 61.3801H77.7928C77.7928 65.032 76.5314 65.6408 76.1109 65.7421C76.0424 65.7587 75.9763 65.7077 75.9763 65.6399V64.4779C75.9763 63.8357 75.5514 63.4838 75.1265 63.2924C74.5893 63.0507 73.9638 63.0507 73.4268 63.2924C73.0018 63.4838 72.5769 63.8357 72.5769 64.4779V65.6399C72.5769 65.7089 72.5094 65.7584 72.4398 65.7415C72.017 65.6382 70.7604 65.025 70.7604 61.3801V60.3726C70.7604 56.7205 72.0217 56.1117 72.4423 56.0104C72.5107 55.9939 72.5769 56.0449 72.5769 56.1128V57.2745C72.5769 57.9169 73.0018 58.2687 73.4268 58.4601C73.9638 58.702 74.5893 58.702 75.1265 58.4601C75.5514 58.2687 75.9763 57.9169 75.9763 57.2745V56.1128C75.9763 56.0438 76.0438 55.9941 76.1133 56.011C76.5361 56.1143 77.7928 56.7276 77.7928 60.3726H77.438C77.2192 60.3726 77.0416 60.5436 77.0416 60.7544V60.9981C77.0416 61.209 77.2192 61.3801 77.438 61.3801Z" fill="white"/>
</g>
<defs>
<clipPath id="clip0_10976_4316">
<rect width="120" height="120" fill="white"/>
</clipPath>
</defs>
</svg>
