<svg width="88" height="88" viewBox="0 0 88 88" fill="none" xmlns="http://www.w3.org/2000/svg">
<g clip-path="url(#clip0_12085_5217)">
<path d="M44 88C68.3005 88 88 68.3005 88 44C88 19.6995 68.3005 0 44 0C19.6995 0 0 19.6995 0 44C0 68.3005 19.6995 88 44 88Z" fill="#814625"/>
<path d="M42.359 41.7719C42.3106 41.6258 42.2768 41.4759 42.2507 41.3245C42.2387 41.2544 42.2247 41.1845 42.2089 41.1152C42.1744 40.9647 42.136 40.8149 42.0946 40.666C42.7807 39.6656 46.0608 34.4472 42.3282 31.0979C38.1856 27.3808 33.3453 32.2529 33.3453 32.2529L33.3603 32.2745C31.1848 31.6378 28.8259 31.5631 26.5308 32.2527C26.5025 32.2242 21.6781 27.3916 17.5477 31.0979C13.4159 34.8054 17.8776 40.8034 17.9008 40.8347C17.8534 40.9757 17.815 41.1199 17.7897 41.2661C17.3427 43.8328 14.2998 44.6249 14.2998 49.0959C14.2998 53.5667 17.4831 57.2441 23.9805 57.2441H26.6466C26.6586 57.2605 27.7567 58.7591 30.0107 58.7574C32.1032 58.7559 33.485 57.2569 33.497 57.2441H36.041C42.5385 57.2441 45.7217 53.653 45.7217 49.0959C45.7217 44.9324 43.0827 43.959 42.359 41.7719Z" fill="white"/>
<path d="M73.4094 36.6636C73.4094 36.6636 73.8925 32.3545 70.2195 31.4286V29.7003H67.3749V31.3854C63.5003 32.2109 63.9995 36.6636 63.9995 36.6636V37.4024C63.9995 37.4024 63.5 41.856 67.3763 42.6807L67.3759 46.3799C63.2918 47.0965 63.8079 51.6954 63.8079 51.6954V52.4342C63.8079 52.4342 63.3083 56.8868 67.1831 57.7122V59.3974H70.0277V57.6692C73.701 56.7433 73.2175 52.4342 73.2175 52.4342C73.3781 52.4342 73.5084 52.3088 73.5084 52.1542V51.9755C73.5084 51.8208 73.3781 51.6954 73.2175 51.6954C73.2175 51.6954 73.6969 47.4237 70.0753 46.4728V42.6807H70.0325C73.9088 41.856 73.4092 37.4024 73.4092 37.4024C73.5697 37.4024 73.6999 37.277 73.6999 37.1223V36.9435C73.6999 36.789 73.5698 36.6636 73.4094 36.6636ZM71.0912 51.6954H70.831C70.6705 51.6954 70.5403 51.8208 70.5403 51.9755V52.1542C70.5403 52.3088 70.6705 52.4342 70.831 52.4342H71.0912C71.0912 55.1072 70.1696 55.5569 69.8595 55.6327C69.8085 55.6451 69.759 55.6086 69.759 55.558V54.7061C69.759 54.235 69.4474 53.977 69.1359 53.8367C68.7419 53.6593 68.2832 53.6593 67.8894 53.8367C67.5778 53.977 67.2661 54.235 67.2661 54.7061V55.558C67.2661 55.6079 67.2176 55.6452 67.1674 55.633C66.8591 55.5586 65.934 55.1124 65.934 52.4342V51.6954C65.934 49.0224 66.8556 48.5726 67.1658 48.497C67.2166 48.4846 67.2661 48.5209 67.2661 48.5715V49.4236C67.2661 49.8945 67.5778 50.1526 67.8894 50.293C68.2832 50.4702 68.7419 50.4702 69.1359 50.293C69.4474 50.1526 69.759 49.8945 69.759 49.4236V48.5715C69.759 48.5217 69.8075 48.4843 69.8577 48.4966C70.1661 48.571 71.0912 49.0173 71.0912 51.6954ZM71.0228 37.4024H71.2829C71.2829 40.0805 70.358 40.5269 70.0495 40.6012C69.9994 40.6134 69.9508 40.576 69.9508 40.5262V39.6742C69.9508 39.2032 69.6392 38.9451 69.3275 38.8047C68.9337 38.6275 68.475 38.6275 68.0811 38.8047C67.7695 38.9451 67.4579 39.2032 67.4579 39.6742V40.5262C67.4579 40.5768 67.4084 40.6131 67.3574 40.6008C67.0474 40.5251 66.1258 40.0754 66.1258 37.4024V36.6636C66.1258 33.9854 67.0508 33.5389 67.3592 33.4647C67.4094 33.4526 67.4579 33.4901 67.4579 33.5397V34.3917C67.4579 34.8628 67.7695 35.1207 68.0811 35.2611C68.475 35.4385 68.9337 35.4385 69.3275 35.2611C69.6392 35.1207 69.9508 34.8628 69.9508 34.3917V33.5397C69.9508 33.4891 70.0003 33.4527 70.0513 33.4651C70.3614 33.5408 71.2829 33.9906 71.2829 36.6636H71.0228C70.8622 36.6636 70.732 36.789 70.732 36.9435V37.1223C70.732 37.277 70.8622 37.4024 71.0228 37.4024Z" fill="white"/>
<path d="M59.1745 44.2733C59.1745 44.2733 59.6767 39.7947 55.7653 38.9882V34.9646C59.5727 34.1053 59.0786 29.7003 59.0786 29.7003C59.0786 29.7003 56.9434 29.7003 56.9522 29.7003C56.9522 32.3785 56.0272 32.8249 55.7188 32.8991C55.6686 32.9114 55.6201 32.8738 55.6201 32.8242V31.9721C55.6201 31.5012 55.3085 31.2432 54.9968 31.1028C54.603 30.9254 54.1443 30.9254 53.7504 31.1028C53.4388 31.2432 53.1272 31.5012 53.1272 31.9721V32.8242C53.1272 32.8748 53.0777 32.9112 53.0267 32.8988C52.7166 32.8231 51.7951 32.3733 51.7951 29.7003C51.804 29.7003 49.6687 29.7003 49.6687 29.7003C49.6687 29.7003 49.1561 34.2714 53.1998 35.0091V38.9827C49.26 39.7747 49.7645 44.273 49.7645 44.273V45.0118C49.7645 45.0118 49.26 49.5102 53.1998 50.3022V54.0912C49.1561 54.829 49.6687 59.3998 49.6687 59.3998C49.6687 59.3998 51.8039 59.3998 51.7951 59.3998C51.7951 56.7217 52.7201 56.2752 53.0285 56.201C53.0787 56.1887 53.1272 56.2261 53.1272 56.2759V57.128C53.1272 57.5989 53.4388 57.857 53.7504 57.9974C54.1443 58.1746 54.603 58.1746 54.9968 57.9974C55.3085 57.857 55.6201 57.5989 55.6201 57.128V56.2759C55.6201 56.2253 55.6696 56.189 55.7206 56.2014C56.0307 56.277 56.9522 56.7268 56.9522 59.3998C56.9432 59.3998 59.0786 59.3998 59.0786 59.3998C59.0786 59.3998 59.5727 54.9948 55.7653 54.1354V50.2967C59.6767 49.49 59.1745 45.0116 59.1745 45.0116C59.3351 45.0116 59.4653 44.8862 59.4653 44.7317V44.5528C59.4653 44.3982 59.3351 44.2733 59.1745 44.2733ZM56.7879 45.012H57.048C57.048 47.6901 56.1231 48.1366 55.8146 48.2108C55.7645 48.2231 55.7159 48.1857 55.7159 48.1359V47.2838C55.7159 46.8129 55.4044 46.5548 55.0928 46.4144C54.6988 46.2372 54.2401 46.2372 53.8463 46.4144C53.5346 46.5548 53.223 46.8129 53.223 47.2838V48.1359C53.223 48.1865 53.1736 48.2228 53.1225 48.2104C52.8125 48.1347 51.8909 47.685 51.8909 45.012V44.2733C51.8909 41.595 52.8159 41.1486 53.1243 41.0743C53.1745 41.0622 53.223 41.0996 53.223 41.1494V42.0013C53.223 42.4724 53.5346 42.7304 53.8463 42.8708C54.2401 43.0481 54.6988 43.0481 55.0928 42.8708C55.4044 42.7304 55.7159 42.4724 55.7159 42.0013V41.1494C55.7159 41.0988 55.7654 41.0624 55.8164 41.0747C56.1265 41.1505 57.048 41.6003 57.048 44.2733H56.7879C56.6274 44.2733 56.4972 44.3987 56.4972 44.5532V44.732C56.4972 44.8866 56.6274 45.012 56.7879 45.012Z" fill="white"/>
</g>
<defs>
<clipPath id="clip0_12085_5217">
<rect width="88" height="88" fill="white"/>
</clipPath>
</defs>
</svg>
