<svg width="40" height="40" viewBox="0 0 40 40" fill="none" xmlns="http://www.w3.org/2000/svg">
<path d="M23.9725 32.6C25.51 32.6 26.3223 34.4432 25.2967 35.6024C24.6305 36.3574 23.8142 36.9613 22.9014 37.3745C21.9886 37.7877 20.9999 38.0008 20 38C19.0002 38.0008 18.0115 37.7877 17.0987 37.3745C16.1859 36.9613 15.3696 36.3574 14.7034 35.6024C13.7222 34.4936 14.4225 32.7602 15.8302 32.6126L16.0258 32.6018L23.9725 32.6Z" fill="#767A81"/>
<path d="M20 2C22.4137 2 24.4542 3.6254 25.1101 5.8538L25.1918 6.1616L25.2061 6.239C27.1654 7.35842 28.8351 8.93198 30.0783 10.8308C31.3215 12.7296 32.1028 14.8997 32.3583 17.1632L32.4081 17.6798L32.4419 18.2V23.4758L32.4792 23.7206C32.7226 25.0469 33.4473 26.2329 34.5108 27.0452L34.8076 27.2558L35.0955 27.434C36.6241 28.3106 36.0909 30.6128 34.4255 30.7892L34.2193 30.8H5.78078C3.95361 30.8 3.31552 28.3448 4.90452 27.434C5.58177 27.0459 6.16692 26.5123 6.6189 25.8708C7.07088 25.2293 7.37874 24.4954 7.52086 23.7206L7.55819 23.4632L7.55997 18.1172C7.66834 15.7662 8.34409 13.4779 9.52806 11.4526C10.712 9.42738 12.3681 7.72689 14.3514 6.5L14.7922 6.2372L14.81 6.1598C15.0614 5.08344 15.6328 4.11111 16.4472 3.37401C17.2615 2.6369 18.2794 2.17052 19.3637 2.0378L19.6872 2.0072L20 2Z" fill="#767A81"/>
</svg>
