<svg width="81" height="81" viewBox="0 0 81 81" fill="none" xmlns="http://www.w3.org/2000/svg">
<circle cx="40.5" cy="40.5" r="40" fill="white" fill-opacity="0.07"/>
<g clip-path="url(#clip0_11563_11206)">
<path d="M44.0709 53.6C45.6464 53.6 46.4788 55.4432 45.4279 56.6024C44.7451 57.3574 43.9087 57.9613 42.9732 58.3745C42.0378 58.7877 41.0246 59.0008 40 59C38.9754 59.0008 37.9622 58.7877 37.0268 58.3745C36.0914 57.9613 35.2549 57.3574 34.5721 56.6024C33.5667 55.4936 34.2844 53.7602 35.7269 53.6126L35.9273 53.6018L44.0709 53.6Z" fill="#767A81"/>
<path d="M40 23C42.4735 23 44.5645 24.6254 45.2366 26.8538L45.3204 27.1616L45.335 27.239C47.3429 28.3584 49.0539 29.932 50.3279 31.8308C51.6019 33.7296 52.4026 35.8997 52.6644 38.1632L52.7154 38.6798L52.75 39.2V44.4758L52.7882 44.7206C53.0376 46.0469 53.7803 47.2329 54.8701 48.0452L55.1743 48.2558L55.4694 48.434C57.0358 49.3106 56.4894 51.6128 54.7827 51.7892L54.5714 51.8H25.4286C23.5561 51.8 22.9023 49.3448 24.5306 48.434C25.2246 48.0459 25.8243 47.5123 26.2874 46.8708C26.7506 46.2293 27.0661 45.4954 27.2118 44.7206L27.25 44.4632L27.2518 39.1172C27.3629 36.7662 28.0554 34.4779 29.2687 32.4526C30.482 30.4274 32.1791 28.7269 34.2115 27.5L34.6632 27.2372L34.6814 27.1598C34.9391 26.0834 35.5247 25.1111 36.3591 24.374C37.1936 23.6369 38.2368 23.1705 39.3479 23.0378L39.6794 23.0072L40 23Z" fill="#767A81"/>
</g>
<defs>
<clipPath id="clip0_11563_11206">
<rect width="34" height="36" fill="white" transform="translate(23 23)"/>
</clipPath>
</defs>
</svg>
