<svg width="120" height="120" viewBox="0 0 120 120" fill="none" xmlns="http://www.w3.org/2000/svg">
<g clip-path="url(#clip0_9925_13295)">
<path d="M60 120C93.1371 120 120 93.1371 120 60C120 26.8629 93.1371 0 60 0C26.8629 0 0 26.8629 0 60C0 93.1371 26.8629 120 60 120Z" fill="#FF0420"/>
<path d="M42.504 75.936C38.928 75.936 36 75.096 33.72 73.416C31.464 71.712 30.336 69.264 30.336 66.12C30.336 65.448 30.408 64.656 30.552 63.696C30.936 61.536 31.488 58.944 32.208 55.896C34.248 47.64 39.528 43.512 48.024 43.512C50.328 43.512 52.416 43.896 54.24 44.688C56.064 45.432 57.504 46.584 58.56 48.12C59.616 49.632 60.144 51.432 60.144 53.52C60.144 54.144 60.072 54.936 59.928 55.896C59.472 58.56 58.944 61.176 58.296 63.696C57.24 67.8 55.44 70.896 52.848 72.936C50.28 74.952 46.824 75.936 42.504 75.936ZM43.152 69.456C44.832 69.456 46.248 68.952 47.424 67.968C48.624 66.984 49.488 65.472 49.992 63.408C50.688 60.576 51.216 58.128 51.576 56.016C51.696 55.392 51.768 54.744 51.768 54.072C51.768 51.336 50.352 49.968 47.496 49.968C45.816 49.968 44.376 50.472 43.176 51.456C42 52.44 41.16 53.952 40.656 56.016C40.104 58.032 39.576 60.48 39.024 63.408C38.904 64.008 38.832 64.632 38.832 65.304C38.808 68.088 40.272 69.456 43.152 69.456Z" fill="white"/>
<path d="M62.232 75.504C61.896 75.504 61.656 75.408 61.464 75.192C61.32 74.952 61.272 74.688 61.32 74.376L67.536 45.096C67.584 44.76 67.752 44.496 68.04 44.28C68.304 44.064 68.592 43.968 68.904 43.968H80.88C84.216 43.968 86.88 44.664 88.896 46.032C90.936 47.424 91.968 49.416 91.968 52.032C91.968 52.776 91.872 53.568 91.704 54.384C90.96 57.84 89.448 60.384 87.144 62.04C84.888 63.696 81.792 64.512 77.856 64.512H71.784L69.72 74.376C69.648 74.712 69.504 74.976 69.216 75.192C68.952 75.408 68.664 75.504 68.352 75.504H62.232ZM78.168 58.296C79.44 58.296 80.52 57.96 81.456 57.264C82.416 56.568 83.04 55.584 83.352 54.288C83.448 53.784 83.496 53.328 83.496 52.944C83.496 52.08 83.232 51.408 82.728 50.952C82.224 50.472 81.336 50.232 80.112 50.232H74.712L73.008 58.296H78.168Z" fill="white"/>
</g>
<defs>
<clipPath id="clip0_9925_13295">
<rect width="120" height="120" fill="white"/>
</clipPath>
</defs>
</svg>
