<svg width="88" height="88" viewBox="0 0 88 88" fill="none" xmlns="http://www.w3.org/2000/svg">
<g clip-path="url(#clip0_12085_4985)">
<path d="M44 88C68.3005 88 88 68.3005 88 44C88 19.6995 68.3005 0 44 0C19.6995 0 0 19.6995 0 44C0 68.3005 19.6995 88 44 88Z" fill="#FF0420"/>
<path d="M31.1696 55.6864C28.5472 55.6864 26.4 55.0704 24.728 53.8384C23.0736 52.5888 22.2464 50.7936 22.2464 48.488C22.2464 47.9952 22.2992 47.4144 22.4048 46.7104C22.6864 45.1264 23.0912 43.2256 23.6192 40.9904C25.1152 34.936 28.9872 31.9088 35.2176 31.9088C36.9072 31.9088 38.4384 32.1904 39.776 32.7712C41.1136 33.3168 42.1696 34.1616 42.944 35.288C43.7184 36.3968 44.1056 37.7168 44.1056 39.248C44.1056 39.7056 44.0528 40.2864 43.9472 40.9904C43.6128 42.944 43.2256 44.8624 42.7504 46.7104C41.976 49.72 40.656 51.9904 38.7552 53.4864C36.872 54.9648 34.3376 55.6864 31.1696 55.6864ZM31.6448 50.9344C32.8768 50.9344 33.9152 50.5648 34.7776 49.8432C35.6576 49.1216 36.2912 48.0128 36.6608 46.4992C37.1712 44.4224 37.5584 42.6272 37.8224 41.0784C37.9104 40.6208 37.9632 40.1456 37.9632 39.6528C37.9632 37.6464 36.9248 36.6432 34.8304 36.6432C33.5984 36.6432 32.5424 37.0128 31.6624 37.7344C30.8 38.456 30.184 39.5648 29.8144 41.0784C29.4096 42.5568 29.0224 44.352 28.6176 46.4992C28.5296 46.9392 28.4768 47.3968 28.4768 47.8896C28.4592 49.9312 29.5328 50.9344 31.6448 50.9344Z" fill="white"/>
<path d="M45.6368 55.3696C45.3904 55.3696 45.2144 55.2992 45.0736 55.1408C44.968 54.9648 44.9328 54.7712 44.968 54.5424L49.5264 33.0704C49.5616 32.824 49.6848 32.6304 49.896 32.472C50.0896 32.3136 50.3008 32.2432 50.5296 32.2432H59.312C61.7584 32.2432 63.712 32.7536 65.1904 33.7568C66.6864 34.7776 67.4432 36.2384 67.4432 38.1568C67.4432 38.7024 67.3728 39.2832 67.2496 39.8816C66.704 42.416 65.5952 44.2816 63.9056 45.496C62.2512 46.7104 59.9808 47.3088 57.0944 47.3088H52.6416L51.128 54.5424C51.0752 54.7888 50.9696 54.9824 50.7584 55.1408C50.5648 55.2992 50.3536 55.3696 50.1248 55.3696H45.6368ZM57.3232 42.7504C58.256 42.7504 59.048 42.504 59.7344 41.9936C60.4384 41.4832 60.896 40.7616 61.1248 39.8112C61.1952 39.4416 61.2304 39.1072 61.2304 38.8256C61.2304 38.192 61.0368 37.6992 60.6672 37.3648C60.2976 37.0128 59.6464 36.8368 58.7488 36.8368H54.7888L53.5392 42.7504H57.3232Z" fill="white"/>
</g>
<defs>
<clipPath id="clip0_12085_4985">
<rect width="88" height="88" fill="white"/>
</clipPath>
</defs>
</svg>
