<svg width="88" height="88" viewBox="0 0 88 88" fill="none" xmlns="http://www.w3.org/2000/svg">
<rect width="88" height="88" rx="44" fill="black"/>
<path d="M17.3366 20.9594C17.7766 20.4138 18.2342 19.8858 18.6918 19.3578C18.7094 19.3402 18.7622 19.3226 18.7798 19.305C18.815 19.2522 18.8854 19.217 18.9382 19.1642L18.9734 19.1114C19.2902 18.8122 19.6422 18.4954 20.0294 18.1962C21.4374 17.1402 22.8806 16.3306 24.4118 15.785C29.3398 14.0602 34.8134 15.1162 39.1078 19.1818C45.1094 24.7962 44.5638 33.8602 39.7766 39.8794C33.7222 48.8554 23.3382 61.369 37.7174 72.5802C40.3046 74.6042 42.223 76.2586 50.3718 78.617C45.039 79.6026 40.0934 79.2858 34.6022 77.8954C30.7126 75.6954 24.5878 70.9962 22.511 64.6426C19.3606 55.0154 28.055 40.601 32.2438 35.057C37.999 27.3834 28.6886 19.0762 21.807 28.3514C18.2518 33.1914 11.9686 46.8666 14.151 57.0218C15.4182 62.777 17.1254 66.9658 23.8662 72.7386C22.6166 71.9994 21.4022 71.1722 20.223 70.2218C4.57657 55.6314 6.38937 33.0682 17.3366 20.9594Z" fill="url(#paint0_linear_12085_4853)"/>
<path d="M70.6646 67.0362C70.2246 67.5818 69.767 68.1098 69.3094 68.6378C69.2918 68.6554 69.239 68.673 69.2214 68.6906C69.1862 68.7434 69.1158 68.7786 69.063 68.8314L69.0278 68.8842C68.711 69.1834 68.359 69.5002 67.9718 69.7818C66.5638 70.8378 65.1206 71.6474 63.5894 72.193C58.6614 73.9178 53.1878 72.8618 48.8934 68.7962C42.8918 63.1818 43.4374 54.1178 48.2246 48.0986C54.279 39.1226 64.663 26.609 50.2838 15.3978C47.6966 13.3738 45.7782 11.7194 37.6294 9.36096C42.9622 8.37536 47.9078 8.69216 53.399 10.0826C57.2886 12.2826 63.4134 16.9818 65.4902 23.3354C68.6406 32.9626 59.9462 47.377 55.7574 52.921C50.0022 60.5946 59.3126 68.9018 66.1942 59.6266C69.7846 54.7866 76.0678 41.1114 73.8854 30.9562C72.6182 25.201 70.911 21.0122 64.1702 15.2394C65.4198 15.9786 66.6342 16.8058 67.8134 17.7562C83.4246 32.3642 81.6118 54.9274 70.6646 67.0362Z" fill="url(#paint1_linear_12085_4853)"/>
<defs>
<linearGradient id="paint0_linear_12085_4853" x1="8.80057" y1="47.1019" x2="79.2006" y2="47.1019" gradientUnits="userSpaceOnUse">
<stop stop-color="#0082FA"/>
<stop offset="1" stop-color="#00F2FE"/>
</linearGradient>
<linearGradient id="paint1_linear_12085_4853" x1="8.8006" y1="40.8937" x2="79.2006" y2="40.8937" gradientUnits="userSpaceOnUse">
<stop stop-color="#0082FA"/>
<stop offset="1" stop-color="#00F2FE"/>
</linearGradient>
</defs>
</svg>
