<svg width="120" height="120" viewBox="0 0 120 120" fill="none" xmlns="http://www.w3.org/2000/svg">
<rect width="120" height="120" rx="60" fill="black"/>
<path d="M23.6407 28.5809C24.2407 27.8369 24.8647 27.1169 25.4887 26.3969C25.5127 26.3729 25.5847 26.3489 25.6087 26.3249C25.6567 26.2529 25.7527 26.2049 25.8247 26.1329L25.8727 26.0609C26.3047 25.6529 26.7847 25.2209 27.3127 24.8129C29.2327 23.3729 31.2007 22.2689 33.2887 21.5249C40.0087 19.1729 47.4727 20.6129 53.3287 26.1569C61.5127 33.8129 60.7687 46.1729 54.2407 54.3809C45.9847 66.6209 31.8247 83.6849 51.4327 98.9729C54.9607 101.733 57.5767 103.989 68.6887 107.205C61.4167 108.549 54.6727 108.117 47.1847 106.221C41.8807 103.221 33.5287 96.8129 30.6967 88.1489C26.4007 75.0209 38.2567 55.3649 43.9687 47.8049C51.8167 37.3409 39.1207 26.0129 29.7367 38.6609C24.8887 45.2609 16.3207 63.9089 19.2967 77.7569C21.0247 85.6049 23.3527 91.3169 32.5447 99.1889C30.8407 98.1809 29.1847 97.0529 27.5767 95.7569C6.2407 75.8609 8.7127 45.0929 23.6407 28.5809Z" fill="url(#paint0_linear_9933_18)"/>
<path d="M96.3607 91.413C95.7607 92.157 95.1367 92.877 94.5127 93.597C94.4887 93.621 94.4167 93.645 94.3927 93.669C94.3447 93.741 94.2487 93.789 94.1767 93.861L94.1287 93.933C93.6967 94.341 93.2167 94.773 92.6887 95.157C90.7687 96.597 88.8007 97.701 86.7127 98.445C79.9927 100.797 72.5287 99.357 66.6727 93.813C58.4887 86.157 59.2327 73.797 65.7607 65.589C74.0167 53.349 88.1767 36.285 68.5687 20.997C65.0407 18.237 62.4247 15.981 51.3127 12.765C58.5847 11.421 65.3287 11.853 72.8167 13.749C78.1207 16.749 86.4727 23.157 89.3047 31.821C93.6007 44.949 81.7447 64.605 76.0327 72.165C68.1847 82.629 80.8807 93.957 90.2647 81.309C95.1607 74.709 103.729 56.061 100.753 42.213C99.0247 34.365 96.6967 28.653 87.5047 20.781C89.2087 21.789 90.8647 22.917 92.4727 24.213C113.761 44.133 111.289 74.901 96.3607 91.413Z" fill="url(#paint1_linear_9933_18)"/>
<defs>
<linearGradient id="paint0_linear_9933_18" x1="12.0007" y1="64.2298" x2="108.001" y2="64.2298" gradientUnits="userSpaceOnUse">
<stop stop-color="#0082FA"/>
<stop offset="1" stop-color="#00F2FE"/>
</linearGradient>
<linearGradient id="paint1_linear_9933_18" x1="12.0007" y1="55.7642" x2="108.001" y2="55.7642" gradientUnits="userSpaceOnUse">
<stop stop-color="#0082FA"/>
<stop offset="1" stop-color="#00F2FE"/>
</linearGradient>
</defs>
</svg>
