<svg width="88" height="88" viewBox="0 0 88 88" fill="none" xmlns="http://www.w3.org/2000/svg">
<rect width="88" height="88" rx="44" fill="#200052"/>
<g clip-path="url(#clip0_12085_5159)">
<path d="M43.8371 11C34.3545 11 11 34.4696 11 43.9998C11 53.53 34.3545 77 43.8371 77C53.3196 77 76.6746 53.5296 76.6746 43.9998C76.6746 34.47 53.32 11 43.8371 11ZM38.72 62.8702C34.7212 61.7752 23.9703 42.8759 25.0601 38.8574C26.15 34.8386 44.9558 24.0346 48.9543 25.1298C52.9533 26.2248 63.7041 45.1239 62.6145 49.1426C61.5247 53.1612 42.7186 63.9654 38.72 62.8702Z" fill="#836EF9"/>
</g>
<defs>
<clipPath id="clip0_12085_5159">
<rect width="66" height="66" fill="white" transform="translate(11 11)"/>
</clipPath>
</defs>
</svg>
