<svg width="120" height="121" viewBox="0 0 120 121" fill="none" xmlns="http://www.w3.org/2000/svg">
<rect y="0.611694" width="120" height="120" rx="60" fill="#200052"/>
<g clip-path="url(#clip0_10737_13827)">
<path d="M59.7778 15.6117C46.8471 15.6117 15 47.6157 15 60.6114C15 73.6071 46.8471 105.612 59.7778 105.612C72.7086 105.612 104.556 73.6066 104.556 60.6114C104.556 47.6163 72.7091 15.6117 59.7778 15.6117ZM52.8 86.3438C47.3471 84.8507 32.6868 59.0789 34.1729 53.599C35.6591 48.1189 61.3033 33.3861 66.7559 34.8796C72.2091 36.3728 86.8692 62.1442 85.3834 67.6244C83.8973 73.1043 58.2526 87.8373 52.8 86.3438Z" fill="#836EF9"/>
</g>
<defs>
<clipPath id="clip0_10737_13827">
<rect width="90" height="90" fill="white" transform="translate(15 15.6117)"/>
</clipPath>
</defs>
</svg>
