<svg width="48" height="48" viewBox="0 0 48 48" fill="none" xmlns="http://www.w3.org/2000/svg">
<rect width="48" height="48" rx="24" fill="#EFF9F7"/>
<path fill-rule="evenodd" clip-rule="evenodd" d="M19.4867 12.5245C18.7755 11.8252 17.6236 11.8252 16.9125 12.5245L6.53335 22.734C5.82222 23.4333 5.82222 24.5667 6.53335 25.266L16.9125 35.4755C17.6236 36.1748 18.7755 36.1748 19.4867 35.4755L23.9997 31.0357L18.1336 25.266C17.4225 24.5667 17.4225 23.4333 18.1336 22.734L23.9997 16.9643L19.4867 12.5245Z" fill="#00A754"/>
<path fill-rule="evenodd" clip-rule="evenodd" d="M31.0875 12.5245C30.3764 11.8252 29.2245 11.8252 28.5133 12.5245L24.0003 16.9643L29.8664 22.734C30.5775 23.4333 30.5775 24.5667 29.8664 25.266L24.0003 31.0357L28.5133 35.4755C29.2245 36.1748 30.3764 36.1748 31.0875 35.4755L41.4666 25.266C42.1778 24.5667 42.1778 23.4333 41.4666 22.734L31.0875 12.5245Z" fill="#0A6E5C"/>
</svg>
