<svg width="80" height="80" viewBox="0 0 80 80" fill="none" xmlns="http://www.w3.org/2000/svg">
<g clip-path="url(#clip0_488_22)">
<path d="M80 40C80 17.9086 62.0914 0 40 0C17.9086 0 0 17.9086 0 40C0 62.0914 17.9086 80 40 80C62.0914 80 80 62.0914 80 40Z" fill="url(#paint0_linear_488_22)"/>
<path d="M35.9995 35.1163C34.9095 35.2938 34.1697 36.3215 34.3472 37.4118C34.525 38.502 35.5527 39.2418 36.643 39.064L35.9995 35.1163ZM58.1642 43.5188C58.1642 44.6233 59.0597 45.5188 60.1642 45.5188C61.2687 45.5188 62.1642 44.6233 62.1642 43.5188H58.1642ZM20.5569 39.6635C19.8852 38.7868 18.6299 38.6203 17.753 39.292C16.8761 39.9635 16.7097 41.219 17.3814 42.0958L20.5569 39.6635ZM38.7922 46.2168L39.6427 48.027C40.2445 47.7443 40.6665 47.1808 40.7685 46.5235C40.8705 45.8665 40.6392 45.2018 40.1515 44.7498L38.7922 46.2168ZM37.9625 37.6258C38.2027 36.5475 37.5235 35.4788 36.4452 35.2388C35.3672 34.9985 34.2985 35.6778 34.0582 36.7558L37.9625 37.6258ZM58.475 40C58.475 50.0645 50.1175 58.3 39.7125 58.3V62.3C52.2412 62.3 62.475 52.3583 62.475 40H58.475ZM39.7125 58.3C29.3075 58.3 20.95 50.0645 20.95 40H16.95C16.95 52.3583 27.1837 62.3 39.7125 62.3V58.3ZM20.95 40C20.95 29.9355 29.3075 21.7 39.7125 21.7V17.7C27.1837 17.7 16.95 27.6418 16.95 40H20.95ZM39.7125 21.7C50.1175 21.7 58.475 29.9355 58.475 40H62.475C62.475 27.6418 52.2412 17.7 39.7125 17.7V21.7ZM36.643 39.064C39.3645 38.6205 44.9662 37.25 50.0425 37.425C52.5677 37.512 54.6367 37.9843 56.0257 38.9158C57.2725 39.7518 58.1642 41.0798 58.1642 43.5188H62.1642C62.1642 39.8593 60.6985 37.233 58.2535 35.5935C55.9502 34.049 52.993 33.5243 50.1802 33.4273C44.5807 33.2343 38.2612 34.7475 35.9995 35.1163L36.643 39.064ZM17.3814 42.0958C21.7225 47.7635 26.799 49.5675 31.0987 49.737C35.2975 49.9028 38.6125 48.511 39.6427 48.027L37.9417 44.4068C37.182 44.7635 34.5427 45.87 31.2565 45.7403C28.0707 45.6145 24.1306 44.3293 20.5569 39.6635L17.3814 42.0958ZM40.1515 44.7498C39.0477 43.727 38.197 42.7005 37.9537 41.7553L34.08 42.752C34.6375 44.919 36.2947 46.6295 37.433 47.6838L40.1515 44.7498ZM37.9537 41.7553C37.642 40.5433 37.6257 39.1373 37.9625 37.6258L34.0582 36.7558C33.6027 38.8003 33.591 40.8515 34.08 42.752L37.9537 41.7553Z" fill="#F5F6FC"/>
</g>
<defs>
<linearGradient id="paint0_linear_488_22" x1="-4.22908" y1="2.52253" x2="41.4855" y2="79.1132" gradientUnits="userSpaceOnUse">
<stop stop-color="#332F2F"/>
<stop offset="1" stop-color="#1B1919"/>
</linearGradient>
<clipPath id="clip0_488_22">
<rect width="80" height="80" fill="white"/>
</clipPath>
</defs>
</svg>
