<svg width="48" height="48" viewBox="0 0 48 48" fill="none" xmlns="http://www.w3.org/2000/svg">
<g clip-path="url(#clip0_12096_4925)">
<mask id="mask0_12096_4925" style="mask-type:luminance" maskUnits="userSpaceOnUse" x="0" y="0" width="48" height="48">
<path d="M48 0H0V48H48V0Z" fill="white"/>
</mask>
<g mask="url(#mask0_12096_4925)">
<path d="M48 24C48 10.7452 37.2548 0 24 0C10.7452 0 0 10.7452 0 24C0 37.2548 10.7452 48 24 48C37.2548 48 48 37.2548 48 24Z" fill="url(#paint0_linear_12096_4925)"/>
<path d="M21.0639 20.058C20.2019 20.2013 19.6169 21.0308 19.7573 21.9109C19.8979 22.7909 20.7105 23.388 21.5727 23.2445L21.0639 20.058ZM38.5911 26.8403C38.5911 27.7318 39.2993 28.4546 40.1727 28.4546C41.0461 28.4546 41.7542 27.7318 41.7542 26.8403H38.5911ZM8.85224 23.7284C8.32108 23.0207 7.32842 22.8863 6.63499 23.4285C5.94156 23.9705 5.80998 24.9839 6.34114 25.6917L8.85224 23.7284ZM23.2722 29.018L23.9448 30.4792C24.4207 30.251 24.7544 29.7962 24.8351 29.2656C24.9157 28.7353 24.7328 28.1988 24.3472 27.8339L23.2722 29.018ZM22.6161 22.0836C22.8061 21.2132 22.269 20.3506 21.4163 20.1569C20.5639 19.9629 19.7187 20.5112 19.5287 21.3814L22.6161 22.0836ZM38.8369 24C38.8369 32.1238 32.228 38.7713 24 38.7713V42C33.9074 42 42 33.9753 42 24H38.8369ZM24 38.7713C15.772 38.7713 9.1631 32.1238 9.1631 24H6C6 33.9753 14.0925 42 24 42V38.7713ZM9.1631 24C9.1631 15.8762 15.772 9.2287 24 9.2287V6C14.0925 6 6 14.0248 6 24H9.1631ZM24 9.2287C32.228 9.2287 38.8369 15.8762 38.8369 24H42C42 14.0248 33.9074 6 24 6V9.2287ZM21.5727 23.2445C23.7248 22.8865 28.1545 21.7803 32.1687 21.9215C34.1656 21.9917 35.8017 22.373 36.9001 23.1249C37.886 23.7997 38.5911 24.8716 38.5911 26.8403H41.7542C41.7542 23.8864 40.5952 21.7665 38.6617 20.4432C36.8404 19.1965 34.5019 18.773 32.2776 18.6947C27.8496 18.5389 22.8523 19.7603 21.0639 20.058L21.5727 23.2445ZM6.34114 25.6917C9.77397 30.2665 13.7883 31.7226 17.1884 31.8595C20.5087 31.9933 23.1301 30.8699 23.9448 30.4792L22.5997 27.5571C21.9989 27.845 19.9119 28.7381 17.3132 28.6334C14.794 28.5319 11.6782 27.4945 8.85224 23.7284L6.34114 25.6917ZM24.3472 27.8339C23.4743 27.0083 22.8016 26.1798 22.6092 25.4168L19.546 26.2213C19.9868 27.9705 21.2973 29.3512 22.1974 30.2022L24.3472 27.8339ZM22.6092 25.4168C22.3627 24.4385 22.3498 23.3037 22.6161 22.0836L19.5287 21.3814C19.1685 23.0316 19.1593 24.6873 19.546 26.2213L22.6092 25.4168Z" fill="#F5F6FC"/>
</g>
</g>
<defs>
<linearGradient id="paint0_linear_12096_4925" x1="-2.53745" y1="1.51352" x2="24.8913" y2="47.4679" gradientUnits="userSpaceOnUse">
<stop stop-color="#332F2F"/>
<stop offset="1" stop-color="#1B1919"/>
</linearGradient>
<clipPath id="clip0_12096_4925">
<rect width="48" height="48" fill="white"/>
</clipPath>
</defs>
</svg>
