<svg width="3200" height="3200" viewBox="0 0 3200 3200" fill="none" xmlns="http://www.w3.org/2000/svg">
<path d="M0 0H3200V3200H0V0Z" fill="url(#paint0_linear_488_13)"/>
<path d="M1439.98 1404.65C1396.38 1411.75 1366.79 1452.86 1373.89 1496.47C1381 1540.08 1422.11 1569.67 1465.72 1562.56L1439.98 1404.65ZM2326.57 1740.75C2326.57 1784.93 2362.39 1820.75 2406.57 1820.75C2450.75 1820.75 2486.57 1784.93 2486.57 1740.75H2326.57ZM822.277 1586.54C795.41 1551.47 745.196 1544.81 710.12 1571.68C675.044 1598.54 668.389 1648.76 695.255 1683.83L822.277 1586.54ZM1551.69 1848.67L1585.71 1921.08C1609.78 1909.77 1626.66 1887.23 1630.74 1860.94C1634.82 1834.66 1625.57 1808.07 1606.06 1789.99L1551.69 1848.67ZM1440.67 1690.14L1518.15 1670.21V1670.21L1440.67 1690.14ZM1518.5 1505.03C1528.11 1461.9 1500.94 1419.15 1457.81 1409.55C1414.69 1399.94 1371.94 1427.11 1362.33 1470.23L1518.5 1505.03ZM2339 1600C2339 2002.58 2004.7 2332 1588.5 2332V2492C2089.65 2492 2499 2094.33 2499 1600H2339ZM1588.5 2332C1172.3 2332 838 2002.58 838 1600H678C678 2094.33 1087.35 2492 1588.5 2492V2332ZM838 1600C838 1197.42 1172.3 868 1588.5 868V708C1087.35 708 678 1105.67 678 1600H838ZM1588.5 868C2004.7 868 2339 1197.42 2339 1600H2499C2499 1105.67 2089.65 708 1588.5 708V868ZM1465.72 1562.56C1574.58 1544.82 1798.65 1490 2001.7 1497C2102.71 1500.48 2185.47 1519.37 2241.03 1556.63C2290.9 1590.07 2326.57 1643.19 2326.57 1740.75H2486.57C2486.57 1594.37 2427.94 1489.32 2330.14 1423.74C2238.01 1361.96 2119.72 1340.97 2007.21 1337.09C1783.23 1329.37 1530.45 1389.9 1439.98 1404.65L1465.72 1562.56ZM695.255 1683.83C868.9 1910.54 1071.96 1982.7 1243.95 1989.48C1411.9 1996.11 1544.5 1940.44 1585.71 1921.08L1517.67 1776.27C1487.28 1790.54 1381.71 1834.8 1250.26 1829.61C1122.83 1824.58 965.223 1773.17 822.277 1586.54L695.255 1683.83ZM1606.06 1789.99C1561.91 1749.08 1527.88 1708.02 1518.15 1670.21L1363.2 1710.08C1385.5 1796.76 1451.79 1865.18 1497.32 1907.35L1606.06 1789.99ZM1518.15 1670.21C1505.68 1621.73 1505.03 1565.49 1518.5 1505.03L1362.33 1470.23C1344.11 1552.01 1343.64 1634.06 1363.2 1710.08L1518.15 1670.21Z" fill="#F5F6FC"/>
<defs>
<linearGradient id="paint0_linear_488_13" x1="-169.163" y1="100.901" x2="1659.42" y2="3164.53" gradientUnits="userSpaceOnUse">
<stop stop-color="#332F2F"/>
<stop offset="1" stop-color="#1B1919"/>
</linearGradient>
</defs>
</svg>
