<svg width="88" height="88" viewBox="0 0 88 88" fill="none" xmlns="http://www.w3.org/2000/svg">
<path d="M86.6836 54.6438C80.8071 78.2155 56.9329 92.5607 33.3584 86.6827C9.79382 80.8062 -4.55143 56.9304 1.32767 33.3607C7.20161 9.78644 31.0759 -4.55989 54.643 1.31663C78.2158 7.19315 92.5602 31.0715 86.683 54.6442L86.6834 54.6438H86.6836Z" fill="#F7931A"/>
<path fill-rule="evenodd" clip-rule="evenodd" d="M63.407 37.7311C64.2828 31.8756 59.8249 28.7281 53.729 26.6284L55.7065 18.6967L50.8782 17.4936L48.9532 25.2165C47.6838 24.8999 46.3803 24.6016 45.0847 24.3059L47.0238 16.532L42.1985 15.329L40.2199 23.2581C39.1695 23.0189 38.1378 22.7826 37.1369 22.5335L37.1425 22.5086L30.4842 20.8459L29.1998 26.0028C29.1998 26.0028 32.782 26.8239 32.7065 26.8745C34.6617 27.3624 35.0153 28.6567 34.9566 29.6826L32.7039 38.7187C32.8386 38.7529 33.0132 38.8023 33.2059 38.8798L33.0657 38.8448L33.0653 38.8447C32.9463 38.8149 32.8226 38.7839 32.6955 38.7535L29.5381 51.4118C29.2992 52.0058 28.6927 52.8973 27.3257 52.5587C27.3741 52.6288 23.8165 51.683 23.8165 51.683L21.4193 57.2098L27.7025 58.7761C28.3905 58.9487 29.0704 59.1259 29.7435 59.3014C30.2138 59.424 30.6808 59.5457 31.1449 59.6644L29.1469 67.687L33.9696 68.8901L35.9482 60.9526C37.2657 61.3103 38.5443 61.6402 39.796 61.9512L37.8241 69.8513L42.6525 71.0544L44.6503 63.0467C52.8835 64.6049 59.0743 63.9767 61.68 56.5297C63.7797 50.5341 61.5755 47.0758 57.244 44.8206C60.3989 44.093 62.7752 42.018 63.4088 37.7317L63.4072 37.7307L63.407 37.7311ZM52.3756 53.2001C51.0066 58.7009 42.3963 56.4267 38.4567 55.3862C38.1024 55.2926 37.7858 55.209 37.5157 55.1419L40.167 44.5133C40.4962 44.5954 40.8985 44.6857 41.3542 44.788C45.4292 45.7025 53.7782 47.5762 52.3758 53.2001H52.3756ZM42.1716 39.8551C45.456 40.7316 52.621 42.6438 53.8688 37.6442H53.8692C55.1434 32.5309 48.1803 30.9893 44.7795 30.2363C44.3969 30.1516 44.0594 30.0769 43.7838 30.0082L41.38 39.6478C41.607 39.7044 41.8733 39.7754 42.1716 39.8551Z" fill="white"/>
</svg>
