<svg width="120" height="120" viewBox="0 0 120 120" fill="none" xmlns="http://www.w3.org/2000/svg">
<path d="M118.205 74.5143C110.192 106.657 77.6357 126.219 45.4887 118.204C13.3552 110.19 -6.20649 77.6324 1.81046 45.4918C9.82038 13.3451 42.3762 -6.21803 74.5132 1.79541C106.658 9.80884 126.218 42.3702 118.204 74.5149L118.205 74.5143H118.205Z" fill="#F7931A"/>
<path fill-rule="evenodd" clip-rule="evenodd" d="M86.4642 51.4515C87.6584 43.4668 81.5794 39.1747 73.2668 36.3115L75.9635 25.4955L69.3794 23.8549L66.7543 34.3861C65.0234 33.9544 63.2459 33.5476 61.4792 33.1444L64.1234 22.5437L57.5435 20.9031L54.8453 31.7156C53.413 31.3894 52.0062 31.0671 50.6413 30.7275L50.6489 30.6935L41.5694 28.4262L39.818 35.4583C39.818 35.4583 44.7027 36.578 44.5998 36.647C47.266 37.3124 47.7481 39.0773 47.668 40.4762L44.5963 52.7982C44.7799 52.8448 45.018 52.9123 45.2808 53.0178L45.0898 52.9702L45.0896 52.9701C44.9271 52.9295 44.7582 52.8872 44.5848 52.8457L40.2793 70.1069C39.9535 70.917 39.1264 72.1326 37.2624 71.671C37.3284 71.7666 32.477 70.4768 32.477 70.4768L29.2082 78.0133L37.7762 80.1493C38.7144 80.3845 39.6415 80.6262 40.5593 80.8655L40.5611 80.8659C41.2019 81.033 41.8381 81.1988 42.4703 81.3605L39.7458 92.3005L46.3222 93.9411L49.0203 83.1172C50.8169 83.6049 52.5604 84.0548 54.2673 84.4789L51.5783 95.2517L58.1626 96.8923L60.8868 85.9728C72.1139 88.0976 80.5558 87.2409 84.1092 77.086C86.9724 68.9101 83.9666 64.1942 78.0601 61.119C82.3621 60.1268 85.6025 57.2973 86.4665 51.4523L86.4644 51.4509L86.4642 51.4515ZM71.4212 72.5455C69.5544 80.0467 57.8131 76.9455 52.441 75.5266C51.9578 75.399 51.5261 75.285 51.1577 75.1935L54.7732 60.6999C55.2221 60.8119 55.7706 60.935 56.3921 61.0745L56.3922 61.0745C61.9489 62.3216 73.3339 64.8766 71.4215 72.5455H71.4212ZM57.5068 54.3478C61.9855 55.5431 71.7559 58.1506 73.4574 51.333H73.458C75.1955 44.3603 65.7004 42.2581 61.063 41.2313C60.5413 41.1158 60.081 41.014 59.7052 40.9203L56.4273 54.0651C56.7368 54.1423 57.0999 54.2392 57.5068 54.3478Z" fill="white"/>
</svg>
