<svg width="128" height="128" viewBox="0 0 128 128" fill="none" xmlns="http://www.w3.org/2000/svg">
<rect width="128" height="128" rx="64" fill="white"/>
<g clip-path="url(#clip0_404_58)">
<path d="M63.9964 37.5061C73.3164 37.5061 80.8718 33.1395 80.8718 27.753C80.8718 22.3666 73.3164 18 63.9964 18C54.6764 18 47.1211 22.3666 47.1211 27.753C47.1211 33.1395 54.6764 37.5061 63.9964 37.5061Z" fill="#E6007A"/>
<path d="M63.9964 110.993C73.3164 110.993 80.8718 106.627 80.8718 101.24C80.8718 95.8539 73.3164 91.4873 63.9964 91.4873C54.6764 91.4873 47.1211 95.8539 47.1211 101.24C47.1211 106.627 54.6764 110.993 63.9964 110.993Z" fill="#E6007A"/>
<path d="M40.4799 51.0066C45.1399 42.9862 45.1096 34.2995 40.4123 31.6045C35.715 28.9094 28.1294 33.2265 23.4694 41.247C18.8094 49.2674 18.8397 57.9541 23.537 60.6491C28.2343 63.3441 35.8199 59.0271 40.4799 51.0066Z" fill="#E6007A"/>
<path d="M104.517 87.7459C109.177 79.7254 109.149 71.0403 104.455 68.347C99.7608 65.6538 92.1778 69.9724 87.5178 77.9928C82.8578 86.0133 82.8854 94.6984 87.5796 97.3917C92.2737 100.085 99.8567 95.7663 104.517 87.7459Z" fill="#E6007A"/>
<path d="M40.4148 97.3894C45.1121 94.6944 45.1423 86.0077 40.4823 77.9873C35.8223 69.9668 28.2367 65.6498 23.5394 68.3448C18.8421 71.0398 18.8119 79.7265 23.4719 87.7469C28.1319 95.7674 35.7174 100.084 40.4148 97.3894Z" fill="#E6007A"/>
<path d="M104.459 60.6513C109.153 57.958 109.181 49.2729 104.521 41.2524C99.8606 33.232 92.2776 28.9134 87.5835 31.6066C82.8893 34.2999 82.8617 42.985 87.5217 51.0055C92.1817 59.0259 99.7647 63.3445 104.459 60.6513Z" fill="#E6007A"/>
</g>
<defs>
<clipPath id="clip0_404_58">
<rect x="20" y="18" width="88" height="93" rx="44" fill="white"/>
</clipPath>
</defs>
</svg>
