<svg width="88" height="88" viewBox="0 0 88 88" fill="none" xmlns="http://www.w3.org/2000/svg">
<rect width="88" height="88" rx="44" fill="#E6007A"/>
<path d="M44.364 22.1349C51.7424 22.1349 57.7237 18.6573 57.7237 14.3674C57.7237 10.0776 51.7424 6.59998 44.364 6.59998C36.9857 6.59998 31.0044 10.0776 31.0044 14.3674C31.0044 18.6573 36.9857 22.1349 44.364 22.1349Z" fill="white"/>
<path d="M44.364 80.6614C51.7424 80.6614 57.7237 77.1838 57.7237 72.8939C57.7237 68.6041 51.7424 65.1265 44.364 65.1265C36.9857 65.1265 31.0044 68.6041 31.0044 72.8939C31.0044 77.1838 36.9857 80.6614 44.364 80.6614Z" fill="white"/>
<path d="M25.7465 32.8869C29.4356 26.4993 29.4117 19.5812 25.693 17.4348C21.9743 15.2884 15.969 18.7266 12.2799 25.1142C8.59069 31.5018 8.61463 38.42 12.3333 40.5664C16.052 42.7127 22.0573 39.2745 25.7465 32.8869Z" fill="white"/>
<path d="M76.4425 62.1467C80.1316 55.7591 80.1097 48.8421 76.3935 46.6971C72.6773 44.5522 66.6741 47.9916 62.9849 54.3792C59.2958 60.7668 59.3177 67.6838 63.0339 69.8287C66.7501 71.9737 72.7533 68.5343 76.4425 62.1467Z" fill="white"/>
<path d="M25.6948 69.827C29.4135 67.6806 29.4375 60.7624 25.7483 54.3748C22.0592 47.9872 16.0539 44.549 12.3352 46.6954C8.61649 48.8417 8.59254 55.7599 12.2817 62.1475C15.9709 68.5351 21.9761 71.9733 25.6948 69.827Z" fill="white"/>
<path d="M76.3967 40.5681C80.1129 38.4231 80.1348 31.5061 76.4456 25.1185C72.7564 18.7309 66.7532 15.2915 63.037 17.4365C59.3208 19.5814 59.2989 26.4984 62.9881 32.886C66.6773 39.2736 72.6805 42.713 76.3967 40.5681Z" fill="white"/>
</svg>
