<svg width="48" height="48" viewBox="0 0 48 48" fill="none" xmlns="http://www.w3.org/2000/svg">
<g clip-path="url(#clip0_12085_5282)">
<path d="M0 24C0 10.7452 10.7452 0 24 0C37.2548 0 48 10.7452 48 24C48 37.2548 37.2548 48 24 48C10.7452 48 0 37.2548 0 24Z" fill="black"/>
<path d="M0 24C0 10.7452 10.7452 0 24 0C37.2548 0 48 10.7452 48 24C48 37.2548 37.2548 48 24 48C10.7452 48 0 37.2548 0 24Z" fill="black"/>
<path d="M27.5588 6.35213L28.5973 8.78429C30.6355 13.5596 34.4397 17.3634 39.2156 19.4014L41.648 20.4398C42.2844 20.7112 42.8012 21.1005 43.2004 21.5641C41.9888 12.8797 35.1196 6.01021 26.4344 4.79993C26.8971 5.19789 27.2874 5.71557 27.5588 6.35213Z" fill="#A6A6A6"/>
<path d="M6.35237 20.4398L8.78485 19.4014C13.5608 17.3634 17.3648 13.5596 19.404 8.78429L20.4414 6.35213C20.7139 5.71557 21.1033 5.19789 21.566 4.79993C12.8806 6.01021 6.01141 12.8797 4.80005 21.5641C5.19897 21.1005 5.71581 20.7112 6.35237 20.4398Z" fill="#A6A6A6"/>
<path d="M41.648 27.5592L39.2156 28.5976C34.4397 30.6356 30.6355 34.4402 28.5973 39.2157L27.5588 41.6469C27.2873 42.2833 26.8971 42.8013 26.4344 43.2001C35.1196 41.9889 41.9888 35.1193 43.2004 26.4348C42.8012 26.8985 42.2844 27.2878 41.648 27.5592Z" fill="#A6A6A6"/>
<path d="M20.4415 41.6469L19.4041 39.2157C17.3648 34.4402 13.5608 30.6356 8.78485 28.5976L6.35241 27.5592C5.71585 27.2877 5.19893 26.8985 4.80005 26.4348C6.01141 35.1193 12.8806 41.9889 21.566 43.2001C21.1033 42.8013 20.714 42.2833 20.4415 41.6469Z" fill="#A6A6A6"/>
<path d="M15.4237 22.1506L16.5857 21.6544C18.8666 20.6807 20.6841 18.8644 21.6579 16.5836L22.1533 15.4217C22.848 13.7945 25.1552 13.7945 25.8499 15.4217L26.3452 16.5836C27.3192 18.8644 29.1365 20.6807 31.4175 21.6544L32.5795 22.1506C34.2068 22.8453 34.2068 25.1513 32.5795 25.846L31.4175 26.3422C29.1366 27.3158 27.3192 29.1322 26.3452 31.4139L25.8499 32.5749C25.1552 34.2019 22.848 34.2019 22.1533 32.5749L21.6579 31.4139C20.6841 29.1322 18.8666 27.3158 16.5857 26.3422L15.4237 25.846C13.7963 25.1513 13.7963 22.8453 15.4237 22.1506Z" fill="white"/>
</g>
<defs>
<clipPath id="clip0_12085_5282">
<rect width="48" height="48" rx="24" fill="white"/>
</clipPath>
</defs>
</svg>
