<svg width="120" height="120" viewBox="0 0 120 120" fill="none" xmlns="http://www.w3.org/2000/svg">
<g clip-path="url(#clip0_10009_336)">
<path d="M120 60C120 26.8629 93.1371 0 60 0C26.8629 0 0 26.8629 0 60C0 93.1371 26.8629 120 60 120C93.1371 120 120 93.1371 120 60Z" fill="#6CF9D8"/>
<path fill-rule="evenodd" clip-rule="evenodd" d="M86.9518 26.25L93.75 33.0482L71.0314 55.7668C69.8338 52.6481 67.3519 50.1662 64.2332 48.9686L86.9518 26.25ZM55.7668 48.9686L33.0482 26.25L26.25 33.0482L48.9686 55.7668C50.1662 52.6481 52.6481 50.1662 55.7668 48.9686ZM48.9686 64.2332L26.25 86.9518L33.0482 93.75L55.7668 71.0314C52.6481 69.8338 50.1662 67.3519 48.9686 64.2332ZM64.2332 71.0314L86.9518 93.75L93.75 86.9518L71.0314 64.2332C69.8338 67.3519 67.3519 69.8338 64.2332 71.0314Z" fill="#2D2E33"/>
</g>
<defs>
<clipPath id="clip0_10009_336">
<rect width="120" height="120" fill="white"/>
</clipPath>
</defs>
</svg>
