<svg width="48" height="48" viewBox="0 0 48 48" fill="none" xmlns="http://www.w3.org/2000/svg">
<g clip-path="url(#clip0_12085_5290)">
<path d="M48 24C48 10.7452 37.2548 0 24 0C10.7452 0 0 10.7452 0 24C0 37.2548 10.7452 48 24 48C37.2548 48 48 37.2548 48 24Z" fill="#6CF9D8"/>
<path fill-rule="evenodd" clip-rule="evenodd" d="M34.7807 10.5L37.5 13.2193L28.4125 22.3067C27.9335 21.0592 26.9408 20.0665 25.6933 19.5875L34.7807 10.5ZM22.3067 19.5875L13.2193 10.5L10.5 13.2193L19.5875 22.3067C20.0665 21.0592 21.0592 20.0665 22.3067 19.5875ZM19.5875 25.6933L10.5 34.7807L13.2193 37.5L22.3067 28.4125C21.0592 27.9335 20.0665 26.9408 19.5875 25.6933ZM25.6933 28.4125L34.7807 37.5L37.5 34.7807L28.4125 25.6933C27.9335 26.9408 26.9408 27.9335 25.6933 28.4125Z" fill="#2D2E33"/>
</g>
<defs>
<clipPath id="clip0_12085_5290">
<rect width="48" height="48" rx="24" fill="white"/>
</clipPath>
</defs>
</svg>
