<svg width="24" height="25" viewBox="0 0 24 25" fill="none" xmlns="http://www.w3.org/2000/svg">
<rect y="0.941162" width="24" height="24" rx="8" fill="url(#paint0_linear_3802_3231)"/>
<path fill-rule="evenodd" clip-rule="evenodd" d="M5.89368 12.6766C9.38334 11.1242 11.7103 10.1008 12.8746 9.60637C16.199 8.19459 16.8897 7.94935 17.34 7.94125C17.439 7.93947 17.6604 7.96452 17.8038 8.08335C17.9249 8.18368 17.9583 8.31922 17.9742 8.41434C17.9901 8.50947 18.01 8.72617 17.9942 8.89549C17.8141 10.8281 17.0346 15.5181 16.638 17.6826C16.4702 18.5986 16.1398 18.9057 15.8199 18.9357C15.1248 19.001 14.5969 18.4666 13.9236 18.016C12.8701 17.3109 12.2749 16.8719 11.2522 16.1838C10.0703 15.3886 10.8365 14.9516 11.51 14.2373C11.6863 14.0504 14.7492 11.2059 14.8084 10.9478C14.8159 10.9156 14.8227 10.7953 14.7527 10.7318C14.6828 10.6682 14.5794 10.69 14.5049 10.7072C14.3992 10.7317 12.7162 11.8676 9.45566 14.1148C8.97792 14.4497 8.54521 14.6129 8.1575 14.6044C7.73009 14.5949 6.90793 14.3576 6.29673 14.1548C5.54708 13.9059 4.95127 13.7744 5.00315 13.3518C5.03017 13.1318 5.32702 12.9067 5.89368 12.6766Z" fill="white"/>
<defs>
<linearGradient id="paint0_linear_3802_3231" x1="12" y1="0.941162" x2="12" y2="24.7632" gradientUnits="userSpaceOnUse">
<stop stop-color="#2AABEE"/>
<stop offset="1" stop-color="#229ED9"/>
</linearGradient>
</defs>
</svg>
