<svg width="120" height="120" viewBox="0 0 120 120" fill="none" xmlns="http://www.w3.org/2000/svg">
<path d="M59.9614 120C93.1101 120 119.961 93.1487 119.961 60C119.961 26.8513 93.1101 0 59.9614 0C26.8126 0 0 26.8513 0 60C0 93.1487 26.8513 120 59.9614 120Z" fill="url(#paint0_linear_9993_2940)"/>
<path d="M48.3984 28.7728C47.4627 28.6386 47.4181 28.5939 47.8637 28.5491C48.7103 28.4149 50.6708 28.5939 52.0521 28.907C55.2602 29.6676 58.1564 31.6362 61.2308 35.0812L62.0328 36.0207L63.1913 35.8418C68.1371 35.0364 73.2166 35.6628 77.4495 37.6314C78.608 38.1683 80.4349 39.242 80.6576 39.5105C80.7468 39.5999 80.8804 40.1816 80.9696 40.7632C81.2815 42.866 81.1478 44.4319 80.4794 45.6399C80.123 46.311 80.123 46.4899 80.3458 47.0716C80.524 47.519 81.0587 47.8321 81.5488 47.8321C82.6182 47.8321 83.7321 46.132 84.2668 43.7608L84.4896 42.8212L84.8906 43.2686C87.163 45.8188 88.9453 49.3533 89.2126 51.8588L89.3017 52.5299L88.9007 51.9482C88.2323 50.9192 87.6085 50.2481 86.762 49.6665C85.247 48.6375 83.643 48.3243 79.4101 48.1006C75.5782 47.8769 73.3949 47.5637 71.2561 46.8479C67.6025 45.6399 65.7311 44.074 61.409 38.3025C59.4931 35.7523 58.29 34.3653 57.087 33.2021C54.4581 30.6519 51.8293 29.3097 48.3984 28.7728Z" fill="#FF007A"/>
<path d="M81.5933 34.4548C81.6825 32.7547 81.9053 31.6362 82.3954 30.6071C82.5736 30.2045 82.7518 29.8466 82.7964 29.8466C82.8409 29.8466 82.7518 30.1597 82.6182 30.5177C82.2617 31.5019 82.2171 32.8889 82.4399 34.4548C82.7518 36.4681 82.8855 36.7366 85.0242 38.9288C86.0045 39.9578 87.163 41.2553 87.6085 41.7922L88.366 42.7765L87.6085 42.0606C86.6728 41.1658 84.5341 39.4657 84.044 39.242C83.7321 39.063 83.6875 39.063 83.4647 39.2867C83.2865 39.4657 83.242 39.7341 83.242 41.0316C83.1974 43.0449 82.9301 44.2976 82.2617 45.5951C81.9052 46.2662 81.8607 46.132 82.1726 45.3714C82.3954 44.7898 82.4399 44.5213 82.4399 42.5975C82.4399 38.7051 81.9944 37.7656 79.2764 36.1997C78.608 35.797 77.4495 35.2154 76.7812 34.9022C76.0683 34.589 75.5336 34.3206 75.5782 34.3206C75.6673 34.2311 78.2961 34.9917 79.3209 35.4391C80.8804 36.0654 81.1478 36.1102 81.326 36.0654C81.4597 35.9312 81.5488 35.5733 81.5933 34.4548Z" fill="#FF007A"/>
<path d="M50.2252 41.1211C48.3538 38.5261 47.1508 34.4995 47.4181 31.5019L47.5072 30.5624L47.9528 30.6519C48.7548 30.7861 50.1361 31.323 50.8045 31.7256C52.5867 32.7994 53.3888 34.2758 54.1462 37.9445C54.369 39.0183 54.6809 40.271 54.8146 40.6737C55.0374 41.3448 55.884 42.9107 56.5969 43.895C57.087 44.6108 56.7751 44.9687 55.6612 44.8792C53.968 44.7003 51.6956 43.1344 50.2252 41.1211Z" fill="#FF007A"/>
<path d="M79.3209 60.5831C70.4987 57.0039 67.3797 53.9168 67.3797 48.6822C67.3797 47.9217 67.4242 47.2953 67.4242 47.2953C67.4688 47.2953 67.7807 47.5637 68.1817 47.8769C69.964 49.3086 71.969 49.935 77.5387 50.7403C80.7913 51.2324 82.6627 51.5903 84.3559 52.172C89.7473 53.9616 93.0891 57.6303 93.8911 62.5964C94.1139 64.0281 93.9802 66.7573 93.6237 68.189C93.3118 69.3075 92.4207 71.3655 92.1979 71.4103C92.1534 71.4103 92.0642 71.1866 92.0642 70.8286C91.9751 68.9496 91.0394 67.1599 89.4799 65.773C87.6085 64.1623 85.2025 62.9544 79.3209 60.5831Z" fill="#FF007A"/>
<path d="M73.083 62.0595C72.9939 61.3884 72.7711 60.5383 72.6374 60.1804L72.4146 59.5093L72.8156 60.0014C73.3949 60.6725 73.8404 61.4778 74.2415 62.5963C74.5534 63.4464 74.5534 63.7149 74.5534 65.1018C74.5534 66.444 74.5088 66.7572 74.2415 67.5178C73.7959 68.7258 73.2612 69.5758 72.3701 70.5154C70.766 72.1708 68.6718 73.0656 65.6865 73.4682C65.1518 73.513 63.6369 73.6472 62.3002 73.7367C58.9584 73.9156 56.7306 74.2735 54.7255 74.9894C54.4581 75.0789 54.1908 75.1683 54.1463 75.1236C54.0571 75.0341 55.4384 74.2288 56.5523 73.6919C58.1118 72.9313 59.7159 72.5287 63.2359 71.9023C64.9736 71.6339 66.7559 71.2759 67.2014 71.097C71.6126 69.71 73.7959 66.265 73.083 62.0595Z" fill="#FF007A"/>
<path d="M77.1376 69.2627C75.9792 66.7125 75.7118 64.2965 76.3356 62.0148C76.4247 61.7911 76.5138 61.5674 76.603 61.5674C76.6921 61.5674 76.9594 61.7016 77.2268 61.8806C77.7614 62.2385 78.8754 62.8648 81.727 64.4308C85.3361 66.3993 87.3857 67.9205 88.8116 69.6654C90.0592 71.1865 90.8166 72.9314 91.1731 75.0789C91.3959 76.2869 91.2622 79.195 90.9503 80.403C89.9701 84.2059 87.7422 87.2483 84.4895 88.9931C83.9994 89.2616 83.5984 89.4405 83.5538 89.4405C83.5093 89.4405 83.6875 88.9931 83.9549 88.4562C85.0242 86.1745 85.1579 83.9822 84.3559 81.5215C83.8657 80.0003 82.8409 78.166 80.7913 75.0789C78.3407 71.4997 77.7614 70.5602 77.1376 69.2627Z" fill="#FF007A"/>
<path d="M43.9427 82.9532C47.2399 80.1793 51.2946 78.2107 55.0374 77.5844C56.6414 77.3159 59.3149 77.4054 60.7852 77.8081C63.1468 78.4344 65.2855 79.7766 66.3994 81.432C67.4688 83.0427 67.9589 84.4296 68.449 87.5167C68.6273 88.7247 68.85 89.9774 68.8946 90.2458C69.2511 91.8565 69.964 93.1092 70.8551 93.7803C72.2364 94.8093 74.6425 94.8541 77.004 93.9593C77.405 93.8251 77.7614 93.6908 77.7614 93.7356C77.8506 93.8251 76.6475 94.6304 75.8455 95.033C74.7316 95.6147 73.8404 95.7936 72.6374 95.7936C70.4987 95.7936 68.6718 94.6751 67.2014 92.4381C66.8895 91.9907 66.2657 90.6932 65.7311 89.4853C64.1716 85.8613 63.3695 84.7875 61.5427 83.5795C59.9386 82.5505 57.889 82.3268 56.3295 83.0874C54.2799 84.0717 53.7452 86.7114 55.171 88.322C55.7503 88.9931 56.8197 89.53 57.7108 89.6642C59.3594 89.8879 60.7852 88.5904 60.7852 86.9351C60.7852 85.8613 60.3842 85.2349 59.3148 84.7428C57.889 84.1164 56.3295 84.8323 56.3741 86.2192C56.3741 86.8008 56.6414 87.1588 57.2207 87.4272C57.5771 87.6062 57.5771 87.6062 57.3098 87.5614C56.0176 87.293 55.7057 85.6823 56.7305 84.6533C57.9781 83.4006 60.607 83.9375 61.4981 85.6823C61.8546 86.3982 61.8992 87.8299 61.5873 88.7247C60.8298 90.6932 58.6911 91.7223 56.5078 91.1406C55.0374 90.738 54.4136 90.3353 52.6313 88.501C49.5123 85.2797 48.3093 84.6533 43.8536 83.9822L43.007 83.848L43.9427 82.9532Z" fill="#FF007A"/>
<path fill-rule="evenodd" clip-rule="evenodd" d="M27.5357 19.1682C37.9175 31.8297 46.8832 43.3134 47.6852 44.3872C48.3536 45.282 48.0862 46.132 46.9723 46.7584C46.3485 47.1163 45.0564 47.4743 44.4326 47.4743C43.7197 47.4743 42.8731 47.1163 42.2938 46.5347C41.8928 46.1321 40.1551 43.5819 36.2341 37.4524C33.2488 32.7547 30.709 28.8623 30.6645 28.8176C30.4862 28.7281 30.4862 28.7281 35.9222 38.4815C39.3531 44.6109 40.467 46.8032 40.467 47.0716C40.467 47.6532 40.2888 47.9664 39.5759 48.7717C38.3728 50.1139 37.8381 51.6351 37.4371 54.8116C36.9916 58.3461 35.7885 60.8516 32.3576 65.1019C30.3526 67.6073 30.0407 68.0548 29.5505 69.0838C28.9267 70.3365 28.7485 71.0523 28.6594 72.663C28.5703 74.3631 28.7485 75.4369 29.2386 77.0475C29.6842 78.4792 30.1743 79.4188 31.3774 81.2531C32.4022 82.8638 33.026 84.0717 33.026 84.5191C33.026 84.8771 33.1151 84.8771 34.7191 84.5191C38.551 83.6243 41.7146 82.1032 43.4523 80.2241C44.5217 79.0608 44.789 78.4345 44.789 76.8238C44.789 75.7948 44.7445 75.5711 44.4771 74.9447C44.0316 73.9605 43.185 73.1551 41.3581 71.9024C38.9521 70.247 37.9272 68.9048 37.6599 67.1152C37.4371 65.594 37.7045 64.565 39.0412 61.7464C40.4224 58.8383 40.7789 57.6303 41.0017 54.6774C41.1354 52.7983 41.3581 52.0378 41.8928 51.4561C42.4721 50.8298 42.9622 50.6061 44.3435 50.4271C46.6159 50.1139 48.0862 49.5323 49.2447 48.4138C50.2695 47.4743 50.7151 46.5347 50.7597 45.1478L50.8042 44.1187L50.225 43.4924C48.1308 41.0764 26.1545 17.2444 26.0208 17.2444C25.9762 17.2444 26.6891 18.0944 27.5357 19.1682ZM34.1845 74.5868C34.6746 73.7368 34.4072 72.663 33.6052 72.1261C32.8477 71.634 31.6893 71.8577 31.6893 72.5288C31.6893 72.7077 31.7784 72.8867 32.0457 72.9762C32.4467 73.1999 32.4913 73.4236 32.1794 73.9157C31.8675 74.4079 31.8675 74.8553 32.2685 75.1684C32.8923 75.6606 33.7389 75.3921 34.1845 74.5868Z" fill="#FF007A"/>
<path fill-rule="evenodd" clip-rule="evenodd" d="M52.2303 51.0535C51.1609 51.3666 50.1361 52.5299 49.8242 53.6931C49.646 54.409 49.7351 55.7064 50.047 56.1091C50.5371 56.7355 50.9827 56.9144 52.2303 56.9144C54.6809 56.9144 56.7751 55.8407 56.9979 54.5432C57.2207 53.4694 56.285 51.993 54.9928 51.3219C54.3245 50.964 52.9432 50.8298 52.2303 51.0535ZM55.0819 53.2905C55.4384 52.7536 55.3047 52.172 54.6364 51.7693C53.4333 51.0087 51.6065 51.6351 51.6065 52.7983C51.6065 53.3799 52.5422 54.0063 53.4333 54.0063C54.0126 54.0063 54.8146 53.6484 55.0819 53.2905Z" fill="#FF007A"/>
<defs>
<linearGradient id="paint0_linear_9993_2940" x1="100.5" y1="12.5" x2="14" y2="103.5" gradientUnits="userSpaceOnUse">
<stop stop-color="#FFC5E1"/>
<stop offset="1" stop-color="white"/>
</linearGradient>
</defs>
</svg>
