<svg width="48" height="48" viewBox="0 0 48 48" fill="none" xmlns="http://www.w3.org/2000/svg">
<g clip-path="url(#clip0_10737_13893)">
<path d="M23.9845 48C37.244 48 47.9845 37.2595 47.9845 24C47.9845 10.7405 37.244 0 23.9845 0C10.725 0 0 10.7405 0 24C0 37.2595 10.7405 48 23.9845 48" fill="url(#paint0_linear_10737_13893)"/>
<path d="M19.3593 11.5091C18.9851 11.4554 18.9672 11.4375 19.1455 11.4196C19.4841 11.366 20.2683 11.4375 20.8208 11.5628C22.1041 11.867 23.2625 12.6545 24.4923 14.0325L24.8131 14.4083L25.2765 14.3367C27.2548 14.0146 29.2866 14.2651 30.9798 15.0526C31.4432 15.2673 32.1739 15.6968 32.2631 15.8042C32.2987 15.84 32.3522 16.0726 32.3878 16.3053C32.5126 17.1464 32.4591 17.7728 32.1918 18.256C32.0492 18.5244 32.0492 18.596 32.1383 18.8286C32.2096 19.0076 32.4235 19.1329 32.6195 19.1329C33.0473 19.1329 33.4928 18.4528 33.7067 17.5043L33.7958 17.1285L33.9562 17.3075C34.8652 18.3275 35.5781 19.7413 35.685 20.7435L35.7207 21.0119L35.5603 20.7793C35.2929 20.3677 35.0434 20.0992 34.7048 19.8666C34.0988 19.455 33.4572 19.3297 31.764 19.2402C30.2313 19.1508 29.3579 19.0255 28.5024 18.7391C27.041 18.2559 26.2924 17.6296 24.5636 15.321C23.7972 14.3009 23.316 13.7461 22.8348 13.2808C21.7832 12.2608 20.7317 11.7239 19.3593 11.5091Z" fill="#FF007A"/>
<path d="M32.6373 13.782C32.673 13.102 32.7621 12.6546 32.9581 12.243C33.0294 12.0819 33.1007 11.9387 33.1185 11.9387C33.1364 11.9387 33.1007 12.064 33.0472 12.2072C32.9047 12.6009 32.8868 13.1557 32.976 13.782C33.1007 14.5873 33.1542 14.6947 34.0097 15.5716C34.4018 15.9832 34.8652 16.5022 35.0434 16.717L35.3464 17.1107L35.0434 16.8244C34.6691 16.4664 33.8136 15.7864 33.6176 15.6969C33.4928 15.6253 33.475 15.6253 33.3859 15.7148C33.3146 15.7864 33.2968 15.8938 33.2968 16.4127C33.2789 17.2181 33.172 17.7192 32.9047 18.2381C32.7621 18.5066 32.7443 18.4529 32.869 18.1487C32.9581 17.916 32.976 17.8086 32.976 17.0391C32.976 15.4821 32.7977 15.1063 31.7105 14.48C31.4432 14.3189 30.9798 14.0863 30.7125 13.961C30.4273 13.8357 30.2134 13.7283 30.2312 13.7283C30.2669 13.6925 31.3184 13.9968 31.7284 14.1757C32.3522 14.4263 32.4591 14.4442 32.5304 14.4263C32.5839 14.3726 32.6195 14.2294 32.6373 13.782Z" fill="#FF007A"/>
<path d="M20.0901 16.4486C19.3415 15.4106 18.8603 13.8 18.9672 12.6009L19.0029 12.2251L19.1811 12.2609C19.5019 12.3146 20.0544 12.5293 20.3218 12.6904C21.0347 13.1199 21.3555 13.7105 21.6585 15.178C21.7476 15.6075 21.8723 16.1085 21.9258 16.2696C22.0149 16.5381 22.3536 17.1644 22.6387 17.5581C22.8348 17.8445 22.71 17.9876 22.2644 17.9518C21.5872 17.8803 20.6782 17.2539 20.0901 16.4486Z" fill="#FF007A"/>
<path d="M31.7284 24.2332C28.1995 22.8015 26.9519 21.5667 26.9519 19.4729C26.9519 19.1686 26.9697 18.9181 26.9697 18.9181C26.9875 18.9181 27.1123 19.0255 27.2727 19.1507C27.9856 19.7234 28.7876 19.974 31.0155 20.2961C32.3165 20.4929 33.0651 20.6361 33.7424 20.8688C35.8989 21.5846 37.2356 23.0521 37.5564 25.0386C37.6456 25.6112 37.5921 26.7029 37.4495 27.2756C37.3247 27.723 36.9683 28.5462 36.8792 28.5641C36.8614 28.5641 36.8257 28.4746 36.8257 28.3314C36.7901 27.5798 36.4158 26.864 35.792 26.3092C35.0434 25.6649 34.081 25.1817 31.7284 24.2332Z" fill="#FF007A"/>
<path d="M29.2332 24.8238C29.1975 24.5553 29.1084 24.2153 29.0549 24.0722L28.9658 23.8037L29.1262 24.0006C29.3579 24.269 29.5362 24.5911 29.6966 25.0385C29.8213 25.3786 29.8213 25.4859 29.8213 26.0407C29.8213 26.5776 29.8035 26.7029 29.6966 27.0071C29.5183 27.4903 29.3045 27.8303 28.948 28.2061C28.3064 28.8683 27.4687 29.2262 26.2746 29.3873C26.0607 29.4052 25.4547 29.4589 24.9201 29.4947C23.5833 29.5663 22.6922 29.7094 21.8902 29.9958C21.7832 30.0315 21.6763 30.0673 21.6585 30.0494C21.6228 30.0137 22.1753 29.6915 22.6209 29.4768C23.2447 29.1725 23.8863 29.0115 25.2943 28.7609C25.9894 28.6535 26.7023 28.5104 26.8806 28.4388C28.645 27.884 29.5183 26.506 29.2332 24.8238Z" fill="#FF007A"/>
<path d="M30.8551 27.7051C30.3917 26.685 30.2847 25.7186 30.5342 24.8059C30.5699 24.7164 30.6055 24.627 30.6412 24.627C30.6768 24.627 30.7838 24.6806 30.8907 24.7522C31.1046 24.8954 31.5501 25.1459 32.6908 25.7723C34.1344 26.5597 34.9543 27.1682 35.5246 27.8661C36.0237 28.4746 36.3267 29.1726 36.4692 30.0316C36.5583 30.5148 36.5049 31.678 36.3801 32.1612C35.988 33.6824 35.0969 34.8993 33.7958 35.5973C33.5998 35.7046 33.4394 35.7762 33.4215 35.7762C33.4037 35.7762 33.475 35.5973 33.5819 35.3825C34.0097 34.4698 34.0632 33.5929 33.7423 32.6086C33.5463 32.0001 33.1364 31.2664 32.3165 30.0316C31.3363 28.5999 31.1046 28.2241 30.8551 27.7051Z" fill="#FF007A"/>
<path d="M17.5771 33.1812C18.896 32.0716 20.5178 31.2842 22.0149 31.0337C22.6566 30.9263 23.7259 30.9621 24.3141 31.1231C25.2587 31.3737 26.1142 31.9106 26.5598 32.5727C26.9875 33.217 27.1836 33.7718 27.3796 35.0066C27.4509 35.4898 27.54 35.9909 27.5578 36.0983C27.7004 36.7425 27.9856 37.2436 28.342 37.512C28.8945 37.9237 29.857 37.9416 30.8016 37.5836C30.962 37.5299 31.1046 37.4763 31.1046 37.4942C31.1402 37.5299 30.659 37.8521 30.3382 38.0131C29.8926 38.2458 29.5362 38.3174 29.055 38.3174C28.1995 38.3174 27.4687 37.87 26.8806 36.9752C26.7558 36.7962 26.5063 36.2772 26.2924 35.794C25.6686 34.3444 25.3478 33.9149 24.6171 33.4317C23.9755 33.0201 23.1556 32.9307 22.5318 33.2349C21.712 33.6286 21.4981 34.6845 22.0684 35.3287C22.3001 35.5972 22.7279 35.8119 23.0843 35.8656C23.7438 35.9551 24.3141 35.4361 24.3141 34.774C24.3141 34.3444 24.1537 34.0939 23.7259 33.897C23.1556 33.6465 22.5318 33.9328 22.5496 34.4876C22.5496 34.7203 22.6566 34.8634 22.8883 34.9708C23.0308 35.0424 23.0308 35.0424 22.9239 35.0245C22.407 34.9171 22.2823 34.2729 22.6922 33.8612C23.1912 33.3602 24.2428 33.5749 24.5993 34.2729C24.7418 34.5592 24.7597 35.1319 24.6349 35.4898C24.3319 36.2772 23.4764 36.6888 22.6031 36.4562C22.0149 36.2951 21.7654 36.1341 21.0525 35.4003C19.8049 34.1118 19.3237 33.8612 17.5414 33.5928L17.2028 33.5391L17.5771 33.1812Z" fill="#FF007A"/>
<path fill-rule="evenodd" clip-rule="evenodd" d="M11.0143 7.66724C15.167 12.7318 18.7533 17.3253 19.0741 17.7548C19.3414 18.1127 19.2345 18.4528 18.7889 18.7033C18.5394 18.8465 18.0225 18.9897 17.773 18.9897C17.4879 18.9897 17.1492 18.8465 16.9175 18.6138C16.7571 18.4528 16.062 17.4327 14.4936 14.9809C13.2995 13.1018 12.2836 11.5449 12.2658 11.527C12.1945 11.4912 12.1945 11.4912 14.3689 15.3925C15.7412 17.8443 16.1868 18.7212 16.1868 18.8286C16.1868 19.0612 16.1155 19.1865 15.8303 19.5086C15.3491 20.0455 15.1352 20.654 14.9748 21.9246C14.7966 23.3384 14.3154 24.3406 12.943 26.0407C12.141 27.0429 12.0163 27.2219 11.8202 27.6335C11.5707 28.1346 11.4994 28.4209 11.4638 29.0652C11.4281 29.7452 11.4994 30.1747 11.6954 30.819C11.8737 31.3916 12.0697 31.7675 12.5509 32.5012C12.9609 33.1455 13.2104 33.6287 13.2104 33.8076C13.2104 33.9508 13.246 33.9508 13.8877 33.8076C15.4204 33.4497 16.6858 32.8412 17.3809 32.0896C17.8087 31.6243 17.9156 31.3737 17.9156 30.7295C17.9156 30.3179 17.8978 30.2284 17.7908 29.9779C17.6126 29.5841 17.274 29.262 16.5433 28.7609C15.5808 28.0988 15.1709 27.5619 15.064 26.846C14.9748 26.2376 15.0818 25.826 15.6165 24.6985C16.169 23.5353 16.3116 23.0521 16.4007 21.8709C16.4541 21.1193 16.5433 20.8151 16.7571 20.5824C16.9888 20.3319 17.1849 20.2424 17.7374 20.1708C18.6463 20.0455 19.2345 19.8129 19.6979 19.3655C20.1078 18.9897 20.286 18.6138 20.3039 18.0591L20.3217 17.6474L20.09 17.3969C19.2523 16.4305 10.4618 6.89771 10.4083 6.89771C10.3905 6.89771 10.6757 7.23773 11.0143 7.66724ZM13.6738 29.8347C13.8698 29.4947 13.7629 29.0651 13.4421 28.8504C13.1391 28.6535 12.6757 28.743 12.6757 29.0115C12.6757 29.083 12.7113 29.1546 12.8183 29.1904C12.9787 29.2799 12.9965 29.3694 12.8718 29.5662C12.747 29.7631 12.747 29.9421 12.9074 30.0673C13.1569 30.2642 13.4956 30.1568 13.6738 29.8347Z" fill="#FF007A"/>
<path fill-rule="evenodd" clip-rule="evenodd" d="M20.8921 20.4214C20.4644 20.5467 20.0544 21.012 19.9297 21.4773C19.8584 21.7636 19.894 22.2826 20.0188 22.4437C20.2148 22.6942 20.3931 22.7658 20.8921 22.7658C21.8724 22.7658 22.71 22.3363 22.7991 21.8173C22.8883 21.3878 22.514 20.7972 21.9971 20.5288C21.7298 20.3856 21.1773 20.332 20.8921 20.4214ZM22.0328 21.3162C22.1753 21.1015 22.1219 20.8688 21.8545 20.7078C21.3733 20.4035 20.6426 20.6541 20.6426 21.1194C20.6426 21.352 21.0169 21.6026 21.3733 21.6026C21.605 21.6026 21.9258 21.4594 22.0328 21.3162Z" fill="#FF007A"/>
</g>
<defs>
<linearGradient id="paint0_linear_10737_13893" x1="40.2" y1="5" x2="5.6" y2="41.4" gradientUnits="userSpaceOnUse">
<stop stop-color="#FFC5E1"/>
<stop offset="1" stop-color="white"/>
</linearGradient>
<clipPath id="clip0_10737_13893">
<rect width="48" height="48" rx="24" fill="white"/>
</clipPath>
</defs>
</svg>
