<svg width="24" height="24" viewBox="0 0 24 24" fill="none" xmlns="http://www.w3.org/2000/svg">
<rect width="24" height="24" rx="8" fill="black"/>
<path fill-rule="evenodd" clip-rule="evenodd" d="M15.4903 9.78154C16.5613 10.5429 17.8439 10.9497 19.1579 10.9448V8.34054C18.8996 8.34125 18.642 8.3136 18.3897 8.25807V10.3328C17.0727 10.3351 15.7883 9.92365 14.7178 9.15653V14.5125C14.7145 15.3914 14.4735 16.253 14.0203 17.006C13.567 17.759 12.9184 18.3753 12.1433 18.7896C11.3682 19.2038 10.4954 19.4006 9.61753 19.359C8.73963 19.3174 7.88935 19.0391 7.15685 18.5534C7.8344 19.2389 8.70014 19.708 9.64444 19.9012C10.5887 20.0944 11.5691 20.003 12.4615 19.6386C13.3538 19.2742 14.1179 18.6533 14.6571 17.8543C15.1963 17.0554 15.4863 16.1144 15.4903 15.1506V9.78154ZM16.4409 7.12524C15.8962 6.53491 15.5621 5.78108 15.4903 4.9811V4.64255H14.7612C14.8513 5.15106 15.0474 5.6349 15.3368 6.06264C15.6262 6.49037 16.0024 6.85242 16.4409 7.12524ZM8.84525 16.4917C8.59252 16.1612 8.43764 15.7664 8.39824 15.3523C8.35883 14.9381 8.43649 14.5212 8.62237 14.1489C8.80826 13.7767 9.0949 13.4642 9.44967 13.2468C9.80444 13.0295 10.2131 12.9161 10.6291 12.9196C10.8588 12.9195 11.0872 12.9547 11.3062 13.0238V10.3328C11.0502 10.2989 10.7919 10.2843 10.5336 10.2894V12.3814C10.0003 12.2128 9.42297 12.2511 8.91657 12.4888C8.41018 12.7265 8.01179 13.146 7.80064 13.664C7.5895 14.182 7.58107 14.7606 7.77704 15.2845C7.97301 15.8084 8.35901 16.2394 8.85827 16.4917H8.84525Z" fill="#EE1D52"/>
<path fill-rule="evenodd" clip-rule="evenodd" d="M14.7174 9.13916C15.7879 9.90629 17.0723 10.3177 18.3893 10.3154V8.24071C17.639 8.08206 16.9573 7.6919 16.4405 7.12524C16.002 6.85242 15.6259 6.49037 15.3365 6.06264C15.0471 5.6349 14.8509 5.15106 14.7608 4.64255H12.8423V15.1506C12.8406 15.6157 12.6932 16.0686 12.4208 16.4456C12.1485 16.8227 11.765 17.105 11.324 17.253C10.883 17.4009 10.4068 17.4071 9.96217 17.2705C9.51754 17.134 9.12682 16.8617 8.84488 16.4917C8.39805 16.2663 8.04021 15.8969 7.82909 15.4431C7.61798 14.9893 7.56589 14.4776 7.68125 13.9906C7.79661 13.5036 8.07268 13.0697 8.46491 12.7588C8.85715 12.448 9.34268 12.2783 9.84316 12.2772C10.0728 12.278 10.301 12.3131 10.5203 12.3814V10.2894C9.57301 10.3121 8.65302 10.6109 7.87321 11.1491C7.0934 11.6874 6.48771 12.4416 6.13049 13.3192C5.77328 14.1968 5.68008 15.1596 5.86234 16.0894C6.04459 17.0192 6.49438 17.8756 7.15648 18.5534C7.88913 19.0426 8.74075 19.3238 9.62061 19.3672C10.5005 19.4106 11.3756 19.2145 12.1529 18.7998C12.9301 18.3852 13.5803 17.7674 14.0342 17.0124C14.4881 16.2574 14.7287 15.3935 14.7304 14.5125L14.7174 9.13916Z" fill="white"/>
<path fill-rule="evenodd" clip-rule="evenodd" d="M18.3893 8.24071L18.3896 7.68062C17.7005 7.68355 17.0248 7.49108 16.4409 7.12524C16.9564 7.69353 17.6382 8.08401 18.3893 8.24071ZM14.7612 4.64255C14.7612 4.54272 14.7306 4.43838 14.7176 4.33855V4H12.07V14.5123C12.0677 15.101 11.832 15.6646 11.4145 16.0796C10.9971 16.4947 10.432 16.7271 9.8434 16.7259C9.49681 16.7277 9.15485 16.6475 8.84525 16.4917C9.1272 16.8617 9.51754 17.134 9.96217 17.2705C10.4068 17.4071 10.883 17.4009 11.324 17.253C11.765 17.105 12.1485 16.8227 12.4208 16.4456C12.6932 16.0686 12.8406 15.6157 12.8423 15.1506V4.64255H14.7612ZM10.5205 10.2848V9.69021C9.43102 9.54221 8.32353 9.76757 7.37853 10.3296C6.43353 10.8916 5.70674 11.7571 5.3166 12.785C4.92647 13.813 4.896 14.9427 5.23015 15.9902C5.56431 17.0377 6.24352 17.9413 7.15685 18.5534C6.49976 17.874 6.05464 17.0178 5.8761 16.0897C5.69756 15.1616 5.79321 14.2015 6.15136 13.3269C6.50951 12.4522 7.11466 11.7008 7.89287 11.1644C8.67108 10.6281 9.58866 10.33 10.5335 10.3065L10.5205 10.2848Z" fill="#69C9D0"/>
</svg>
