<svg width="24" height="25" viewBox="0 0 24 25" fill="none" xmlns="http://www.w3.org/2000/svg">
<rect y="0.516357" width="24" height="24" rx="8" fill="white" fill-opacity="0.05"/>
<rect y="0.516357" width="24" height="24" rx="8" fill="#4746FF"/>
<path d="M8.09089 8.20492C8.18576 8.08577 8.32975 8.01636 8.48205 8.01636L15.5179 8.01636C15.6702 8.01636 15.8142 8.08577 15.9091 8.20491L16.3003 7.89347L15.9091 8.20491L19.0129 12.1031C19.1795 12.3124 19.1519 12.6158 18.9502 12.7916L12.3206 18.5666C12.1322 18.7307 11.8516 18.7305 11.6634 18.5662L5.04882 12.792C4.84742 12.6162 4.81995 12.3131 4.98648 12.1039L8.09089 8.20492Z" stroke="white"/>
<line x1="5.0166" y1="12.5444" x2="19.0505" y2="12.5444" stroke="white"/>
<path d="M12.0003 18.5164L15.5002 8.51634" stroke="white"/>
<path d="M8.5 8.51636L12 18.5164" stroke="white" stroke-linecap="round"/>
</svg>
