<svg width="21" height="21" viewBox="0 0 21 21" fill="none" xmlns="http://www.w3.org/2000/svg">
<path d="M3.625 0.448486C1.90894 0.448486 0.5 1.85743 0.5 3.57349V17.3235C0.5 19.0395 1.90894 20.4485 3.625 20.4485H17.375C19.0911 20.4485 20.5 19.0395 20.5 17.3235V3.57349C20.5 1.85743 19.0911 0.448486 17.375 0.448486H3.625ZM3.625 2.11515H17.375C18.1906 2.11515 18.8333 2.75788 18.8333 3.57349V17.3235C18.8333 17.5993 18.7555 17.8525 18.6266 18.0706C17.6832 16.4729 16.2348 15.4238 15.5 14.9683V10.4485C15.5 6.95932 13.4908 4.61515 10.5 4.61515C7.51167 4.61515 5.50333 6.732 5.5 9.88533V9.88859V9.89347V15.6324C4.48239 16.2038 3.33071 17.054 2.48893 18.2366C2.2895 17.9874 2.16667 17.6733 2.16667 17.3235V3.57349C2.16667 2.75788 2.80939 2.11515 3.625 2.11515ZM9.09863 7.12655C11.172 7.12655 11.3333 9.41721 11.3333 10.1197V18.7818H4.17513C5.71619 17.0037 8.20206 16.2587 8.23112 16.2509L8.83333 16.0751V14.1204L8.39876 13.8827C7.63793 13.4677 7.16667 12.591 7.16667 11.5943V9.89347V9.89185C7.1675 8.86435 7.57447 7.12655 9.09863 7.12655Z" fill="white"/>
</svg>
