<svg width="88" height="88" viewBox="0 0 88 88" fill="none" xmlns="http://www.w3.org/2000/svg">
<path fill-rule="evenodd" clip-rule="evenodd" d="M44 88C19.8 88 0 68.2004 0 43.7809C0.22 19.5814 19.8 -0.21818 44.22 0.00181575C68.42 0.221811 88 19.8014 88 44.4409C87.78 68.4204 68.2 88 44 88Z" fill="#FC070C"/>
<path fill-rule="evenodd" clip-rule="evenodd" d="M72.5022 35.9154C71.4215 34.9175 70.1685 33.7009 68.8628 32.4332C67.0288 30.6525 65.0909 28.7709 63.3806 27.2529L63.2073 27.1316C62.9191 26.9001 62.5941 26.7186 62.2458 26.5945L60.9255 26.3482L60.9252 26.3482C51.8165 24.6486 22.2954 19.1403 21.6881 19.2141C21.5085 19.2393 21.3368 19.3044 21.1857 19.4047L21.0211 19.5346C20.8184 19.7404 20.6645 19.9891 20.5707 20.2623L20.5273 20.3749V20.9899V21.0852C22.5317 26.6664 27.7384 39.1304 32.5459 50.639C36.6104 60.3687 40.3896 69.4155 41.7071 73.0427L41.7076 73.0442C41.8809 73.5817 42.2101 74.602 42.8245 74.6539H42.9631C43.2923 74.6539 44.6956 72.8002 44.6956 72.8002C44.6956 72.8002 69.7822 42.3776 72.3203 39.1378C72.6488 38.7387 72.9388 38.3095 73.1865 37.8558C73.3151 37.1337 73.0553 36.397 72.5022 35.9154ZM51.1318 39.4583L61.8386 30.5793L68.1189 36.3658L51.1318 39.4583ZM28.5401 23.7706L46.9739 38.8779L58.365 29.2713L28.5401 23.7706ZM48.6371 42.8367L67.504 39.7962L45.9344 65.7836L48.6371 42.8367ZM45.4319 41.7365L26.0366 25.2778L42.6253 65.8009L45.4319 41.7365Z" fill="white"/>
</svg>
