<svg width="120" height="120" viewBox="0 0 120 120" fill="none" xmlns="http://www.w3.org/2000/svg">
<path fill-rule="evenodd" clip-rule="evenodd" d="M60 120C27 120 0 93.0006 0 59.7012C0.3 26.7019 27 -0.297518 60.3 0.00247602C93.3 0.30247 120 27.0019 120 60.6012C119.7 93.3006 93 120 60 120Z" fill="#FC070C"/>
<path fill-rule="evenodd" clip-rule="evenodd" d="M93.9044 44.2277L93.9037 44.227C91.4029 41.7988 88.7603 39.233 86.428 37.163L86.1918 36.9976C85.7987 36.682 85.3555 36.4344 84.8806 36.2653L83.0804 35.9294C70.6603 33.6119 30.4028 26.1003 29.5747 26.201C29.3297 26.2353 29.0956 26.3242 28.8895 26.4609L28.6651 26.6381C28.3887 26.9188 28.1788 27.2578 28.0509 27.6304L27.9918 27.7839V28.6226V28.7525C30.725 36.3632 37.825 53.3596 44.3807 69.0531L44.3808 69.0534L44.3812 69.0543L44.3816 69.0552C49.9237 82.3223 55.0767 94.6578 56.8733 99.6037L56.8739 99.6058C57.1104 100.339 57.5592 101.73 58.3971 101.801H58.5861C59.0349 101.801 60.9486 99.2729 60.9486 99.2729C60.9486 99.2729 95.1575 57.7876 98.6185 53.3697C99.0665 52.8255 99.462 52.2402 99.7998 51.6215C99.9751 50.6368 99.6208 49.6323 98.8666 48.9755C97.3934 47.6153 95.6855 45.957 93.9058 44.229L93.9051 44.2283L93.9044 44.2277ZM69.7252 53.8068L84.3254 41.699L92.8895 49.5897L69.7252 53.8068ZM38.9183 32.4144L64.0552 53.0153L79.5886 39.9153L38.9183 32.4144ZM66.3232 58.4136L92.0508 54.2675L62.6377 89.7048L66.3232 58.4136ZM61.9526 56.9134L35.5045 34.4698L58.1254 89.7285L61.9526 56.9134Z" fill="white"/>
</svg>
