<svg width="48" height="48" viewBox="0 0 48 48" fill="none" xmlns="http://www.w3.org/2000/svg">
<g clip-path="url(#clip0_16_2)">
<path d="M48 0H0V48H48V0Z" fill="url(#paint0_radial_16_2)"/>
<path d="M24.9222 13.4231H17.385C16.9727 13.4231 16.5773 13.5869 16.2857 13.8784C15.9942 14.17 15.8304 14.5654 15.8304 14.9777L15.8142 17.4596V17.6183L21.8581 14.292L22.9145 16.2147L15.8064 20.1202V22.302L26.2026 16.5902L27.259 18.5134L15.8064 24.8048V27.0778L29.7915 19.4388L30.8479 21.3613L20.9581 26.7633L20.7746 26.8632L15.8064 29.5773L15.83 34.5769H18.9541C19.378 34.5769 19.7845 34.4085 20.0843 34.1088C20.384 33.8091 20.5524 33.4026 20.5525 32.9787V29.3557C20.5525 28.9871 20.6989 28.6336 20.9595 28.373C21.2201 28.1124 21.5736 27.966 21.9422 27.966H24.9225C28.9384 27.966 32.194 24.7104 32.194 20.6942C32.1938 16.6787 28.9382 13.4231 24.9222 13.4231Z" fill="url(#paint1_linear_16_2)"/>
</g>
<defs>
<radialGradient id="paint0_radial_16_2" cx="0" cy="0" r="1" gradientUnits="userSpaceOnUse" gradientTransform="translate(24 24) scale(24)">
<stop stop-color="#04271A"/>
<stop offset="1" stop-color="#030602"/>
</radialGradient>
<linearGradient id="paint1_linear_16_2" x1="16.1767" y1="13.8963" x2="26.3058" y2="30.3237" gradientUnits="userSpaceOnUse">
<stop stop-color="#0BDA8E"/>
<stop offset="1" stop-color="#0EA2C4"/>
</linearGradient>
<clipPath id="clip0_16_2">
<rect width="48" height="48" fill="white"/>
</clipPath>
</defs>
</svg>
