<svg width="31" height="34" viewBox="0 0 31 34" fill="none" xmlns="http://www.w3.org/2000/svg">
<path fill-rule="evenodd" clip-rule="evenodd" d="M26.5 17C26.5 23.0751 21.5751 28 15.5 28C9.42487 28 4.5 23.0751 4.5 17C4.5 10.9249 9.42487 6 15.5 6C21.5751 6 26.5 10.9249 26.5 17ZM9.5 21C9.5 21.2652 9.60536 21.5196 9.79289 21.7071L12.7929 24.7071C13.1834 25.0976 13.8166 25.0976 14.2071 24.7071C14.5976 24.3166 14.5976 23.6834 14.2071 23.2929L12.9142 22H13.25H17.5C18.6541 22 19.7034 21.7108 20.4571 20.9571C21.2108 20.2034 21.5 19.1541 21.5 18C21.5 17.4477 21.0523 17 20.5 17C19.9477 17 19.5 17.4477 19.5 18C19.5 18.8459 19.2892 19.2966 19.0429 19.5429C18.7966 19.7892 18.3459 20 17.5 20H13.25H12.9142L14.2071 18.7071C14.5976 18.3166 14.5976 17.6834 14.2071 17.2929C13.8166 16.9024 13.1834 16.9024 12.7929 17.2929L9.79289 20.2929C9.60536 20.4804 9.5 20.7348 9.5 21ZM21.2071 12.2929C21.3946 12.4804 21.5 12.7348 21.5 13C21.5 13.2652 21.3946 13.5196 21.2071 13.7071L18.2071 16.7071C17.8166 17.0976 17.1834 17.0976 16.7929 16.7071C16.4024 16.3166 16.4024 15.6834 16.7929 15.2929L18.0858 14H17.75H13.5C12.6541 14 12.2034 14.2108 11.9571 14.4571C11.7108 14.7034 11.5 15.1541 11.5 16C11.5 16.5523 11.0523 17 10.5 17C9.94771 17 9.5 16.5523 9.5 16C9.5 14.8459 9.78921 13.7966 10.5429 13.0429C11.2966 12.2892 12.3459 12 13.5 12H17.75H18.0858L16.7929 10.7071C16.4024 10.3166 16.4024 9.68342 16.7929 9.29289C17.1834 8.90237 17.8166 8.90237 18.2071 9.29289L21.2071 12.2929Z" fill="#767A81"/>
</svg>
