<svg width="24" height="24" viewBox="0 0 24 24" fill="none" xmlns="http://www.w3.org/2000/svg">
<rect y="-0.0065918" width="24" height="24" rx="8" fill="#5865F2"/>
<g clip-path="url(#clip0_3802_3211)">
<path d="M17.5447 6.76387C16.5249 6.29595 15.4313 5.95121 14.2879 5.75376C14.2671 5.74995 14.2463 5.75947 14.2356 5.77852C14.0949 6.02866 13.9392 6.35499 13.8301 6.61149C12.6003 6.42738 11.3768 6.42738 10.1722 6.61149C10.0631 6.34929 9.90166 6.02866 9.76038 5.77852C9.74966 5.76011 9.72886 5.75058 9.70803 5.75376C8.56527 5.95058 7.47171 6.29532 6.45129 6.76387C6.44246 6.76768 6.43488 6.77404 6.42986 6.78228C4.35559 9.88119 3.78737 12.9039 4.06612 15.8892C4.06738 15.9038 4.07558 15.9178 4.08693 15.9266C5.45547 16.9317 6.78114 17.5418 8.08219 17.9462C8.10301 17.9526 8.12507 17.945 8.13832 17.9278C8.44608 17.5075 8.72043 17.0644 8.95565 16.5984C8.96953 16.5711 8.95628 16.5387 8.92791 16.5279C8.49275 16.3628 8.0784 16.1616 7.67982 15.933C7.64829 15.9146 7.64577 15.8695 7.67477 15.8479C7.75865 15.7851 7.84255 15.7197 7.92264 15.6536C7.93713 15.6416 7.95732 15.639 7.97435 15.6466C10.5929 16.8422 13.4277 16.8422 16.0153 15.6466C16.0323 15.6384 16.0525 15.6409 16.0677 15.653C16.1478 15.719 16.2316 15.7851 16.3161 15.8479C16.3451 15.8695 16.3433 15.9146 16.3117 15.933C15.9131 16.166 15.4988 16.3628 15.063 16.5273C15.0346 16.538 15.022 16.5711 15.0359 16.5984C15.2762 17.0637 15.5505 17.5069 15.8526 17.9272C15.8652 17.945 15.8879 17.9526 15.9087 17.9462C17.2161 17.5418 18.5417 16.9317 19.9103 15.9266C19.9223 15.9178 19.9298 15.9044 19.9311 15.8898C20.2647 12.4385 19.3723 9.44058 17.5655 6.78291C17.5611 6.77404 17.5535 6.76768 17.5447 6.76387ZM9.34668 14.0715C8.55833 14.0715 7.90876 13.3477 7.90876 12.4589C7.90876 11.57 8.54574 10.8462 9.34668 10.8462C10.1539 10.8462 10.7972 11.5764 10.7846 12.4589C10.7846 13.3477 10.1476 14.0715 9.34668 14.0715ZM14.6632 14.0715C13.8748 14.0715 13.2253 13.3477 13.2253 12.4589C13.2253 11.57 13.8622 10.8462 14.6632 10.8462C15.4704 10.8462 16.1137 11.5764 16.1011 12.4589C16.1011 13.3477 15.4704 14.0715 14.6632 14.0715Z" fill="white"/>
</g>
<defs>
<clipPath id="clip0_3802_3211">
<rect width="16" height="16" fill="white" transform="translate(4 3.99341)"/>
</clipPath>
</defs>
</svg>
