<svg width="88" height="88" viewBox="0 0 88 88" fill="none" xmlns="http://www.w3.org/2000/svg">
<rect width="88" height="88" rx="44" fill="white"/>
<g clip-path="url(#clip0_12085_5106)">
<path d="M28.1641 44.0073C28.0163 46.576 29.9936 48.7751 32.5623 48.923C32.6547 48.923 32.7471 48.923 32.8395 48.923C35.4267 48.923 37.515 46.8347 37.4965 44.2475C37.4965 41.6603 35.4083 39.5721 32.8211 39.5906C30.3447 39.5906 28.2935 41.531 28.1641 44.0073Z" fill="#0033AD"/>
<path d="M10.7559 42.8061C9.92433 42.7507 9.20361 43.3975 9.16665 44.2291C9.12969 45.0607 9.75801 45.7814 10.5896 45.8184C11.4212 45.8738 12.1234 45.227 12.1789 44.3954C12.2343 43.5638 11.5875 42.8616 10.7559 42.8061Z" fill="#0033AD"/>
<path d="M27.8684 16.9156C28.6076 16.546 28.9033 15.622 28.5337 14.8828C28.1641 14.1436 27.2401 13.8479 26.5009 14.2175C25.7617 14.5871 25.466 15.4926 25.8356 16.2318C26.2052 16.9895 27.1107 17.3037 27.8684 16.9156Z" fill="#0033AD"/>
<path d="M32.5993 25.1762C33.745 24.6033 34.207 23.1989 33.6342 22.0531C33.0613 20.9073 31.6568 20.4453 30.511 21.0182C29.3653 21.5911 28.9033 22.9956 29.4762 24.1413C30.049 25.2871 31.4535 25.7491 32.5993 25.1762Z" fill="#0033AD"/>
<path d="M16.6695 30.8496C17.5565 31.4225 18.7392 31.1822 19.3306 30.2952C19.9035 29.4082 19.6632 28.2254 18.7762 27.6341C17.8892 27.0612 16.7064 27.3014 16.1151 28.1885C15.5237 29.0755 15.7824 30.2767 16.6695 30.8496Z" fill="#0033AD"/>
<path d="M19.497 41.9745C18.2034 41.9006 17.1131 42.88 17.0391 44.1736C16.9652 45.4672 17.9447 46.5575 19.2383 46.6315C20.5319 46.7054 21.6222 45.7259 21.6961 44.4323C21.77 43.1572 20.7906 42.0484 19.497 41.9745Z" fill="#0033AD"/>
<path d="M16.9282 57.6271C15.9857 58.1076 15.5977 59.2533 16.0781 60.2143C16.5586 61.1568 17.7044 61.5448 18.6653 61.0644C19.6078 60.5839 19.9959 59.4381 19.5154 58.4772C19.0349 57.5347 17.8707 57.1466 16.9282 57.6271Z" fill="#0033AD"/>
<path d="M25.9835 37.1513C27.2586 37.9829 28.9587 37.6317 29.7719 36.3566C30.6035 35.0815 30.2523 33.3813 28.9772 32.5682C27.7021 31.7366 26.0019 32.0877 25.1888 33.3629C24.3572 34.6195 24.7083 36.3197 25.9835 37.1513Z" fill="#0033AD"/>
<path d="M54.7199 24.9914C55.7917 25.6936 57.2517 25.3979 57.9539 24.3261C58.6561 23.2542 58.3605 21.7943 57.2886 21.0921C56.2168 20.3898 54.7569 20.6855 54.0546 21.7574C53.3339 22.8477 53.6296 24.2891 54.7199 24.9914Z" fill="#0033AD"/>
<path d="M59.4876 16.7678C60.1899 17.2298 61.1139 17.0265 61.5759 16.3243C62.0379 15.622 61.8346 14.698 61.1324 14.236C60.4301 13.774 59.5061 13.9773 59.0441 14.6611C58.6006 15.3633 58.8039 16.3058 59.4876 16.7678Z" fill="#0033AD"/>
<path d="M55.071 39.5536C52.5023 39.4058 50.2847 41.3831 50.1553 43.9519C50.0075 46.5206 51.9848 48.7382 54.5535 48.8675C54.6459 48.8675 54.7383 48.8675 54.8123 48.8675C57.381 48.8675 59.4692 46.7793 59.4692 44.1921C59.4877 41.7343 57.5473 39.683 55.071 39.5536Z" fill="#0033AD"/>
<path d="M34.1331 36.8186C34.9277 38.3894 36.5355 39.3874 38.3096 39.3874C40.8783 39.3874 42.9665 37.2991 42.9665 34.7119C42.9665 33.9912 42.8002 33.2705 42.4676 32.6052C41.3033 30.2952 38.4944 29.3712 36.2029 30.5354C33.8929 31.7182 32.9689 34.5271 34.1331 36.8186Z" fill="#0033AD"/>
<path d="M70.7051 30.8496C71.6475 30.3691 72.0171 29.2048 71.5367 28.2624C71.0562 27.3199 69.8919 26.9503 68.9495 27.4308C68.007 27.9112 67.6374 29.057 68.0994 29.9995C68.5983 30.942 69.7441 31.33 70.7051 30.8496Z" fill="#0033AD"/>
<path d="M58.8779 32.328C57.5288 33.0117 56.9744 34.6565 57.6582 36.0055C58.3419 37.3545 59.9867 37.9089 61.3357 37.2252C62.6847 36.5414 63.2391 34.8967 62.5554 33.5477C61.8716 32.1986 60.2269 31.6627 58.8779 32.328Z" fill="#0033AD"/>
<path d="M43.6318 16.0656C44.6852 16.121 45.5907 15.3079 45.6646 14.2545C45.7386 13.2012 44.9069 12.2956 43.8536 12.2217C42.8002 12.1663 41.8947 12.9609 41.8208 14.0143C41.7654 15.0861 42.5785 15.9916 43.6318 16.0656Z" fill="#0033AD"/>
<path d="M43.6134 28.133C45.1288 28.2254 46.4224 27.0612 46.4963 25.5458C46.5887 24.0304 45.4245 22.7368 43.9091 22.6629C42.3937 22.5705 41.1001 23.7348 41.0262 25.2501C40.9523 26.7655 42.0981 28.0591 43.6134 28.133Z" fill="#0033AD"/>
<path d="M28.7554 56.1487C30.1045 55.4649 30.6589 53.8202 29.9751 52.4712C29.2914 51.1221 27.6466 50.5677 26.2976 51.2515C24.9486 51.9353 24.3942 53.58 25.0779 54.929C25.7617 56.2781 27.4064 56.8325 28.7554 56.1487Z" fill="#0033AD"/>
<path d="M45.3874 32.1432C43.9829 34.3053 44.5743 37.1882 46.7365 38.5927C48.8986 39.9972 51.7815 39.4058 53.186 37.2436C54.5905 35.0815 53.9991 32.1986 51.8369 30.7941C51.0793 30.2952 50.1922 30.0364 49.2867 30.0364C47.7159 30.0364 46.256 30.8311 45.3874 32.1432Z" fill="#0033AD"/>
<path d="M53.5001 51.6581C52.3359 49.3481 49.5269 48.4241 47.2354 49.5883C44.9254 50.7525 44.0014 53.5615 45.1656 55.853C46.3299 58.163 49.1388 59.087 51.4303 57.9228C53.7219 56.777 54.6643 54.005 53.5186 51.695C53.5186 51.6765 53.5186 51.6765 53.5001 51.6581Z" fill="#0033AD"/>
<path d="M61.6498 51.3254C60.3747 50.4938 58.6745 50.8449 57.8614 52.1201C57.0298 53.3952 57.3809 55.0953 58.656 55.9085C59.9311 56.7401 61.6313 56.3889 62.4444 55.1138C63.276 53.8572 62.9249 52.157 61.6498 51.3254Z" fill="#0033AD"/>
<path d="M70.5942 44.3214C70.6681 43.0278 69.6886 41.9375 68.395 41.8636C67.1014 41.7897 66.0111 42.7691 65.9372 44.0627C65.8633 45.3563 66.8427 46.4466 68.1363 46.5206C69.4115 46.5945 70.5202 45.5966 70.5942 44.3214Z" fill="#0033AD"/>
<path d="M77.0437 42.6583C76.2121 42.6028 75.4914 43.2496 75.4544 44.0812C75.4175 44.9128 76.0458 45.6336 76.8774 45.6705C77.709 45.726 78.4112 45.0792 78.4667 44.2476C78.5036 43.416 77.8753 42.7137 77.0437 42.6583Z" fill="#0033AD"/>
<path d="M70.9638 57.6271C70.0767 57.0542 68.894 57.2944 68.3027 58.1815C67.7298 59.0685 67.97 60.2512 68.8571 60.8426C69.7441 61.4155 70.9268 61.1752 71.5182 60.2882C72.1095 59.4011 71.8508 58.1999 70.9638 57.6271Z" fill="#0033AD"/>
<path d="M28.1271 71.7089C27.4249 71.2469 26.5009 71.4502 26.0389 72.1339C25.5769 72.8362 25.7802 73.7602 26.4639 74.2222C27.1662 74.6842 28.0902 74.4809 28.5522 73.7971C29.0327 73.1134 28.8294 72.1709 28.1271 71.7089Z" fill="#0033AD"/>
<path d="M59.7649 71.561C59.0257 71.9306 58.73 72.8546 59.0996 73.5938C59.4692 74.333 60.3932 74.6287 61.1324 74.2591C61.8716 73.8895 62.1673 72.984 61.7977 72.2448C61.4281 71.4871 60.5226 71.1729 59.7649 71.561Z" fill="#0033AD"/>
<path d="M42.2458 56.3335C43.6503 54.1713 43.0589 51.2885 40.8968 49.8655C38.7346 48.461 35.8517 49.0524 34.4288 51.2145C33.0058 53.3767 33.6157 56.2596 35.7778 57.6825C36.5355 58.1815 37.4225 58.4402 38.3281 58.4402C39.9173 58.4587 41.3773 57.6641 42.2458 56.3335Z" fill="#0033AD"/>
<path d="M32.9134 63.4853C31.8416 62.783 30.3817 63.0787 29.6794 64.1506C28.9772 65.2224 29.2729 66.6823 30.3447 67.3846C31.4165 68.0868 32.8765 67.7911 33.5787 66.7193C34.2994 65.6474 34.0037 64.1875 32.9134 63.4853Z" fill="#0033AD"/>
<path d="M43.7982 72.4111C42.7448 72.3557 41.8393 73.1688 41.7654 74.2222C41.6915 75.2755 42.5231 76.181 43.5764 76.255C44.6298 76.3104 45.5353 75.5158 45.6092 74.4624C45.6647 73.3906 44.8515 72.485 43.7982 72.4111Z" fill="#0033AD"/>
<path d="M43.8166 60.3436C42.3013 60.2512 41.0077 61.4155 40.9337 62.9308C40.8413 64.4462 42.0056 65.7398 43.5209 65.8137C45.0363 65.8876 46.3299 64.7419 46.4038 63.2265C46.4962 61.7296 45.332 60.4176 43.8166 60.3436Z" fill="#0033AD"/>
<path d="M55.034 63.3004C53.8882 63.8918 53.4262 65.2963 54.0176 66.442C54.609 67.5878 56.0134 68.0498 57.1592 67.4584C58.305 66.8856 58.767 65.4811 58.1941 64.3353C57.6027 63.1896 56.1982 62.7091 55.034 63.3004Z" fill="#0033AD"/>
</g>
<defs>
<clipPath id="clip0_12085_5106">
<rect width="69.3" height="64.0332" fill="white" transform="translate(9.16669 12.2217)"/>
</clipPath>
</defs>
</svg>
