<svg width="120" height="120" viewBox="0 0 120 120" fill="none" xmlns="http://www.w3.org/2000/svg">
<rect width="120" height="120" rx="60" fill="white"/>
<g clip-path="url(#clip0_10033_3732)">
<path d="M38.4056 60.01C38.204 63.5128 40.9004 66.5116 44.4032 66.7132C44.5292 66.7132 44.6552 66.7132 44.7812 66.7132C48.3092 66.7132 51.1568 63.8656 51.1316 60.3376C51.1316 56.8096 48.284 53.962 44.756 53.9872C41.3792 53.9872 38.582 56.6332 38.4056 60.01Z" fill="#0033AD"/>
<path d="M14.6671 58.372C13.5331 58.2964 12.5503 59.1784 12.4999 60.3124C12.4495 61.4464 13.3063 62.4292 14.4403 62.4796C15.5743 62.5552 16.5319 61.6732 16.6075 60.5392C16.6831 59.4052 15.8011 58.4476 14.6671 58.372Z" fill="#0033AD"/>
<path d="M38.0023 23.0668C39.0103 22.5628 39.4135 21.3028 38.9095 20.2948C38.4055 19.2868 37.1455 18.8836 36.1375 19.3876C35.1295 19.8916 34.7263 21.1264 35.2303 22.1344C35.7343 23.1676 36.9691 23.596 38.0023 23.0668Z" fill="#0033AD"/>
<path d="M44.4535 34.3312C46.0159 33.55 46.6459 31.6348 45.8647 30.0724C45.0835 28.51 43.1683 27.88 41.6059 28.6612C40.0435 29.4424 39.4135 31.3576 40.1947 32.92C40.9759 34.4824 42.8911 35.1124 44.4535 34.3312Z" fill="#0033AD"/>
<path d="M22.7311 42.0676C23.9407 42.8488 25.5535 42.5212 26.3599 41.3116C27.1411 40.102 26.8135 38.4892 25.6039 37.6828C24.3943 36.9016 22.7815 37.2292 21.9751 38.4388C21.1687 39.6484 21.5215 41.2864 22.7311 42.0676Z" fill="#0033AD"/>
<path d="M26.5868 57.238C24.8228 57.1372 23.336 58.4728 23.2352 60.2368C23.1344 62.0008 24.47 63.4876 26.234 63.5884C27.998 63.6892 29.4848 62.3536 29.5856 60.5896C29.6864 58.8508 28.3508 57.3388 26.5868 57.238Z" fill="#0033AD"/>
<path d="M23.0839 78.5824C21.7987 79.2376 21.2695 80.8 21.9247 82.1104C22.5799 83.3956 24.1423 83.9248 25.4527 83.2696C26.7379 82.6144 27.2671 81.052 26.6119 79.7416C25.9567 78.4564 24.3691 77.9272 23.0839 78.5824Z" fill="#0033AD"/>
<path d="M35.4319 50.6608C37.1707 51.7948 39.4891 51.316 40.5979 49.5772C41.7319 47.8384 41.2531 45.52 39.5143 44.4112C37.7755 43.2772 35.4571 43.756 34.3483 45.4948C33.2143 47.2084 33.6931 49.5268 35.4319 50.6608Z" fill="#0033AD"/>
<path d="M74.618 34.0792C76.0796 35.0368 78.0704 34.6336 79.028 33.172C79.9856 31.7104 79.5824 29.7196 78.1208 28.762C76.6592 27.8044 74.6684 28.2076 73.7108 29.6692C72.728 31.156 73.1312 33.1216 74.618 34.0792Z" fill="#0033AD"/>
<path d="M81.1196 22.8652C82.0772 23.4952 83.3372 23.218 83.9672 22.2604C84.5972 21.3028 84.32 20.0428 83.3624 19.4128C82.4048 18.7828 81.1448 19.06 80.5148 19.9924C79.91 20.95 80.1872 22.2352 81.1196 22.8652Z" fill="#0033AD"/>
<path d="M75.0968 53.9368C71.594 53.7352 68.57 56.4316 68.3936 59.9344C68.192 63.4372 70.8884 66.4612 74.3912 66.6376C74.5172 66.6376 74.6432 66.6376 74.744 66.6376C78.2468 66.6376 81.0944 63.79 81.0944 60.262C81.1196 56.9104 78.4736 54.1132 75.0968 53.9368Z" fill="#0033AD"/>
<path d="M46.5451 50.2072C47.6287 52.3492 49.8211 53.71 52.2403 53.71C55.7431 53.71 58.5907 50.8624 58.5907 47.3344C58.5907 46.3516 58.3639 45.3688 57.9103 44.4616C56.3227 41.3116 52.4923 40.0516 49.3675 41.6392C46.2175 43.252 44.9575 47.0824 46.5451 50.2072Z" fill="#0033AD"/>
<path d="M96.4159 42.0676C97.7011 41.4124 98.2051 39.8248 97.5499 38.5396C96.8947 37.2544 95.3071 36.7504 94.0219 37.4056C92.7367 38.0608 92.2327 39.6232 92.8627 40.9084C93.5431 42.1936 95.1055 42.7228 96.4159 42.0676Z" fill="#0033AD"/>
<path d="M80.288 44.0836C78.4484 45.016 77.6924 47.2588 78.6248 49.0984C79.5572 50.938 81.8 51.694 83.6396 50.7616C85.4792 49.8292 86.2352 47.5864 85.3028 45.7468C84.3704 43.9072 82.1276 43.1764 80.288 44.0836Z" fill="#0033AD"/>
<path d="M59.498 21.9076C60.9344 21.9832 62.1692 20.8744 62.27 19.438C62.3708 18.0016 61.2368 16.7668 59.8004 16.666C58.364 16.5904 57.1292 17.674 57.0284 19.1104C56.9528 20.572 58.0616 21.8068 59.498 21.9076Z" fill="#0033AD"/>
<path d="M59.4728 38.3632C61.5392 38.4892 63.3032 36.9016 63.404 34.8352C63.53 32.7688 61.9424 31.0048 59.876 30.904C57.8096 30.778 56.0456 32.3656 55.9448 34.432C55.844 36.4984 57.4064 38.2624 59.4728 38.3632Z" fill="#0033AD"/>
<path d="M39.2119 76.5664C41.0515 75.634 41.8075 73.3912 40.8751 71.5516C39.9427 69.712 37.6999 68.956 35.8603 69.8884C34.0207 70.8208 33.2647 73.0636 34.1971 74.9032C35.1295 76.7428 37.3723 77.4988 39.2119 76.5664Z" fill="#0033AD"/>
<path d="M61.8919 43.8316C59.9767 46.78 60.7831 50.7112 63.7315 52.6264C66.6799 54.5416 70.6111 53.7352 72.5263 50.7868C74.4415 47.8384 73.6351 43.9072 70.6867 41.992C69.6535 41.3116 68.4439 40.9588 67.2091 40.9588C65.0671 40.9588 63.0763 42.0424 61.8919 43.8316Z" fill="#0033AD"/>
<path d="M72.9547 70.4428C71.3671 67.2928 67.5367 66.0328 64.4119 67.6204C61.2619 69.208 60.0019 73.0384 61.5895 76.1632C63.1771 79.3132 67.0075 80.5732 70.1323 78.9856C73.2571 77.4232 74.5423 73.6432 72.9799 70.4932C72.9799 70.468 72.9799 70.468 72.9547 70.4428Z" fill="#0033AD"/>
<path d="M84.0679 69.9892C82.3291 68.8552 80.0107 69.334 78.9019 71.0728C77.7679 72.8116 78.2467 75.13 79.9855 76.2388C81.7243 77.3728 84.0427 76.894 85.1515 75.1552C86.2855 73.4416 85.8067 71.1232 84.0679 69.9892Z" fill="#0033AD"/>
<path d="M96.2648 60.4384C96.3656 58.6744 95.03 57.1876 93.266 57.0868C91.502 56.986 90.0152 58.3216 89.9144 60.0856C89.8136 61.8496 91.1492 63.3364 92.9132 63.4372C94.652 63.538 96.164 62.1772 96.2648 60.4384Z" fill="#0033AD"/>
<path d="M105.06 58.1704C103.926 58.0948 102.943 58.9768 102.892 60.1108C102.842 61.2448 103.699 62.2276 104.833 62.278C105.967 62.3536 106.924 61.4716 107 60.3376C107.05 59.2036 106.194 58.246 105.06 58.1704Z" fill="#0033AD"/>
<path d="M96.7687 78.5824C95.5591 77.8012 93.9463 78.1288 93.1399 79.3384C92.3587 80.548 92.6863 82.1608 93.8959 82.9672C95.1055 83.7484 96.7183 83.4208 97.5247 82.2112C98.3311 81.0016 97.9783 79.3636 96.7687 78.5824Z" fill="#0033AD"/>
<path d="M38.3551 97.7848C37.3975 97.1548 36.1375 97.432 35.5075 98.3644C34.8775 99.322 35.1547 100.582 36.0871 101.212C37.0447 101.842 38.3047 101.565 38.9347 100.632C39.5899 99.7 39.3127 98.4148 38.3551 97.7848Z" fill="#0033AD"/>
<path d="M81.4976 97.5832C80.4896 98.0872 80.0864 99.3472 80.5904 100.355C81.0944 101.363 82.3544 101.766 83.3624 101.262C84.3704 100.758 84.7736 99.5236 84.2696 98.5156C83.7656 97.4824 82.5308 97.054 81.4976 97.5832Z" fill="#0033AD"/>
<path d="M57.608 76.8184C59.5232 73.87 58.7168 69.9388 55.7684 67.9984C52.82 66.0832 48.8888 66.8896 46.9484 69.838C45.008 72.7864 45.8396 76.7176 48.788 78.658C49.8212 79.3384 51.0308 79.6912 52.2656 79.6912C54.4328 79.7164 56.4236 78.6328 57.608 76.8184Z" fill="#0033AD"/>
<path d="M44.8819 86.5708C43.4203 85.6132 41.4295 86.0164 40.4719 87.478C39.5143 88.9396 39.9175 90.9304 41.3791 91.888C42.8407 92.8456 44.8315 92.4424 45.7891 90.9808C46.7719 89.5192 46.3687 87.5284 44.8819 86.5708Z" fill="#0033AD"/>
<path d="M59.7248 98.7424C58.2884 98.6668 57.0536 99.7756 56.9528 101.212C56.852 102.648 57.986 103.883 59.4224 103.984C60.8588 104.06 62.0936 102.976 62.1944 101.54C62.27 100.078 61.1612 98.8432 59.7248 98.7424Z" fill="#0033AD"/>
<path d="M59.7499 82.2868C57.6835 82.1608 55.9195 83.7484 55.8187 85.8148C55.6927 87.8812 57.2803 89.6452 59.3467 89.746C61.4131 89.8468 63.1771 88.2844 63.2779 86.218C63.404 84.1768 61.8163 82.3876 59.7499 82.2868Z" fill="#0033AD"/>
<path d="M75.0464 86.3188C73.484 87.1252 72.854 89.0404 73.6604 90.6028C74.4668 92.1652 76.382 92.7952 77.9444 91.9888C79.5068 91.2076 80.1368 89.2924 79.3556 87.73C78.5492 86.1676 76.634 85.5124 75.0464 86.3188Z" fill="#0033AD"/>
</g>
<defs>
<clipPath id="clip0_10033_3732">
<rect width="94.5" height="87.318" fill="white" transform="translate(12.5 16.666)"/>
</clipPath>
</defs>
</svg>
