<svg width="24" height="24" viewBox="0 0 24 24" fill="none" xmlns="http://www.w3.org/2000/svg">
<rect width="24" height="24" rx="8" fill="#2D5BE6"/>
<path d="M15.4778 16.8882C14.6233 15.9339 13.3818 15.3333 12 15.3333C10.6182 15.3333 9.37661 15.9339 8.52214 16.8882M12 18C8.68629 18 6 15.3137 6 12C6 8.68629 8.68629 6 12 6C15.3137 6 18 8.68629 18 12C18 15.3137 15.3137 18 12 18ZM12 13.3333C10.8954 13.3333 10 12.4379 10 11.3333C10 10.2288 10.8954 9.33333 12 9.33333C13.1046 9.33333 14 10.2288 14 11.3333C14 12.4379 13.1046 13.3333 12 13.3333Z" stroke="white" stroke-width="1.2" stroke-linecap="round" stroke-linejoin="round"/>
</svg>
