<svg width="88" height="88" viewBox="0 0 88 88" fill="none" xmlns="http://www.w3.org/2000/svg">
<g clip-path="url(#clip0_12085_4932)">
<path d="M44.0017 86.2406C67.3266 86.2406 86.2417 67.326 86.2417 44.0004C86.2417 20.6749 67.3266 1.76038 44.0017 1.76038C20.677 1.77802 1.76172 20.6749 1.76172 44.0004C1.76172 67.326 20.677 86.2406 44.0017 86.2406Z" fill="#F0EFFF"/>
<path fill-rule="evenodd" clip-rule="evenodd" d="M88 44C88 19.6995 68.3007 -1.06221e-06 44 0C19.6995 1.06221e-06 -1.06221e-06 19.6995 0 44C1.06221e-06 68.3007 19.6995 88 44 88C68.3007 88 88 68.3007 88 44ZM50.28 76.9302C50.28 79.915 47.8301 82.3416 44.3527 82.4115C44.2563 82.412 44.16 82.4126 44.0634 82.4126H43.9366C22.751 82.3784 5.58729 65.1937 5.58729 44C5.58729 22.7853 22.7852 5.58734 44 5.58734C44.1142 5.58734 44.2288 5.58789 44.3427 5.58888C48.2669 5.65873 50.28 8.08495 50.28 11.0697C50.28 14.1075 47.5946 16.3429 44.7498 16.3429C41.9047 16.3429 41.7651 16.3429 39.0419 16.5611C36.3184 16.7793 33.5024 19.0147 33.5024 22.0435C33.5024 25.0903 35.9776 27.5438 39.0419 27.5438H63.1934C66.2492 27.5438 68.7236 29.9974 68.7236 33.0262C68.7236 36.055 66.2492 38.5085 63.1934 38.5085H25.9935C22.9292 38.5085 20.4542 40.9712 20.4542 44.009C20.4542 47.0378 22.9292 49.4915 25.9935 49.4915H44.7498C47.8051 49.4915 50.28 51.945 50.28 54.9827C50.28 58.0112 47.8051 60.4654 44.7498 60.4654H39.0419C35.9776 60.4654 33.5024 62.9189 33.5024 65.9478C33.5024 68.9854 36.039 71.203 39.0419 71.4302C39.2784 71.4477 39.4951 71.4642 39.6944 71.4796C40.751 71.56 41.3283 71.604 41.9065 71.6282C42.6029 71.6573 43.3005 71.6573 44.8381 71.6573C47.8935 71.6573 50.28 73.9013 50.28 76.9302Z" fill="#7132F5"/>
</g>
<defs>
<clipPath id="clip0_12085_4932">
<rect width="88" height="88" fill="white"/>
</clipPath>
</defs>
</svg>
