<svg xmlns="http://www.w3.org/2000/svg" width="100%" height="100%" viewBox="0 0 16 16" fill="none">
    <path d="M8.00031 15.6801C12.2412 15.6801 15.6803 12.2411 15.6803 8.00007C15.6803 3.75907 12.2412 0.320068 8.00031 0.320068C3.75945 0.323276 0.320312 3.75907 0.320312 8.00007C0.320312 12.2411 3.75945 15.6801 8.00031 15.6801Z" fill="#F0EFFF"/>
    <path fill-rule="evenodd" clip-rule="evenodd" d="M16 8C16 3.58172 12.4183 -1.93129e-07 8 0C3.58172 1.93129e-07 -1.93129e-07 3.58172 0 8C1.93129e-07 12.4183 3.58172 16 8 16C12.4183 16 16 12.4183 16 8ZM9.14182 13.9873C9.14182 14.53 8.69638 14.9712 8.06412 14.9839C8.0466 14.984 8.02909 14.9841 8.01152 14.9841H7.98848C4.13655 14.9779 1.01587 11.8534 1.01587 8C1.01587 4.14278 4.14277 1.01588 8 1.01588C8.02077 1.01588 8.0416 1.01598 8.06231 1.01616C8.7758 1.02886 9.14182 1.46999 9.14182 2.01268C9.14182 2.565 8.65356 2.97143 8.13632 2.97143C7.61903 2.97143 7.59366 2.97143 7.09853 3.01111C6.60335 3.05079 6.09135 3.45722 6.09135 4.00791C6.09135 4.56187 6.54138 5.00797 7.09853 5.00797H11.4897C12.0453 5.00797 12.4952 5.45408 12.4952 6.00477C12.4952 6.55546 12.0453 7.00154 11.4897 7.00154H4.7261C4.16895 7.00154 3.71895 7.44931 3.71895 8.00163C3.71895 8.55232 4.16895 8.99846 4.7261 8.99846H8.13632C8.69184 8.99846 9.14182 9.44454 9.14182 9.99686C9.14182 10.5475 8.69184 10.9937 8.13632 10.9937H7.09853C6.54138 10.9937 6.09135 11.4398 6.09135 11.9905C6.09135 12.5428 6.55255 12.946 7.09853 12.9873C7.14153 12.9905 7.18092 12.9935 7.21716 12.9963C7.40928 13.0109 7.51424 13.0189 7.61937 13.0233C7.74598 13.0286 7.87281 13.0286 8.15238 13.0286C8.7079 13.0286 9.14182 13.4366 9.14182 13.9873Z" fill="#7132F5"/>
</svg>