<svg width="88" height="88" viewBox="0 0 88 88" fill="none" xmlns="http://www.w3.org/2000/svg">
<g clip-path="url(#clip0_12085_5214)">
<path d="M44 88C68.3005 88 88 68.3005 88 44C88 19.6995 68.3005 0 44 0C19.6995 0 0 19.6995 0 44C0 68.3005 19.6995 88 44 88Z" fill="#0AC18E"/>
<path d="M57.725 29.2254C55.5138 24.2112 50.4326 23.1391 44.2123 24.1777L42.2133 16.4275L37.5006 17.6447L39.4661 25.3726C38.2265 25.6853 36.9534 25.9533 35.6915 26.3107L33.726 18.6275L29.0133 19.8447L31.0123 27.595C29.996 27.8853 21.4976 30.063 21.4976 30.063L22.793 35.1107C22.793 35.1107 26.2549 34.1391 26.2214 34.2173C28.1422 33.7148 29.0468 34.6752 29.4712 35.5797L34.9656 56.8204C35.0326 57.4346 34.9209 58.4843 33.6031 58.8417C33.6813 58.8863 30.1747 59.7239 30.1747 59.7239L30.6884 65.6092C30.6884 65.6092 39.1087 63.4539 40.2143 63.1747L42.2356 71.0143L46.9483 69.797L44.927 61.9016C46.2224 61.6 47.4844 61.2874 48.7128 60.9635L50.7229 68.8143L55.4356 67.597L53.4143 59.7686C60.6732 58.0041 65.7991 53.4254 64.7493 46.4234C64.0793 42.2021 59.4671 38.7401 55.6366 38.3493C57.993 36.261 59.1879 33.2122 57.725 29.2254ZM55.458 47.7077C56.396 54.6427 46.7585 55.4914 43.5757 56.329L40.8062 45.9544C44.0001 45.1168 53.8722 41.599 55.458 47.7077ZM49.6509 33.5808C50.6448 39.7452 42.4031 40.4599 39.7453 41.1412L37.2214 31.727C39.8904 31.0681 47.6295 27.8742 49.6509 33.5808Z" fill="white"/>
</g>
<defs>
<clipPath id="clip0_12085_5214">
<rect width="88" height="88" fill="white"/>
</clipPath>
</defs>
</svg>
