<svg width="28" height="28" viewBox="0 0 28 28" fill="none" xmlns="http://www.w3.org/2000/svg">
<rect width="28" height="28" rx="14" fill="#028D68"/>
<path d="M17.4561 10.2905C18.4371 9.68658 21.4004 10.2538 21.4004 13.9204C21.4004 15.7569 20.6675 16.8807 19.8359 17.4341C18.9799 18.0037 18.0094 17.9931 17.3916 17.5776H17.3926L17.3896 17.5767L17.1836 17.4233C16.9832 17.2596 16.7969 17.0624 16.6064 16.8364C16.4792 16.6854 16.3555 16.528 16.2236 16.3608C16.0942 16.1967 15.9571 16.0232 15.8125 15.854C15.2224 15.1636 14.4595 14.4866 13.1816 14.3638H13.1807C12.4009 14.2894 11.7687 14.4309 11.2373 14.7026C10.7186 14.9679 10.3269 15.3427 10.0078 15.6782C9.66468 16.039 9.44039 16.3107 9.1709 16.5269C8.93089 16.7193 8.71377 16.8139 8.44824 16.814C7.70444 16.814 7.27243 16.4305 6.99121 15.8667C6.69374 15.2703 6.59961 14.5165 6.59961 13.9819C6.59964 13.4432 6.7024 12.8611 6.95508 12.4351C7.18487 12.0479 7.54558 11.7681 8.19336 11.7681C8.93782 11.7682 9.3064 12.1508 9.94727 12.7505C10.2544 13.0379 10.6253 13.3692 11.1104 13.6108C11.6072 13.8583 12.1957 14 12.9326 13.9644L12.9346 13.9634C13.6723 13.925 14.2584 13.7178 14.7412 13.3921C15.215 13.0725 15.5598 12.6585 15.8447 12.2593C15.9866 12.0605 16.1208 11.855 16.2461 11.6646C16.3741 11.4699 16.4949 11.2881 16.6221 11.1157C16.8754 10.7723 17.1346 10.4935 17.457 10.2915L17.4561 10.2905Z" stroke="white" stroke-width="1.2" stroke-linejoin="round"/>
</svg>
