<svg width="24" height="25" viewBox="0 0 24 25" fill="none" xmlns="http://www.w3.org/2000/svg">
<rect y="0.156738" width="24" height="24" rx="8" fill="#090B0C"/>
<path d="M14.0714 10.4069L11.5 13.0964L10.2143 11.7517M17.2857 11.1903C17.2857 15.6067 14.092 17.5867 12.738 18.2277L12.7363 18.2285C12.5939 18.2959 12.5225 18.3297 12.3607 18.3588C12.2582 18.3772 12.0281 18.3772 11.9257 18.3588C11.7632 18.3296 11.6911 18.2957 11.5475 18.2277C10.1936 17.5867 7 15.6067 7 11.1903V8.52433C7 7.77119 7 7.39433 7.14013 7.10667C7.2634 6.85363 7.45995 6.64806 7.70187 6.51913C7.9769 6.37256 8.3372 6.37256 9.05727 6.37256H15.2287C15.9488 6.37256 16.3083 6.37256 16.5833 6.51913C16.8252 6.64806 17.0225 6.85363 17.1457 7.10667C17.2857 7.39405 17.2857 7.77045 17.2857 8.52213V11.1903Z" stroke="white" stroke-width="1.2" stroke-linecap="round" stroke-linejoin="round"/>
</svg>
