<svg width="30" height="30" viewBox="0 0 30 30" fill="none" xmlns="http://www.w3.org/2000/svg">
<path d="M10.2092 0.189346C9.60789 0.482463 8.86589 1.30852 8.4693 2.10793C7.65055 3.80001 7.16441 4.18639 5.42456 4.5328C3.08343 4.9858 2.18792 5.98506 2.37982 7.94362C2.41819 8.34332 2.49495 9.07611 2.54612 9.55576C2.64847 10.6616 2.49495 11.0213 1.38196 12.2738C0.371307 13.4062 -0.0124845 14.179 0.00030855 15.0051C0.0131016 15.8311 0.3841 16.5373 1.44592 17.763C2.5973 19.0687 2.68685 19.3619 2.46937 21.2005C2.13675 24.1583 2.71243 24.8778 5.96187 25.5972C7.21559 25.877 7.57379 26.1968 8.37975 27.689C9.69744 30.1539 10.7593 30.5136 13.2027 29.3012C14.5716 28.6217 15.352 28.6217 16.7464 29.2879C18.2176 29.994 18.9724 30.1539 19.676 29.8608C20.3157 29.6209 21.1216 28.7549 21.5438 27.9022C22.337 26.2634 22.8871 25.7971 24.3583 25.5306C26.3284 25.1709 27.1344 24.638 27.5054 23.4522C27.6973 22.8126 27.6973 22.5728 27.5693 21.427C27.4798 20.7208 27.4158 19.9881 27.4158 19.8282C27.4158 19.2952 27.7996 18.6291 28.6951 17.6031C29.7058 16.444 30 15.8578 30 15.0051C30 14.1524 29.7058 13.5661 28.6695 12.3803C27.403 10.9281 27.3646 10.8082 27.4926 9.35591C27.5565 8.68973 27.5949 7.79706 27.5821 7.38403C27.5565 5.90512 26.7889 5.05242 25.177 4.67936C22.7719 4.11977 22.4777 3.91992 21.6717 2.34775C21.096 1.21526 20.3668 0.415846 19.6632 0.136052C18.9468 -0.143741 18.2816 -0.0105062 16.7464 0.708962C15.3648 1.36181 14.8658 1.40178 13.8424 0.948785C12.1793 0.229317 11.8595 0.109405 11.2966 0.0294642C10.8744 -0.0371532 10.5802 0.0161407 10.2092 0.189346ZM16.2347 5.59868C16.6057 5.77189 17.0534 6.13162 17.2453 6.39809C17.949 7.35738 17.9617 7.6505 17.5524 12.9133C17.1686 17.9762 17.1302 18.1494 16.4138 18.7889C16.0044 19.1354 15.1601 19.4418 14.8658 19.3485C14.7635 19.3219 14.5332 19.2553 14.3413 19.2153C13.9063 19.1087 13.2667 18.5491 13.0108 18.0561C12.8829 17.7764 12.7166 16.2442 12.4607 12.9133C12.0514 7.6505 12.0642 7.35738 12.7678 6.39809C13.2155 5.79853 14.239 5.27892 15.0066 5.27892C15.3392 5.27892 15.8509 5.41215 16.2347 5.59868ZM16.0172 20.6009C17.4756 21.3604 17.4756 23.7053 16.0172 24.4647C14.546 25.2508 12.8957 24.2116 12.9085 22.5195C12.9341 20.8274 14.5588 19.8148 16.0172 20.6009Z" fill="#F84E4E"/>
</svg>
