<svg width="313" height="301" viewBox="0 0 313 301" fill="none" xmlns="http://www.w3.org/2000/svg">
<path d="M106.403 1.89494C100.137 4.82827 92.4032 13.0949 88.2699 21.0949C79.7366 38.0283 74.6699 41.8949 56.5366 45.3616C32.1365 49.8949 22.8032 59.8949 24.8032 79.4949C25.2032 83.4949 26.0032 90.8283 26.5366 95.6283C27.6032 106.695 26.0032 110.295 14.4032 122.828C3.86988 134.162 -0.130118 141.895 0.00321581 150.162C0.136549 158.428 4.00322 165.495 15.0699 177.762C27.0699 190.828 28.0032 193.762 25.7366 212.162C22.2699 241.762 28.2699 248.962 62.1366 256.162C75.2032 258.962 78.9366 262.162 87.3366 277.095C101.07 301.762 112.137 305.362 137.603 293.228C151.87 286.428 160.003 286.428 174.537 293.095C189.87 300.162 197.737 301.762 205.07 298.828C211.737 296.428 220.137 287.762 224.537 279.228C232.803 262.828 238.537 258.162 253.87 255.495C274.403 251.895 282.803 246.562 286.67 234.695C288.67 228.295 288.67 225.895 287.337 214.428C286.403 207.362 285.737 200.028 285.737 198.428C285.737 193.095 289.737 186.428 299.07 176.162C309.603 164.562 312.67 158.695 312.67 150.162C312.67 141.628 309.603 135.762 298.803 123.895C285.603 109.362 285.203 108.162 286.537 93.6283C287.203 86.9616 287.603 78.0283 287.47 73.8949C287.203 59.0949 279.203 50.5616 262.403 46.8283C237.337 41.2283 234.27 39.2283 225.87 23.4949C219.87 12.1616 212.27 4.16161 204.937 1.36161C197.47 -1.43839 190.537 -0.105061 174.537 7.09494C160.137 13.6283 154.937 14.0283 144.27 9.49494C126.937 2.29494 123.603 1.09494 117.737 0.294939C113.337 -0.371728 110.27 0.161605 106.403 1.89494ZM169.203 56.0283C173.07 57.7616 177.737 61.3616 179.737 64.0283C187.07 73.6283 187.203 76.5616 182.937 129.228C178.937 179.895 178.537 181.628 171.07 188.028C166.803 191.495 158.003 194.562 154.937 193.628C153.87 193.362 151.47 192.695 149.47 192.295C144.937 191.228 138.27 185.628 135.603 180.695C134.27 177.895 132.537 162.562 129.87 129.228C125.603 76.5616 125.737 73.6283 133.07 64.0283C137.737 58.0283 148.403 52.8283 156.403 52.8283C159.87 52.8283 165.203 54.1616 169.203 56.0283ZM166.937 206.162C182.137 213.762 182.137 237.228 166.937 244.828C151.603 252.695 134.403 242.295 134.537 225.362C134.803 208.428 151.737 198.295 166.937 206.162Z" fill="#F84E4E"/>
</svg>
