<svg width="88" height="88" viewBox="0 0 88 88" fill="none" xmlns="http://www.w3.org/2000/svg">
<g clip-path="url(#clip0_1071_72)">
<path d="M44.4593 80.8759C24.4094 80.8759 8.04248 64.4927 8.04248 44.4593C8.04248 24.4094 24.426 8.04248 44.4593 8.04248C64.5093 8.04248 80.8759 24.426 80.8759 44.4593C80.8759 64.5093 64.5093 80.8759 44.4593 80.8759Z" fill="url(#paint0_linear_1071_72)"/>
<path d="M44 88C19.8 88 0 68.2 0 44C0 19.8 19.8 0 44 0C68.2 0 88 19.8 88 44C88 68.2 68.2 88 44 88ZM44 9.78349C25.1835 9.78349 9.78349 25.1835 9.78349 44C9.78349 62.8165 25.1835 78.2165 44 78.2165C62.8165 78.2165 78.2165 62.8165 78.2165 44C78.2165 25.1835 62.8165 9.78349 44 9.78349Z" fill="black"/>
<path d="M42.9811 55.9184H62.0479V65.452H50.798V73.5184H41.0145V65.7019H29.2813C29.2813 62.5184 28.798 59.3518 29.5312 56.4186C29.7811 54.9518 31.4813 53.485 32.7143 52.0186C36.3811 47.6186 40.0479 43.2186 43.9646 38.8186C45.431 37.1019 46.8978 35.6351 48.6145 33.6854H30.2813V24.1518H41.031V16.0864H50.5646V23.9008H62.2978C62.2978 27.084 62.7811 30.2509 62.0479 33.1841C61.798 34.6509 60.0978 36.1173 58.8644 37.5841C55.198 41.9841 51.5312 46.3841 47.6145 50.7841C46.1474 52.5019 44.6813 54.2017 42.9811 55.9184Z" fill="black"/>
</g>
<defs>
<linearGradient id="paint0_linear_1071_72" x1="19.455" y1="69.4312" x2="69.7272" y2="19.1589" gradientUnits="userSpaceOnUse">
<stop stop-color="#CF8724"/>
<stop offset="1" stop-color="#FDCE58"/>
</linearGradient>
<clipPath id="clip0_1071_72">
<rect width="88" height="88" fill="white"/>
</clipPath>
</defs>
</svg>
