<svg width="40" height="40" viewBox="0 0 40 40" fill="none" xmlns="http://www.w3.org/2000/svg">
<path d="M19.9998 4C21.5626 4 23.0191 4.77326 23.911 6.06478L24.0828 6.32971L37.3611 28.7625C37.7646 29.4697 37.9841 30.2689 37.9992 31.0853C38.0142 31.9017 37.8242 32.7086 37.4469 33.4305C37.0697 34.1524 36.5176 34.7655 35.8423 35.2126C35.1669 35.6597 34.3905 35.9261 33.5857 35.9868L33.2666 36H6.715C5.90937 35.9908 5.11918 35.7753 4.41817 35.3735C3.71717 34.9717 3.12821 34.3967 2.70626 33.7022C2.28432 33.0078 2.04315 32.2164 2.00527 31.4022C1.96739 30.5879 2.13404 29.7771 2.48965 29.0456L2.65166 28.7393L15.9234 6.32309C16.3483 5.6141 16.9467 5.02787 17.6607 4.62096C18.3747 4.21404 19.1803 4.00018 19.9998 4ZM20.0162 26.0718L19.8083 26.0834C19.4106 26.1313 19.044 26.3251 18.7781 26.6281C18.5121 26.9311 18.3652 27.3223 18.3652 27.7276C18.3652 28.1329 18.5121 28.5241 18.7781 28.8271C19.044 29.1302 19.4106 29.324 19.8083 29.3718L19.9998 29.3834L20.2076 29.3718C20.6054 29.324 20.972 29.1302 21.2379 28.8271C21.5039 28.5241 21.6508 28.1329 21.6508 27.7276C21.6508 27.3223 21.5039 26.9311 21.2379 26.6281C20.972 26.3251 20.6054 26.1313 20.2076 26.0834L20.0162 26.0718ZM19.9998 14.4812C19.599 14.4813 19.2121 14.6302 18.9126 14.8997C18.6131 15.1692 18.4217 15.5405 18.3748 15.9433L18.3633 16.137V22.7602L18.3748 22.9539C18.4221 23.3564 18.6137 23.7273 18.9131 23.9964C19.2126 24.2655 19.5993 24.4142 19.9998 24.4142C20.4004 24.4142 20.787 24.2655 21.0865 23.9964C21.386 23.7273 21.5775 23.3564 21.6248 22.9539L21.6363 22.7602V16.137L21.6248 15.9433C21.5779 15.5405 21.3866 15.1692 21.087 14.8997C20.7875 14.6302 20.4006 14.4813 19.9998 14.4812Z" fill="#767A81"/>
</svg>
