<svg width="81" height="80" viewBox="0 0 81 80" fill="none" xmlns="http://www.w3.org/2000/svg">
<circle cx="40.5" cy="40" r="40" fill="white" fill-opacity="0.07"/>
<path d="M40.9991 23.8499C42.5619 23.8499 44.0184 24.6141 44.9102 25.8905L45.0821 26.1524L58.3603 48.3232C58.7639 49.0221 58.9834 49.812 58.9984 50.6188C59.0135 51.4257 58.8235 52.2232 58.4462 52.9367C58.069 53.6501 57.5168 54.2561 56.8415 54.698C56.1662 55.1398 55.3898 55.4031 54.585 55.4631L54.2659 55.4762H27.7143C26.9086 55.4671 26.1184 55.2541 25.4174 54.8569C24.7164 54.4598 24.1275 53.8916 23.7055 53.2052C23.2836 52.5189 23.0424 51.7368 23.0045 50.932C22.9667 50.1272 23.1333 49.326 23.4889 48.603L23.6509 48.3003L36.9226 26.1458C37.3476 25.4451 37.9459 24.8657 38.6599 24.4636C39.374 24.0614 40.1796 23.85 40.9991 23.8499ZM41.0154 45.6639L40.8076 45.6754C40.4099 45.7227 40.0433 45.9142 39.7773 46.2137C39.5113 46.5132 39.3644 46.8998 39.3644 47.3004C39.3644 47.7009 39.5113 48.0876 39.7773 48.3871C40.0433 48.6865 40.4099 48.8781 40.8076 48.9254L40.9991 48.9368L41.2069 48.9254C41.6047 48.8781 41.9712 48.6865 42.2372 48.3871C42.5032 48.0876 42.6501 47.7009 42.6501 47.3004C42.6501 46.8998 42.5032 46.5132 42.2372 46.2137C41.9712 45.9142 41.6047 45.7227 41.2069 45.6754L41.0154 45.6639ZM40.9991 34.2087C40.5983 34.2087 40.2114 34.3559 39.9119 34.6222C39.6123 34.8886 39.421 35.2556 39.3741 35.6537L39.3626 35.8451V42.391L39.3741 42.5825C39.4214 42.9802 39.6129 43.3468 39.9124 43.6128C40.2119 43.8787 40.5985 44.0256 40.9991 44.0256C41.3996 44.0256 41.7863 43.8787 42.0858 43.6128C42.3852 43.3468 42.5768 42.9802 42.6241 42.5825L42.6355 42.391V35.8451L42.6241 35.6537C42.5772 35.2556 42.3858 34.8886 42.0863 34.6222C41.7868 34.3559 41.3999 34.2087 40.9991 34.2087Z" fill="#767A81"/>
</svg>
