<svg width="88" height="88" viewBox="0 0 88 88" fill="none" xmlns="http://www.w3.org/2000/svg">
<rect width="88" height="88" rx="44" fill="#00193C"/>
<path d="M29.2552 48.9654C31.3115 48.9654 33.3176 48.28 34.9392 47.0261L21.8995 33.9865C18.7566 38.0488 19.5089 43.9 23.5712 47.0429C25.2096 48.28 27.1989 48.9654 29.2552 48.9654Z" fill="white"/>
<path d="M68.0398 39.6537C68.0398 37.5974 67.3544 35.5913 66.1006 33.9697L53.0609 47.0094C57.1233 50.1523 62.9577 49.4 66.1006 45.3377C67.3544 43.7161 68.0398 41.71 68.0398 39.6537Z" fill="white"/>
<path d="M74.6099 25.4605L68.8424 31.2281C73.4898 36.795 72.7543 45.0869 67.1873 49.7344C62.3058 53.8135 55.2175 53.8135 50.336 49.7344L44.0001 56.0704L37.6808 49.7511C32.1139 54.3986 23.822 53.663 19.1745 48.0961C15.0954 43.2146 15.0954 36.1263 19.1745 31.2448L16.2155 28.2858L13.4069 25.4605C10.0133 31.0442 8.22449 37.4637 8.22449 44.0003C8.22449 63.7604 24.2399 79.7758 44.0001 79.7758C63.7602 79.7758 79.7756 63.7604 79.7756 44.0003C79.7924 37.4637 77.9869 31.0442 74.6099 25.4605Z" fill="white"/>
<path d="M69.8788 19.3085C56.254 5.01495 33.6185 4.47999 19.3249 18.1048C18.907 18.506 18.5058 18.9072 18.1213 19.3085C17.2353 20.2446 16.3994 21.2143 15.6136 22.234L44.0001 50.6372L72.3865 22.234C71.6175 21.2143 70.7649 20.2446 69.8788 19.3085ZM44.0001 12.9056C52.3588 12.9056 60.1492 16.1321 66.0004 22.0167L44.0001 44.017L21.9998 22.0167C27.8509 16.1321 35.6413 12.9056 44.0001 12.9056Z" fill="white"/>
</svg>
