<svg width="129" height="129" viewBox="0 0 129 129" fill="none" xmlns="http://www.w3.org/2000/svg">
<rect width="129" height="129" rx="64.5" fill="#00193C"/>
<path d="M42.8854 71.7788C45.8996 71.7788 48.8404 70.774 51.2175 68.9361L32.1025 49.821C27.4953 55.7761 28.5981 64.3533 34.5532 68.9606C36.9548 70.774 39.8711 71.7788 42.8854 71.7788Z" fill="white"/>
<path d="M99.7402 58.1288C99.7402 55.1145 98.7355 52.1737 96.8975 49.7966L77.7825 68.9116C83.7376 73.5188 92.2903 72.416 96.8975 66.4609C98.7355 64.0838 99.7402 61.143 99.7402 58.1288Z" fill="white"/>
<path d="M109.371 37.3228L100.917 45.7775C107.729 53.9382 106.651 66.0934 98.4904 72.9061C91.3346 78.8857 80.9438 78.8857 73.788 72.9061L64.5 82.1941L55.2366 72.9306C47.076 79.7434 34.9208 78.6651 28.108 70.5045C22.1284 63.3486 22.1284 52.9579 28.108 45.802L23.7704 41.4644L19.6533 37.3228C14.6785 45.508 12.0563 54.9184 12.0563 64.5004C12.0563 93.467 35.5334 116.944 64.5 116.944C93.4666 116.944 116.944 93.467 116.944 64.5004C116.968 54.9184 114.322 45.508 109.371 37.3228Z" fill="white"/>
<path d="M102.436 28.3044C82.4632 7.35145 49.2815 6.56724 28.3285 26.54C27.7159 27.1281 27.1277 27.7163 26.5641 28.3044C25.2652 29.6768 24.0399 31.0982 22.8881 32.5931L64.5 74.2295L106.112 32.5931C104.985 31.0982 103.735 29.6768 102.436 28.3044ZM64.5 18.9185C76.7532 18.9185 88.1732 23.6482 96.7505 32.2745L64.5 64.5249L32.2496 32.2745C40.8268 23.6482 52.2468 18.9185 64.5 18.9185Z" fill="white"/>
</svg>
