<svg width="24" height="25" viewBox="0 0 24 25" fill="none" xmlns="http://www.w3.org/2000/svg">
<rect y="0.470459" width="24" height="24" rx="8" fill="white" fill-opacity="0.05"/>
<rect y="0.470459" width="24" height="24" rx="8" fill="#F8931A"/>
<path d="M8.33301 8.47046H13.6663C14.1968 8.47046 14.7055 8.68117 15.0806 9.05625C15.4556 9.43132 15.6663 9.94003 15.6663 10.4705C15.6663 11.0009 15.4556 11.5096 15.0806 11.8847C14.7055 12.2597 14.1968 12.4705 13.6663 12.4705M13.6663 12.4705C14.1968 12.4705 14.7055 12.6812 15.0806 13.0562C15.4556 13.4313 15.6663 13.94 15.6663 14.4705C15.6663 15.0009 15.4556 15.5096 15.0806 15.8847C14.7055 16.2597 14.1968 16.4705 13.6663 16.4705H8.33301M13.6663 12.4705H9.66634M9.66634 8.47046V16.4705M10.333 6.47046V8.47046M12.9997 6.47046V8.47046M10.333 16.4705V18.4705M12.9997 16.4705V18.4705" stroke="white" stroke-width="1.2" stroke-linecap="round" stroke-linejoin="round"/>
</svg>
