<svg width="88" height="88" viewBox="0 0 88 88" fill="none" xmlns="http://www.w3.org/2000/svg">
<circle cx="44" cy="44" r="44" fill="#1A154F"/>
<g clip-path="url(#clip0_12085_4938)">
<path d="M17.3302 24.4329C17.9337 22.1044 19.8749 19.7759 23.3699 17.1837C26.1736 15.119 29.1508 13.9333 31.5244 13.9333C31.9996 13.9333 32.4296 13.9761 32.8621 14.064C33.9408 14.2826 34.8888 15.0738 35.4947 16.2618C36.2289 17.6684 36.3999 19.5573 35.9271 20.7002C35.7537 21.0518 35.5398 21.4914 35.2808 21.8858C37.5665 23.2924 38.8615 23.6868 39.0349 23.732C33.0807 25.7539 28.1196 29.9713 25.0118 35.4623L24.969 34.9348C24.8407 33.4855 24.4083 31.8151 23.8048 30.102C23.2013 30.2779 22.5977 30.3658 21.9919 30.3658C20.3952 30.3658 19.0147 29.7076 18.1522 28.5196C17.285 27.334 16.9405 25.7516 17.3302 24.4329Z" fill="#602F92"/>
<path d="M23.541 28.8285C19.6158 29.9262 18.0192 26.8517 18.5371 24.7869C19.0979 22.7222 20.9108 20.6123 24.1017 18.241C27.2951 15.8674 30.5312 14.9028 32.6007 15.3423C34.6725 15.7819 35.276 18.9895 34.7581 20.2202C34.5419 20.7026 34.0667 21.4059 33.4204 22.1971C34.2401 22.7673 35.0171 23.2069 35.6633 23.6037C31.693 25.4047 28.2431 28.2179 25.6532 31.732C25.3515 30.5463 24.9191 29.4914 24.5318 28.5695C24.2324 28.6075 23.8879 28.6954 23.541 28.8285Z" fill="url(#paint0_radial_12085_4938)"/>
<path d="M46.0204 71.884C32.7005 71.884 21.9016 60.8879 21.9016 47.3233C21.9016 33.7587 32.7005 22.765 46.0204 22.765C59.3402 22.765 70.1392 33.7611 70.1392 47.3257C70.1392 60.8902 59.3402 71.884 46.0204 71.884Z" fill="url(#paint1_radial_12085_4938)"/>
<path opacity="0.6" d="M20.5211 22.7649C23.8 19.2508 26.5609 18.3265 29.8825 17.5805C32.4724 16.9651 31.781 15.4706 28.6304 15.7795C30.1415 15.252 31.5647 15.1213 32.6007 15.3399C34.6725 15.7795 35.276 18.9871 34.7581 20.2178C34.5419 20.7002 34.0667 21.4035 33.4204 22.1947C34.5846 22.9859 35.5778 23.5561 36.3975 23.9957C36.0102 24.1715 35.535 24.3901 34.9743 24.699C33.5083 25.4902 31.9116 26.8089 31.9116 26.8089C34.328 24.699 33.8101 23.7343 30.4884 21.3607C29.4525 20.6146 27.554 20.7025 25.7863 21.6244C24.0186 22.5463 21.9467 24.8748 21.9467 24.8748L23.9306 28.7405C23.8023 28.7857 23.6717 28.8285 23.5434 28.8736C22.2912 29.2252 21.3004 29.1373 20.5235 28.8285C19.6158 28.2558 17.2422 26.3218 20.5211 22.7649Z" fill="#A98798"/>
<path d="M29.9277 19.688C29.0652 20.0397 27.9438 20.6551 26.5633 21.5769C24.9239 22.6747 23.5006 23.9054 22.593 24.8725C24.1041 26.8944 25.0949 29.6625 25.6984 31.5942C25.3967 32.0337 25.0522 32.4733 24.748 32.9128C24.4463 31.8151 23.9283 30.1876 23.2369 28.5624C23.0635 28.6075 22.8496 28.6075 22.6334 28.6075C22.1154 28.6075 21.5119 28.5196 21.0367 28.1252C20.6922 27.8615 20.3025 27.3791 20.3453 26.5C20.3453 25.666 20.9916 24.6111 22.3293 23.3376C23.2797 22.4157 24.5722 21.4035 25.8671 20.4816C29.5784 17.9773 32.1659 17.274 33.3301 18.4596C34.1071 19.2508 34.0216 20.2179 33.7626 20.9212C35.143 21.8431 36.3073 22.5036 37.0842 22.9431C36.5663 23.119 36.0911 23.3376 35.5731 23.5585C34.1998 22.8077 32.2134 21.5342 29.9277 19.688ZM21.7733 25.9725C21.645 26.1911 21.5998 26.4121 21.5998 26.5428C21.5998 26.9372 21.7281 27.0703 21.816 27.1582C21.9895 27.2888 22.334 27.3768 22.6358 27.3768C22.3768 26.8493 22.075 26.4097 21.7733 25.9725ZM32.4296 19.4243C32.3013 19.2936 31.9544 19.2057 31.3937 19.2936C31.8261 19.6453 32.2562 19.9518 32.6886 20.2606C32.7314 19.9518 32.6886 19.6453 32.4296 19.4243Z" fill="#602F92"/>
<path d="M46.0204 21.3132C60.1291 21.3132 71.5624 32.9556 71.5624 47.3232C71.5624 61.6909 60.1291 73.3333 46.0204 73.3333C31.9117 73.3333 20.4784 61.6909 20.4784 47.3232C20.4784 32.9579 31.9545 21.3132 46.0204 21.3132ZM46.0204 71.8839C59.3521 71.8839 70.1392 60.8997 70.1392 47.3232C70.1392 33.7468 59.3521 22.7625 46.0204 22.7625C32.6886 22.7625 21.9016 33.7468 21.9016 47.3232C21.904 60.8997 32.7314 71.8839 46.0204 71.8839Z" fill="#602F92"/>
<path opacity="0.6" d="M46.0204 71.884C32.7005 71.884 21.9016 60.8879 21.9016 47.3233C21.9016 33.7587 32.7005 22.765 46.0204 22.765C59.3402 22.765 70.1392 33.7611 70.1392 47.3257C70.1392 60.8902 59.3402 71.884 46.0204 71.884Z" fill="url(#paint2_linear_12085_4938)"/>
<path opacity="0.6" d="M46.1938 68.895C59.3521 66.7423 68.2835 54.1329 66.126 40.7322C65.1756 34.8017 62.2437 29.748 58.0999 26.1008C64.1421 29.6625 68.628 35.8567 69.8374 43.4147C71.952 56.8154 63.0206 69.4248 49.9051 71.5775C42.5704 72.8082 35.4947 70.4798 30.2746 65.9107C34.8888 68.6312 40.4985 69.8192 46.1938 68.895Z" fill="#A98798"/>
<path opacity="0.6" d="M42.1807 23.1166C48.2633 22.1068 54.1748 23.511 59.0075 26.6307C59.0931 26.7186 59.181 26.8065 59.181 26.8065C57.3253 25.6637 54.6072 24.6539 54.6072 24.6539C61.5974 28.7834 63.7548 33.4855 63.7548 33.4855C61.0366 28.1252 53.0557 24.3474 46.7997 24.0836C40.5436 23.8199 36.445 25.7088 31.4412 29.7955C26.4373 33.925 23.4151 42.3598 23.7192 49.0388C23.9782 55.7177 27.4305 61.1207 27.4305 61.1207C25.0569 58.001 23.6337 55.7177 22.7284 53.3892C22.5549 52.6859 22.3839 51.9826 22.296 51.2366C20.1338 37.8787 29.0224 25.2693 42.1807 23.1166Z" fill="url(#paint3_linear_12085_4938)"/>
<path d="M23.1109 47.1047C23.1109 59.9778 33.38 70.4346 46.0203 70.4346C58.6606 70.4346 68.9725 59.9778 68.9725 47.1047H23.1109Z" fill="url(#paint4_linear_12085_4938)"/>
<g opacity="0.6">
<path opacity="0.6" d="M24.9238 47.1047C24.9238 59.669 34.6749 69.9499 46.9279 70.4346C46.6262 70.4346 46.3244 70.4346 46.0227 70.4346C33.3824 70.4346 23.1133 59.9778 23.1133 47.1047H24.9238Z" fill="url(#paint5_linear_12085_4938)"/>
</g>
<g opacity="0.7">
<path opacity="0.7" d="M65.7364 47.1047H68.9725C68.9725 59.9778 58.7034 70.4346 46.0631 70.4346C45.5023 70.4346 44.9844 70.4346 44.4664 70.3895C56.3322 69.5104 65.7364 59.4052 65.7364 47.1047Z" fill="url(#paint6_linear_12085_4938)"/>
</g>
<path d="M23.1537 47.3233C23.1537 44.6431 27.7275 43.1059 33.8101 42.5784C38.2104 42.2268 42.6535 42.6663 47.7453 44.2487C52.1456 45.5674 56.1159 45.3464 59.0052 44.9948C65.4346 44.2487 68.9725 44.1608 68.9725 47.3233C68.9725 51.8923 59.8249 57.6042 46.1059 55.6274C39.1584 54.6176 35.5778 52.5528 31.4792 51.1463C27.0361 49.6518 23.1537 49.6969 23.1537 47.3233Z" fill="url(#paint7_linear_12085_4938)"/>
<path d="M38.5146 36.2511C36.369 36.2511 34.6322 34.481 34.6322 32.2974C34.6322 30.1139 36.3714 28.3438 38.5146 28.3438C40.6577 28.3438 42.3969 30.1139 42.3969 32.2974C42.3969 34.481 40.6577 36.2511 38.5146 36.2511Z" fill="white"/>
<path d="M32.1706 39.195C31.2654 39.195 30.5312 38.4465 30.5312 37.5246C30.5312 36.6028 31.2654 35.8543 32.1706 35.8543C33.0759 35.8543 33.8101 36.6028 33.8101 37.5246C33.8101 38.4489 33.0759 39.195 32.1706 39.195Z" fill="white"/>
<g opacity="0.6">
<path opacity="0.6" d="M26.3043 29.135C26.347 29.135 26.3898 29.135 26.3898 29.135C26.6488 29.0899 26.8222 28.8285 26.7771 28.5196C26.3898 26.4977 24.7504 24.566 24.6625 24.4781C24.489 24.2595 24.1445 24.2595 23.971 24.4329C23.7548 24.6087 23.7548 24.9604 23.9283 25.1362C23.971 25.179 25.4822 26.9824 25.8267 28.7382C25.8718 29.002 26.0881 29.135 26.3043 29.135Z" fill="url(#paint8_linear_12085_4938)"/>
</g>
<path opacity="0.2" d="M47.6146 65.6446C46.947 65.6446 46.4076 65.0933 46.4076 64.4138C46.4076 63.7343 46.9493 63.183 47.6146 63.183C48.2823 63.183 48.8216 63.7343 48.8216 64.4138C48.8216 65.0933 48.2823 65.6446 47.6146 65.6446Z" fill="white"/>
<g opacity="0.4">
<path opacity="0.6" d="M48.3061 65.2074C48.7813 64.7251 48.7813 63.9339 48.3061 63.4492C48.2205 63.3613 48.1326 63.3185 48.0471 63.2306C48.2205 63.2757 48.3488 63.3613 48.4795 63.4943C48.9547 63.9767 48.9547 64.7679 48.4795 65.2526C48.0922 65.647 47.4863 65.7349 47.0135 65.4712C47.4436 65.647 47.9615 65.5591 48.3061 65.2074Z" fill="url(#paint9_linear_12085_4938)"/>
</g>
<path opacity="0.3" d="M47.1846 64.0622C47.042 64.0622 46.9256 63.9434 46.9256 63.7985C46.9256 63.6535 47.042 63.5347 47.1846 63.5347C47.3271 63.5347 47.4436 63.6535 47.4436 63.7985C47.4436 63.9458 47.3295 64.0622 47.1846 64.0622Z" fill="white"/>
<path opacity="0.2" d="M41.3158 65.0292C40.6482 65.0292 40.1088 64.478 40.1088 63.7985C40.1088 63.1189 40.6506 62.5677 41.3158 62.5677C41.9835 62.5677 42.5229 63.1189 42.5229 63.7985C42.5229 64.478 41.9811 65.0292 41.3158 65.0292Z" fill="white"/>
<g opacity="0.4">
<path opacity="0.6" d="M42.0073 64.592C42.4825 64.1097 42.4825 63.3185 42.0073 62.8338C41.9218 62.7459 41.8338 62.7031 41.7483 62.6152C41.9218 62.6603 42.0501 62.7459 42.1807 62.8789C42.6559 63.3612 42.6559 64.1524 42.1807 64.6372C41.7935 65.0316 41.1876 65.1195 40.7147 64.8557C41.1448 65.0316 41.6628 64.9437 42.0073 64.592Z" fill="url(#paint10_linear_12085_4938)"/>
</g>
<path opacity="0.3" d="M40.8858 63.4492C40.7433 63.4492 40.6268 63.3304 40.6268 63.1854C40.6268 63.0405 40.7433 62.9217 40.8858 62.9217C41.0284 62.9217 41.1448 63.0405 41.1448 63.1854C41.1448 63.3304 41.0284 63.4492 40.8858 63.4492Z" fill="white"/>
<path opacity="0.2" d="M44.4237 67.8852C43.9224 67.8852 43.5184 67.4717 43.5184 66.9633C43.5184 66.4548 43.9247 66.0414 44.4237 66.0414C44.925 66.0414 45.3289 66.4548 45.3289 66.9633C45.3289 67.4717 44.925 67.8852 44.4237 67.8852Z" fill="white"/>
<g opacity="0.4">
<path opacity="0.6" d="M44.9417 67.5359C45.2862 67.1843 45.2862 66.5689 44.9417 66.2172C44.8989 66.1721 44.8134 66.1293 44.7682 66.0842C44.8965 66.1293 44.9844 66.2172 45.07 66.3028C45.4145 66.6544 45.4145 67.2698 45.07 67.6214C44.7682 67.9279 44.3358 67.9731 43.9485 67.7545C44.2954 67.8876 44.6827 67.7996 44.9417 67.5359Z" fill="url(#paint11_linear_12085_4938)"/>
</g>
<path opacity="0.3" d="M44.1219 66.6544C44.0269 66.6544 43.9485 66.576 43.9485 66.4786C43.9485 66.3811 44.0269 66.3027 44.1219 66.3027C44.217 66.3027 44.2954 66.3811 44.2954 66.4786C44.2954 66.576 44.217 66.6544 44.1219 66.6544Z" fill="white"/>
<path opacity="0.2" d="M38.8591 67.227C38.3577 67.227 37.9538 66.8136 37.9538 66.3051C37.9538 65.7967 38.3601 65.3832 38.8591 65.3832C39.358 65.3832 39.7643 65.7967 39.7643 66.3051C39.7643 66.8136 39.358 67.227 38.8591 67.227Z" fill="white"/>
<g opacity="0.4">
<path opacity="0.6" d="M39.3747 66.8754C39.7192 66.5237 39.7192 65.9084 39.3747 65.5567C39.3319 65.5116 39.2464 65.4688 39.2012 65.426C39.3295 65.4712 39.4174 65.5567 39.503 65.6446C39.8475 65.9963 39.8475 66.6116 39.503 66.9633C39.2012 67.2698 38.7688 67.3149 38.3815 67.094C38.7284 67.227 39.1157 67.1391 39.3747 66.8754Z" fill="url(#paint12_linear_12085_4938)"/>
</g>
<path opacity="0.3" d="M38.5573 65.9962C38.4623 65.9962 38.3839 65.9178 38.3839 65.8204C38.3839 65.723 38.4623 65.6446 38.5573 65.6446C38.6524 65.6446 38.7308 65.723 38.7308 65.8204C38.7284 65.9178 38.6524 65.9962 38.5573 65.9962Z" fill="white"/>
<path opacity="0.2" d="M52.7515 65.205C51.6562 65.205 50.7676 64.2998 50.7676 63.183C50.7676 62.0663 51.6562 61.1611 52.7515 61.1611C53.8469 61.1611 54.7355 62.0663 54.7355 63.183C54.7355 64.2998 53.8469 65.205 52.7515 65.205Z" fill="white"/>
<g opacity="0.4">
<path opacity="0.6" d="M53.8706 64.459C54.6476 63.6678 54.6476 62.3942 53.8706 61.603C53.7423 61.4723 53.6117 61.3844 53.4382 61.2965C53.6972 61.3844 53.9134 61.5602 54.1296 61.7361C54.9066 62.5273 54.9066 63.8008 54.1296 64.592C53.4834 65.2502 52.4902 65.3832 51.7132 64.8985C52.4474 65.205 53.3099 65.0743 53.8706 64.459Z" fill="url(#paint13_linear_12085_4938)"/>
</g>
<path opacity="0.3" d="M52.0602 62.5701C51.8226 62.5701 51.6277 62.3729 51.6277 62.1305C51.6277 61.8882 51.8202 61.691 52.0602 61.691C52.2978 61.691 52.4926 61.8882 52.4926 62.1305C52.4926 62.3729 52.3001 62.5701 52.0602 62.5701Z" fill="white"/>
<path opacity="0.2" d="M35.0171 60.2416C33.9218 60.2416 33.0331 59.3363 33.0331 58.2196C33.0331 57.1029 33.9218 56.1976 35.0171 56.1976C36.1124 56.1976 37.0011 57.1029 37.0011 58.2196C37.0011 59.3363 36.1148 60.2416 35.0171 60.2416Z" fill="white"/>
<g opacity="0.4">
<path opacity="0.6" d="M36.1837 59.4931C36.9607 58.7019 36.9607 57.4284 36.1837 56.6372C36.0554 56.5041 35.9247 56.4186 35.7513 56.3307C36.0103 56.4186 36.2265 56.5944 36.4427 56.7702C37.2197 57.5615 37.2197 58.835 36.4427 59.6262C35.7964 60.2844 34.8033 60.4174 34.0263 59.9327C34.7605 60.2416 35.5802 60.1085 36.1837 59.4931Z" fill="url(#paint14_linear_12085_4938)"/>
</g>
<path opacity="0.3" d="M34.328 57.6042C34.0904 57.6042 33.8956 57.407 33.8956 57.1647C33.8956 56.9223 34.0881 56.7251 34.328 56.7251C34.5656 56.7251 34.7605 56.9223 34.7605 57.1647C34.7605 57.407 34.568 57.6042 34.328 57.6042Z" fill="white"/>
</g>
<defs>
<radialGradient id="paint0_radial_12085_4938" cx="0" cy="0" r="1" gradientUnits="userSpaceOnUse" gradientTransform="translate(19.3236 22.0185) rotate(180) scale(19.2833 19.6365)">
<stop stop-color="#FBEAF3" stop-opacity="0.6"/>
<stop offset="0.6807" stop-color="#A087BF"/>
<stop offset="1" stop-color="#17102E"/>
</radialGradient>
<radialGradient id="paint1_radial_12085_4938" cx="0" cy="0" r="1" gradientUnits="userSpaceOnUse" gradientTransform="translate(30.0519 30.3902) rotate(180) scale(47.1792 48.0433)">
<stop stop-color="#FBEAF3" stop-opacity="0.6"/>
<stop offset="0.6807" stop-color="#A087BF"/>
<stop offset="1" stop-color="#17102E"/>
</radialGradient>
<linearGradient id="paint2_linear_12085_4938" x1="50.019" y1="71.5478" x2="42.0222" y2="23.1" gradientUnits="userSpaceOnUse">
<stop stop-color="#9AD9E5"/>
<stop offset="0.6202" stop-color="white" stop-opacity="0"/>
</linearGradient>
<linearGradient id="paint3_linear_12085_4938" x1="28.804" y1="30.8888" x2="49.0776" y2="49.1559" gradientUnits="userSpaceOnUse">
<stop offset="0.2888" stop-color="white"/>
<stop offset="0.7796" stop-color="white" stop-opacity="0"/>
</linearGradient>
<linearGradient id="paint4_linear_12085_4938" x1="68.9733" y1="58.7688" x2="23.1106" y2="58.7688" gradientUnits="userSpaceOnUse">
<stop stop-color="#384EA2"/>
<stop offset="0.9952" stop-color="#D54799"/>
</linearGradient>
<linearGradient id="paint5_linear_12085_4938" x1="20.8247" y1="49.2889" x2="46.1978" y2="72.8365" gradientUnits="userSpaceOnUse">
<stop offset="0.2888" stop-color="white"/>
<stop offset="0.7796" stop-color="white" stop-opacity="0"/>
</linearGradient>
<linearGradient id="paint6_linear_12085_4938" x1="68.9733" y1="58.7688" x2="44.4672" y2="58.7688" gradientUnits="userSpaceOnUse">
<stop stop-color="#2B2F82"/>
<stop offset="0.9952" stop-color="#72439A"/>
</linearGradient>
<linearGradient id="paint7_linear_12085_4938" x1="68.9232" y1="49.2476" x2="23.1525" y2="49.2476" gradientUnits="userSpaceOnUse">
<stop stop-color="#2B2F82"/>
<stop offset="0.9952" stop-color="#A14298"/>
</linearGradient>
<linearGradient id="paint8_linear_12085_4938" x1="23.8433" y1="24.3014" x2="27.2202" y2="29.6902" gradientUnits="userSpaceOnUse">
<stop offset="0.2888" stop-color="white"/>
<stop offset="0.7796" stop-color="white" stop-opacity="0"/>
</linearGradient>
<linearGradient id="paint9_linear_12085_4938" x1="48.8356" y1="64.4254" x2="47.0102" y2="64.4254" gradientUnits="userSpaceOnUse">
<stop offset="0.2888" stop-color="white"/>
<stop offset="0.7796" stop-color="white" stop-opacity="0"/>
</linearGradient>
<linearGradient id="paint10_linear_12085_4938" x1="42.5421" y1="63.8101" x2="40.7167" y2="63.8101" gradientUnits="userSpaceOnUse">
<stop offset="0.2888" stop-color="white"/>
<stop offset="0.7796" stop-color="white" stop-opacity="0"/>
</linearGradient>
<linearGradient id="paint11_linear_12085_4938" x1="45.3358" y1="66.9887" x2="43.9654" y2="66.9887" gradientUnits="userSpaceOnUse">
<stop offset="0.2888" stop-color="white"/>
<stop offset="0.7796" stop-color="white" stop-opacity="0"/>
</linearGradient>
<linearGradient id="paint12_linear_12085_4938" x1="39.7883" y1="66.3297" x2="38.418" y2="66.3297" gradientUnits="userSpaceOnUse">
<stop offset="0.2888" stop-color="white"/>
<stop offset="0.7796" stop-color="white" stop-opacity="0"/>
</linearGradient>
<linearGradient id="paint13_linear_12085_4938" x1="54.7328" y1="63.2419" x2="51.7519" y2="63.2419" gradientUnits="userSpaceOnUse">
<stop offset="0.2888" stop-color="white"/>
<stop offset="0.7796" stop-color="white" stop-opacity="0"/>
</linearGradient>
<linearGradient id="paint14_linear_12085_4938" x1="37.0283" y1="58.2771" x2="34.0472" y2="58.2771" gradientUnits="userSpaceOnUse">
<stop offset="0.2888" stop-color="white"/>
<stop offset="0.7796" stop-color="white" stop-opacity="0"/>
</linearGradient>
<clipPath id="clip0_12085_4938">
<rect width="59.4" height="59.4" fill="white" transform="matrix(-1 0 0 1 74.0667 13.9333)"/>
</clipPath>
</defs>
</svg>
