<svg width="120" height="120" viewBox="0 0 120 120" fill="none" xmlns="http://www.w3.org/2000/svg">
<circle cx="60" cy="60" r="60" transform="matrix(-1 0 0 1 120 0)" fill="#1A154F"/>
<path d="M96.3679 33.3176C95.545 30.1424 92.8979 26.9672 88.1319 23.4323C84.3087 20.6168 80.2489 19 77.0122 19C76.3642 19 75.7777 19.0583 75.1881 19.1782C73.7171 19.4763 72.4243 20.5552 71.5981 22.1752C70.597 24.0933 70.3637 26.6691 71.0085 28.2275C71.245 28.707 71.5366 29.3064 71.8897 29.8443C68.7729 31.7624 67.0071 32.3002 66.7705 32.3618C74.89 35.119 81.6551 40.87 85.893 48.3576L85.9513 47.6384C86.1263 45.662 86.716 43.3842 87.5389 41.0482C88.3619 41.288 89.1849 41.4078 90.0111 41.4078C92.1883 41.4078 94.0708 40.5104 95.2469 38.8904C96.4295 37.2736 96.8993 35.1158 96.3679 33.3176Z" fill="#602F92"/>
<path d="M87.8986 39.3116C93.2511 40.8084 95.4283 36.6159 94.722 33.8003C93.9574 30.9848 91.4853 28.1076 87.1339 24.8741C82.7794 21.6374 78.3665 20.3219 75.5445 20.9213C72.7192 21.5207 71.8962 25.8947 72.6025 27.573C72.8974 28.2308 73.5454 29.1898 74.4267 30.2687C73.3089 31.0463 72.2494 31.6457 71.3681 32.1868C76.7821 34.6427 81.4866 38.4789 85.0182 43.2708C85.4297 41.6541 86.0194 40.2155 86.5475 38.9584C86.9557 39.0102 87.4255 39.1301 87.8986 39.3116Z" fill="url(#paint0_radial_9925_13181)"/>
<path d="M57.2449 98.0236C75.4084 98.0236 90.1342 83.0289 90.1342 64.5317C90.1342 46.0346 75.4084 31.0431 57.2449 31.0431C39.0815 31.0431 24.3557 46.0378 24.3557 64.535C24.3557 83.0321 39.0815 98.0236 57.2449 98.0236Z" fill="url(#paint1_radial_9925_13181)"/>
<path opacity="0.6" d="M92.0166 31.0431C87.5454 26.2511 83.7805 24.9908 79.251 23.9734C75.7194 23.1342 76.6623 21.0963 80.9585 21.5175C78.8979 20.7982 76.9571 20.62 75.5445 20.9181C72.7192 21.5175 71.8962 25.8915 72.6025 27.5698C72.8974 28.2275 73.5454 29.1866 74.4267 30.2655C72.8391 31.3444 71.4847 32.122 70.3669 32.7214C70.8951 32.9612 71.5431 33.2592 72.3077 33.6804C74.3068 34.7594 76.4841 36.5576 76.4841 36.5576C73.189 33.6804 73.8953 32.365 78.4248 29.1282C79.8375 28.1109 82.4262 28.2308 84.8368 29.4879C87.2473 30.745 90.0726 33.9202 90.0726 33.9202L87.3672 39.1917C87.5422 39.2532 87.7204 39.3116 87.8953 39.3731C89.6028 39.8526 90.9539 39.7328 92.0134 39.3116C93.2511 38.5307 96.4878 35.8934 92.0166 31.0431Z" fill="#A98798"/>
<path d="M79.1895 26.8473C80.3656 27.3268 81.8949 28.166 83.7773 29.4231C86.0129 30.92 87.9537 32.5983 89.1914 33.917C87.1307 36.6742 85.7796 40.4488 84.9567 43.0829C85.3682 43.6823 85.838 44.2817 86.2527 44.8811C86.6642 43.3842 87.3705 41.1648 88.3133 38.9487C88.5498 39.0102 88.8414 39.0102 89.1363 39.0102C89.8426 39.0102 90.6656 38.8904 91.3136 38.3525C91.7834 37.9929 92.3147 37.3352 92.2564 36.1364C92.2564 34.9991 91.3751 33.5606 89.551 31.8239C88.255 30.5668 86.4924 29.1866 84.7266 27.9294C79.6658 24.5145 76.1374 23.5554 74.5498 25.1722C73.4903 26.2511 73.607 27.5698 73.9601 28.5288C72.0777 29.786 70.4901 30.6867 69.4306 31.2861C70.1369 31.5258 70.7849 31.8239 71.4912 32.1252C73.364 31.1014 76.0726 29.3648 79.1895 26.8473ZM90.3092 35.4171C90.4841 35.7152 90.5457 36.0165 90.5457 36.1947C90.5457 36.7325 90.3707 36.914 90.2508 37.0338C90.0143 37.212 89.5445 37.3319 89.133 37.3319C89.4862 36.6126 89.8977 36.0132 90.3092 35.4171ZM75.7778 26.4876C75.9527 26.3094 76.4258 26.1896 77.1904 26.3094C76.6007 26.789 76.0143 27.2069 75.4246 27.6281C75.3663 27.2069 75.4246 26.789 75.7778 26.4876Z" fill="#602F92"/>
<path d="M57.2449 29.0634C38.0058 29.0634 22.4149 44.9394 22.4149 64.5317C22.4149 84.124 38.0058 100 57.2449 100C76.4841 100 92.075 84.124 92.075 64.5317C92.075 44.9427 76.4258 29.0634 57.2449 29.0634ZM57.2449 98.0236C39.0653 98.0236 24.3557 83.0451 24.3557 64.5317C24.3557 46.0184 39.0653 31.0398 57.2449 31.0398C75.4246 31.0398 90.1342 46.0184 90.1342 64.5317C90.131 83.0451 75.3663 98.0236 57.2449 98.0236Z" fill="#602F92"/>
<path opacity="0.6" d="M57.2449 98.0236C75.4084 98.0236 90.1342 83.0289 90.1342 64.5317C90.1342 46.0346 75.4084 31.0431 57.2449 31.0431C39.0815 31.0431 24.3557 46.0378 24.3557 64.535C24.3557 83.0321 39.0815 98.0236 57.2449 98.0236Z" fill="url(#paint2_linear_9925_13181)"/>
<path opacity="0.6" d="M57.0084 93.9477C39.0653 91.0122 26.8862 73.8176 29.8281 55.544C31.1241 47.4569 35.1222 40.5654 40.7728 35.592C32.5335 40.4488 26.4164 48.8955 24.7672 59.2019C21.8836 77.4755 34.0628 94.6702 51.9476 97.6056C61.9494 99.284 71.5981 96.1088 78.7164 89.8782C72.4244 93.588 64.7747 95.208 57.0084 93.9477Z" fill="#A98798"/>
<path opacity="0.6" d="M62.4808 31.5226C54.1864 30.1456 46.1253 32.0604 39.5351 36.3146C39.4185 36.4344 39.2986 36.5543 39.2986 36.5543C41.829 34.9959 45.5356 33.6189 45.5356 33.6189C36.0035 39.25 33.0616 45.662 33.0616 45.662C36.7681 38.3525 47.6513 33.2009 56.1822 32.8413C64.7131 32.4816 70.3021 35.0574 77.1256 40.6302C83.949 46.2614 88.0703 57.7634 87.6556 66.871C87.3024 75.9786 82.5947 83.3464 82.5947 83.3464C85.8315 79.0923 87.7722 75.9786 89.0067 72.8034C89.2432 71.8444 89.4765 70.8854 89.5963 69.868C92.5447 51.6527 80.4239 34.458 62.4808 31.5226Z" fill="url(#paint3_linear_9925_13181)"/>
<path d="M88.485 64.2336C88.485 81.788 74.4817 96.0472 57.2449 96.0472C40.0081 96.0472 25.9465 81.788 25.9465 64.2336H88.485Z" fill="url(#paint4_linear_9925_13181)"/>
<g opacity="0.6">
<path opacity="0.6" d="M86.0129 64.2336C86.0129 81.3668 72.7159 95.3862 56.0073 96.0472C56.4187 96.0472 56.8302 96.0472 57.2417 96.0472C74.4785 96.0472 88.4818 81.788 88.4818 64.2336H86.0129Z" fill="url(#paint5_linear_9925_13181)"/>
</g>
<g opacity="0.7">
<path opacity="0.7" d="M30.3594 64.2336H25.9465C25.9465 81.788 39.9498 96.0472 57.1866 96.0472C57.9513 96.0472 58.6576 96.0472 59.3639 95.9856C43.1833 94.7868 30.3594 81.0071 30.3594 64.2336Z" fill="url(#paint6_linear_9925_13181)"/>
</g>
<path d="M88.4267 64.5317C88.4267 60.877 82.1897 58.7807 73.8953 58.0614C67.8948 57.5819 61.836 58.1813 54.8927 60.3392C48.8922 62.1374 43.4782 61.836 39.5383 61.3565C30.7709 60.3392 25.9465 60.2193 25.9465 64.5317C25.9465 70.7622 38.4205 78.5512 57.1283 75.8555C66.6021 74.4785 71.4847 71.663 77.0737 69.7449C83.1325 67.7069 88.4267 67.7685 88.4267 64.5317Z" fill="url(#paint7_linear_9925_13181)"/>
<path d="M67.4801 49.4333C70.4058 49.4333 72.7743 47.0195 72.7743 44.042C72.7743 41.0644 70.4026 38.6506 67.4801 38.6506C64.5576 38.6506 62.1859 41.0644 62.1859 44.042C62.1859 47.0195 64.5576 49.4333 67.4801 49.4333Z" fill="white"/>
<path d="M76.1309 53.4477C77.3654 53.4477 78.3665 52.4271 78.3665 51.17C78.3665 49.9128 77.3654 48.8922 76.1309 48.8922C74.8965 48.8922 73.8953 49.9128 73.8953 51.17C73.8953 52.4303 74.8965 53.4477 76.1309 53.4477Z" fill="white"/>
<g opacity="0.6">
<path opacity="0.6" d="M84.1305 39.7295C84.0721 39.7295 84.0138 39.7295 84.0138 39.7295C83.6607 39.668 83.4241 39.3116 83.4857 38.8904C84.0138 36.1331 86.2494 33.499 86.3693 33.3791C86.6058 33.081 87.0756 33.081 87.3121 33.3176C87.607 33.5573 87.607 34.0368 87.3705 34.2766C87.3121 34.3349 85.2515 36.7941 84.7817 39.1884C84.7201 39.5481 84.4253 39.7295 84.1305 39.7295Z" fill="url(#paint8_linear_9925_13181)"/>
</g>
<path opacity="0.2" d="M55.0709 89.5154C55.9813 89.5154 56.7168 88.7637 56.7168 87.837C56.7168 86.9104 55.9781 86.1587 55.0709 86.1587C54.1605 86.1587 53.425 86.9104 53.425 87.837C53.425 88.7637 54.1605 89.5154 55.0709 89.5154Z" fill="white"/>
<g opacity="0.4">
<path opacity="0.6" d="M54.1281 88.9192C53.4801 88.2615 53.4801 87.1826 54.1281 86.5216C54.2447 86.4017 54.3646 86.3434 54.4812 86.2235C54.2447 86.2851 54.0697 86.4017 53.8915 86.5832C53.2435 87.2409 53.2435 88.3198 53.8915 88.9808C54.4197 89.5186 55.2459 89.6385 55.8906 89.2788C55.3042 89.5186 54.5979 89.3987 54.1281 88.9192Z" fill="url(#paint9_linear_9925_13181)"/>
</g>
<path opacity="0.3" d="M55.6574 87.3575C55.8518 87.3575 56.0105 87.1955 56.0105 86.9979C56.0105 86.8002 55.8518 86.6382 55.6574 86.6382C55.463 86.6382 55.3042 86.8002 55.3042 86.9979C55.3042 87.1988 55.4597 87.3575 55.6574 87.3575Z" fill="white"/>
<path opacity="0.2" d="M63.6601 88.6762C64.5706 88.6762 65.3061 87.9245 65.3061 86.9979C65.3061 86.0712 64.5673 85.3195 63.6601 85.3195C62.7497 85.3195 62.0142 86.0712 62.0142 86.9979C62.0142 87.9245 62.7529 88.6762 63.6601 88.6762Z" fill="white"/>
<g opacity="0.4">
<path opacity="0.6" d="M62.7173 88.08C62.0693 87.4223 62.0693 86.3434 62.7173 85.6824C62.8339 85.5626 62.9538 85.5042 63.0705 85.3844C62.8339 85.4459 62.659 85.5626 62.4808 85.744C61.8328 86.4017 61.8328 87.4806 62.4808 88.1416C63.0089 88.6794 63.8351 88.7993 64.4799 88.4397C63.8934 88.6794 63.1871 88.5596 62.7173 88.08Z" fill="url(#paint10_linear_9925_13181)"/>
</g>
<path opacity="0.3" d="M64.2466 86.5216C64.441 86.5216 64.5998 86.3596 64.5998 86.162C64.5998 85.9643 64.441 85.8023 64.2466 85.8023C64.0522 85.8023 63.8934 85.9643 63.8934 86.162C63.8934 86.3596 64.0522 86.5216 64.2466 86.5216Z" fill="white"/>
<path opacity="0.2" d="M59.4222 92.5707C60.1059 92.5707 60.6567 92.0069 60.6567 91.3136C60.6567 90.6202 60.1026 90.0564 59.4222 90.0564C58.7386 90.0564 58.1878 90.6202 58.1878 91.3136C58.1878 92.0069 58.7386 92.5707 59.4222 92.5707Z" fill="white"/>
<g opacity="0.4">
<path opacity="0.6" d="M58.7159 92.0944C58.2461 91.6149 58.2461 90.7757 58.7159 90.2962C58.7742 90.2346 58.8909 90.1763 58.9524 90.1147C58.7775 90.1763 58.6576 90.2962 58.5409 90.4128C58.0711 90.8924 58.0711 91.7315 58.5409 92.211C58.9524 92.629 59.5421 92.6905 60.0702 92.3925C59.5972 92.5739 59.0691 92.454 58.7159 92.0944Z" fill="url(#paint11_linear_9925_13181)"/>
</g>
<path opacity="0.3" d="M59.8337 90.8924C59.9633 90.8924 60.0702 90.7854 60.0702 90.6526C60.0702 90.5198 59.9633 90.4128 59.8337 90.4128C59.7041 90.4128 59.5972 90.5198 59.5972 90.6526C59.5972 90.7854 59.7041 90.8924 59.8337 90.8924Z" fill="white"/>
<path opacity="0.2" d="M67.0103 91.6732C67.694 91.6732 68.2448 91.1094 68.2448 90.4161C68.2448 89.7227 67.6907 89.159 67.0103 89.159C66.3299 89.159 65.7759 89.7227 65.7759 90.4161C65.7759 91.1094 66.3299 91.6732 67.0103 91.6732Z" fill="white"/>
<g opacity="0.4">
<path opacity="0.6" d="M66.3072 91.1937C65.8374 90.7142 65.8374 89.875 66.3072 89.3955C66.3655 89.3339 66.4822 89.2756 66.5437 89.2173C66.3688 89.2788 66.2489 89.3955 66.1323 89.5154C65.6625 89.9949 65.6625 90.834 66.1323 91.3136C66.5437 91.7315 67.1334 91.7931 67.6615 91.4918C67.1885 91.6732 66.6604 91.5533 66.3072 91.1937Z" fill="url(#paint12_linear_9925_13181)"/>
</g>
<path opacity="0.3" d="M67.4218 89.9949C67.5514 89.9949 67.6583 89.888 67.6583 89.7551C67.6583 89.6223 67.5514 89.5154 67.4218 89.5154C67.2922 89.5154 67.1853 89.6223 67.1853 89.7551C67.1885 89.888 67.2922 89.9949 67.4218 89.9949Z" fill="white"/>
<path opacity="0.2" d="M48.066 88.916C49.5597 88.916 50.7714 87.6815 50.7714 86.1587C50.7714 84.6359 49.5597 83.4015 48.066 83.4015C46.5724 83.4015 45.3606 84.6359 45.3606 86.1587C45.3606 87.6815 46.5724 88.916 48.066 88.916Z" fill="white"/>
<g opacity="0.4">
<path opacity="0.6" d="M46.54 87.8986C45.4805 86.8197 45.4805 85.083 46.54 84.0041C46.7149 83.8259 46.8931 83.706 47.1297 83.5862C46.7765 83.706 46.4817 83.9458 46.1868 84.1856C45.1273 85.2645 45.1273 87.0011 46.1868 88.08C47.0681 88.9775 48.4224 89.1589 49.4819 88.498C48.4807 88.9159 47.3046 88.7378 46.54 87.8986Z" fill="url(#paint13_linear_9925_13181)"/>
</g>
<path opacity="0.3" d="M49.0089 85.3228C49.3329 85.3228 49.5986 85.0539 49.5986 84.7234C49.5986 84.3929 49.3361 84.124 49.0089 84.124C48.6849 84.124 48.4192 84.3929 48.4192 84.7234C48.4192 85.0539 48.6816 85.3228 49.0089 85.3228Z" fill="white"/>
<path opacity="0.2" d="M72.2494 82.1476C73.743 82.1476 74.9548 80.9132 74.9548 79.3904C74.9548 77.8676 73.743 76.6331 72.2494 76.6331C70.7557 76.6331 69.544 77.8676 69.544 79.3904C69.544 80.9132 70.7525 82.1476 72.2494 82.1476Z" fill="white"/>
<g opacity="0.4">
<path opacity="0.6" d="M70.6585 81.127C69.5991 80.0481 69.5991 78.3114 70.6585 77.2325C70.8335 77.0511 71.0117 76.9344 71.2482 76.8146C70.8951 76.9344 70.6002 77.1742 70.3054 77.414C69.2459 78.4929 69.2459 80.2295 70.3054 81.3084C71.1867 82.2059 72.541 82.3874 73.6005 81.7264C72.5993 82.1476 71.4815 81.9662 70.6585 81.127Z" fill="url(#paint14_linear_9925_13181)"/>
</g>
<path opacity="0.3" d="M73.189 78.5512C73.513 78.5512 73.7787 78.2823 73.7787 77.9518C73.7787 77.6213 73.5162 77.3524 73.189 77.3524C72.865 77.3524 72.5993 77.6213 72.5993 77.9518C72.5993 78.2823 72.8617 78.5512 73.189 78.5512Z" fill="white"/>
<defs>
<radialGradient id="paint0_radial_9925_13181" cx="0" cy="0" r="1" gradientUnits="userSpaceOnUse" gradientTransform="translate(93.6495 30.0251) scale(26.2955 26.777)">
<stop stop-color="#FBEAF3" stop-opacity="0.6"/>
<stop offset="0.6807" stop-color="#A087BF"/>
<stop offset="1" stop-color="#17102E"/>
</radialGradient>
<radialGradient id="paint1_radial_9925_13181" cx="0" cy="0" r="1" gradientUnits="userSpaceOnUse" gradientTransform="translate(79.0201 41.4411) scale(64.3353 65.5136)">
<stop stop-color="#FBEAF3" stop-opacity="0.6"/>
<stop offset="0.6807" stop-color="#A087BF"/>
<stop offset="1" stop-color="#17102E"/>
</radialGradient>
<linearGradient id="paint2_linear_9925_13181" x1="51.7923" y1="97.5651" x2="62.697" y2="31.5" gradientUnits="userSpaceOnUse">
<stop stop-color="#9AD9E5"/>
<stop offset="0.6202" stop-color="white" stop-opacity="0"/>
</linearGradient>
<linearGradient id="paint3_linear_9925_13181" x1="80.7218" y1="42.1211" x2="53.0759" y2="67.0308" gradientUnits="userSpaceOnUse">
<stop offset="0.2888" stop-color="white"/>
<stop offset="0.7796" stop-color="white" stop-opacity="0"/>
</linearGradient>
<linearGradient id="paint4_linear_9925_13181" x1="25.9454" y1="80.1392" x2="88.4855" y2="80.1392" gradientUnits="userSpaceOnUse">
<stop stop-color="#384EA2"/>
<stop offset="0.9952" stop-color="#D54799"/>
</linearGradient>
<linearGradient id="paint5_linear_9925_13181" x1="91.6027" y1="67.2121" x2="57.003" y2="99.3224" gradientUnits="userSpaceOnUse">
<stop offset="0.2888" stop-color="white"/>
<stop offset="0.7796" stop-color="white" stop-opacity="0"/>
</linearGradient>
<linearGradient id="paint6_linear_9925_13181" x1="25.9454" y1="80.1392" x2="59.3628" y2="80.1392" gradientUnits="userSpaceOnUse">
<stop stop-color="#2B2F82"/>
<stop offset="0.9952" stop-color="#72439A"/>
</linearGradient>
<linearGradient id="paint7_linear_9925_13181" x1="26.0138" y1="67.1558" x2="88.4283" y2="67.1558" gradientUnits="userSpaceOnUse">
<stop stop-color="#2B2F82"/>
<stop offset="0.9952" stop-color="#A14298"/>
</linearGradient>
<linearGradient id="paint8_linear_9925_13181" x1="87.4864" y1="33.1382" x2="82.8815" y2="40.4866" gradientUnits="userSpaceOnUse">
<stop offset="0.2888" stop-color="white"/>
<stop offset="0.7796" stop-color="white" stop-opacity="0"/>
</linearGradient>
<linearGradient id="paint9_linear_9925_13181" x1="53.406" y1="87.8528" x2="55.8951" y2="87.8528" gradientUnits="userSpaceOnUse">
<stop offset="0.2888" stop-color="white"/>
<stop offset="0.7796" stop-color="white" stop-opacity="0"/>
</linearGradient>
<linearGradient id="paint10_linear_9925_13181" x1="61.988" y1="87.0138" x2="64.4772" y2="87.0138" gradientUnits="userSpaceOnUse">
<stop offset="0.2888" stop-color="white"/>
<stop offset="0.7796" stop-color="white" stop-opacity="0"/>
</linearGradient>
<linearGradient id="paint11_linear_9925_13181" x1="58.1784" y1="91.3482" x2="60.0472" y2="91.3482" gradientUnits="userSpaceOnUse">
<stop offset="0.2888" stop-color="white"/>
<stop offset="0.7796" stop-color="white" stop-opacity="0"/>
</linearGradient>
<linearGradient id="paint12_linear_9925_13181" x1="65.7432" y1="90.4496" x2="67.6117" y2="90.4496" gradientUnits="userSpaceOnUse">
<stop offset="0.2888" stop-color="white"/>
<stop offset="0.7796" stop-color="white" stop-opacity="0"/>
</linearGradient>
<linearGradient id="paint13_linear_9925_13181" x1="45.3643" y1="86.2389" x2="49.4292" y2="86.2389" gradientUnits="userSpaceOnUse">
<stop offset="0.2888" stop-color="white"/>
<stop offset="0.7796" stop-color="white" stop-opacity="0"/>
</linearGradient>
<linearGradient id="paint14_linear_9925_13181" x1="69.5069" y1="79.4687" x2="73.572" y2="79.4687" gradientUnits="userSpaceOnUse">
<stop offset="0.2888" stop-color="white"/>
<stop offset="0.7796" stop-color="white" stop-opacity="0"/>
</linearGradient>
</defs>
</svg>
