<svg width="24" height="25" viewBox="0 0 24 25" fill="none" xmlns="http://www.w3.org/2000/svg">
<rect y="0.777832" width="24.0008" height="24" rx="8" fill="#32BBF5"/>
<path fill-rule="evenodd" clip-rule="evenodd" d="M12.4176 8.25809C11.3622 7.41338 10.1228 7.43939 9.23808 7.62539C8.69938 7.73873 8.15136 7.92541 7.67 8.19876C7.56786 8.2571 7.48298 8.34143 7.42396 8.44318C7.36495 8.54493 7.3339 8.66049 7.33398 8.77812V18.1119C7.33398 18.2887 7.40423 18.4583 7.52926 18.5833C7.65429 18.7084 7.82386 18.7786 8.00068 18.7786C8.1775 18.7786 8.34708 18.7084 8.47211 18.5833C8.59714 18.4583 8.66738 18.2887 8.66738 18.1119V14.5317C9.58476 14.145 10.7502 13.965 11.5842 14.6317C12.6396 15.4764 13.879 15.4504 14.763 15.2644C15.2606 15.1583 15.7427 14.9894 16.1978 14.7617C16.4591 14.6297 16.6678 14.4271 16.6678 14.1117V8.77812C16.6678 8.66141 16.6372 8.54674 16.579 8.44558C16.5208 8.34441 16.437 8.2603 16.3361 8.20165C16.2352 8.143 16.1207 8.11186 16.004 8.11135C15.8873 8.11085 15.7725 8.14098 15.6711 8.19876C14.7117 8.72278 13.3349 8.99213 12.4176 8.25743V8.25809ZM8.66738 9.19814V13.111C9.92144 12.7096 11.3482 12.7356 12.4176 13.591C13.0289 14.0804 13.7896 14.1064 14.489 13.9597C14.7786 13.8971 15.0616 13.8074 15.3344 13.6917V9.77817C15.1466 9.83853 14.9559 9.88927 14.763 9.93017C13.879 10.1162 12.6396 10.1422 11.5842 9.29814C10.7502 8.63144 9.58476 8.81079 8.66738 9.19747V9.19814Z" fill="white"/>
</svg>
