<svg width="88" height="88" viewBox="0 0 88 88" fill="none" xmlns="http://www.w3.org/2000/svg">
<g clip-path="url(#clip0_12085_5029)">
<rect width="88" height="88" rx="44" fill="#213147"/>
<path d="M16.5516 30.8571V57.126C16.5516 58.8147 17.4362 60.3426 18.9105 61.2004L41.668 74.3349C43.1154 75.1658 44.9114 75.1658 46.3588 74.3349L69.1163 61.2004C70.5638 60.3694 71.4752 58.8147 71.4752 57.126V30.8571C71.4752 29.1684 70.5906 27.6405 69.1163 26.7827L46.3588 13.6482C44.9114 12.8173 43.1154 12.8173 41.668 13.6482L18.9105 26.7827C17.463 27.6137 16.5784 29.1684 16.5784 30.8571H16.5516Z" fill="#213147"/>
<path d="M48.9589 49.0845L45.7155 57.9838C45.635 58.225 45.635 58.4931 45.7155 58.7611L51.2909 74.0668L57.7509 70.3409L50.0043 49.0845C49.8166 48.602 49.1465 48.602 48.9589 49.0845Z" fill="#12AAFF"/>
<path d="M55.4725 34.1273C55.2849 33.6448 54.6148 33.6448 54.4271 34.1273L51.1837 43.0266C51.1033 43.2678 51.1033 43.5359 51.1837 43.8039L60.3242 68.8666L66.7843 65.1407L55.4725 34.1541V34.1273Z" fill="#12AAFF"/>
<path d="M44 14.6401C44.1609 14.6401 44.3217 14.6937 44.4557 14.7741L69.0628 28.9808C69.3576 29.1416 69.5184 29.4633 69.5184 29.7849V58.1983C69.5184 58.5199 69.3308 58.8416 69.0628 59.0024L44.4557 73.2091C44.3217 73.2895 44.1609 73.3431 44 73.3431C43.8392 73.3431 43.6784 73.2895 43.5444 73.2091L18.9373 59.0024C18.6425 58.8416 18.4816 58.5199 18.4816 58.1983V29.7581C18.4816 29.4365 18.6693 29.1148 18.9373 28.954L43.5444 14.7473C43.6784 14.6669 43.8392 14.6133 44 14.6133V14.6401ZM44 10.4853C43.1155 10.4853 42.2577 10.6997 41.4536 11.1554L16.8465 25.3621C15.265 26.2735 14.3 27.9354 14.3 29.7581V58.1715C14.3 59.9942 15.265 61.6561 16.8465 62.5675L41.4536 76.7742C42.2309 77.2299 43.1155 77.4443 44 77.4443C44.8846 77.4443 45.7424 77.2299 46.5465 76.7742L71.1536 62.5675C72.7351 61.6561 73.7 59.9942 73.7 58.1715V29.7581C73.7 27.9354 72.7351 26.2735 71.1536 25.3621L46.5197 11.1554C45.7424 10.6997 44.8578 10.4853 43.9732 10.4853H44Z" fill="#9DCCED"/>
<path d="M27.7025 68.8935L29.9809 62.6747L34.5378 66.4542L30.2758 70.3677L27.7025 68.8935Z" fill="#213147"/>
<path d="M41.9092 27.7478H35.6637C35.208 27.7478 34.7791 28.0426 34.6183 28.4715L21.2426 65.1408L27.7026 68.8667L42.4453 28.4715C42.5794 28.0962 42.3113 27.7209 41.9361 27.7209L41.9092 27.7478Z" fill="white"/>
<path d="M52.8456 27.7478H46.6C46.1443 27.7478 45.7155 28.0426 45.5546 28.4715L30.2758 70.341L36.7358 74.0669L53.3549 28.4715C53.4889 28.0962 53.2209 27.7209 52.8456 27.7209V27.7478Z" fill="white"/>
</g>
<defs>
<clipPath id="clip0_12085_5029">
<rect width="88" height="88" rx="44" fill="white"/>
</clipPath>
</defs>
</svg>
