<svg width="120" height="120" viewBox="0 0 120 120" fill="none" xmlns="http://www.w3.org/2000/svg">
<g clip-path="url(#clip0_9925_23263)">
<rect width="120" height="120" rx="60" fill="#213147"/>
<path d="M22.5704 42.0779V77.8991C22.5704 80.2019 23.7766 82.2854 25.787 83.4551L56.82 101.366C58.7938 102.499 61.2428 102.499 63.2166 101.366L94.2495 83.4551C96.2234 82.322 97.4661 80.2019 97.4661 77.8991V42.0779C97.4661 39.7751 96.2599 37.6916 94.2495 36.5219L63.2166 18.6113C61.2428 17.4781 58.7938 17.4781 56.82 18.6113L25.787 36.5219C23.8132 37.655 22.607 39.7751 22.607 42.0779H22.5704Z" fill="#213147"/>
<path d="M66.7622 66.9335L62.3393 79.0688C62.2297 79.3978 62.2297 79.7633 62.3393 80.1289L69.9422 101L78.7513 95.9195L68.1877 66.9335C67.9319 66.2755 67.018 66.2755 66.7622 66.9335Z" fill="#12AAFF"/>
<path d="M75.6444 46.5373C75.3885 45.8793 74.4747 45.8793 74.2189 46.5373L69.796 58.6727C69.6864 59.0016 69.6864 59.3671 69.796 59.7327L82.2604 93.9091L91.0695 88.8283L75.6444 46.5738V46.5373Z" fill="#12AAFF"/>
<path d="M60 19.9637C60.2193 19.9637 60.4386 20.0368 60.6214 20.1465L94.1764 39.5192C94.5785 39.7385 94.7978 40.1771 94.7978 40.6158V79.3613C94.7978 79.7999 94.542 80.2385 94.1764 80.4578L60.6214 99.8306C60.4386 99.9402 60.2193 100.013 60 100.013C59.7807 100.013 59.5614 99.9402 59.3786 99.8306L25.8236 80.4578C25.4215 80.2385 25.2022 79.7999 25.2022 79.3613V40.5792C25.2022 40.1406 25.4581 39.702 25.8236 39.4827L59.3786 20.1099C59.5614 20.0003 59.7807 19.9272 60 19.9272V19.9637ZM60 14.2981C58.7938 14.2981 57.6241 14.5905 56.5275 15.2119L22.9725 34.5846C20.8159 35.8274 19.5 38.0937 19.5 40.5792V79.3247C19.5 81.8103 20.8159 84.0765 22.9725 85.3193L56.5275 104.692C57.5876 105.313 58.7938 105.606 60 105.606C61.2062 105.606 62.3759 105.313 63.4725 104.692L97.0275 85.3193C99.1841 84.0765 100.5 81.8103 100.5 79.3247V40.5792C100.5 38.0937 99.1841 35.8274 97.0275 34.5846L63.4359 15.2119C62.3759 14.5905 61.1697 14.2981 59.9635 14.2981H60Z" fill="#9DCCED"/>
<path d="M37.7762 93.9457L40.8831 85.4655L47.097 90.6194L41.2852 95.956L37.7762 93.9457Z" fill="#213147"/>
<path d="M57.1489 37.8378H48.6322C48.0108 37.8378 47.426 38.2399 47.2067 38.8247L28.9671 88.8283L37.7762 93.9091L57.88 38.8247C58.0627 38.313 57.6972 37.8013 57.1855 37.8013L57.1489 37.8378Z" fill="white"/>
<path d="M72.0623 37.8378H63.5456C62.9242 37.8378 62.3393 38.2399 62.12 38.8247L41.2852 95.9195L50.0943 101L72.7568 38.8247C72.9395 38.313 72.574 37.8013 72.0623 37.8013V37.8378Z" fill="white"/>
</g>
<defs>
<clipPath id="clip0_9925_23263">
<rect width="120" height="120" rx="60" fill="white"/>
</clipPath>
</defs>
</svg>
