<svg width="24" height="25" viewBox="0 0 24 25" fill="none" xmlns="http://www.w3.org/2000/svg">
<rect y="0.411621" width="24" height="24" rx="8" fill="white" fill-opacity="0.05"/>
<rect y="0.411621" width="24" height="24" rx="8" fill="#3994FF"/>
<path d="M13.591 14.0026C12.7123 14.8813 11.2877 14.8813 10.409 14.0026M13.591 14.0026C14.4697 13.1239 14.4697 11.6993 13.591 10.8206M13.591 14.0026L15.9775 16.3891M10.409 14.0026C9.53033 13.1239 9.53033 11.6993 10.409 10.8206M10.409 14.0026L8.02252 16.3891M10.409 10.8206C11.2877 9.94195 12.7123 9.94195 13.591 10.8206M10.409 10.8206L8.02252 8.43415M13.591 10.8206L15.9775 8.43415M16.2426 16.6543C13.8995 18.9974 10.1005 18.9974 7.75736 16.6543C5.41421 14.3111 5.41421 10.5121 7.75736 8.16898C10.1005 5.82583 13.8995 5.82583 16.2426 8.16898C18.5858 10.5121 18.5858 14.3111 16.2426 16.6543Z" stroke="white" stroke-width="1.2" stroke-linecap="round" stroke-linejoin="round"/>
</svg>
