<svg width="24" height="25" viewBox="0 0 24 25" fill="none" xmlns="http://www.w3.org/2000/svg">
<rect y="0.777344" width="24" height="24" rx="8" fill="#0AA966"/>
<g clip-path="url(#clip0_11266_35608)">
<path d="M6.66675 14.1107V12.1107C6.66675 10.6962 7.22865 9.33964 8.22885 8.33944C9.22904 7.33925 10.5856 6.77734 12.0001 6.77734C13.4146 6.77734 14.7711 7.33925 15.7713 8.33944C16.7715 9.33964 17.3334 10.6962 17.3334 12.1107V14.1107" stroke="white" stroke-width="1.2" stroke-linecap="round" stroke-linejoin="round"/>
<path d="M16 17.4434C16 18.548 14.2093 19.4434 12 19.4434" stroke="white" stroke-width="1.2" stroke-linecap="round" stroke-linejoin="round"/>
<path d="M6.66675 14.1107C6.66675 13.7571 6.80722 13.4179 7.05727 13.1679C7.30732 12.9178 7.64646 12.7773 8.00008 12.7773H8.66675C9.02037 12.7773 9.35951 12.9178 9.60956 13.1679C9.85961 13.4179 10.0001 13.7571 10.0001 14.1107V16.1107C10.0001 16.4643 9.85961 16.8034 9.60956 17.0535C9.35951 17.3035 9.02037 17.444 8.66675 17.444H8.00008C7.64646 17.444 7.30732 17.3035 7.05727 17.0535C6.80722 16.8034 6.66675 16.4643 6.66675 16.1107V14.1107Z" stroke="white" stroke-width="1.2" stroke-linecap="round" stroke-linejoin="round"/>
<path d="M14 14.1107C14 13.7571 14.1405 13.4179 14.3905 13.1679C14.6406 12.9178 14.9797 12.7773 15.3333 12.7773H16C16.3536 12.7773 16.6928 12.9178 16.9428 13.1679C17.1929 13.4179 17.3333 13.7571 17.3333 14.1107V16.1107C17.3333 16.4643 17.1929 16.8034 16.9428 17.0535C16.6928 17.3035 16.3536 17.444 16 17.444H15.3333C14.9797 17.444 14.6406 17.3035 14.3905 17.0535C14.1405 16.8034 14 16.4643 14 16.1107V14.1107Z" stroke="white" stroke-width="1.2" stroke-linecap="round" stroke-linejoin="round"/>
</g>
<defs>
<clipPath id="clip0_11266_35608">
<rect width="16" height="16" fill="white" transform="translate(4 4.77734)"/>
</clipPath>
</defs>
</svg>
