<svg width="120" height="120" viewBox="0 0 120 120" fill="none" xmlns="http://www.w3.org/2000/svg">
<g clip-path="url(#clip0_10009_1948)">
<path d="M120 60C120 93.1406 93.1406 120 60 120C26.8594 120 0 93.1406 0 60C0 26.8594 26.8594 0 60 0C93.1406 0 120 26.8594 120 60Z" fill="#FFD15C"/>
<path d="M45.3516 35.6953C42.9141 36.0469 44.2734 38.1328 44.2734 38.1328L44.2031 38.7188C47.6953 44.7422 53.4609 51.0703 59.3438 55.2891C63.6797 58.3828 66.9141 62.9531 68.4844 68.1563C70.0313 73.2891 69.75 78.6094 67.7344 82.7344C65.2969 87.7031 60.6797 90.586 54.7734 90.8672C48.8906 91.1485 41.9063 88.8281 34.0078 83.9766C33.9375 84.1641 33.8438 84.3516 33.75 84.5156C40.5938 91.5703 48.5156 95.7891 56.7422 96.75C65.0625 97.7344 73.5938 95.3906 80.8125 90.2109C80.625 90.2109 80.4844 90.1641 80.3672 90.0938C104.648 70.0313 64.8984 32.9063 45.3516 35.6953Z" fill="white"/>
<path d="M108.422 62.6719C108.398 62.2266 108.375 61.6875 108.281 61.0547C107.977 58.5938 106.992 54.8203 104.133 50.8125C103.992 50.625 103.852 50.4375 103.711 50.25C103.688 50.2031 103.641 50.1562 103.617 50.1094C103.5 49.9453 103.359 49.7812 103.242 49.6172L103.219 49.5938C103.078 49.4297 102.938 49.2422 102.797 49.0781C102.773 49.0312 102.727 49.0078 102.703 48.9609C102.586 48.8203 102.445 48.6562 102.328 48.5156C102.305 48.4922 102.305 48.4922 102.281 48.4688C102.141 48.3047 102 48.1641 101.859 48C101.836 47.9766 101.789 47.9297 101.766 47.9062C101.648 47.7656 101.531 47.6484 101.414 47.5312C101.391 47.5078 101.367 47.4844 101.367 47.4609C101.227 47.3203 101.086 47.1797 100.969 47.0625C100.945 47.0391 100.922 47.0156 100.875 46.9687C100.758 46.8516 100.641 46.7344 100.523 46.6406C100.5 46.6172 100.477 46.5937 100.453 46.5703C100.313 46.4531 100.195 46.3359 100.055 46.2187C100.031 46.1953 100.008 46.1719 99.9844 46.1484C99.8672 46.0547 99.75 45.9609 99.6563 45.8672C99.6328 45.8437 99.6094 45.8203 99.586 45.7969C99.4688 45.6797 99.3281 45.5859 99.2109 45.4922C99.1875 45.4688 99.1641 45.4453 99.1406 45.4219C99.0469 45.3281 98.9297 45.2578 98.836 45.1641C98.8125 45.1406 98.7656 45.1172 98.7422 45.0937C98.625 45 98.5078 44.9062 98.3906 44.8359C98.3672 44.8125 98.3438 44.7891 98.3203 44.7891C98.2266 44.7188 98.1328 44.6484 98.0391 44.5781C98.0156 44.5547 97.9688 44.5312 97.9453 44.5078C97.8281 44.4375 97.7344 44.3672 97.6172 44.2734C97.5938 44.25 97.5703 44.2266 97.5235 44.2266C97.4297 44.1797 97.3594 44.1094 97.2891 44.0625C97.2422 44.0391 97.2188 44.0156 97.1719 43.9922C97.0781 43.9453 96.9844 43.875 96.9141 43.8281C96.8672 43.8047 96.8203 43.7812 96.7969 43.7578C96.7266 43.7109 96.6797 43.6875 96.6094 43.6406C96.5625 43.6172 96.5156 43.5937 96.4688 43.5703C96.4219 43.5469 96.3516 43.5 96.3047 43.4766C96.2344 43.4297 96.1641 43.3828 96.0703 43.3594C96.0235 43.3359 96 43.3125 95.9531 43.2891C95.9063 43.2656 95.8594 43.2422 95.7891 43.2187C95.7656 43.1953 95.7422 43.1953 95.7188 43.1719C95.625 43.125 95.5078 43.0547 95.4141 43.0078H95.3906C94.7578 41.8828 94.0547 40.7578 93.3047 39.6328C84.5625 26.8359 74.9766 20.625 64.0313 20.6016H63.9844C59.3438 20.6016 55.1016 21.6563 51.5625 22.6875C50.5547 22.9922 49.5 23.2969 48.4922 23.625C45.9141 24.4219 43.4766 25.1953 41.3906 25.5234C40.0781 25.7344 39.0469 26.2266 38.3203 26.9766C37.6641 27.6797 37.2656 28.6406 37.1485 29.8125C36.9141 32.0859 37.7344 35.1562 39.5156 38.6719C43.1016 45.7969 49.9688 53.6484 57 58.6875C57.8203 59.2734 58.5703 59.9063 59.2734 60.6094C59.1328 60.6328 58.9922 60.6562 58.8281 60.6797C53.3203 61.4766 50.4375 67.3828 49.2891 70.5938C48.9844 71.4375 49.8047 72.1875 50.6485 71.8828C54.0703 70.7344 61.0313 68.8594 64.9453 71.2734C64.9688 71.2734 65.0156 71.25 65.0391 71.25C65.7422 74.7656 65.4141 78.2344 64.0781 80.9297C62.3203 84.4688 58.9688 86.5547 54.6328 86.7656C49.5235 87.0234 43.2422 84.8438 35.9531 80.2969L35.836 80.2266C35.7656 80.2031 35.6953 80.1562 35.6485 80.1094C41.3203 73.6641 37.9688 63.7266 36.6563 60.4688C36.4922 60.0469 35.8828 60.0469 35.6485 60.4453C32.6016 65.625 26.3203 65.2266 26.4375 71.3906C26.4375 71.3906 26.4375 71.3906 26.4375 71.3672C21.6563 67.4766 18.0938 72.6563 12.1406 71.8828C11.6719 71.8125 11.3203 72.2813 11.5547 72.6797C13.3594 75.7969 19.4063 84.9375 28.336 83.9062L27.9141 84.2109L29.5078 85.9688C37.3125 94.5703 46.5938 99.7266 56.3672 100.875C57.7734 101.039 59.1797 101.133 60.5859 101.133C68.7656 101.133 76.8985 98.3906 83.8828 93.1875C91.8985 87.2344 97.4531 78.8203 99.5391 69.5156C100.242 66.4219 100.523 63.3281 100.406 60.2578C102.164 59.5547 104.086 60.3281 105.609 61.3594C105.633 61.3594 105.633 61.3828 105.656 61.3828C105.727 61.4297 105.773 61.4766 105.844 61.5C105.867 61.5 105.867 61.5234 105.891 61.5234C106.078 61.6406 106.242 61.7813 106.406 61.8984C106.43 61.9219 106.477 61.9453 106.5 61.9688C106.547 61.9922 106.57 62.0391 106.617 62.0625C106.664 62.0859 106.688 62.1328 106.734 62.1563C106.758 62.1797 106.805 62.2031 106.828 62.25C106.898 62.2969 106.969 62.3672 107.016 62.4141C107.039 62.4375 107.063 62.4609 107.086 62.4609C107.133 62.5078 107.18 62.5547 107.227 62.5781C107.25 62.6016 107.273 62.625 107.297 62.6484C107.344 62.6953 107.391 62.7188 107.438 62.7656C107.461 62.7891 107.484 62.7891 107.484 62.8125C107.531 62.8594 107.602 62.9297 107.648 62.9766C107.672 63 107.695 63 107.695 63.0234C107.813 63.1172 107.953 63.1406 108.07 63.1406C108.211 63.1641 108.445 62.9531 108.422 62.6719ZM80.3672 90.1172C80.4844 90.1875 80.625 90.2109 80.8125 90.2344C73.5938 95.4375 65.0625 97.7578 56.7422 96.7734C48.4922 95.8125 40.5938 91.5938 33.75 84.5391C33.8438 84.3516 33.9375 84.1875 34.0078 84C41.9063 88.8516 48.8906 91.1719 54.7734 90.8906C60.6797 90.6094 65.2969 87.7031 67.7344 82.7578C69.7734 78.6328 70.0313 73.3359 68.4844 68.1797C66.9141 62.9766 63.6797 58.4062 59.3438 55.3125C53.4375 51.0938 47.6953 44.7656 44.2031 38.7422L44.2734 38.1562C44.2734 38.1562 42.9141 36.0703 45.3516 35.7187C64.8984 32.9062 104.648 70.0313 80.3672 90.1172Z" fill="black"/>
<path d="M65.6953 34.3359C65.0156 33.375 63.6563 30.7969 67.875 30.7969C72.0938 30.7969 78.5156 35.5547 79.8281 37.3125C79.4297 38.3906 76.711 38.625 75.3516 38.5312C73.9922 38.4375 71.6953 38.2031 69.9141 37.3125C68.1563 36.4688 66.375 35.2969 65.6953 34.3359Z" fill="white"/>
</g>
<defs>
<clipPath id="clip0_10009_1948">
<rect width="120" height="120" fill="white"/>
</clipPath>
</defs>
</svg>
