<svg width="48" height="48" viewBox="0 0 48 48" fill="none" xmlns="http://www.w3.org/2000/svg">
<g clip-path="url(#clip0_10737_15565)">
<path d="M48 24C48 37.2562 37.2562 48 24 48C10.7438 48 0 37.2562 0 24C0 10.7438 10.7438 0 24 0C37.2562 0 48 10.7438 48 24Z" fill="#FFD15C"/>
<path d="M18.1406 14.2782C17.1656 14.4189 17.7094 15.2532 17.7094 15.2532L17.6813 15.4876C19.0781 17.897 21.3844 20.4282 23.7375 22.1157C25.4719 23.3532 26.7656 25.1814 27.3938 27.2626C28.0125 29.3157 27.9 31.4439 27.0938 33.0939C26.1188 35.0814 24.2719 36.2345 21.9094 36.347C19.5563 36.4595 16.7625 35.5314 13.6031 33.5907C13.575 33.6657 13.5375 33.7407 13.5 33.8064C16.2375 36.6282 19.4063 38.3157 22.6969 38.7001C26.025 39.0938 29.4375 38.1564 32.325 36.0845C32.25 36.0845 32.1938 36.0657 32.1469 36.0376C41.8594 28.0126 25.9594 13.1626 18.1406 14.2782Z" fill="white"/>
<path d="M43.3688 25.0688C43.3594 24.8907 43.35 24.6751 43.3125 24.422C43.1906 23.4376 42.7969 21.9282 41.6531 20.3251C41.5969 20.2501 41.5406 20.1751 41.4844 20.1001C41.475 20.0813 41.4563 20.0626 41.4469 20.0438C41.4 19.9782 41.3438 19.9126 41.2969 19.847L41.2875 19.8376C41.2313 19.772 41.175 19.697 41.1188 19.6313C41.1094 19.6126 41.0906 19.6032 41.0813 19.5845C41.0344 19.5282 40.9781 19.4626 40.9313 19.4063C40.9219 19.397 40.9219 19.397 40.9125 19.3876C40.8563 19.322 40.8 19.2657 40.7438 19.2001C40.7344 19.1907 40.7156 19.172 40.7063 19.1626C40.6594 19.1063 40.6125 19.0595 40.5656 19.0126C40.5563 19.0032 40.5469 18.9938 40.5469 18.9845C40.4906 18.9282 40.4344 18.872 40.3875 18.8251C40.3781 18.8157 40.3688 18.8063 40.35 18.7876C40.3031 18.7407 40.2563 18.6938 40.2094 18.6563C40.2 18.647 40.1906 18.6376 40.1813 18.6282C40.125 18.5813 40.0781 18.5345 40.0219 18.4876C40.0125 18.4782 40.0031 18.4688 39.9938 18.4595C39.9469 18.422 39.9 18.3845 39.8625 18.347C39.8531 18.3376 39.8438 18.3282 39.8344 18.3188C39.7875 18.272 39.7313 18.2345 39.6844 18.197C39.675 18.1876 39.6656 18.1782 39.6563 18.1688C39.6188 18.1313 39.5719 18.1032 39.5344 18.0657C39.525 18.0563 39.5063 18.047 39.4969 18.0376C39.45 18.0001 39.4031 17.9626 39.3563 17.9345C39.3469 17.9251 39.3375 17.9157 39.3281 17.9157C39.2906 17.8876 39.2531 17.8595 39.2156 17.8313C39.2063 17.822 39.1875 17.8126 39.1781 17.8032C39.1313 17.7751 39.0938 17.747 39.0469 17.7095C39.0375 17.7001 39.0281 17.6907 39.0094 17.6907C38.9719 17.672 38.9438 17.6438 38.9156 17.6251C38.8969 17.6157 38.8875 17.6063 38.8688 17.597C38.8313 17.5782 38.7938 17.5501 38.7656 17.5313C38.7469 17.522 38.7281 17.5126 38.7188 17.5032C38.6906 17.4845 38.6719 17.4751 38.6438 17.4563C38.625 17.447 38.6063 17.4376 38.5875 17.4282C38.5688 17.4188 38.5406 17.4001 38.5219 17.3907C38.4938 17.372 38.4656 17.3532 38.4281 17.3438C38.4094 17.3345 38.4 17.3251 38.3813 17.3157C38.3625 17.3063 38.3438 17.297 38.3156 17.2876C38.3063 17.2782 38.2969 17.2782 38.2875 17.2688C38.25 17.2501 38.2031 17.222 38.1656 17.2032H38.1563C37.9031 16.7532 37.6219 16.3032 37.3219 15.8532C33.825 10.7345 29.9906 8.2501 25.6125 8.24072H25.5938C23.7375 8.24072 22.0406 8.6626 20.625 9.0751C20.2219 9.19697 19.8 9.31885 19.3969 9.4501C18.3656 9.76885 17.3906 10.0782 16.5563 10.2095C16.0313 10.2938 15.6188 10.4907 15.3281 10.7907C15.0656 11.072 14.9063 11.4563 14.8594 11.9251C14.7656 12.8345 15.0938 14.0626 15.8063 15.4688C17.2406 18.3188 19.9875 21.4595 22.8 23.4751C23.1281 23.7095 23.4281 23.9626 23.7094 24.2438C23.6531 24.2532 23.5969 24.2626 23.5313 24.272C21.3281 24.5907 20.175 26.9532 19.7156 28.2376C19.5938 28.5751 19.9219 28.8751 20.2594 28.7532C21.6281 28.2938 24.4125 27.5438 25.9781 28.5095C25.9875 28.5095 26.0063 28.5001 26.0156 28.5001C26.2969 29.9063 26.1656 31.2938 25.6313 32.372C24.9281 33.7876 23.5875 34.622 21.8531 34.7063C19.8094 34.8095 17.2969 33.9376 14.3813 32.1188L14.3344 32.0907C14.3063 32.0813 14.2781 32.0626 14.2594 32.0438C16.5281 29.4657 15.1875 25.4907 14.6625 24.1876C14.5969 24.0188 14.3531 24.0188 14.2594 24.1782C13.0406 26.2501 10.5281 26.0907 10.575 28.5563C10.575 28.5563 10.575 28.5563 10.575 28.547C8.66251 26.9907 7.23751 29.0626 4.85626 28.7532C4.66876 28.7251 4.52813 28.9126 4.62188 29.072C5.34376 30.3188 7.76251 33.9751 11.3344 33.5626L11.1656 33.6845L11.8031 34.3876C14.925 37.8282 18.6375 39.8907 22.5469 40.3501C23.1094 40.4157 23.6719 40.4532 24.2344 40.4532C27.5063 40.4532 30.7594 39.3563 33.5531 37.2751C36.7594 34.8938 38.9813 31.5282 39.8156 27.8063C40.0969 26.5688 40.2094 25.3313 40.1625 24.1032C40.8656 23.822 41.6344 24.1313 42.2438 24.5438C42.2531 24.5438 42.2531 24.5532 42.2625 24.5532C42.2906 24.572 42.3094 24.5907 42.3375 24.6001C42.3469 24.6001 42.3469 24.6095 42.3563 24.6095C42.4313 24.6563 42.4969 24.7126 42.5625 24.7595C42.5719 24.7688 42.5906 24.7782 42.6 24.7876C42.6188 24.797 42.6281 24.8157 42.6469 24.8251C42.6656 24.8345 42.675 24.8532 42.6938 24.8626C42.7031 24.872 42.7219 24.8813 42.7313 24.9001C42.7594 24.9188 42.7875 24.947 42.8063 24.9657C42.8156 24.9751 42.825 24.9845 42.8344 24.9845C42.8531 25.0032 42.8719 25.022 42.8906 25.0313C42.9 25.0407 42.9094 25.0501 42.9188 25.0595C42.9375 25.0782 42.9563 25.0876 42.975 25.1063C42.9844 25.1157 42.9938 25.1157 42.9938 25.1251C43.0125 25.1438 43.0406 25.172 43.0594 25.1907C43.0688 25.2001 43.0781 25.2001 43.0781 25.2095C43.125 25.247 43.1813 25.2563 43.2281 25.2563C43.2844 25.2657 43.3781 25.1813 43.3688 25.0688ZM32.1469 36.047C32.1938 36.0751 32.25 36.0845 32.325 36.0938C29.4375 38.1751 26.025 39.1032 22.6969 38.7095C19.3969 38.3251 16.2375 36.6376 13.5 33.8157C13.5375 33.7407 13.575 33.6751 13.6031 33.6001C16.7625 35.5407 19.5563 36.4688 21.9094 36.3563C24.2719 36.2438 26.1188 35.0813 27.0938 33.1032C27.9094 31.4532 28.0125 29.3345 27.3938 27.272C26.7656 25.1907 25.4719 23.3626 23.7375 22.1251C21.375 20.4376 19.0781 17.9063 17.6813 15.497L17.7094 15.2626C17.7094 15.2626 17.1656 14.4282 18.1406 14.2876C25.9594 13.1626 41.8594 28.0126 32.1469 36.047Z" fill="black"/>
<path d="M26.2781 13.7345C26.0062 13.3501 25.4625 12.3188 27.15 12.3188C28.8375 12.3188 31.4062 14.222 31.9312 14.9251C31.7719 15.3563 30.6844 15.4501 30.1406 15.4126C29.5969 15.3751 28.6781 15.2813 27.9656 14.9251C27.2625 14.5876 26.55 14.1188 26.2781 13.7345Z" fill="white"/>
</g>
<defs>
<clipPath id="clip0_10737_15565">
<rect width="48" height="48" rx="24" fill="white"/>
</clipPath>
</defs>
</svg>
