<svg width="88" height="88" viewBox="0 0 88 88" fill="none" xmlns="http://www.w3.org/2000/svg">
<circle cx="44.3667" cy="43.6333" r="39.2333" fill="white"/>
<path fill-rule="evenodd" clip-rule="evenodd" d="M0 44C0 19.6995 19.6994 0 43.9998 0H44.2555C55.8911 0.0338573 67.0367 4.68859 75.2403 12.9402C83.4439 21.1918 88.0336 32.3644 87.9996 44C87.9996 68.3005 68.3002 88 43.9998 88C19.6994 88 0 68.3005 0 44ZM40.1645 60.9395L44.7456 45.4915L51.8835 43.4673L53.3751 38.3535L46.3436 40.4843L53.8012 15.1283V14.7235C53.7901 14.3957 53.6491 14.0857 53.4093 13.8619C53.1695 13.6381 52.8506 13.5188 52.5228 13.5303H43.041C42.3023 13.5075 41.6432 13.9909 41.4429 14.7022L32.6003 44.7458L25.5689 46.8765L23.9708 51.7772L31.0023 49.6465L24.7166 71.0605H62.2176C62.9587 71.0912 63.6222 70.6046 63.8157 69.8886L65.9464 62.5375V62.1327C65.9353 61.8049 65.7943 61.4949 65.5546 61.2711C65.3148 61.0473 64.9958 60.928 64.668 60.9395H40.1645Z" fill="#345D9D"/>
</svg>
