<svg width="120" height="120" viewBox="0 0 120 120" fill="none" xmlns="http://www.w3.org/2000/svg">
<circle cx="60.5" cy="59.5" r="53.5" fill="white"/>
<path fill-rule="evenodd" clip-rule="evenodd" d="M0 60C0 26.8629 26.8628 0 59.9997 0H60.3484C76.2151 0.046169 91.4136 6.39353 102.6 17.6457C113.787 28.8979 120.046 44.1332 119.999 60C119.999 93.1371 93.1367 120 59.9997 120C26.8628 120 0 93.1371 0 60ZM54.7697 83.0993L61.0167 62.0339L70.7503 59.2736L72.7842 52.3002L63.1959 55.2058L73.3653 20.6295V20.0775C73.3502 19.6304 73.1579 19.2078 72.8309 18.9026C72.5039 18.5974 72.069 18.4347 71.622 18.4504H58.6922C57.685 18.4193 56.7862 19.0785 56.5131 20.0484L44.455 61.017L34.8667 63.9225L32.6875 70.6053L42.2758 67.6998L33.7045 96.9007H84.8423C85.8528 96.9425 86.7576 96.279 87.0214 95.3027L89.927 85.2785V84.7264C89.9118 84.2794 89.7196 83.8567 89.3926 83.5515C89.0656 83.2463 88.6307 83.0836 88.1836 83.0993H54.7697Z" fill="#345D9D"/>
</svg>
