<svg width="24" height="25" viewBox="0 0 24 25" fill="none" xmlns="http://www.w3.org/2000/svg">
<rect y="0.0522461" width="24" height="24" rx="8" fill="#415FEE"/>
<path d="M15.9058 7.6912C15.8117 7.57306 15.669 7.50424 15.5179 7.50424L8.48205 7.50424C8.33104 7.50424 8.18827 7.57306 8.09421 7.6912L4.99042 11.5894C4.82518 11.7969 4.85259 12.0978 5.05263 12.272L11.6822 18.047C11.869 18.2097 12.1472 18.2096 12.3338 18.0467L18.9484 12.2725C19.1481 12.0981 19.1753 11.7976 19.0102 11.5902L15.9058 7.6912Z" stroke="white" stroke-width="1.00847"/>
<line y1="-0.504237" x2="14.0339" y2="-0.504237" transform="matrix(-1 0 0 1 18.9834 12.5281)" stroke="white" stroke-width="1.00847"/>
<line y1="-0.504237" x2="11.6543" y2="-0.504237" transform="matrix(-0.349038 -0.937109 -0.938383 0.345597 11.9326 18.5281)" stroke="white" stroke-width="1.00847"/>
<line y1="-0.504237" x2="11.6543" y2="-0.504237" transform="matrix(-0.349038 0.937109 -0.938383 -0.345597 15.3896 7.06738)" stroke="white" stroke-width="1.00847"/>
</svg>
